<?xml version="1.0" encoding="utf-8"?>
<!-- Generator: Adobe Illustrator 24.1.2, SVG Export Plug-In . SVG Version: 6.00 Build 0)  -->
<svg version="1.1" id="Layer_1" xmlns="http://www.w3.org/2000/svg" xmlns:xlink="http://www.w3.org/1999/xlink" x="0px" y="0px"
	 viewBox="0 0 720 720" style="enable-background:new 0 0 720 720;" xml:space="preserve">
<style type="text/css">
	.st0{display:none;}
	.st1{display:inline;}
	.st2{fill:#FFFFFF;}
	.st3{fill:#005C91;}
	.st4{fill:#65E7FA;}
	.st5{clip-path:url(#SVGID_2_);}
	.st6{opacity:0.9;}
	.st7{fill:#004E79;}
	.st8{opacity:0.4;fill:#005C91;}
	.st9{clip-path:url(#SVGID_6_);}
	.st10{opacity:0.3;}
	.st11{fill:#009DE0;}
	.st12{opacity:0.2;}
	.st13{clip-path:url(#SVGID_7_);}
	.st14{clip-path:url(#SVGID_8_);}
	.st15{fill:#F5F2EE;}
	.st16{clip-path:url(#SVGID_10_);}
	.st17{fill:none;stroke:#000000;stroke-width:1.0855;stroke-linecap:round;stroke-linejoin:round;stroke-miterlimit:10;}
	.st18{fill:none;stroke:#D5958A;stroke-width:0.9328;stroke-linecap:round;stroke-linejoin:round;stroke-miterlimit:10;}
	.st19{fill:none;stroke:#232222;stroke-width:1.1703;stroke-linecap:round;stroke-miterlimit:10;}
	.st20{fill:none;stroke:#000402;stroke-width:1.191;stroke-linecap:round;stroke-linejoin:round;stroke-miterlimit:10;}
	.st21{fill:none;stroke:#1E1C1C;stroke-width:1.258;stroke-linecap:round;stroke-miterlimit:10;}
	.st22{fill:#000402;stroke:#000402;stroke-width:0.696;stroke-linecap:round;stroke-linejoin:round;stroke-miterlimit:10;}
	.st23{fill:#040302;}
	.st24{fill:#EDB966;}
	.st25{fill:#1E1C1C;}
	.st26{opacity:0.4;}
	.st27{fill:#DE8BA5;}
	.st28{clip-path:url(#SVGID_12_);}
	.st29{clip-path:url(#SVGID_14_);}
</style>
<g class="st0">
	<g class="st1">
		<g>
			
				<ellipse transform="matrix(0.7071 -0.7071 0.7071 0.7071 -162.2607 354.5557)" class="st2" cx="346.86" cy="373.14" rx="328.86" ry="328.86"/>
		</g>
	</g>
	<g class="st1">
		<g>
			<g>
				<g>
					<circle class="st2" cx="365.63" cy="354.37" r="328.86"/>
				</g>
			</g>
			<g>
				<g>
					<rect x="329.98" y="185.62" class="st2" width="40.33" height="38.83"/>
					<g>
						<path class="st3" d="M367.8,188.13v33.82h-35.32v-33.82H367.8 M372.81,183.12h-5.01h-35.32h-5.01v5.01v33.82v5.01h5.01h35.32
							h5.01v-5.01v-33.82V183.12L372.81,183.12z"/>
					</g>
				</g>
				<path class="st4" d="M345.42,197.96c-1.07,1.74-1.21,3.83-1.26,5.86c-0.05,2.13-0.05,4.31,0.63,6.35
					c0.68,1.99,2.08,3.88,4.12,4.6c1.11,0.44,2.37,0.44,3.59,0.48c5.14,0.1,10.22,0.19,15.31,0.29v6.4h-35.32v-33.82h35.32v1.79
					c-6.44,1.41-13.18,1.74-18.85,4.94C347.55,195.64,346.24,196.61,345.42,197.96z"/>
				<g>
					<path class="st2" d="M313.1,190.54c-8.59,0-15.58-7.01-15.58-15.63c0-4.17,1.62-8.08,4.56-11.02c1.45-1.46,3.18-2.6,5.13-3.4
						c1.8-0.76,3.84-1.16,5.89-1.16h171.85c11.12,0,21.31,6.5,25.97,16.57c1.81,3.75,2.75,7.85,2.75,12.15v2.5H313.1z"/>
					<path class="st3" d="M484.95,161.82c10.51,0,19.57,6.2,23.69,15.12c1.65,3.39,2.52,7.12,2.52,11.09H313.1
						c-7.22,0-13.08-5.86-13.08-13.13c0-3.58,1.45-6.88,3.83-9.25c1.21-1.21,2.66-2.18,4.31-2.86c1.5-0.63,3.2-0.97,4.94-0.97
						H484.95 M484.95,156.81H313.1c-2.38,0-4.76,0.47-6.88,1.36c-2.22,0.92-4.23,2.24-5.92,3.94c-3.41,3.41-5.29,7.96-5.29,12.79
						c0,10,8.11,18.14,18.09,18.14h198.06h5.01v-5.01c0-4.68-1.02-9.15-3.02-13.28C508.13,163.89,497.05,156.81,484.95,156.81
						L484.95,156.81z"/>
				</g>
				<g>
					<path class="st2" d="M313.1,190.54c-8.59,0-15.58-7.01-15.58-15.63c0-4.17,1.62-8.08,4.56-11.02c1.45-1.46,3.18-2.6,5.13-3.4
						c1.8-0.76,3.84-1.16,5.89-1.16h171.85c11.12,0,21.31,6.5,25.97,16.57c1.81,3.75,2.75,7.85,2.75,12.15v2.5H313.1z"/>
					<path class="st3" d="M484.95,161.82c10.51,0,19.57,6.2,23.69,15.12c1.65,3.39,2.52,7.12,2.52,11.09H313.1
						c-7.22,0-13.08-5.86-13.08-13.13c0-3.58,1.45-6.88,3.83-9.25c1.21-1.21,2.66-2.18,4.31-2.86c1.5-0.63,3.2-0.97,4.94-0.97
						H484.95 M484.95,156.81H313.1c-2.38,0-4.76,0.47-6.88,1.36c-2.22,0.92-4.23,2.24-5.92,3.94c-3.41,3.41-5.29,7.96-5.29,12.79
						c0,10,8.11,18.14,18.09,18.14h198.06h5.01v-5.01c0-4.68-1.02-9.15-3.02-13.28C508.13,163.89,497.05,156.81,484.95,156.81
						L484.95,156.81z"/>
				</g>
				<path class="st4" d="M511.16,188.03H313.1c-7.22,0-13.08-5.86-13.08-13.13c0-3.58,1.45-6.88,3.83-9.25
					c1.21-1.21,2.66-2.18,4.31-2.86c-0.1,0.24-0.15,0.48-0.19,0.73c-0.82,4.31,1.07,9.25,5.38,10.76c1.94,0.73,4.07,0.78,6.1,0.87
					c50.1,1.65,73.79,2.52,123.89,2.33c19.09-0.05,38.23-0.29,57.31-0.68c2.66-0.05,5.33-0.05,7.99,0.15
					C510.29,180.33,511.16,184.06,511.16,188.03z"/>
				<g>
					<path class="st2" d="M297.52,261.71v-24.65c0-4.72,1.88-9.18,5.3-12.54c1.03-1.09,2.29-2.03,3.8-2.81
						c2.29-1.35,4.9-2.11,7.65-2.22c0-0.03,0.48-0.05,0.87-0.05h70.01c0.4,0,0.88,0.02,1.27,0.1c2.36,0.06,4.96,0.81,7.34,2.17
						c1.59,0.93,2.79,1.84,3.76,2.87c3.36,3.3,5.24,7.76,5.24,12.48v24.65H297.52z"/>
					<g>
						<path class="st3" d="M385.15,221.95c0.24,0,0.53,0,0.78,0.05c2.42,0.1,4.65,0.78,6.59,1.89c1.16,0.68,2.28,1.45,3.2,2.42
							c2.81,2.76,4.55,6.59,4.55,10.75v22.14H300.02v-22.14c0-4.17,1.74-7.99,4.55-10.75c0.92-0.97,1.99-1.74,3.2-2.37
							c1.99-1.16,4.17-1.84,6.59-1.94c0.24-0.05,0.53-0.05,0.77-0.05H385.15 M385.15,216.94h-70.01c-0.3,0-0.75,0-1.27,0.07
							c-3.01,0.17-5.88,1.02-8.51,2.54c-1.68,0.89-3.16,2-4.41,3.31c-3.78,3.71-5.93,8.8-5.93,14.2v22.14v5.01h5.01h100.24h5.01
							v-5.01v-22.14c0-5.4-2.15-10.49-6.05-14.33c-1.02-1.08-2.39-2.13-4.18-3.18c-2.67-1.53-5.55-2.39-8.62-2.55
							C385.89,216.94,385.44,216.94,385.15,216.94L385.15,216.94z"/>
					</g>
				</g>
				<path class="st4" d="M400.26,249.13v10.08H300.02v-22.14c0-4.17,1.74-7.99,4.55-10.75c0.92-0.97,1.99-1.74,3.2-2.37
					c1.99-1.16,4.17-1.84,6.59-1.94c0.24-0.05,0.53-0.05,0.78-0.05h0.19c-0.05,5.09,0.34,10.22,1.21,15.26
					c0.39,2.47,0.97,5.04,2.71,6.83c1.94,2.08,4.94,2.66,7.8,3.1C351.18,250.72,375.84,248.2,400.26,249.13z"/>
				<g>
					<path class="st2" d="M272.13,298.92v-23.48c0-10.36,8.43-18.78,18.78-18.78h118.46c10.36,0,18.78,8.43,18.78,18.78v23.48
						H272.13z"/>
					<g>
						<path class="st3" d="M409.37,259.15c9.01,0,16.28,7.32,16.28,16.28v20.98H274.64v-20.98c0-8.96,7.27-16.28,16.28-16.28H409.37
							 M409.37,254.15H290.91c-11.74,0-21.29,9.55-21.29,21.29v20.98v5.01h5.01h151.01h5.01v-5.01v-20.98
							C430.66,263.7,421.11,254.15,409.37,254.15L409.37,254.15z"/>
					</g>
				</g>
				<path class="st4" d="M425.65,286.96v9.45H274.64v-20.98c0-8.96,7.27-16.28,16.28-16.28h0.58c-0.34,3.63-0.73,7.22-1.11,10.8
					c-0.19,2.13-0.44,4.31,0.15,6.39c1.65,5.91,8.72,8.24,14.83,9.01c7.46,0.92,15.02,0.92,22.53,0.92
					c26.21-0.1,52.42-0.19,78.68-0.24C412.96,285.99,419.35,285.99,425.65,286.96z"/>
				<g>
					<defs>
						<circle id="SVGID_1_" cx="365.63" cy="354.37" r="328.86"/>
					</defs>
					<clipPath id="SVGID_2_">
						<use xlink:href="#SVGID_1_"  style="overflow:visible;"/>
					</clipPath>
					<g class="st5">
						<g class="st6">
							<g>
								<path class="st2" d="M232.21,819.17c-22.58,0-40.95-20.69-40.95-46.13V382.44c0-48.83,35.14-88.55,78.34-88.55h161.05
									c43.22,0,78.38,39.74,78.38,88.6v390.56c0,25.43-18.37,46.13-40.95,46.13H232.21z"/>
								<g>
									<path class="st3" d="M430.64,296.39c41.9,0,75.87,38.55,75.87,86.09v390.56c0,24.09-17.21,43.62-38.44,43.62H232.21
										c-21.23,0-38.44-19.53-38.44-43.62V382.44c0-47.52,33.95-86.05,75.83-86.05H430.64 M430.64,291.38H269.6
										c-44.58,0-80.84,40.85-80.84,91.06v390.61c0,26.81,19.49,48.63,43.45,48.63h235.87c23.96,0,43.45-21.82,43.45-48.63V382.48
										C511.52,332.25,475.24,291.38,430.64,291.38L430.64,291.38z"/>
								</g>
							</g>
							<g>
								<path class="st4" d="M316.92,309.17c-8.95-3.29-20.5-1.49-29.89-1.46c-16.59,0.06-33.59,3.26-48.04,11.73
									c-16.44,9.64-26.19,24.43-29.42,43.14c-1.24,7.19-0.65,14.36-1.41,21.55c-0.21,2-0.96,3.91-1.13,5.9
									c-0.2,2.45,1.23,5.73,0.63,8.01c3.51-14.08,7.07-28.28,13.47-41.3c6.4-13.02,15.96-24.94,28.85-31.6
									c8.95-4.62,19.03-6.49,28.94-8.31c8.8-1.61,17.61-3.23,26.41-4.84C309.26,311.27,313.19,310.55,316.92,309.17z"/>
							</g>
						</g>
						<g>
							<g>
								<path class="st7" d="M507.11,193.02H481.7c-2.23,0-4.04-1.81-4.04-4.04v-0.97h33.49v0.97
									C511.15,191.21,509.34,193.02,507.11,193.02z"/>
							</g>
						</g>
						<rect x="347.22" y="297.89" class="st3" width="5.83" height="156.4"/>
						<path class="st4" d="M232.21,798.62c-12.43,0-22.54-11.48-22.54-25.58V454.28h280.95v318.77c0,14.1-10.11,25.58-22.54,25.58
							H232.21z"/>
						<g>
							<path class="st2" d="M466.81,776.07h-2.91c-3.35,0-6.06-2.71-6.06-6.06V333.27c0-3.35,2.71-6.06,6.06-6.06h2.91
								c3.35,0,6.06,2.71,6.06,6.06v436.73C472.87,773.35,470.16,776.07,466.81,776.07z"/>
						</g>
						<rect x="347.22" y="454.29" class="st8" width="5.83" height="181.54"/>
					</g>
				</g>
				<g>
					<path class="st3" d="M365.63,690.73c-185.47,0-336.37-150.89-336.37-336.37C29.27,168.89,180.16,18,365.63,18
						S702,168.89,702,354.37C702,539.84,551.1,690.73,365.63,690.73z M365.63,33.02c-177.19,0-321.34,144.16-321.34,321.34
						c0,177.19,144.16,321.35,321.34,321.35c177.19,0,321.35-144.16,321.35-321.35C686.98,177.18,542.82,33.02,365.63,33.02z"/>
				</g>
			</g>
		</g>
	</g>
</g>
<g class="st0">
	<g class="st1">
		<g>
			
				<ellipse transform="matrix(0.7071 -0.7071 0.7071 0.7071 -162.2606 354.5558)" class="st2" cx="346.86" cy="373.14" rx="328.86" ry="328.86"/>
		</g>
	</g>
	<g class="st1">
		<g>
			<g>
				<g>
					<circle class="st2" cx="365.63" cy="354.37" r="328.86"/>
				</g>
			</g>
			<g>
				<g>
					<defs>
						<circle id="SVGID_3_" cx="365.63" cy="354.37" r="328.86"/>
					</defs>
					<clipPath id="SVGID_6_">
						<use xlink:href="#SVGID_3_"  style="overflow:visible;"/>
					</clipPath>
					<g class="st9">
						<g>
							<g>
								<g>
									<path class="st2" d="M472.47,636.79V440.67c0-44.47,29.81-83.72,71.9-96.08c-21.12-10.35-34.86-31.95-34.86-55.9
										c0-33.18,25.96-60.49,59.1-62.18c1.1-0.04,2.15-0.08,3.2-0.08c34.34,0,62.27,27.93,62.27,62.27
										c0,22.1-11.88,42.73-30.99,53.84c-1.05,0.63-2.13,1.22-3.24,1.78c16.42,4.63,31.38,13.39,43.55,25.56
										c18.91,18.91,29.33,44.06,29.33,70.8v196.13H472.47z"/>
									<g>
										<path class="st3" d="M571.81,228.92c33.02,0,59.76,26.74,59.76,59.76c0,22.09-11.95,41.34-29.74,51.68
											c-3.12,1.85-6.43,3.39-9.86,4.61c0.55,0.12,1.1,0.24,1.66,0.36c18.54,4.06,35.07,13.37,48.01,26.31
											c17.67,17.67,28.6,42.05,28.6,69.03v193.62H474.97V440.67c0-46.94,33.14-86.15,77.32-95.5
											c-23.43-8.09-40.28-30.29-40.28-56.49c0-31.99,25.13-58.07,56.72-59.68C569.76,228.96,570.79,228.92,571.81,228.92
											 M571.81,223.91c-1.09,0-2.18,0.04-3.27,0.08c-34.54,1.77-61.54,30.18-61.54,64.69c0,22.9,12.07,43.74,31.09,55.32
											c-40.18,14.38-68.13,53.08-68.13,96.67v193.62v5.01h5.01h195.26h5.01v-5.01V440.67c0-27.41-10.68-53.18-30.07-72.57
											c-11.09-11.09-24.43-19.42-39.08-24.46c18.84-11.74,30.49-32.62,30.49-54.95C636.58,252.97,607.53,223.91,571.81,223.91
											L571.81,223.91z"/>
									</g>
								</g>
								<path class="st4" d="M626.53,308.3c-6.75,18.4-22.29,33.3-40.89,39.5c-11.42,3.8-34.59,1.13-34.86,18.36
									c-0.06,3.74,0.84,7.42,1.21,11.15c0.89,8.68-2.59,20.59-7,28.04c-2.29,3.88-5.84,6.92-8.07,10.94
									c-7.02,12.68,2.29,19.64,11.04,27.86c25.67,24.11,27.1,58.31,16.48,89.91c-4.09,12.16-9.3,23.88-13.92,35.84
									c-3.59,9.3-8.06,18.84-5.42,28.89c2.45,9.32,3.97,21.91,10.87,29.09c5.45,5.68,14.96,6.43,22.43,6.43H474.97
									c0,0,0-193.62,0-193.62c0-39.71,25.39-78.12,63.45-90.89c4.63-1.55,9.25-3.1,13.88-4.66c-17.34-5.93-31.56-20.3-37.31-37.7
									c-5.75-17.4-2.89-37.42,7.5-52.51c10.39-15.09,28.07-24.91,46.37-25.76c-20.19,8.7-35.53,28.8-36.64,50.76
									c-1.11,21.96,13.23,44.33,34.26,50.75c10.87,3.32,22.85,2.46,33.42-1.73C610.47,324.75,619.63,317.33,626.53,308.3z"/>
							</g>
							<g>
								<g>
									<path class="st2" d="M277.21,636.79V440.67c0-44.47,29.81-83.72,71.9-96.08c-21.12-10.35-34.86-31.95-34.86-55.9
										c0-33.18,25.96-60.49,59.1-62.18c1.09-0.04,2.15-0.08,3.2-0.08c34.34,0,62.27,27.93,62.27,62.27
										c0,22.11-11.88,42.73-30.99,53.84c-1.05,0.63-2.13,1.22-3.23,1.78c16.42,4.63,31.38,13.39,43.55,25.56
										c18.92,18.92,29.33,44.06,29.33,70.8v196.13H277.21z"/>
									<g>
										<path class="st3" d="M376.55,228.92c33.02,0,59.76,26.74,59.76,59.76c0,22.09-11.95,41.34-29.74,51.68
											c-3.12,1.85-6.43,3.39-9.86,4.61c0.55,0.12,1.11,0.24,1.66,0.36c18.54,4.06,35.07,13.37,48.01,26.31
											c17.67,17.67,28.6,42.05,28.6,69.03v193.62H279.71V440.67c0-46.94,33.14-86.15,77.32-95.5
											c-23.43-8.09-40.27-30.29-40.27-56.49c0-31.99,25.13-58.07,56.72-59.68C374.5,228.96,375.53,228.92,376.55,228.92
											 M376.55,223.91c-1.09,0-2.18,0.04-3.27,0.08c-34.54,1.77-61.54,30.18-61.54,64.69c0,22.9,12.07,43.74,31.09,55.32
											c-40.18,14.38-68.13,53.08-68.13,96.67v193.62v5.01h5.01h195.26h5.01v-5.01V440.67c0-27.41-10.68-53.18-30.07-72.57
											c-11.09-11.09-24.43-19.42-39.08-24.46c18.84-11.74,30.49-32.62,30.49-54.95C441.32,252.97,412.27,223.91,376.55,223.91
											L376.55,223.91z"/>
									</g>
								</g>
								<path class="st4" d="M431.27,308.3c-6.75,18.4-22.29,33.3-40.89,39.5c-13.07,4.35-27.75,4.87-39.63,12.44
									c-5.69,3.62-10.38,9.32-12.04,15.92c-2.49,9.9-4.3,18.38-11.2,26.44c-2.69,3.15-5.92,6.17-6.81,10.22
									c-0.82,3.74,0.57,7.59,2.21,11.05c1.91,4.02,4.2,7.87,6.82,11.47c-6.44-2.52-12.54-3.16-19-0.4
									c-8.72,3.72-11.02,11.15-10.52,19.7c0.66,11.33-0.49,106.75,0.76,118.14c1.24,11.38,2.44,22.77,9.39,32.19
									c11.7,15.87,32.01,23.39,50.78,26.56c7.26,1.22,14.63,2.01,22.01,2.76H279.71c0,0,0-193.62,0-193.62
									c0-39.71,25.39-78.12,63.45-90.89c4.63-1.55,9.25-3.1,13.88-4.66c-17.34-5.93-31.56-20.3-37.31-37.7s-2.89-37.42,7.5-52.51
									c10.39-15.09,28.07-24.91,46.37-25.76c-20.19,8.7-35.53,28.8-36.64,50.76c-1.11,21.96,13.23,44.33,34.26,50.75
									c10.87,3.32,22.85,2.46,33.42-1.73C415.2,324.75,424.37,317.33,431.27,308.3z"/>
							</g>
							<g>
								<g>
									<path class="st2" d="M81.95,636.79V440.67c0-44.47,29.81-83.72,71.9-96.08c-21.12-10.35-34.86-31.95-34.86-55.9
										c0-33.18,25.96-60.49,59.1-62.18c1.09-0.04,2.15-0.08,3.21-0.08c34.33,0,62.26,27.93,62.26,62.27
										c0,22.1-11.87,42.73-30.99,53.84c-1.05,0.63-2.13,1.22-3.24,1.78c16.42,4.63,31.38,13.39,43.55,25.56
										c18.92,18.92,29.33,44.06,29.33,70.8v196.13H81.95z"/>
									<g>
										<path class="st3" d="M181.29,228.92c33.02,0,59.76,26.74,59.76,59.76c0,22.09-11.95,41.34-29.74,51.68
											c-3.12,1.85-6.43,3.39-9.86,4.61c0.55,0.12,1.1,0.24,1.66,0.36c18.54,4.06,35.07,13.37,48.01,26.31
											c17.67,17.67,28.6,42.05,28.6,69.03v193.62H84.45V440.67c0-46.94,33.14-86.15,77.32-95.5
											c-23.43-8.09-40.27-30.29-40.27-56.49c0-31.99,25.13-58.07,56.72-59.68C179.24,228.96,180.27,228.92,181.29,228.92
											 M181.29,223.91c-1.09,0-2.18,0.04-3.27,0.08c-34.54,1.77-61.54,30.18-61.54,64.69c0,22.9,12.07,43.74,31.09,55.32
											c-40.18,14.38-68.13,53.08-68.13,96.67v193.62v5.01h5.01h195.26h5.01v-5.01V440.67c0-27.41-10.68-53.18-30.07-72.57
											c-11.09-11.09-24.44-19.42-39.08-24.46c18.84-11.74,30.49-32.62,30.49-54.95C246.06,252.97,217.01,223.91,181.29,223.91
											L181.29,223.91z"/>
									</g>
								</g>
								<path class="st4" d="M236,308.3c-6.75,18.4-22.29,33.3-40.89,39.5c-8.25,2.75-17.26,2.78-25.38,5.92
									c-7.17,2.77-13.66,8.01-19.52,12.94c-20.11,16.91-35.46,40.7-41.55,66.35c-5.38,22.66-3.49,46.62-3.54,69.7
									c-0.05,23.06-1.93,47.11,0.58,70.08c1.24,11.38,2.44,22.77,9.39,32.19c11.7,15.87,32.01,23.39,50.78,26.56
									c7.26,1.22,14.63,2.01,22.01,2.76H84.45c0,0,0-193.62,0-193.62c0-39.71,25.39-78.12,63.45-90.89
									c4.63-1.55,9.25-3.1,13.88-4.66c-17.34-5.93-31.56-20.3-37.31-37.7s-2.89-37.42,7.5-52.51
									c10.39-15.09,28.07-24.91,46.37-25.76c-20.19,8.7-35.53,28.8-36.64,50.76c-1.11,21.96,13.23,44.33,34.26,50.75
									c10.87,3.32,22.85,2.46,33.42-1.73C219.94,324.75,229.11,317.33,236,308.3z"/>
							</g>
						</g>
						<g>
							<g>
								<g>
									<g>
										<path class="st2" d="M160.51,682.49V524.83c0-44.47,29.81-83.72,71.9-96.08c-21.12-10.35-34.86-31.95-34.86-55.9
											c0-33.18,25.96-60.49,59.1-62.18c1.1-0.04,2.15-0.08,3.2-0.08c34.34,0,62.27,27.93,62.27,62.26
											c0,22.11-11.88,42.73-30.99,53.84c-1.05,0.63-2.13,1.22-3.23,1.78c16.42,4.63,31.38,13.39,43.55,25.56
											c18.92,18.92,29.33,44.06,29.33,70.8v157.67H160.51z"/>
										<g>
											<path class="st3" d="M259.86,313.08c33.02,0,59.76,26.74,59.76,59.76c0,22.09-11.95,41.34-29.74,51.68
												c-3.12,1.85-6.43,3.39-9.86,4.62c0.55,0.12,1.1,0.24,1.66,0.36c18.54,4.06,35.07,13.37,48.01,26.31
												c17.67,17.67,28.6,42.05,28.6,69.03v155.17H163.01V524.83c0-46.94,33.14-86.15,77.32-95.5
												c-23.43-8.09-40.27-30.3-40.27-56.49c0-31.99,25.13-58.06,56.72-59.68C257.81,313.12,258.83,313.08,259.86,313.08
												 M259.86,308.07c-1.09,0-2.18,0.04-3.27,0.08c-34.54,1.77-61.54,30.18-61.54,64.69c0,22.9,12.07,43.74,31.09,55.32
												c-40.18,14.38-68.13,53.08-68.13,96.67v155.17V685h5.01h195.26h5.01v-5.01V524.83c0-27.41-10.68-53.18-30.07-72.57
												c-11.09-11.09-24.43-19.42-39.08-24.46c18.84-11.74,30.49-32.62,30.49-54.95C324.63,337.13,295.57,308.07,259.86,308.07
												L259.86,308.07z"/>
										</g>
									</g>
									<path class="st4" d="M314.59,392.46c-3.51,6.35-6.19,13.5-10.99,19.08c-5.91,6.87-12.95,12.83-21,17.04
										c-7.71,4.03-15.9,4.71-24.19,6.86c-7.99,2.07-15.76,5-23.15,8.7c-16.61,8.3-32.1,20.77-41.22,37.37
										c-9.16,16.69-8.63,35.04-10.21,53.34c-1.09,12.62-0.95,71.04,0.42,83.63c1.24,11.38,2.44,22.77,9.39,32.19
										c11.7,15.87,32.01,23.39,50.78,26.56c7.26,1.22,14.63,2.01,22.01,2.76H163.01V524.83c0-46.94,33.14-86.15,77.32-95.5
										c-23.43-8.09-40.27-30.3-40.27-56.49c0-31.99,25.13-58.07,56.72-59.68c-17.64,10.85-33.19,23.25-36.35,45.06
										c-3.61,24.91,12.27,52.5,37.81,57.72C279.54,420.3,302.08,409.78,314.59,392.46z"/>
								</g>
								<g>
									<g>
										<path class="st2" d="M374.84,682.49V524.83c0-44.47,29.81-83.72,71.9-96.08c-21.12-10.35-34.86-31.95-34.86-55.9
											c0-33.18,25.96-60.49,59.1-62.18c1.1-0.04,2.15-0.08,3.2-0.08c34.34,0,62.27,27.93,62.27,62.26
											c0,22.11-11.88,42.73-30.99,53.84c-1.05,0.63-2.13,1.22-3.24,1.78c16.42,4.63,31.38,13.39,43.55,25.56
											c18.92,18.92,29.33,44.06,29.33,70.8v157.67H374.84z"/>
										<g>
											<path class="st3" d="M474.18,313.08c33.02,0,59.76,26.74,59.76,59.76c0,22.09-11.95,41.34-29.74,51.68
												c-3.12,1.85-6.43,3.39-9.86,4.62c0.55,0.12,1.1,0.24,1.66,0.36c18.54,4.06,35.07,13.37,48.01,26.31
												c17.67,17.67,28.6,42.05,28.6,69.03v155.17H377.34V524.83c0-46.94,33.14-86.15,77.32-95.5
												c-23.43-8.09-40.27-30.3-40.27-56.49c0-31.99,25.13-58.06,56.72-59.68C472.13,313.12,473.16,313.08,474.18,313.08
												 M474.18,308.07c-1.09,0-2.18,0.04-3.27,0.08c-34.54,1.77-61.54,30.18-61.54,64.69c0,22.9,12.07,43.74,31.09,55.32
												c-40.18,14.38-68.13,53.08-68.13,96.67v155.17V685h5.01H572.6h5.01v-5.01V524.83c0-27.41-10.68-53.18-30.07-72.57
												c-11.09-11.09-24.44-19.42-39.08-24.46c18.84-11.74,30.49-32.62,30.49-54.95C538.95,337.13,509.9,308.07,474.18,308.07
												L474.18,308.07z"/>
										</g>
									</g>
									<path class="st4" d="M528.9,392.45c-6.75,18.4-22.29,33.3-40.89,39.49c-8.62,2.87-17.69,4.02-26.38,6.64
										c-6.41,1.93-14.11,4.11-18.88,9.11c-4.01,4.2-4.68,9.66-4.92,15.09c-0.27,6.44-3.24,12.48-6.6,17.84
										c-3.61,5.74-8.29,11.33-10.57,17.79c-2.16,6.11,2.48,12.99,6.27,17.61c3.43,4.19,7.26,8.06,11.42,11.54
										c-8.98-1.52-18.58,0.08-26.2,5.07c-15.99,10.46-14.1,28.57-14.15,45.26c-0.04,13.4-0.86,27.24,0.6,40.59
										c1.24,11.38,2.44,22.77,9.39,32.19c11.7,15.87,32.01,23.39,50.78,26.56c7.26,1.22,14.63,2.01,22.01,2.76H377.34
										c0,0,0-155.16,0-155.17c0-39.72,25.39-78.12,63.45-90.89c4.63-1.55,9.25-3.1,13.88-4.66c-17.34-5.93-31.56-20.3-37.31-37.7
										c-5.75-17.4-2.89-37.42,7.5-52.51c10.39-15.1,28.07-24.91,46.37-25.76c-20.19,8.7-35.53,28.8-36.64,50.76
										s13.23,44.34,34.26,50.75c10.87,3.32,22.85,2.46,33.42-1.73C512.83,408.9,522,401.49,528.9,392.45z"/>
								</g>
							</g>
							<g>
								<g>
									<path class="st2" d="M267.67,707.8V595.83c0-44.47,29.82-83.72,71.9-96.09c-21.13-10.35-34.86-31.95-34.86-55.9
										c0-33.17,25.96-60.49,59.1-62.18c1.09-0.04,2.14-0.08,3.2-0.08c34.33,0,62.26,27.93,62.26,62.27
										c0,22.11-11.87,42.74-30.99,53.84c-1.05,0.63-2.13,1.22-3.24,1.78c16.42,4.63,31.38,13.39,43.55,25.56
										c18.91,18.91,29.33,44.06,29.33,70.8V707.8H267.67z"/>
									<g>
										<path class="st3" d="M367.02,384.08c33.02,0,59.76,26.74,59.76,59.76c0,22.09-11.95,41.34-29.74,51.68
											c-3.12,1.85-6.43,3.39-9.86,4.61c0.55,0.12,1.1,0.24,1.66,0.35c18.54,4.06,35.07,13.37,48.01,26.31
											c17.67,17.67,28.6,42.05,28.6,69.03v109.46H270.18V595.83c0-46.94,33.14-86.15,77.32-95.5
											c-23.43-8.09-40.27-30.3-40.27-56.49c0-31.99,25.13-58.07,56.72-59.68C364.97,384.12,365.99,384.08,367.02,384.08
											 M367.02,379.07c-1.09,0-2.18,0.04-3.27,0.08c-34.54,1.77-61.54,30.18-61.54,64.69c0,22.9,12.07,43.74,31.09,55.32
											c-40.18,14.38-68.13,53.08-68.13,96.67v109.46v5.01h5.01h195.26h5.01v-5.01V595.83c0-27.41-10.68-53.18-30.07-72.57
											c-11.09-11.09-24.44-19.42-39.08-24.46c18.84-11.74,30.49-32.62,30.49-54.95C431.79,408.13,402.73,379.07,367.02,379.07
											L367.02,379.07z"/>
									</g>
								</g>
								<path class="st4" d="M421.75,463.46c-3.51,6.35-6.19,13.5-10.98,19.08c-5.91,6.87-12.95,12.83-21,17.04
									c-7.71,4.03-15.9,4.71-24.19,6.86c-7.99,2.07-15.76,5-23.15,8.7c-16.61,8.3-32.1,20.77-41.22,37.37
									c-9.16,16.69-8.63,35.04-10.21,53.34c-1.09,12.62-0.95,25.34,0.42,37.93c1.24,11.38,2.44,22.77,9.39,32.19
									c11.7,15.87,32.01,23.39,50.78,26.56c7.26,1.22,14.63,2.01,22.01,2.76H270.18V595.83c0-46.94,33.14-86.15,77.32-95.5
									c-23.43-8.09-40.27-30.29-40.27-56.49c0-31.99,25.13-58.07,56.72-59.68c-17.64,10.85-33.19,23.25-36.35,45.06
									c-3.61,24.91,12.27,52.5,37.81,57.72C386.71,491.3,409.25,480.79,421.75,463.46z"/>
							</g>
						</g>
					</g>
					<g class="st9">
						<g class="st10">
							
								<rect x="323.89" y="-93.6" transform="matrix(0.7071 -0.7071 0.7071 0.7071 -143.4836 362.3355)" class="st11" width="83.49" height="895.93"/>
						</g>
						<g class="st12">
							<polygon class="st11" points="662.62,690.89 652.88,700.63 19.36,67.15 29.14,57.37 							"/>
						</g>
					</g>
				</g>
				<g>
					<path class="st3" d="M365.63,690.73c-185.47,0-336.36-150.89-336.36-336.37C29.27,168.89,180.16,18,365.63,18
						C551.1,18,702,168.89,702,354.37C702,539.84,551.1,690.73,365.63,690.73z M365.63,33.02c-177.19,0-321.34,144.16-321.34,321.34
						c0,177.19,144.15,321.35,321.34,321.35s321.35-144.16,321.35-321.35C686.98,177.18,542.82,33.02,365.63,33.02z"/>
				</g>
			</g>
		</g>
	</g>
</g>
<g class="st0">
	<g class="st1">
		<g>
			
				<ellipse transform="matrix(0.7071 -0.7071 0.7071 0.7071 -162.261 354.5555)" class="st2" cx="346.86" cy="373.14" rx="328.86" ry="328.86"/>
		</g>
	</g>
	<g class="st1">
		<g>
			<g>
				<g>
					
						<ellipse transform="matrix(0.7071 -0.7071 0.7071 0.7071 -143.484 362.3332)" class="st2" cx="365.63" cy="354.37" rx="328.86" ry="328.86"/>
				</g>
			</g>
			<g>
				<g>
					<path class="st3" d="M365.63,690.74c-185.47,0-336.37-150.9-336.37-336.37S180.16,18,365.63,18C551.11,18,702,168.9,702,354.37
						S551.11,690.74,365.63,690.74z M365.63,33.02c-177.19,0-321.34,144.16-321.34,321.35c0,177.19,144.16,321.35,321.34,321.35
						c177.19,0,321.35-144.16,321.35-321.35C686.98,177.18,542.82,33.02,365.63,33.02z"/>
				</g>
				<g>
					<g>
						<g>
							<path class="st2" d="M184.65,431.09c-2.45,0-4.89-0.29-7.23-0.86c-9.99-2.51-18.29-10.06-21.68-19.72
								c-2.35-6.67-2.3-13.69-2.24-20.47c0.04-5.54,0.08-10.78-1.08-15.84c-0.74-3.25-1.97-6.36-3.27-9.65
								c-0.74-1.87-1.48-3.74-2.13-5.65c-3.78-11.18-4.31-23.64-1.52-35.08c1.69-6.89,5.44-15.91,13.75-19.71
								c2.89-1.33,6.27-1.98,10.33-1.98l0.58,0.01c4.16,0.11,8.15,0.86,11.88,2.24l1.07,0.39l0.41,1.06
								c1.64,4.28,3.54,8.6,5.82,13.21c5.33,10.75,9,22.17,10.93,33.94c1.82,11.18,2.11,22.36,0.86,33.27
								c0.47-0.22,0.93-0.48,1.37-0.8l3.93-2.81l0.23,39.61l-0.81,0.75c-2.08,1.92-4.42,3.52-6.96,4.73
								C194.52,429.93,189.59,431.09,184.65,431.09z"/>
							<g>
								<path class="st3" d="M169.58,304.65c0.18,0,0.36,0,0.54,0c3.78,0.1,7.51,0.77,11.05,2.08c1.65,4.31,3.59,8.72,5.91,13.42
									c5.18,10.46,8.82,21.71,10.71,33.24c1.94,11.92,2.13,24.13,0.39,36.09c2.08-0.05,4.07-0.78,5.76-1.99l0.19,33.67
									c-1.89,1.74-4.02,3.2-6.35,4.31c-4.06,2.05-8.6,3.11-13.13,3.11c-2.23,0-4.46-0.26-6.64-0.79
									c-9.06-2.28-16.81-9.3-19.91-18.12c-4.02-11.43-0.53-24.22-3.25-36.05c-1.21-5.33-3.68-10.32-5.47-15.55
									c-3.63-10.76-4.17-22.58-1.45-33.67c1.79-7.32,5.47-14.87,12.35-18.02C163.17,305.06,166.4,304.65,169.58,304.65
									 M169.58,299.64c-4.44,0-8.17,0.72-11.39,2.21c-7.28,3.33-12.51,10.73-15.12,21.38c-2.91,11.9-2.35,24.85,1.57,36.47
									c0.67,1.96,1.43,3.87,2.18,5.78c1.27,3.2,2.46,6.23,3.16,9.28c1.1,4.79,1.06,9.88,1.02,15.27c-0.05,7-0.11,14.24,2.39,21.32
									c3.67,10.44,12.64,18.61,23.42,21.31c2.58,0.63,5.21,0.94,7.86,0.94c5.33,0,10.65-1.26,15.38-3.65
									c2.67-1.28,5.22-3.01,7.49-5.1l1.62-1.5l-0.01-2.21l-0.19-33.67l-0.06-9.66l-4.8,3.43c0.65-9.45,0.2-19.05-1.36-28.65
									c-1.97-12.02-5.73-23.68-11.16-34.65c-2.24-4.53-4.11-8.78-5.72-12.98l-0.81-2.12l-2.13-0.79
									c-3.99-1.47-8.25-2.28-12.66-2.39L169.58,299.64L169.58,299.64z"/>
							</g>
						</g>
						<path class="st4" d="M204.13,421.17c-1.89,1.74-4.02,3.2-6.35,4.31c-6.06,3.05-13.18,3.92-19.77,2.33
							c-9.06-2.28-16.81-9.3-19.91-18.12c-2.97-8.45-1.49-17.32-1.54-26.07c0.01,2.04,1.17,3.67,2.09,5.34
							c1.32,2.38,2.3,5.02,3.42,7.5c1.14,2.5,2.38,5.13,4.65,6.68c2.29,1.57,5.24,1.75,8.01,1.76c4.94,0.02,10.59-0.74,13.39-4.81
							c1.4-2.03,1.83-4.56,2.02-7.02c0.21-2.64,0.16-5.42-1.12-7.74c-1.22-2.22-3.41-3.71-5.04-5.65
							c-2.53-2.99-3.67-7.01-3.55-10.93c0.11-3.92,1.41-7.73,3.29-11.17c0.96-1.75,2.07-3.43,2.88-5.26
							c1.49-3.38,1.87-7.24,1.06-10.84c-0.62-2.75-1.98-5.42-4.24-7.11c-1.96-1.46-4.43-2.07-6.86-2.32
							c-5.14-0.53-10.55,0.48-14.74,3.49c-4.19,3.01-6.97,8.18-6.43,13.31c-0.36-4.77,0.32-9.61,1.97-14.09
							c0.63-1.72,1.41-3.39,2.41-4.93c4.86-7.47,15.26-10.76,23.53-7.44c-1.39-5.05-4.8-9.51-9.32-12.17
							c-4.52-2.65-10.08-3.47-15.16-2.22c2.74-2.6,8.38-3.63,12.03-3.51c1.45,0.05,9.78,0.82,10.33,2.24
							c1.65,4.31,3.59,8.72,5.91,13.42c5.18,10.46,8.82,21.71,10.71,33.24c1.94,11.92,2.13,24.13,0.39,36.09
							c2.08-0.05,4.07-0.78,5.76-1.99L204.13,421.17z"/>
						<g>
							<path class="st2" d="M546.63,431.09c-4.93,0-9.85-1.17-14.24-3.38c-2.56-1.23-4.92-2.82-6.97-4.71l-0.81-0.75l0.25-38.99
								l4.97-0.4c0.27,1.63,0.47,3.26,0.65,4.88h1.88c-2.2-12.97-0.51-50.61-0.46-51.01c1.27-9.84,4.74-18.95,7.8-26.98L540,309
								l0.69-0.44c6.13-3.99,13.37-6.26,20.4-6.42l0.59-0.01c4.06,0,7.45,0.65,10.34,1.98c8.34,3.82,12.1,12.82,13.79,19.7
								c2.76,11.48,2.2,23.93-1.56,35.07c-0.67,2-1.45,3.98-2.23,5.96c-1.27,3.19-2.46,6.21-3.18,9.35
								c-1.16,5.07-1.11,10.3-1.06,15.85c0.06,6.78,0.13,13.8-2.22,20.47c-3.45,9.67-11.77,17.22-21.71,19.72
								C551.51,430.81,549.08,431.09,546.63,431.09z"/>
							<g>
								<path class="st3" d="M561.68,304.65c3.17,0,6.41,0.42,9.3,1.75c6.88,3.15,10.61,10.71,12.4,18.02
									c2.66,11.09,2.13,22.92-1.5,33.67c-1.74,5.23-4.26,10.22-5.47,15.55c-2.71,11.82,0.82,24.61-3.2,36.05
									c-3.15,8.82-10.9,15.84-19.96,18.12c-2.16,0.53-4.38,0.79-6.6,0.79c-4.52,0-9.06-1.07-13.11-3.11
									c-2.33-1.11-4.51-2.57-6.4-4.31l0.24-37.89c0.39,2.33,0.63,4.65,0.87,6.98h7.61c-3.1,0-2.04-48.59-1.45-53.2
									c1.21-9.35,4.41-17.88,7.66-26.4c5.67-3.68,12.35-5.86,19.09-6.01C561.32,304.65,561.5,304.65,561.68,304.65 M561.68,299.64
									l-0.61,0c-7.63,0.17-15.13,2.52-21.74,6.82l-1.37,0.89l-0.58,1.53c-3.11,8.16-6.63,17.41-7.94,27.54
									c-0.05,0.37-1.6,29.64-0.12,46.28l-6.95,0.55l-0.24,37.89l-0.01,2.21l1.62,1.5c2.23,2.06,4.8,3.79,7.63,5.15
									c4.64,2.34,9.96,3.6,15.28,3.6c2.65,0,5.27-0.31,7.79-0.93c10.77-2.71,19.76-10.87,23.49-21.3
									c2.5-7.11,2.43-14.35,2.37-21.34c-0.05-5.4-0.1-10.49,1-15.27c0.67-2.96,1.83-5.89,3.06-8.99c0.78-1.96,1.58-4,2.28-6.1
									c3.91-11.56,4.48-24.5,1.62-36.42c-1.82-7.44-5.93-17.17-15.19-21.41C569.84,300.36,566.12,299.64,561.68,299.64
									L561.68,299.64z"/>
							</g>
						</g>
						<path class="st4" d="M525.16,421.17c1.89,1.74,4.02,3.2,6.35,4.31c6.06,3.05,13.18,3.92,19.77,2.33
							c9.06-2.28,16.81-9.3,19.91-18.12c2.97-8.45,1.49-17.32,1.54-26.07c-0.01,2.04-1.17,3.67-2.09,5.34
							c-1.32,2.38-2.3,5.02-3.42,7.5c-1.14,2.5-2.38,5.13-4.65,6.68c-2.29,1.57-5.24,1.75-8.01,1.76
							c-4.94,0.02-10.59-0.74-13.39-4.81c-1.4-2.03-1.83-4.56-2.02-7.02c-0.21-2.64-0.16-5.42,1.12-7.74
							c1.22-2.22,3.41-3.71,5.04-5.65c2.53-2.99,3.67-7.01,3.55-10.93c-0.11-3.92-1.41-7.73-3.29-11.17
							c-0.96-1.75-2.07-3.43-2.88-5.26c-1.49-3.38-1.87-7.24-1.06-10.84c0.62-2.75,1.98-5.42,4.24-7.11
							c1.96-1.46,4.43-2.07,6.86-2.32c5.14-0.53,10.55,0.48,14.74,3.49c4.2,3.01,6.97,8.18,6.43,13.31
							c0.36-4.77-0.32-9.61-1.97-14.09c-0.63-1.72-1.41-3.39-2.41-4.93c-4.86-7.47-15.26-10.76-23.53-7.44
							c1.39-5.05,4.8-9.51,9.32-12.17c4.52-2.65,10.08-3.47,15.16-2.22c-2.74-2.6-8.38-3.63-12.03-3.51
							c-1.45,0.05-9.78,0.82-10.33,2.24c-1.65,4.31-3.59,8.72-5.91,13.42c-5.18,10.46-8.82,21.71-10.71,33.24
							c-1.94,11.92-2.13,24.13-0.39,36.09c-2.08-0.05-4.07-0.78-5.76-1.99L525.16,421.17z"/>
					</g>
					<g>
						<path class="st2" d="M365.65,620.42c-47.27,0-89.95-37.43-121.84-70.03c-10.79-11.11-18.83-19.83-25.61-29
							c-16.07-21.45-22.92-42.78-22.92-71.3v-96.7l4.97-0.4c1.82,11.18,2.11,22.35,0.86,33.27c0.47-0.22,0.93-0.48,1.37-0.8
							c2.02-1.36,3.71-3.57,4.69-6.09c1.67-4.24,1.62-9.21,1.57-14.01c-0.29-21.96,0.33-44.03,1.84-65.96
							c0.61-8.37,1.59-16.37,6.94-22.29c1.69-1.91,3.68-3.4,5.61-4.84c0.82-0.61,1.63-1.22,2.42-1.86
							c9.1-7.47,13.74-19.79,11.81-31.37l-0.01-0.04l4.94-0.83l-2.39,0.45l2.4-0.4c5.45,32.48,49.16,53.02,85.21,59.87
							c-2.97-2.9-5.24-6.52-6.46-10.52l4.64-1.83c2.8,5.71,9.18,9.88,19.5,12.75c11.86,3.28,24.92,4.88,39.94,4.88
							c15.32,0,31.17-1.65,46.49-3.24c15.56-1.62,31.64-3.29,47.44-3.29l1.42,0c4.84,0.05,10.33,0.4,14.35,3.85
							c5.29,4.5,5.35,11.25,5.42,17.78c0.03,2.85,0.06,5.53,0.5,8c0.99,5.41,4.4,10.32,9.13,13.11c0.83,0.49,1.7,0.93,2.57,1.37
							c2.25,1.13,4.57,2.31,6.42,4.32c2.13,2.3,3.22,5.17,4.08,7.93c3.2,9.73,5.52,19.75,6.88,29.77c0.26,1.58,0.46,3.19,0.64,4.81
							h5.53v62.34c0,28.94-7.06,51.35-22.88,72.66c-9.77,13.19-22.48,25.22-33.62,35.25C450.24,584.35,410.12,620.42,365.65,620.42z
							"/>
						<g>
							<path class="st3" d="M239.83,238.57c0,0.01,0,0.03,0.01,0.04C239.84,238.59,239.83,238.58,239.83,238.57 M239.84,238.61
								c6.77,40.38,67.06,60.81,101.83,64.01c-8.38-1.31-15.75-7.7-18.22-15.79c3.83,7.8,12.69,11.72,21.07,14.05
								c13.33,3.69,26.91,4.97,40.62,4.97c30.97,0,62.66-6.53,93.92-6.53c0.47,0,0.94,0,1.41,0.01c4.46,0.05,9.35,0.34,12.74,3.25
								c6.49,5.52,3.59,15.94,5.09,24.32c1.11,6.1,4.99,11.68,10.32,14.83c2.86,1.7,6.2,2.81,8.43,5.23
								c1.79,1.94,2.76,4.51,3.54,6.98c3.15,9.59,5.43,19.38,6.78,29.36c0.39,2.33,0.63,4.65,0.87,6.98h5.28v59.83
								c0,30.52-8.14,51.98-22.38,71.17c-8.87,11.97-20.15,23.06-33.28,34.88c-29.75,26.74-69.09,61.77-112.21,61.77
								c-47.04,0-89.58-38.13-120.06-69.28c-9.79-10.08-18.36-19.23-25.39-28.73c-14.29-19.09-22.43-39.29-22.43-69.81v-96.7
								c1.94,11.92,2.13,24.13,0.39,36.09c2.08-0.05,4.07-0.78,5.76-1.99c2.52-1.7,4.46-4.36,5.57-7.22
								c1.89-4.8,1.79-10.13,1.74-15.31c-0.29-21.8,0.34-43.65,1.84-65.41c0.53-7.36,1.36-15.31,6.3-20.78
								c2.23-2.52,5.14-4.31,7.75-6.44C236.87,264.35,241.9,251,239.84,238.61 M244.78,237.78l-1.54,0.26l-3.41,0.53l-4.94,0.84
								l5.32-0.87l-5.32,0.89c1.76,10.55-2.64,22.22-10.94,29.03c-0.75,0.61-1.53,1.2-2.32,1.78c-2.03,1.52-4.13,3.09-6.01,5.21
								c-6.33,7.01-7.06,17.08-7.54,23.74c-1.52,22-2.14,44.15-1.85,65.83l0,0.34c0.05,4.78,0.09,9.29-1.4,13.06
								c-0.2,0.5-0.42,0.98-0.68,1.45c0.52-9.01,0.04-18.16-1.45-27.3l-9.95,0.8v96.7c0,29.1,7.01,50.88,23.43,72.81
								c6.84,9.25,14.95,18.04,25.8,29.22c32.25,32.97,75.44,70.8,123.65,70.8c45.42,0,85.95-36.44,115.55-63.05
								c11.24-10.12,24.06-22.26,33.96-35.63c16.16-21.77,23.37-44.64,23.37-74.15v-59.83v-5.01h-5.01h-0.81
								c-0.12-0.92-0.25-1.85-0.41-2.79c-1.36-10-3.71-20.18-6.96-30.1c-0.89-2.83-2.15-6.14-4.62-8.81
								c-2.15-2.34-4.8-3.68-7.13-4.85c-0.82-0.41-1.64-0.82-2.42-1.28c-4.06-2.4-7.1-6.77-7.95-11.42
								c-0.4-2.25-0.43-4.83-0.46-7.57c-0.07-6.76-0.15-14.42-6.31-19.66c-4.65-3.99-10.66-4.38-15.93-4.44l-1.46,0
								c-15.92,0-32.07,1.68-47.69,3.3c-15.26,1.59-31.04,3.23-46.23,3.23c-14.79,0-27.64-1.57-39.28-4.79
								c-9.59-2.66-15.45-6.4-17.92-11.43l-9.28,3.67c0.64,2.09,1.54,4.08,2.65,5.93C287.55,286.43,249.7,267.14,244.78,237.78
								L244.78,237.78z"/>
						</g>
					</g>
					<g>
						<path class="st2" d="M525.75,390.51c-1.19-12.15-3.72-24.19-7.51-35.79c-0.76-2.32-1.56-4.54-3-6.08
							c-1.26-1.35-3.07-2.26-5-3.23c-0.98-0.49-1.95-0.98-2.89-1.53c-5.97-3.53-10.28-9.72-11.5-16.56
							c-0.52-2.88-0.55-5.91-0.59-8.83c-0.06-5.65-0.13-10.99-3.68-14.02c-2.8-2.39-7.21-2.62-11.12-2.64l-1.41,0
							c-15.53,0-31.48,1.66-46.91,3.26c-15.44,1.61-31.41,3.27-46.99,3.27c-15.49,0-29.01-1.66-41.32-5.07
							c-0.71-0.2-1.41-0.4-2.09-0.61l-0.31,2.46c-32.29-2.97-83.35-19.66-99.59-52.41c-1.88,8.35-6.47,16.1-13.13,21.57
							c-0.87,0.71-1.76,1.38-2.66,2.05c-1.78,1.33-3.46,2.59-4.81,4.1c-4.3,4.82-5.13,11.87-5.65,19.29
							c-1.51,21.63-2.14,43.58-1.87,65.24c0.07,5.49,0.14,11-1.87,16.22c-2.03,5.27-7.03,10.65-13.62,10.8l-2.96,0.07l0.42-2.93
							c3.31-22.96-0.54-47.05-10.85-67.84c-8.81-17.76-12.63-31.78-14.08-51.71c-1.34-18.43-0.94-34.74,1.23-49.87
							c1.63-11.3,4.62-22.18,8.91-32.33c7.27-17.21,21.32-38.58,46.98-42.68c0.95-0.15,1.92-0.22,2.89-0.3
							c2.57-0.19,4.21-0.37,5.44-1.56c1.56-1.51,2.63-3.59,3.76-5.8l0.57-1.12c10.9-20.83,33.44-36.53,60.3-42
							c18.24-3.72,38.21-5.6,59.38-5.6c7.37,0,15.06,0.23,22.86,0.68l0.74,0.05c0.37,0.03,0.74,0.06,1.1,0.06
							c52.98,3.36,103.91,30.79,136.41,73.38c28.6,37.48,39.35,82.33,30.27,126.31c-1.63,7.9-4.42,15.28-7.11,22.41
							c-3.3,8.75-6.41,17.01-7.62,26.18c-0.68,5.2-1.32,47.02,0.73,51.28c-0.14-0.3-0.76-0.92-1.74-0.92v5.01l-9.9,0.01
							L525.75,390.51z"/>
						<g>
							<path class="st3" d="M360.23,90.82c7.58,0,15.16,0.24,22.71,0.67c0.66,0.04,1.33,0.12,1.99,0.12
								c97.19,6.18,185.16,95.3,164.22,196.68c-3.52,17.03-12.49,31.5-14.75,48.78c-0.6,4.6-1.64,53.2,1.47,53.2
								c-2.54,0-5.09,0-7.63,0c-1.21-12.34-3.77-24.54-7.63-36.32c-0.82-2.51-1.75-5.08-3.54-7.01c-2.26-2.43-5.58-3.52-8.44-5.21
								c-5.35-3.16-9.22-8.73-10.31-14.84c-1.51-8.39,1.38-18.78-5.1-24.32c-3.4-2.91-8.25-3.21-12.73-3.24c-0.47,0-0.94,0-1.42,0
								c-31.26,0-62.94,6.53-93.9,6.53c-13.72,0-27.31-1.28-40.66-4.99c-8.38-2.32-17.22-6.22-21.03-14.04
								c2.47,8.1,9.83,14.49,18.19,15.81c-34.81-3.2-95.09-23.64-101.83-64.08c2.06,12.43-2.97,25.8-12.72,33.79
								c-2.6,2.13-5.51,3.92-7.75,6.42c-4.91,5.5-5.76,13.42-6.28,20.78c-1.52,21.78-2.15,43.62-1.87,65.44
								c0.07,5.16,0.16,10.48-1.7,15.29c-1.86,4.82-6.18,9.07-11.34,9.19c3.39-23.51-0.53-48.02-11.09-69.3
								c-8.68-17.5-12.41-31.39-13.82-50.79c-1.19-16.41-1.13-33.02,1.22-49.32c1.56-10.87,4.47-21.6,8.74-31.72
								c8.42-19.94,22.71-37.61,45.07-41.18c3.39-0.54,7.06,0.01,9.67-2.52c2.16-2.09,3.42-4.9,4.81-7.56
								c11.48-21.94,34.79-35.86,58.57-40.71C320.67,92.43,340.46,90.82,360.23,90.82 M360.23,85.81l0,5.01L360.23,85.81
								c-21.33,0-41.48,1.9-59.88,5.65c-27.59,5.62-50.77,21.8-62.01,43.29l-0.6,1.15c-1.03,2.01-2,3.91-3.26,5.13
								c-0.6,0.58-1.86,0.7-3.88,0.85c-1.04,0.08-2.08,0.16-3.1,0.32c-21.21,3.39-38.12,18.67-48.89,44.18
								c-4.37,10.35-7.43,21.44-9.08,32.95c-2.2,15.3-2.61,31.79-1.26,50.4c1.48,20.29,5.36,34.56,14.33,52.65
								c10.08,20.33,13.85,43.9,10.62,66.37l-0.84,5.85l5.91-0.13c7.75-0.18,13.57-6.35,15.9-12.4c2.18-5.66,2.11-11.67,2.04-16.98
								c-0.27-21.78,0.35-43.66,1.86-65.21c0.49-6.96,1.24-13.56,5.02-17.79c1.18-1.33,2.77-2.51,4.44-3.76
								c0.93-0.69,1.86-1.39,2.75-2.12c5.54-4.55,9.73-10.56,12.26-17.21c19.26,30.25,67.52,45.76,98.66,48.62l0.3-2.41
								c0.54,0.16,1.1,0.32,1.66,0.48c12.53,3.48,26.27,5.17,41.99,5.17c15.71,0,31.74-1.67,47.25-3.28
								c15.36-1.6,31.25-3.25,46.65-3.25l1.38,0c3.47,0.02,7.35,0.2,9.51,2.04c2.51,2.14,2.73,6.02,2.8,12.15
								c0.04,3.03,0.07,6.16,0.63,9.24c1.35,7.54,6.1,14.37,12.69,18.27c0.98,0.58,2.01,1.1,3.03,1.61c1.79,0.9,3.34,1.67,4.29,2.7
								c1.09,1.17,1.78,3.1,2.45,5.15c3.74,11.43,6.23,23.29,7.4,35.25l0.44,4.52l4.54,0l7.63,0l0-5.01l0-5.01h0
								c2.39,0,3.79,1.71,4.07,2.49c-1.81-5.21-1.18-45.35-0.57-50.03c1.17-8.88,4.23-17.01,7.47-25.61
								c2.73-7.23,5.55-14.71,7.22-22.8c9.23-44.69-1.68-90.27-30.73-128.33c-32.93-43.16-84.55-70.95-138.08-74.35l-0.16-0.01
								h-0.16c-0.3,0-0.6-0.03-0.89-0.05l-0.81-0.06C375.39,86.04,367.65,85.81,360.23,85.81L360.23,85.81z"/>
						</g>
					</g>
					<path class="st4" d="M341.67,302.63c-8.36-1.31-15.72-7.71-18.19-15.81c3.81,7.82,12.65,11.71,21.03,14.04
						c43.9,12.18,90.41-1.83,135.97-1.54c4.47,0.03,9.33,0.34,12.73,3.24c6.48,5.54,3.6,15.92,5.1,24.32
						c1.1,6.12,4.96,11.68,10.31,14.84c2.86,1.69,6.18,2.78,8.44,5.21c1.8,1.93,2.72,4.5,3.54,7.01
						c3.85,11.78,6.42,23.98,7.63,36.32c2.55,0,5.09,0,7.63,0c-3.11,0-2.07-48.59-1.47-53.2c2.27-17.28,11.24-31.75,14.75-48.78
						c4.02-19.46,4.79-40.98-0.04-60.4c-1.95-7.83-5.72-15.53-10.6-22.04c-2.6-3.46-5.58-6.65-8.88-9.46
						c-1.93-1.65-7.6-4.09-8.68-6.12c4.34,8.14,8.71,16.33,11.61,25.08c6.7,20.21,5.25,42.1,3.72,63.34
						c2.93-6.68,0.68-14.79-4.02-20.37c-4.7-5.58-11.45-9.02-18.27-11.6c5.91,7.39,9.7,16.45,10.82,25.84
						c-7.18-11.67-22.23-15.55-35.88-16.68c-14.36-1.19-28.83-0.48-43.16-2.01c-19.63-2.1-38.8-8.47-55.78-18.54
						c12.72,12.64,27.8,22.9,44.23,30.07c-15.63-2.44-31.23-5.09-46.79-7.95c-17.87-3.28-35.76-7.32-52.55-14.41
						c-8.25-3.49-16.2-7.71-23.58-12.81c-3.78-2.61-7.42-5.45-10.87-8.49c-1.96-1.73-8.28-5.92-8.89-8.58
						c2.77,11.98,6.65,21.43,13.93,31.31c6.17,8.38,13.99,15.85,23.34,20.55c-5.51-2.77-12.96-3.15-18.83-5.71
						c-5.5-2.41-10.8-5.39-15.73-8.82c-10.41-7.25-19.27-16.66-26.23-27.25c-9.27-14.1-15.23-30.24-18.44-46.8
						c-2.03-10.45-2.98-21.2-1.48-31.74c1.49-10.54,5.56-20.87,12.66-28.8c-6.54,7.33-13.33,12.24-17.99,21.16
						c-1.39,2.66-2.65,5.47-4.81,7.56c-2.62,2.54-6.28,1.98-9.67,2.52c-6.5,1.04-12.74,3.39-18.32,6.9
						c-4.58,2.88-8.13,7.88-13.28,9.79c7.1-2.64,15.78-0.14,20.39,5.88c1.95,2.54,3.17,5.56,4.23,8.58
						c5.28,15.04,7.03,31.1,7.36,47.04c0.16,7.67-0.01,15.43-1.88,22.87c-1.86,7.44-5.54,14.62-11.43,19.54
						c4.04-8.1,5.94-17.26,5.44-26.3c-6.01,14.1-12.88,29.2-26.25,36.7c1.04-10.19-1.22-20.69-6.36-29.55
						c-2.44,10.5-2.77,21.48-0.96,32.1c-9.63-17.5-13.41-38.14-10.61-57.91c-7,13.17-4.38,32.3-3.34,46.6
						c1.41,19.4,5.14,33.28,13.82,50.79c10.55,21.28,14.48,45.79,11.09,69.3c5.16-0.12,9.48-4.37,11.34-9.19
						c1.86-4.82,1.77-10.13,1.7-15.29c-0.27-21.83,0.35-43.67,1.87-65.44c0.51-7.36,1.36-15.28,6.28-20.78
						c2.24-2.5,5.15-4.29,7.75-6.42c9.74-8,14.77-21.36,12.72-33.79C246.58,278.99,306.86,299.44,341.67,302.63z"/>
					<g>
						<path class="st2" d="M365.65,620.42c-47.27,0-89.95-37.43-121.84-70.03c-10.79-11.11-18.83-19.83-25.61-29l-0.52-0.7
							l4.03-104.03l143.94-38.68l143.91,38.68l4.12,105.39l-0.52,0.7c-3.46,4.68-7.24,9.21-11.57,13.84
							c-5.78,6.3-12.8,13.11-22.06,21.42C450.24,584.35,410.12,620.42,365.65,620.42z"/>
						<g>
							<path class="st3" d="M365.65,380.57l1.11,0.29l140.35,37.74l4.02,102.66c-3.44,4.65-7.22,9.16-11.38,13.61
								c-6.49,7.07-13.86,14.05-21.9,21.27c-29.75,26.74-69.09,61.77-112.21,61.77c-47.04,0-89.58-38.13-120.06-69.28
								c-9.79-10.08-18.36-19.23-25.39-28.73l3.92-101.31L365.65,380.57 M365.63,375.39l-1.28,0.34l-141.52,38.03l-3.56,0.96
								l-0.14,3.69l-3.92,101.31l-0.07,1.76l1.05,1.41c6.86,9.28,14.97,18.06,25.82,29.24c32.25,32.97,75.44,70.8,123.65,70.8
								c45.42,0,85.95-36.44,115.55-63.05c9.45-8.49,16.31-15.15,22.24-21.61c4.35-4.65,8.19-9.25,11.72-14.02l1.05-1.41l-0.07-1.76
								l-4.02-102.66l-0.14-3.68l-3.56-0.96l-140.35-37.74l-1.15-0.3L365.63,375.39L365.63,375.39z"/>
						</g>
					</g>
					<g>
						<path class="st3" d="M507.12,421.1c-0.65,0-1.29-0.25-1.78-0.75c-0.97-0.98-0.96-2.57,0.02-3.54l28.75-28.34
							c0.98-0.97,2.57-0.96,3.54,0.03c0.97,0.98,0.96,2.57-0.02,3.54l-28.75,28.34C508.39,420.87,507.76,421.1,507.12,421.1z"/>
					</g>
					<g>
						<path class="st3" d="M224.13,421.1c-0.69,0-1.37-0.28-1.87-0.84l-25.96-29.13c-0.92-1.04-0.83-2.62,0.21-3.54
							c1.03-0.92,2.61-0.83,3.54,0.2L226,416.93c0.92,1.04,0.83,2.62-0.21,3.54C225.32,420.89,224.73,421.1,224.13,421.1z"/>
					</g>
					<path class="st4" d="M499.76,534.88c-6.49,7.07-13.86,14.05-21.9,21.27c-29.75,26.74-69.09,61.77-112.21,61.77
						c-47.04,0-89.58-38.13-120.06-69.28c-9.79-10.08-18.36-19.23-25.39-28.73l3.92-101.31l141.52-38.03l1.11,0.29
						c0.79,0.21-11.07,13.01-12.52,14.03c-8.45,5.93-18.49,7.8-27.52,12.25c-6.7,3.31-13.89,5.39-21.1,7.28
						c-4.8,1.26-14.97,1.91-16.85,7.64c-0.4,1.22-0.4,2.54-0.39,3.82c0.02,4.9,0.05,9.8,0.07,14.7c0.02,3.84-0.55,11.13,2.87,13.89
						c2.23,1.8,6.06,0.9,8.69,0.84c10.57-0.21,20.77-1.23,30.93-4.33c10.26-3.14,19.78-9.67,30.86-9.42
						c10.95,0.24,20.64,6.59,30.33,11.72c24.08,12.89,51.5,19.38,78.78,18.75c-4.47,0.1-10.35,3.68-15.09,4.4
						c-5.45,0.84-10.97,1.02-16.48,1.08c-10.92,0.12-22.05-0.47-32.75,2.16c-10.85,2.67-20.96,6.85-32.13,8.51
						c-14.57,2.16-30.27,2.38-44.65-1.23c-9.17-2.31-17.91-6.48-27.25-8.04c-7.26-1.21-13.2-1.49-16.04,6.53
						c-1.48,4.17-2.37,8.54-2.66,12.95c-0.39,5.87-0.02,6.26,5.5,8.04c9.35,3.01,18.91,5.34,28.33,8.1
						c6.45,1.9,12.27,7.38,18.66,9.95c6.83,2.76,14.07,4.52,21.42,5.11c17.92,1.45,35.92-3.6,53.82-1.88
						c-4.16,1.98-8.36,3.87-12.6,5.68c-3.34,1.43-6.72,2.82-10.27,3.63c-4.56,1.04-9.28,1.11-13.96,1.15
						c-19.17,0.15-38.42-0.96-57.27-4.59c-4.38-0.84-26.72-9.13-28.97-5.83c-0.73,1.08-0.81,2.45-0.88,3.75
						c-0.4,8.54-0.8,17.08-1.2,25.62c-0.08,1.74-0.16,3.48-0.24,5.22c-0.35,7.43,9.86,10.08,15.88,12.6
						c10.11,4.22,18.47,10.72,30.22,9.15c7.18-0.96,13.74-4.43,20.66-6.57c12.54-3.89,26.41-3.3,38.57,1.63
						c4.22,1.71,8.26,3.94,12.67,5.1c9.78,2.59,20.26-0.36,29.22-5.06c11.94-6.27,24.04-11.37,34.95-19.42
						c5.75-4.24,11.17-8.91,16.41-13.74c2.24-2.07,14.94-11.56,14.81-14.31C499.66,532.79,499.76,533.81,499.76,534.88z"/>
				</g>
			</g>
		</g>
	</g>
</g>
<g class="st0">
	<g class="st1">
		<g>
			
				<ellipse transform="matrix(0.7071 -0.7071 0.7071 0.7071 -162.2609 354.5557)" class="st2" cx="346.86" cy="373.14" rx="328.86" ry="328.86"/>
		</g>
	</g>
	<g class="st1">
		<g>
			<g>
				<g>
					
						<ellipse transform="matrix(0.7071 -0.7071 0.7071 0.7071 -143.4839 362.3334)" class="st2" cx="365.63" cy="354.37" rx="328.86" ry="328.86"/>
				</g>
			</g>
			<g>
				<g>
					<defs>
						
							<ellipse id="SVGID_4_" transform="matrix(0.7071 -0.7071 0.7071 0.7071 -143.4839 362.3334)" cx="365.63" cy="354.37" rx="328.86" ry="328.86"/>
					</defs>
					<clipPath id="SVGID_7_">
						<use xlink:href="#SVGID_4_"  style="overflow:visible;"/>
					</clipPath>
					<g class="st13">
						<g>
							<path class="st2" d="M380.1,563.46c-11.65,0-25.09-3.81-39.93-11.32c-11.97-6.05-24.96-10.71-38.71-15.65
								c-42.35-15.2-90.31-32.42-124.59-97.99l-192.65-22.95l34.92-207.95l166.18,38.19c3.99,0.92,8.09,1.38,12.18,1.38
								c9.67,0,19.18-2.6,27.51-7.51c39.99-23.51,90.71-51.54,105.23-51.54c0.47,0,0.9,0.03,1.3,0.08
								c17.57,2.18,66.06,15.19,76.62,22.22c10.09,6.73,125.59,147.7,138.73,163.76l0.18,0.22l22.48,45l5.08,10.21
								c0.53,1.72,8.63,32.32-34.01,57.49c-2.32,1.38-4.83,2.76-7.48,4.1c-0.36,1.35-1.07,3.75-2.23,6.74
								c-4.29,11.08-14.86,30.25-37.42,34.18c-2.74,0.52-5.67,0.78-8.67,0.78c-3.17,0-6.49-0.29-9.91-0.88
								c-0.43,0.95-1.03,2.18-1.85,3.57c-4.12,6.9-14.1,18.72-34.72,20.39c-1.64,0.14-3.35,0.22-5.14,0.22
								c-6.98,0-14.67-1.14-22.86-3.39l-2.08-0.59C405.34,555.65,396.88,563.46,380.1,563.46z"/>
							<g>
								<path class="st3" d="M330.23,190.64c0.36,0,0.69,0.02,0.99,0.06c17.89,2.22,65.46,15.11,75.54,21.82
									c10.07,6.71,138.18,163.26,138.18,163.26l22.36,44.75l5.07,10.21c0,0,8.43,29.74-33.04,54.22
									c-2.58,1.54-5.37,3.06-8.36,4.53c0,0-0.67,3.09-2.42,7.55c-4.1,10.58-14.17,28.9-35.52,32.63
									c-2.57,0.48-5.32,0.74-8.24,0.74c-3.56,0-7.38-0.38-11.47-1.21c0,0-0.67,2.11-2.45,5.14c-3.96,6.65-13.33,17.59-32.77,19.17
									c-1.58,0.13-3.23,0.2-4.94,0.2c-6.48,0-13.92-1-22.52-3.39h-0.03c-1.07-0.3-2.18-0.64-3.32-0.97c0,0-7.32,11.62-27.2,11.62
									c-9.72,0-22.45-2.78-38.8-11.04c-49.82-25.18-118.07-26.99-162.82-113.74l-191.36-22.8l6.01-35.72l28.03-167.02l163.59,37.6
									c4.21,0.97,8.49,1.45,12.74,1.45c10.05,0,19.99-2.67,28.79-7.86C257.07,223.73,315.33,190.64,330.23,190.64 M330.23,185.64
									L330.23,185.64c-12.11,0-47.93,17.45-106.49,51.88c-7.95,4.69-17.03,7.17-26.25,7.17c-3.9,0-7.81-0.44-11.62-1.32
									l-163.59-37.6l-5.18-1.19l-0.88,5.24l-28.03,167.02l-6.01,35.72l-0.87,5.18l5.22,0.62l188.73,22.48
									c34.69,65.46,82.82,82.75,125.35,98.02c13.68,4.91,26.59,9.55,38.43,15.53c15.2,7.69,29.01,11.58,41.06,11.58
									c15.94,0,24.94-6.78,28.93-10.9c0.08,0.02,0.16,0.05,0.24,0.07l0.66,0.19h0.05c8.29,2.25,16.09,3.39,23.2,3.39
									c1.82,0,3.62-0.07,5.36-0.22c21.74-1.76,32.29-14.29,36.65-21.6c0.44-0.75,0.83-1.45,1.16-2.1c2.9,0.41,5.73,0.62,8.46,0.62
									c3.16,0,6.24-0.28,9.17-0.83c23.71-4.14,34.78-24.17,39.26-35.74c0.94-2.4,1.59-4.44,2.01-5.91
									c2.34-1.21,4.57-2.44,6.66-3.69c44.25-26.12,35.67-58.51,35.28-59.88l-0.13-0.45l-0.21-0.42l-5.07-10.21l-22.36-44.76
									l-0.25-0.5l-0.36-0.43c-21.47-26.24-129.1-157.47-139.28-164.25c-11.02-7.35-59.48-20.37-77.7-22.62
									C331.35,185.67,330.81,185.64,330.23,185.64L330.23,185.64z"/>
							</g>
						</g>
						<g>
							<path class="st4" d="M539.33,484.95c-1.58,0.94-3.22,1.88-4.97,2.79c-1.11,0.61-2.22,1.18-3.39,1.75c0,0-0.67,3.09-2.42,7.55
								c-4.1,10.58-14.17,28.9-35.52,32.63c-1.31,0.23-2.62,0.4-4,0.54c-0.5,0.07-1.01,0.1-1.54,0.13
								c-0.81,0.03-1.64,0.07-2.48,0.07c-3.63,0.03-7.52-0.37-11.68-1.21c0,0-0.67,2.12-2.45,5.14
								c-3.96,6.65-13.33,17.59-32.77,19.17c-0.77,0.07-1.58,0.13-2.42,0.13c-0.84,0.07-1.68,0.07-2.52,0.07
								c-1.58,0-3.19-0.07-4.9-0.2c-0.54-0.03-1.07-0.07-1.61-0.13c-0.71-0.07-1.44-0.14-2.18-0.24c-4.23-0.5-8.83-1.44-13.9-2.82
								c-1.08-0.3-2.18-0.64-3.29-0.97c0,0-16.22,25.75-66,0.57c-49.82-25.18-118.07-26.99-162.82-113.74l-191.36-22.79l6.01-35.72
								c2.65,3.16,5.64,6.01,9.17,8.26c5.57,3.56,12.12,5.27,18.53,6.85c17.17,4.22,34.57,7.56,52.06,10.15
								c16.39,2.42,33.01,4.35,49.54,5.25c14.33,0.78,30.44-0.62,42.88-8.36c2.26-1.41,4.39-3.02,6.61-4.49
								c8.66-5.75,19.07-9.37,29.4-8.28c10.33,1.09,20.38,7.51,24.11,17.21c-2.9-4.03-7.94-6.14-12.9-6.43
								c-4.96-0.3-9.88,1.01-14.55,2.68c6.49-0.31,13.06,1.29,18.68,4.56c1.45,0.84,2.85,1.81,3.99,3.03
								c4.68,5.02,3.96,12.96,2.09,19.57c-2.05,7.25-5.14,14.21-9.13,20.6c-1.85,2.96-3.95,5.97-4.28,9.45
								c3.71-0.48,7.19-2.38,9.7-5.14c1.22-1.34,1.72-3.1,2.79-4.44c1.19-1.5,3.48-2.62,5.02-3.77c7.21-5.4,14.13-11.22,20.3-17.79
								c4.27-4.54,9.07-9.85,15.3-9.67c3.66,0.11,6.94,2.16,10.02,4.16c6.39,4.14,13.5,9.47,13.71,17.08
								c0.13,4.57-2.36,8.76-4.74,12.66c-7.96,13.04-15.67,26.23-23.14,39.56c1.63,1.88,4.7,0.88,6.84-0.38
								c15.13-8.93,25.35-24,36.81-37.31c4.82-5.59,11.31-11.43,18.56-10.03c4.68,0.9,8.34,4.78,10.24,9.14
								c1.91,4.36,2.35,9.2,2.74,13.95c0.39,4.68,0.75,9.46-0.45,13.99c-1.02,3.85-3.12,7.35-4.01,11.23
								c-0.89,3.88-0.16,8.61,3.23,10.69c3.43,2.11,7.94,0.66,11.83,1.7c3.61,0.97,6.34,4.04,7.89,7.44
								c1.55,3.4,2.12,7.15,2.81,10.82c1.05,5.62,2.49,11.32,5.71,16.04c2.88,4.21,7.25,6.98,12.29,7.75
								c3.85,0.59,11.15,0.43,14.32-2.27c6.84-5.85-7.76-12.23-11.09-14.93c-2.97-2.41-5.84-4.95-8.56-7.65
								c-2.26-2.24-4.68-6.48-7.32-8.09c8.62,5.25,17.35,10.32,26.19,15.19c8.63,4.76,15.98,9.18,26.03,9.82
								c8.54,0.55,17.45,2.26,25.9,0.4c6.68-1.44,12.82-5.2,17.22-10.44c0.27-0.3,0.5-0.64,0.77-0.97
								c-27.73-15.11-55.9-31.09-75.7-55.63c2.07,2.56,7.48,4.53,10.34,6.22c3.65,2.17,7.32,4.31,10.99,6.42
								c7.89,4.54,15.85,8.86,23.99,12.74c8.18,3.9,15.08,9.81,23.67,13.13c11.44,4.42,21.36,2.92,33.13,2.01
								c12.62-0.97,24.57-7.12,33.44-16.11c0.97-0.97,1.95-2.01,2.82-3.09c-8.43-4.33-16.75-8.86-25.08-13.4
								c-29.02-15.8-59.42-32.18-80.72-58.17c10.03,4.36,19.67,10.89,29.26,16.25c8.07,4.51,16.15,9.02,24.23,13.52
								c7.71,4.3,15.95,7.61,23.67,11.96c7.17,4.04,14.78,7.68,23.03,8.74c5.11,0.66,10.45,0.16,15.28-1.67
								c4.84-1.83,7.86-5.5,12.08-8.12c7.68-4.79,22.69-12.83,14.41-23.7c-3.07-4.03-7.95-6.16-12.58-8.21
								c-28.45-12.58-55.01-29.32-78.65-49.54c-24.98-21.37-45.34-47.08-66.7-71.9c-0.93-1.08-1.92-2.2-3.25-2.69
								c-1.75-0.64-3.67-0.05-5.47,0.44c-8.02,2.18-16.59,2.32-24.67,0.4c-2.08-0.49-4.35-1.11-6.29-0.2
								c-1.32,0.62-2.23,1.84-3.13,2.99c-11.3,14.49-28.7,24.06-46.98,25.84c-18.29,1.79-37.21-4.24-51.09-16.26
								c7.04,2.28,14.16,4.58,21.54,5.09c13.17,0.91,26.11-3.98,37.57-10.53c11.46-6.55,21.86-14.8,33.21-21.54
								c15.57-9.25,33.17-15.65,51.27-16.11c18.11-0.46,36.73,5.43,49.77,17.99c5.8,5.59,10.37,12.31,15.43,18.59
								c10.35,12.83,22.89,23.89,36.91,32.56c16,9.89,34.25,16.96,47,30.8c9.12,9.9,14.57,22.49,17.97,35.38
								c1.68,6.39,2.2,13.21,4.31,19.43c1.19,3.49,2.01,6.07,1.76,9.82C571.66,460.02,555.69,475.21,539.33,484.95z"/>
						</g>
						<g>
							<path class="st2" d="M565.76,430.3c-27.99-13.74-53.71-28.84-76.41-44.89c-19.01-13.48-35.31-27.03-49.84-41.43
								c-7.93-7.85-14.99-16.53-21.81-24.93c-4.55-5.6-9.26-11.4-14.15-16.84c-0.72-0.79-1.6-2.21-2.63-3.85
								c-0.68-1.1-1.73-2.77-2.1-3.14c0,0.01-0.22-0.06-0.4-0.11c-0.71-0.2-1.61-0.3-2.72-0.3c-2.66,0-5.92,0.54-8.79,1.01
								c-1.9,0.31-3.6,0.59-4.83,0.67c-7.01,0.41-14,0.86-21.01,1.3l-1.19,0.07c-6.96,0.44-10.05,4.21-14.33,9.44
								c-1.43,1.75-2.92,3.57-4.65,5.35c-6.24,6.48-14.8,14.36-25.69,17.8c-5.86,1.86-11.93,2.93-18.04,3.17
								c-1.26,0.05-2.49,0.08-3.69,0.08c-23.39,0-34.58-9.84-38.8-13.55l-0.64-0.56c-3.25-2.8-1.03-8.63,0.16-11.76l0.26-0.69
								c0.49-1.32,0.93-2.48,1.43-3.66c0.6-1.36,1.22-2.71,1.88-4.03c1.73-3.57,3.84-7.29,6.65-11.65
								c7.77-12.08,15.38-21.98,23.25-30.25c2.43-2.54,4.79-4.84,7.02-6.85c11.35-10.57,24.25-19.33,38.3-26.01
								c13.92-6.6,29.48-10.33,44.52-13.94c5.35-1.28,10.65-2.55,15.84-3.95l4-1.08c9.66-2.61,19.65-5.31,29.7-6.9
								c1.18-0.18,2.42-0.27,3.69-0.27c23.09,0,61.12,29.79,81.55,45.8c3.45,2.7,6.35,4.97,8.5,6.56c8.4,6.24,18.66,7.54,25.78,7.54
								c4.65,0,7.82-0.57,7.85-0.58l145.01-45.76l47.81,178.46l-175.16,42.79L565.76,430.3z"/>
							<g>
								<path class="st3" d="M430.73,201.07c26.13,0,74.08,41.16,88.56,51.87c9.01,6.69,19.93,8.04,27.28,8.04
									c4.97,0,8.31-0.62,8.31-0.62l142.81-45.05l43.11,160.97l3.36,12.49l-171.78,41.96c-1.85-0.91-3.66-1.78-5.51-2.69
									c-26.42-12.96-52.04-27.7-76.07-44.68c-17.52-12.42-34.24-26.02-49.52-41.16c-13.13-12.99-23.63-28.06-35.85-41.66
									c-1.28-1.41-4.1-6.71-5.04-7.29c-0.37-0.24-0.81-0.44-1.31-0.57c-0.95-0.27-2.1-0.38-3.36-0.38
									c-4.64,0-10.73,1.48-13.8,1.69c-7.39,0.44-14.77,0.91-22.19,1.38c-10.64,0.67-13.76,8.46-20.61,15.54
									c-6.92,7.18-14.97,14.1-24.64,17.16c-5.61,1.78-11.48,2.82-17.39,3.05c-1.23,0.05-2.43,0.08-3.6,0.08
									c-23.72,0-34.08-10.31-37.79-13.51c-2.15-1.85,0.44-7.75,1.14-9.7c0.44-1.18,0.87-2.35,1.38-3.52
									c0.57-1.31,1.18-2.62,1.81-3.89c1.91-3.96,4.16-7.76,6.51-11.41c6.71-10.44,14.37-20.85,22.96-29.88
									c2.22-2.32,4.53-4.6,6.88-6.71c11.18-10.41,23.94-19.07,37.7-25.61c18.57-8.8,40.12-12.42,59.92-17.73
									c11.01-2.95,22.16-6.14,33.44-7.92C428.49,201.15,429.59,201.07,430.73,201.07 M430.73,196.06c-1.41,0-2.77,0.1-4.06,0.3
									c-10.2,1.61-20.26,4.33-29.98,6.96l-3.99,1.08c-5.14,1.38-10.54,2.67-15.75,3.92c-15.17,3.64-30.86,7.41-45.02,14.11
									c-14.29,6.79-27.39,15.7-38.97,26.48c-2.22,2-4.63,4.35-7.09,6.92c-8.01,8.41-15.71,18.43-23.56,30.63
									c-2.86,4.46-5.03,8.25-6.81,11.94c-0.65,1.29-1.29,2.68-1.89,4.07c-0.55,1.28-1.02,2.53-1.48,3.78l-0.26,0.68
									c-1.42,3.71-4.05,10.61,0.55,14.56l0.61,0.54c4.41,3.88,16.11,14.18,40.44,14.18c1.24,0,2.51-0.03,3.81-0.08
									c6.32-0.25,12.62-1.36,18.69-3.29c11.42-3.61,20.29-11.76,26.73-18.45c1.81-1.87,3.32-3.71,4.77-5.49
									c4.39-5.36,6.94-8.17,12.55-8.52l1.33-0.08c6.97-0.44,13.9-0.88,20.84-1.29c1.46-0.1,3.15-0.38,5.12-0.7
									c2.78-0.46,5.93-0.98,8.38-0.98c0.8,0,1.32,0.06,1.65,0.11c0.43,0.63,1.03,1.61,1.44,2.26c1.26,2.02,2.08,3.31,2.9,4.22
									c4.83,5.38,9.52,11.15,14.06,16.73c6.86,8.45,13.96,17.18,21.99,25.13c14.63,14.5,31.04,28.14,50.14,41.68
									c22.85,16.15,48.67,31.32,76.76,45.09l2.76,1.35l2.74,1.34l1.63,0.8l1.76-0.43l171.78-41.96l4.98-1.22l-1.33-4.95
									l-3.36-12.49l-43.1-160.97l-1.35-5.05l-4.99,1.57l-142.48,44.95c-0.81,0.13-3.49,0.49-7.14,0.49
									c-6.75,0-16.44-1.22-24.29-7.05c-2.14-1.58-5.01-3.83-8.43-6.52C493.17,226.21,454.69,196.06,430.73,196.06L430.73,196.06z"
									/>
							</g>
						</g>
						<g>
							<path class="st2" d="M226.44,504.79c-3.19,0-6.26-1.17-8.64-3.3l-11.67-10.34c-8.38-7.43-10.73-19.61-5.71-29.62
								c1.08-2.22,2.57-4.32,4.41-6.21l37.93-39.09c3.81-3.93,8.64-6.48,13.96-7.4c1.47-0.26,2.99-0.4,4.5-0.4
								c5.7,0,11.09,1.84,15.59,5.32l1.04,0.83l4.24,3.65c2.97,2.59,4.91,6.1,5.47,9.89c0.77,4.5-0.46,9.2-3.38,12.84l-47.58,58.99
								C234.08,503.03,230.39,504.79,226.44,504.79z"/>
							<g>
								<path class="st3" d="M261.2,410.94c4.94,0,9.9,1.58,14.06,4.79c0.34,0.27,0.67,0.54,1.01,0.81l4.16,3.59
									c2.58,2.25,4.16,5.2,4.63,8.36c0.64,3.76-0.3,7.72-2.85,10.91l-47.57,58.99c-2.09,2.58-5.14,3.9-8.2,3.9
									c-2.48,0-4.97-0.87-6.97-2.66l-11.68-10.34c-7.72-6.85-9.53-17.86-5.14-26.62c0.97-2.01,2.32-3.89,3.96-5.57l37.94-39.11
									c3.52-3.63,7.96-5.88,12.59-6.68C258.47,411.06,259.83,410.94,261.2,410.94 M261.2,405.93c-1.65,0-3.32,0.15-4.95,0.44
									c-5.82,1.01-11.12,3.82-15.3,8.12l-37.94,39.11c-2.02,2.06-3.67,4.39-4.88,6.88c-5.5,10.95-2.91,24.36,6.32,32.55
									l11.69,10.34c2.82,2.52,6.48,3.92,10.29,3.92c4.71,0,9.11-2.1,12.09-5.75l47.58-59c3.37-4.21,4.78-9.64,3.89-14.89
									c-0.64-4.29-2.87-8.33-6.28-11.3l-4.18-3.61l-1.15-0.93C273.45,408,267.37,405.93,261.2,405.93L261.2,405.93z"/>
							</g>
						</g>
						<path class="st4" d="M282.21,439.4l-47.57,58.99c-3.79,4.67-10.71,5.24-15.17,1.24l-11.68-10.34
							c-7.72-6.85-9.53-17.86-5.14-26.62c1.24,5.24,3.12,10.34,6.28,14.7c3.96,5.44,10.24,9.53,16.95,9.37
							c5.27-0.13,10.24-2.82,14.07-6.48c3.79-3.63,6.65-8.16,9.3-12.69c1.01-1.75,2.05-3.49,2.45-5.47
							c0.81-3.66-0.57-7.49-2.82-10.47c-1.95-2.59-4.47-4.63-7.05-6.58c2.92,2.15,6.18,3.86,9.74,4.43
							c4.06,0.7,8.49-0.13,11.68-2.75c1.88-1.61,3.22-3.73,4.53-5.84c4.7-7.62,9.27-16.48,7.49-25.14c0.34,0.27,0.67,0.54,1.01,0.81
							l4.16,3.59c2.59,2.25,4.16,5.2,4.63,8.36C285.7,432.25,284.76,436.21,282.21,439.4z"/>
						<g>
							<path class="st2" d="M186.92,461.73c-3.26,0-6.47-1.04-9.56-3.1c-4.34-2.93-8.07-7.46-10.52-12.75
								c-1.28-2.73-2.03-5.49-2.21-8.2c-0.25-3.19,1.16-5.07,2.51-6.89l0.56-0.76l0.31-0.37c5.31-7.52,10.49-14.49,17.31-20.46
								l0.72-0.64c4.64-4.1,10.42-9.2,17.17-9.68c0.23-0.03,0.61-0.04,0.98-0.04c3.24,0,6.56,0.73,9.62,2.1l1.48,0.66v0.06
								c0.57,0.3,1.08,0.62,1.5,0.89c2.6,1.69,4.53,3.25,6.11,4.92c2.6,2.82,4.1,5.84,4.46,8.99c0.16,1.29,0.12,2.66-0.12,4.06
								c-0.7,4.4-3.33,8.01-5.54,10.67c-1.52,1.83-3,3.69-4.47,5.54c-4.87,6.1-9.9,12.41-16.16,17.79l-1.02,0.88
								c-2.7,2.34-5.77,5-9.76,5.91C189.18,461.6,188.05,461.73,186.92,461.73z"/>
							<g>
								<path class="st3" d="M204.19,401.36c2.92,0,5.91,0.67,8.59,1.88c0,0,0,0,0,0.03c0.94,0.37,1.81,0.87,2.65,1.41
									c2.01,1.31,3.99,2.79,5.64,4.53c1.98,2.15,3.46,4.63,3.79,7.55c0.13,1.07,0.1,2.18-0.1,3.36c-0.57,3.56-2.69,6.71-5,9.5
									c-6.58,7.96-12.42,16.21-20.34,23.03c-2.95,2.52-5.87,5.37-9.7,6.24c-0.94,0.22-1.88,0.32-2.8,0.32
									c-2.9,0-5.68-1.02-8.18-2.67c-4.16-2.82-7.52-7.15-9.64-11.72c-1.07-2.28-1.81-4.77-1.98-7.32
									c-0.2-2.55,1.01-3.83,2.48-5.84c0.07-0.07,0.1-0.17,0.17-0.24c5.17-7.25,10.44-14.44,17.19-20.34
									c4.5-3.96,10.17-9.27,16.42-9.7C203.65,401.36,203.92,401.36,204.19,401.36 M204.19,396.35c-0.42,0-0.84,0.01-1.27,0.05
									c-7.55,0.58-13.64,5.96-18.54,10.29l-0.72,0.64c-6.9,6.04-12.12,13.02-17.71,20.85l-0.14,0.14l-0.27,0.43l-0.4,0.54
									c-1.48,1.98-3.33,4.45-3,8.61c0.19,2.96,1.02,6.03,2.44,9.06c2.62,5.66,6.66,10.55,11.36,13.73
									c3.5,2.32,7.28,3.53,10.99,3.53c1.32,0,2.64-0.15,3.94-0.45c4.58-1.04,7.89-3.92,10.82-6.45l1-0.86
									c6.45-5.55,11.56-11.95,16.5-18.14c1.47-1.84,2.94-3.68,4.45-5.51c2.22-2.67,5.27-6.82,6.09-11.9
									c0.28-1.62,0.32-3.2,0.13-4.77c-0.42-3.63-2.13-7.12-5.08-10.33c-1.75-1.86-3.84-3.55-6.59-5.34
									c-0.12-0.08-0.24-0.16-0.37-0.24v-0.21l-2.95-1.36C211.46,397.16,207.78,396.35,204.19,396.35L204.19,396.35z"/>
							</g>
						</g>
						<path class="st4" d="M224.77,420.13c-0.57,3.56-2.69,6.71-5,9.5c-6.58,7.96-12.42,16.21-20.34,23.03
							c-2.95,2.52-5.87,5.37-9.7,6.24c-3.89,0.91-7.69-0.17-10.98-2.35c-4.16-2.82-7.52-7.15-9.64-11.72
							c-1.07-2.28-1.81-4.77-1.98-7.32c-0.2-2.55,1.01-3.83,2.48-5.84c0.07-0.07,0.1-0.17,0.17-0.24c2.25,4.13,4.63,8.19,7.62,11.82
							c2.55,3.09,5.88,6.04,9.87,6.11c3.69,0.07,6.95-2.28,9.63-4.8c2.18-2.04,4.51-4.1,2.63-7.3c-0.68-1.17-1.75-2.05-2.77-2.94
							c-2.93-2.58-5.74-5.68-6.4-9.52c0.71,0.97,1.43,1.95,2.14,2.92c0.6,0.82,1.22,1.66,2.03,2.28c0.94,0.72,2.08,1.12,3.2,1.51
							c2.39,0.82,6.02,2.32,8.57,1.45c2.03-0.69,3.42-4.17,4.52-5.97c2.01-3.32,3.89-6.78,4.57-10.61
							c0.81-4.46-0.17-9.27-2.62-13.09c0.94,0.37,1.81,0.87,2.65,1.41c2.01,1.31,3.99,2.79,5.64,4.53c1.98,2.15,3.46,4.63,3.79,7.55
							C225,417.85,224.97,418.95,224.77,420.13z"/>
						<g>
							<path class="st2" d="M271.57,541.99c-6.42,0-13.47-2.16-19.85-6.09c-6.07-3.71-13.94-10.91-16.11-19.01
								c-1.08-4.13-0.87-8.68,0.61-13.18c1.19-3.64,3.18-7.08,5.75-9.96l0.03,0.03c1.47-1.72,8.76-9.82,47.61-52.98
								c4.32-4.8,10.84-8.13,17.45-8.91c0.96-0.09,1.86-0.14,2.76-0.14c1.28,0,2.55,0.1,3.8,0.29c6.49,1.05,11.8,4.82,15.34,10.92
								l0.28,0.5c3.29,5.99,4.82,13.74,4.32,21.46c-0.18,3.17-0.73,6.3-1.59,9.02c-1.66,5.35-5.46,10.07-8.82,14.24
								c-0.78,0.97-1.56,1.94-2.29,2.88c-1.99,2.6-4.03,5.19-6.07,7.77c-2.42,3.06-4.83,6.12-7.18,9.22l-1.88,2.5
								c-4.53,6.04-9.22,12.28-13.57,18.56c-5.55,8.08-11.93,12.38-18.93,12.79C272.67,541.97,272.12,541.99,271.57,541.99z"/>
							<g>
								<path class="st3" d="M309.83,434.27c1.14,0,2.28,0.08,3.4,0.26c6.24,1.01,10.68,4.73,13.56,9.7
									c0.13,0.2,0.24,0.44,0.37,0.67c3.19,5.81,4.33,13.19,3.89,19.87c-0.17,2.99-0.67,5.88-1.48,8.43
									c-1.88,6.08-6.85,11.35-10.71,16.35c-4.36,5.71-8.93,11.28-13.26,17.02c-5.24,6.98-10.54,13.97-15.51,21.15
									c-4,5.81-9.57,11.28-17.02,11.72c-0.5,0.03-1,0.04-1.5,0.04c-6.51,0-13.12-2.38-18.54-5.72
									c-6.04-3.69-13.09-10.41-15.01-17.52c-1.01-3.86-0.67-7.96,0.57-11.75c1.11-3.39,2.95-6.51,5.24-9.06
									c0.03-0.07,47.64-52.94,47.64-52.94c3.96-4.4,9.87-7.39,15.88-8.09h0.03C308.2,434.31,309.01,434.27,309.83,434.27
									 M309.83,429.26c-0.9,0-1.8,0.04-2.69,0.13h-0.05l-0.32,0.03c-7.3,0.86-14.23,4.4-19.02,9.71
									c-36.83,40.91-45.44,50.47-47.6,53l-0.05-0.05c-2.8,3.13-4.97,6.89-6.26,10.85c-1.62,4.96-1.85,9.99-0.66,14.57
									c2.37,8.83,10.46,16.39,17.24,20.53c6.76,4.16,14.28,6.45,21.16,6.45c0.6,0,1.19-0.02,1.79-0.05
									c7.82-0.46,14.84-5.13,20.86-13.88c4.31-6.23,8.98-12.44,13.49-18.45l1.9-2.53c2.33-3.09,4.73-6.13,7.14-9.18
									c2.05-2.59,4.09-5.19,6.1-7.81c0.71-0.92,1.47-1.86,2.24-2.82c3.5-4.34,7.47-9.27,9.27-15.09c0.91-2.89,1.5-6.23,1.69-9.63
									c0.53-8.14-1.11-16.38-4.5-22.57c-0.19-0.37-0.34-0.63-0.48-0.86c-3.93-6.71-9.82-10.88-17.04-12.04
									C312.65,429.37,311.25,429.26,309.83,429.26L309.83,429.26z"/>
							</g>
						</g>
						<path class="st4" d="M331.05,464.78c-0.17,2.99-0.67,5.88-1.48,8.43c-1.88,6.08-6.85,11.35-10.71,16.35
							c-4.36,5.71-8.93,11.28-13.26,17.02c-5.24,6.98-10.54,13.97-15.51,21.15c-4,5.81-9.57,11.28-17.02,11.72
							c-6.98,0.4-14.2-2.08-20.04-5.67c-6.04-3.69-13.09-10.41-15.01-17.52c-1.53-5.68,0.2-10.88,3.2-15.73
							c0.48-0.78,1.02-1.59,1.08-2.51c-0.93,2.14-0.97,4.58-0.51,6.86c0.46,2.28,1.4,4.44,2.37,6.56c1.72,3.76,3.58,7,7.11,9.29
							c8.85,5.74,20.93,5.01,29.93-0.21c4.81-2.79,8.81-6.92,11.54-11.76c2.82-4.97,5.15-11.39,2.57-16.9
							c-1.38-2.96-3.89-5.21-5.89-7.79c-3.31-4.28-5.24-9.62-5.44-15.03c1.22,6.01,6.04,11.14,11.96,12.74
							c5.92,1.6,12.66-0.42,16.74-5c1.83-2.06,3.12-4.53,4.34-7c2.17-4.4,4.18-8.88,6.02-13.42c1.55-3.83,2.45-7.69,4.11-11.44
							C330.35,450.71,331.49,458.1,331.05,464.78z"/>
						<g>
							<path class="st2" d="M320.29,567.56c-8-0.53-15.46-4.01-21.06-6.97c-5.54-2.97-8.96-6.55-10.46-10.93
								c-2.31-6.82,0.58-12.8,4.05-18.24l0.35-0.57c4.06-6.43,8.39-13.27,13.59-19.58c5.48-6.66,12.12-13.83,19.86-16.45l0.66-0.23
								c1.91-0.53,3.56-0.76,5.24-0.76c3.81,0,7.85,1.19,11.69,3.45l1.23,0.72v0.06c0.72,0.46,1.41,0.97,2.07,1.49
								c4.88,3.77,6.94,9.31,7.81,13.29c0.45,2.09,0.69,4.14,0.73,6.09c0.12,9.49-3.69,19.81-11.33,30.69
								c-5.48,7.82-12.6,17.98-23.36,17.98C321,567.59,320.65,567.58,320.29,567.56z"/>
							<g>
								<path class="st3" d="M332.52,496.32c3.65,0,7.24,1.24,10.42,3.1v0.03c1.07,0.6,2.08,1.31,3.02,2.05
									c3.69,2.85,5.91,7.25,6.92,11.85c0.4,1.88,0.64,3.76,0.67,5.61c0.13,10.58-4.94,20.75-10.88,29.21
									c-5.05,7.19-11.67,16.92-21.31,16.92c-0.3,0-0.61-0.01-0.91-0.03c-7.08-0.47-13.76-3.36-20.04-6.68
									c-4-2.15-7.76-5.14-9.27-9.53c-2.01-5.94,0.67-11.18,3.79-16.08c0.07-0.14,0.13-0.27,0.23-0.4
									c4.23-6.68,8.49-13.39,13.53-19.5c4.83-5.87,11.31-13.16,18.73-15.68c0.13-0.07,0.3-0.1,0.47-0.17
									c0.13-0.03,0.27-0.07,0.4-0.1C329.7,496.5,331.12,496.32,332.52,496.32 M332.52,491.31L332.52,491.31
									c-1.91,0-3.8,0.26-5.6,0.78l-0.33,0.08l-0.55,0.18c-0.11,0.03-0.24,0.08-0.39,0.14c-8.24,2.87-15.15,10.29-20.81,17.18
									c-5.26,6.38-9.61,13.25-13.82,19.9c-0.16,0.23-0.29,0.46-0.42,0.69c-3.75,5.92-6.81,12.46-4.19,20.19
									c1.73,5.02,5.53,9.05,11.64,12.34c5.85,3.1,13.61,6.71,22.08,7.27c0.43,0.03,0.84,0.04,1.24,0.04
									c12.06,0,19.61-10.77,25.12-18.63l0.29-0.41c7.95-11.31,11.91-22.13,11.78-32.15c-0.04-2.14-0.3-4.35-0.78-6.59
									c-1.38-6.31-4.41-11.41-8.75-14.76c-0.36-0.28-0.72-0.55-1.08-0.81v-0.14l-2.47-1.49
									C341.25,492.63,336.77,491.31,332.52,491.31L332.52,491.31z"/>
							</g>
						</g>
						<path class="st4" d="M353.55,518.96c0.13,10.58-4.94,20.75-10.88,29.21c-5.2,7.42-12.09,17.52-22.22,16.89
							c-7.08-0.47-13.76-3.36-20.04-6.68c-4-2.15-7.76-5.14-9.27-9.53c-2.01-5.94,0.67-11.18,3.79-16.08
							c0.13-0.13,0.24-0.23,0.37-0.34c0.77,4.16,1.58,8.39,3.59,12.12c3.56,6.65,10.98,11.08,18.53,11.01
							c4.06-0.03,8.23-1.38,11.15-4.23c2.92-2.85,4.33-7.32,2.99-11.18c-4.53-1.01-9.13-2.28-12.93-4.97
							c-3.83-2.69-6.75-7.02-6.58-11.65c5.37,5.81,14.84,8.29,21.49,4.03c4.7-2.99,7.12-8.53,8.8-13.83
							c1.34-4.36,2.38-9.1,0.91-13.39c-0.1-0.27-0.2-0.57-0.3-0.87c1.07,0.6,2.08,1.31,3.02,2.05c3.69,2.85,5.91,7.25,6.92,11.85
							C353.28,515.24,353.51,517.12,353.55,518.96z"/>
						<path class="st4" d="M744.15,388.77l-171.78,41.96c-1.85-0.91-3.66-1.78-5.51-2.69c-26.42-12.96-52.04-27.7-76.07-44.68
							c-17.52-12.42-34.24-26.02-49.52-41.16c-13.13-12.99-23.63-28.06-35.85-41.66c-1.28-1.41-4.1-6.71-5.04-7.29
							c-0.37-0.24-0.81-0.44-1.31-0.57c-4.46-1.28-13.26,1.04-17.15,1.31c-7.39,0.44-14.77,0.91-22.19,1.38
							c-10.64,0.67-13.76,8.46-20.61,15.54c-6.92,7.18-14.97,14.1-24.64,17.16c-5.61,1.78-11.48,2.82-17.39,3.05
							c-26.29,1.11-37.5-10.07-41.39-13.43c-2.15-1.85,0.44-7.76,1.14-9.7c0.91-2.52,1.98-5,3.19-7.42
							c0.87,3.56,3.56,6.85,6.88,8.66c5,2.75,11.01,2.85,16.75,2.65c11.68-0.47,23.74-2.18,33.67-8.33
							c9.94-6.18,17.29-17.69,15.58-29.24c9.2,11.62,26.76,12.49,41.02,8.49c14.23-4.03,27.39-11.82,42-14.27
							c-3.22,11.95,0.94,24.91,8.16,34.98c7.22,10.07,17.19,17.76,26.99,25.28c17.52,13.43,35.05,26.89,52.54,40.32
							c9.11,6.98,44.99,40.52,53.55,16.85c1.16-3.2,0.9-6.71,0.55-10.1c-1.16-11.36-3.14-22.64-5.91-33.73
							c9.3,21.15,25.08,39.4,44.66,51.68c2.99,1.88,6.09,3.63,9.42,4.81c18.18,6.49,43.71-4.09,61.71-7.97
							c21.17-4.57,42.33-9.13,63.5-13.69c3.12-0.67,6.65-1.24,9.7-0.71L744.15,388.77z"/>
						<g>
							<path class="st2" d="M307.88,281.01c-3,12.1-12.19,21.74-23.09,26.82c-5.16,2.41-11.4,4.34-17.13,4.06
								c-3.23-0.16-11.65-1.75-9.49-6.86c0.52-1.21,1.06-2.42,1.64-3.61c1.73-3.67,3.76-7.18,5.88-10.57
								c6.06-9.67,12.97-19.3,20.73-27.66c2-2.14,4.09-4.26,6.21-6.22c1.09-1.01,12.12,11,13.11,12.31
								C308.51,272.94,308.87,277,307.88,281.01z"/>
							<g>
								<path class="st3" d="M268.79,313.17c-0.4,0-0.8-0.01-1.2-0.03c-0.33-0.02-7.99-0.45-10.36-4.22
									c-0.56-0.9-1.06-2.4-0.22-4.38c0.52-1.23,1.08-2.46,1.66-3.66c1.54-3.26,3.43-6.66,5.94-10.68
									c6.97-11.11,13.79-20.22,20.87-27.85c2.16-2.32,4.28-4.44,6.28-6.28l0.36-0.33l0.67-0.06c2.8,0,13.83,12.73,13.93,12.86
									c2.77,3.65,3.56,7.95,2.37,12.78c-2.91,11.73-11.79,22.06-23.78,27.65C281.21,310.88,275,313.17,268.79,313.17z M293,258.33
									c-1.82,1.7-3.73,3.62-5.67,5.72c-6.97,7.51-13.7,16.5-20.58,27.47c-2.46,3.94-4.31,7.26-5.81,10.43
									c-0.57,1.18-1.11,2.37-1.62,3.56c-0.46,1.08-0.2,1.7,0.04,2.07c1.17,1.87,5.59,2.91,8.36,3.05
									c6.04,0.34,12.43-2.02,16.54-3.94c11.31-5.27,19.68-14.99,22.41-25.99c1.02-4.12,0.39-7.61-1.93-10.66
									C303.6,268.55,295.37,259.8,293,258.33z"/>
							</g>
						</g>
						<g>
							<path class="st2" d="M285.06,428.49c-2.48,3.39-5.1,6.75-7.89,9.87c-4.33,4.87-9.94,9.37-16.82,9.23
								c-4.94-0.07-9.27-2.92-12.05-6.88c-1.78-2.45-2.92-5.3-3.36-8.29c-0.47-3.09-0.17-5.17,1.38-7.82
								c2.92-4.94,6.82-9.13,10.81-13.29c6.61-1.18,13.66,0.54,19.14,5.24l4.16,3.59C283.01,422.38,284.59,425.33,285.06,428.49z"/>
							<g>
								<path class="st3" d="M260.66,448.84l-0.33,0c-5.02-0.06-9.78-2.77-13.05-7.41c-1.86-2.57-3.11-5.62-3.57-8.83
									c-0.53-3.46-0.11-5.8,1.53-8.64c2.97-5.01,6.89-9.26,10.99-13.53l0.28-0.29l0.4-0.07c7.14-1.26,14.65,0.78,20.17,5.52
									l4.16,3.59c2.74,2.39,4.53,5.62,5.05,9.13l0.08,0.51l-0.3,0.42c-2.87,3.92-5.48,7.18-7.97,9.97
									C272.33,445.69,266.62,448.84,260.66,448.84z M257.75,412.46c-3.89,4.06-7.59,8.1-10.35,12.76c-1.35,2.32-1.66,4.09-1.22,7
									c0.41,2.81,1.5,5.49,3.13,7.75c2.81,3.99,6.84,6.31,11.06,6.36l0.29,1.26v-1.25c5.21,0,10.3-2.88,15.58-8.82
									c2.34-2.63,4.8-5.69,7.5-9.35c-0.52-2.75-1.94-5.2-4.13-7.1l-4.16-3.58C270.6,413.32,264.05,411.47,257.75,412.46z"/>
							</g>
						</g>
						<g>
							<path class="st2" d="M331.05,464.78c-1.58,2.01-3.19,3.96-4.87,5.84c-5.04,5.67-11.58,10.88-19.57,10.78
								c-5.77-0.1-10.78-3.42-14.07-8.02c-2.05-2.85-3.36-6.21-3.89-9.7c-0.54-3.59-0.2-6.01,1.61-9.06
								c4.5-7.65,11.01-13.76,17.09-20.21h0.03c1.95-0.2,3.93-0.17,5.84,0.13c6.24,1.01,10.68,4.73,13.56,9.7
								C330.25,450.14,331.53,457.83,331.05,464.78z"/>
							<g>
								<path class="st3" d="M306.84,482.65h-0.24c-5.77-0.1-11.26-3.22-15.07-8.55c-2.12-2.94-3.54-6.48-4.11-10.24
									c-0.6-4.02-0.12-6.7,1.77-9.9c3.77-6.41,8.97-11.8,13.99-17.02c1.09-1.13,2.19-2.27,3.26-3.41l0.37-0.39h0.54
									c1.84-0.21,4.1-0.17,6.07,0.15c6.11,0.99,11.11,4.55,14.45,10.31c3.34,5.71,4.96,13.46,4.43,21.26l-0.03,0.39l-0.24,0.3
									c-1.72,2.19-3.33,4.12-4.92,5.91C320.43,478.99,313.8,482.65,306.84,482.65z M307.93,435.6c-0.98,1.03-1.96,2.06-2.95,3.08
									c-4.92,5.11-10.01,10.4-13.64,16.56c-1.6,2.7-1.97,4.78-1.45,8.24c0.52,3.36,1.79,6.53,3.67,9.16
									c3.35,4.68,8.11,7.41,13.07,7.5l0.2,1.25v-1.25c6.2,0,12.23-3.39,18.41-10.36c1.49-1.66,2.99-3.46,4.58-5.48
									c0.42-7.17-1.08-14.24-4.12-19.44c-3-5.16-7.27-8.22-12.68-9.09C311.4,435.51,309.66,435.46,307.93,435.6z"/>
							</g>
						</g>
						<g>
							<path class="st2" d="M224.87,416.77c-1.91,2.35-3.89,4.63-5.98,6.78c-3.63,3.79-8.29,7.25-13.8,6.95
								c-3.99-0.23-7.35-2.65-9.5-5.94c-1.34-2.01-2.18-4.36-2.45-6.78c-0.27-2.48,0.03-4.16,1.38-6.24
								c2.42-3.79,5.61-6.98,8.86-10.14c0.27-0.03,0.54-0.03,0.81-0.03c3.93,0,7.92,1.18,11.25,3.32c2.01,1.31,3.99,2.79,5.64,4.53
								C223.06,411.37,224.53,413.85,224.87,416.77z"/>
							<g>
								<path class="st3" d="M205.77,431.77c-0.24,0-0.49-0.01-0.74-0.02c-4.12-0.24-7.93-2.62-10.48-6.51
									c-1.44-2.16-2.35-4.69-2.65-7.33c-0.31-2.89,0.11-4.81,1.57-7.06c2.44-3.84,5.54-6.96,9.04-10.36l0.3-0.29l0.41-0.05
									c0.32-0.04,0.64-0.04,0.97-0.04c4.17,0,8.41,1.25,11.93,3.53c2.5,1.63,4.37,3.13,5.87,4.72c2.44,2.65,3.79,5.35,4.12,8.27
									l0.06,0.52l-0.33,0.41c-2.13,2.62-4.11,4.86-6.05,6.86C215.06,429.37,210.47,431.77,205.77,431.77z M203.92,402.61
									c-3.25,3.16-6.12,6.1-8.35,9.59c-1.14,1.76-1.44,3.13-1.19,5.44c0.25,2.23,1.02,4.39,2.25,6.22
									c2.11,3.23,5.22,5.19,8.53,5.38c4.17,0.33,8.37-1.91,12.82-6.56c1.79-1.84,3.61-3.9,5.56-6.28
									c-0.37-2.19-1.48-4.26-3.4-6.34c-1.36-1.44-3.08-2.82-5.4-4.33c-3.15-2.04-6.98-3.04-10.69-3.13
									C204.02,402.61,203.97,402.61,203.92,402.61z"/>
							</g>
						</g>
						<g>
							<path class="st2" d="M352.88,513.36c-1.75,2.85-3.56,5.71-5.47,8.39c-3.46,4.87-8.16,9.47-14.4,10.04
								c-4.5,0.4-8.7-1.78-11.65-5.1c-1.81-2.05-3.16-4.57-3.83-7.22c-0.74-2.79-0.67-4.7,0.5-7.25
								c2.55-5.61,6.45-10.44,10.27-15.31c6.24-1.78,12.69,0.74,17.66,4.6C349.65,504.36,351.87,508.76,352.88,513.36z"/>
							<g>
								<path class="st3" d="M331.94,533.09c-4.17,0-8.37-2.03-11.52-5.57c-1.96-2.22-3.38-4.89-4.1-7.74
									c-0.84-3.15-0.68-5.35,0.58-8.08c2.5-5.49,6.27-10.28,9.92-14.92l0.75-0.95l0.39-0.11c5.85-1.67,12.73,0.12,18.77,4.81
									c4.59,3.55,6.55,8.8,7.37,12.57l0.11,0.49l-0.26,0.43c-2.16,3.52-3.86,6.13-5.52,8.46c-4.68,6.59-9.69,10.04-15.31,10.56
									C332.72,533.07,332.33,533.09,331.94,533.09z M329.03,498.01l-0.24,0.31c-3.56,4.52-7.24,9.19-9.62,14.41
									c-1.01,2.2-1.12,3.81-0.43,6.41c0.63,2.48,1.85,4.79,3.55,6.71c2.92,3.29,6.8,5.04,10.6,4.69
									c4.84-0.45,9.26-3.56,13.49-9.52c1.56-2.19,3.16-4.64,5.16-7.89c-0.79-3.32-2.54-7.7-6.35-10.64
									C339.92,498.4,334.03,496.76,329.03,498.01z"/>
							</g>
						</g>
					</g>
					<g class="st13">
						<g class="st10">
							
								<rect x="323.89" y="-94.72" transform="matrix(0.7071 -0.7071 0.7071 0.7071 -142.6879 362.001)" class="st11" width="83.49" height="895.93"/>
						</g>
						<g class="st12">
							<polygon class="st11" points="662.62,689.77 652.88,699.5 19.36,66.02 29.14,56.24 							"/>
						</g>
					</g>
				</g>
				<g>
					<g>
						<path class="st3" d="M365.63,690.74c-185.47,0-336.37-150.9-336.37-336.37S180.16,18,365.63,18S702,168.9,702,354.37
							S551.1,690.74,365.63,690.74z M365.63,33.02c-177.19,0-321.34,144.16-321.34,321.35c0,177.19,144.16,321.35,321.34,321.35
							c177.19,0,321.35-144.16,321.35-321.35C686.98,177.18,542.82,33.02,365.63,33.02z"/>
					</g>
				</g>
			</g>
		</g>
	</g>
</g>
<g class="st0">
	<g class="st1">
		<g>
			
				<ellipse transform="matrix(0.7071 -0.7071 0.7071 0.7071 -162.2608 354.5559)" class="st2" cx="346.86" cy="373.14" rx="328.86" ry="328.86"/>
		</g>
	</g>
	<g class="st1">
		<g>
			<g>
				<g>
					
						<ellipse transform="matrix(0.7071 -0.7071 0.7071 0.7071 -143.4838 362.3337)" class="st2" cx="365.63" cy="354.37" rx="328.86" ry="328.86"/>
				</g>
			</g>
			<g>
				<g>
					<defs>
						
							<ellipse id="SVGID_5_" transform="matrix(0.7071 -0.7071 0.7071 0.7071 -143.4838 362.3337)" cx="365.63" cy="354.37" rx="328.86" ry="328.86"/>
					</defs>
					<clipPath id="SVGID_8_">
						<use xlink:href="#SVGID_5_"  style="overflow:visible;"/>
					</clipPath>
					<g class="st14">
						<g>
							<g>
								<g>
									<rect x="227.04" y="103.88" class="st2" width="71.18" height="89.96"/>
									<g>
										<path class="st3" d="M295.72,106.38v84.96h-66.17v-84.96H295.72 M300.72,101.37h-5.01h-66.17h-5.01v5.01v84.96v5.01h5.01
											h66.17h5.01v-5.01v-84.96V101.37L300.72,101.37z"/>
									</g>
								</g>
								<path class="st4" d="M295.72,180.39v10.95h-66.17v-84.96h18.66c-0.37,17.17-0.37,34.46-0.13,51.62c0,1.99,0.13,4.1,0.62,6.1
									c1.49,4.98,5.97,8.71,10.95,10.32c4.98,1.62,10.32,1.62,15.55,1.62c3.73,0,7.59,0,11.32-0.12c2.99,0,6.34,0.25,8.21,2.49
									C295.22,179.02,295.59,179.64,295.72,180.39z"/>
								<g>
									<polygon class="st2" points="293.21,193.84 293.21,103.7 422.41,112.23 510.92,138.34 510.92,193.84 									"/>
									<g>
										<path class="st3" d="M295.72,106.38l22.64,1.49l103.61,6.84l86.45,25.5v51.12h-212.7V106.38 M290.71,101.03v5.35v84.96
											v5.01h5.01h212.7h5.01v-5.01v-51.12v-3.74l-3.59-1.06l-86.45-25.5l-0.53-0.16l-0.55-0.04l-103.61-6.84l-22.64-1.49
											L290.71,101.03L290.71,101.03z"/>
									</g>
								</g>
								<path class="st4" d="M508.42,182.88v8.46h-212.7v-84.96l22.64,1.49c0,13.31-1,26.62,3.98,38.81
									c0.62,1.49,1.24,2.86,2.49,3.86c1.24,0.87,2.86,1.24,4.48,1.37c7.46,0.5,14.68-2.61,21.77-4.85
									c27.99-8.71,59.58-4.48,84.21,11.32c6.72,4.23,12.94,9.33,19.9,13.19C471.23,180.64,489.76,182.75,508.42,182.88z"/>
								<g>
									<path class="st2" d="M320.95,267.96v-71.77c0-19.23,14.92-35.02,33.97-35.96c0.42-0.11,1.2-0.13,1.99-0.13h25.12
										c19.9,0,36.09,16.19,36.09,36.09v71.77H320.95z"/>
									<g>
										<path class="st3" d="M382.04,162.6c18.53,0,33.59,15.05,33.59,33.58v69.26h-92.17v-69.26c0-17.91,13.93-32.59,31.59-33.46
											c0.62-0.12,1.24-0.12,1.87-0.12H382.04 M382.04,157.6h-25.13c-0.68,0-1.5,0-2.43,0.15
											c-20.23,1.17-36.04,17.99-36.04,38.44v69.26v5.01h5.01h92.17h5.01v-5.01v-69.26C420.64,174.91,403.32,157.6,382.04,157.6
											L382.04,157.6z"/>
									</g>
								</g>
								<path class="st4" d="M415.63,248.54v16.92h-92.17v-69.26c0-17.91,13.93-32.59,31.6-33.46c-5.47,8.46-5.85,19.65-5.85,29.98
									c-0.13,20.77-0.13,21.25-0.25,42.02c0,3.36,0.12,6.97,2.24,9.58c2.61,3.23,7.34,3.61,11.57,3.61
									C380.43,248.29,397.96,248.54,415.63,248.54z"/>
								<g>
									<path class="st2" d="M242.69,283.66c-2.81,0-5.61-0.72-8.1-2.08l-2.89-1.63c-5.84-3.19-9.19-9.27-8.72-15.84
										c0.3-6.26,4.16-11.82,10.05-14.46c2.43-1.17,4.45-3.07,5.63-5.34l38.4-71.82c2.96-3.69,6.63-6.06,10.87-7.27
										c0.67-0.27,1.26-0.27,1.59-0.27l0.13-0.07c0.27-0.06,0.54-0.12,0.81-0.16c1.07-0.09,1.83-0.15,2.66-0.15
										c2.96,0,6.2,0.79,9.6,2.34c0.91,0.51,1.55,0.97,2.21,1.46l0.7,0.51c2.78,2.2,4.79,4.78,6.06,7.76
										c1.11,2.48,1.69,5.33,1.69,8.2c0,4.59-1.56,9.05-4.41,12.57l-2.62,3.83l-1.54,2.5L257,276.11l-0.28,0.29
										c-0.63,0.86-1.53,2.05-2.8,3C250.93,282.1,246.87,283.66,242.69,283.66z"/>
									<g>
										<path class="st3" d="M293.12,167.08c2.86,0,5.84,0.87,8.57,2.11c0.87,0.5,1.61,1.12,2.48,1.74
											c2.36,1.86,4.1,4.1,5.22,6.71c0.99,2.24,1.49,4.72,1.49,7.2c0,3.85-1.24,7.76-3.85,10.99l-1.62,2.36l-1.12,1.61
											l-1.62,2.61l-47.64,72.11l-0.12,0.12c-0.75,0.99-1.49,1.99-2.48,2.73c-2.76,2.46-6.23,3.76-9.75,3.76
											c-2.35,0-4.71-0.58-6.9-1.77l-2.86-1.62c-5.34-2.92-7.83-8.26-7.45-13.48c0.25-5.03,3.17-9.94,8.57-12.36
											c2.86-1.37,5.34-3.6,6.83-6.46l38.39-71.8c2.55-3.11,5.9-5.09,9.5-6.09c0.25-0.13,0.5-0.13,0.75-0.13
											c0.43-0.06,0.87-0.19,1.3-0.25C291.57,167.14,292.31,167.08,293.12,167.08 M293.12,162.07c-0.95,0-1.83,0.07-2.71,0.14
											l-0.15,0.01l-0.15,0.02c-0.33,0.05-0.66,0.11-0.99,0.18l-0.12,0.02c-0.47,0.03-1.13,0.11-1.86,0.38
											c-4.69,1.36-8.75,4-11.75,7.66l-0.31,0.38l-0.23,0.43l-38.39,71.8c-0.96,1.83-2.57,3.34-4.58,4.3
											c-6.64,2.97-11.05,9.37-11.41,16.63c-0.53,7.45,3.32,14.44,10.05,18.12l2.8,1.58c2.92,1.59,6.14,2.42,9.36,2.42
											c4.74,0,9.32-1.74,12.93-4.9c1.35-1.05,2.31-2.27,3.09-3.31l0.11-0.11l0.4-0.54l47.64-72.11l1.63-2.62l1.05-1.51
											l1.53-2.23c3.12-3.94,4.83-8.89,4.83-13.98c0-3.22-0.66-6.41-1.92-9.24c-1.42-3.31-3.68-6.23-6.69-8.6l-0.86-0.64
											c-0.74-0.55-1.45-1.07-2.24-1.52l-0.2-0.11l-0.21-0.1C300.02,162.94,296.44,162.07,293.12,162.07L293.12,162.07z"/>
									</g>
								</g>
								<path class="st4" d="M310.88,184.85c0,3.85-1.24,7.76-3.85,10.99l-1.62,2.36l-1.12,1.61l-1.62,2.61l-47.64,72.11l-0.12,0.12
									c-0.75,0.99-1.49,1.99-2.48,2.73c-4.6,4.1-11.18,4.97-16.65,1.99l-2.86-1.62c-5.34-2.92-7.83-8.26-7.45-13.48
									c0.12,0.19,0.25,0.31,0.44,0.44c2.86,2.24,7.76,3.91,11.37,2.98c4.78-1.18,8.38-5.03,11.55-8.82
									c15.28-17.64,28.51-37.08,39.44-57.64c3.11-5.9,6.15-12.05,6.77-18.63c0.56-5.47-0.75-11.31-4.22-15.4
									c0.75-0.06,1.49-0.12,2.3-0.12c2.86,0,5.84,0.87,8.57,2.11c0.87,0.5,1.62,1.12,2.48,1.74c2.36,1.86,4.1,4.1,5.22,6.71
									C310.39,179.88,310.88,182.36,310.88,184.85z"/>
								<g>
									<path class="st2" d="M291.22,332.64v-43.93c0-14.2,11.5-25.76,25.64-25.76h105.23c14.2,0,25.76,11.56,25.76,25.76v43.93
										H291.22z"/>
									<g>
										<path class="st3" d="M422.1,265.45c12.81,0,23.26,10.45,23.26,23.26v41.42H293.73v-41.42c0-12.81,10.32-23.26,23.14-23.26
											H422.1 M422.1,260.45H316.86c-15.52,0-28.14,12.68-28.14,28.27v41.42v5.01h5.01h151.63h5.01v-5.01v-41.42
											C450.36,273.13,437.68,260.45,422.1,260.45L422.1,260.45z"/>
									</g>
								</g>
								<path class="st4" d="M445.36,312.72v17.41H293.73v-41.42c0-12.81,10.32-23.26,23.14-23.26h4.98v44.78
									C363.01,310.48,404.18,311.35,445.36,312.72z"/>
								<g>
									<path class="st2" d="M256.27,384.51v-33.1c0-13.11,10.61-23.77,23.65-23.77h179.25c13.04,0,23.65,10.66,23.65,23.77v33.1
										H256.27z"/>
									<g>
										<path class="st3" d="M459.16,330.13c11.69,0,21.14,9.45,21.14,21.27v30.6H258.77v-30.6c0-11.82,9.45-21.27,21.15-21.27
											H459.16 M459.16,325.13H279.92c-14.42,0-26.15,11.79-26.15,26.28v30.6v5.01h5.01h221.54h5.01v-5.01v-30.6
											C485.32,336.92,473.58,325.13,459.16,325.13L459.16,325.13z"/>
									</g>
								</g>
								<path class="st4" d="M480.31,361.48v20.52H258.77v-30.6c0-11.82,9.45-21.27,21.15-21.27h7.09c-0.5,8.33-0.25,16.67,0.75,25
									c0.12,1,0.25,1.99,0.75,2.86c1,2.12,3.61,2.86,5.97,3.11c1.87,0.25,3.73,0.5,5.6,0.5L480.31,361.48z"/>
								<g>
									<path class="st2" d="M203.05,183.25c-5.94,0-10.76-4.83-10.76-10.76v-47.27c0-5.94,4.83-10.77,10.76-10.77h23.81v68.8
										H203.05z"/>
									<g>
										<path class="st3" d="M224.36,116.96v63.79h-21.3c-4.53,0-8.26-3.73-8.26-8.26v-47.27c0-4.6,3.73-8.26,8.26-8.26H224.36
											 M229.37,111.95h-5.01h-21.3c-7.32,0-13.27,5.95-13.27,13.27v47.27c0,7.32,5.95,13.27,13.27,13.27h21.3h5.01v-5.01v-63.79
											V111.95L229.37,111.95z"/>
									</g>
								</g>
								<path class="st4" d="M224.36,116.96v63.79h-21.3c-4.53,0-8.26-3.73-8.26-8.26v-0.43c4.16-0.06,8.2-0.62,12.17-1.55
									c2.48-0.68,5.22-1.68,6.52-3.97c0.93-1.62,0.93-3.6,0.93-5.47c0-14.66,0-29.38-0.06-44.1H224.36z"/>
								<g>
									<path class="st2" d="M254.34,753.92c-27.03,0-49.03-22.05-49.03-49.15V428.63c0-27.1,21.99-49.15,49.03-49.15H484.7
										c27.03,0,49.03,22.05,49.03,49.15v276.14c0,27.1-21.99,49.15-49.03,49.15H254.34z"/>
									<g>
										<path class="st3" d="M484.7,381.98c25.62,0,46.52,20.9,46.52,46.65v276.14c0,25.75-20.9,46.65-46.52,46.65H254.34
											c-25.62,0-46.52-20.9-46.52-46.65V428.63c0-25.75,20.9-46.65,46.52-46.65H484.7 M484.7,376.97H254.34
											c-28.41,0-51.53,23.17-51.53,51.65v276.14c0,28.48,23.12,51.65,51.53,51.65H484.7c28.41,0,51.53-23.17,51.53-51.65V428.63
											C536.23,400.15,513.12,376.97,484.7,376.97L484.7,376.97z"/>
									</g>
								</g>
								<path class="st4" d="M254.34,735.25c-16.74,0-30.36-13.67-30.36-30.48V454.03h291.07v250.74
									c0,16.81-13.62,30.48-30.36,30.48H254.34z"/>
								<g>
									<path class="st2" d="M493.45,715.24h-9.82c-1.83,0-3.31-1.48-3.31-3.31V411.46c0-1.83,1.48-3.31,3.31-3.31h9.82
										c1.83,0,3.31,1.48,3.31,3.31v300.47C496.76,713.76,495.28,715.24,493.45,715.24z"/>
								</g>
							</g>
						</g>
						<g>
							<rect x="207.51" y="519.44" class="st2" width="324.07" height="84.86"/>
							<path class="st3" d="M529.07,521.94v79.86H210.01v-79.86H529.07 M534.08,516.93h-5.01H210.01h-5.01v5.01v79.86v5.01h5.01
								h319.06h5.01v-5.01v-79.86V516.93L534.08,516.93z"/>
						</g>
						<path class="st4" d="M529.07,585.63v16.17H210.01v-79.86h18.04c0,15.55,0,30.97-0.13,46.52c0,3.36,0.13,6.97,2.36,9.45
							c2.36,2.49,6.22,2.86,9.58,3.11c83.09,4.73,166.31,2.49,249.4,1.87C502.58,582.77,516.13,582.77,529.07,585.63z"/>
						<g>
							<path class="st2" d="M365.63,657.64c-52.82,0-95.79-42.97-95.79-95.79c0-52.82,42.97-95.8,95.79-95.8
								c52.83,0,95.8,42.97,95.8,95.8C461.43,614.66,418.46,657.64,365.63,657.64z"/>
							<path class="st3" d="M365.63,468.55c51.52,0,93.29,41.77,93.29,93.29c0,51.52-41.77,93.29-93.29,93.29
								c-51.52,0-93.29-41.77-93.29-93.29C272.34,510.32,314.11,468.55,365.63,468.55 M365.63,463.54c-54.2,0-98.3,44.1-98.3,98.3
								c0,54.2,44.1,98.3,98.3,98.3c54.2,0,98.3-44.1,98.3-98.3C463.93,507.64,419.84,463.54,365.63,463.54L365.63,463.54z"/>
						</g>
						<path class="st4" d="M433.42,625.81c-16.92,18.16-41.05,29.36-67.79,29.36c-51.5,0-93.29-41.79-93.29-93.29
							c0-33.09,17.17-62.07,43.16-78.61c-15.92,16.67-25.62,39.18-25.62,64.06c0,51.5,41.79,93.29,93.29,93.29
							C401.7,640.61,418.99,635.14,433.42,625.81z"/>
						<g>
							<path class="st2" d="M354.3,617.36c-5.42,0-9.84-4.36-9.84-9.72v-24.74h-24.62c-5.36,0-9.72-4.36-9.72-9.72v-22.76
								c0-5.36,4.36-9.72,9.72-9.72h24.62V516.1c0-5.36,4.42-9.72,9.84-9.72h22.77c5.36,0,9.72,4.36,9.72,9.72v24.62h24.61
								c5.36,0,9.72,4.36,9.72,9.72v22.76c0,5.36-4.36,9.72-9.72,9.72h-24.61v24.74c0,5.36-4.36,9.72-9.72,9.72H354.3z"/>
							<path class="st3" d="M377.07,508.88c3.98,0,7.22,3.23,7.22,7.21v27.12h27.12c3.98,0,7.21,3.23,7.21,7.21v22.76
								c0,3.98-3.23,7.21-7.21,7.21h-27.12v27.24c0,3.98-3.23,7.21-7.22,7.21H354.3c-4.1,0-7.34-3.23-7.34-7.21V580.4h-27.12
								c-3.98,0-7.21-3.23-7.21-7.21v-22.76c0-3.98,3.23-7.21,7.21-7.21h27.12V516.1c0-3.98,3.23-7.21,7.34-7.21H377.07
								 M377.07,503.87H354.3c-6.81,0-12.35,5.48-12.35,12.22v22.11h-22.11c-6.74,0-12.22,5.48-12.22,12.22v22.76
								c0,6.74,5.48,12.22,12.22,12.22h22.11v22.23c0,6.74,5.54,12.22,12.35,12.22h22.76c6.74,0,12.22-5.48,12.22-12.22v-22.23
								h22.11c6.74,0,12.22-5.48,12.22-12.22v-22.76c0-6.74-5.48-12.22-12.22-12.22h-22.11V516.1
								C389.29,509.36,383.81,503.87,377.07,503.87L377.07,503.87z"/>
						</g>
						<path class="st4" d="M349.2,543.96c-0.75-0.5-1.49-0.87-2.24-1.24V516.1c0-3.98,3.23-7.21,7.34-7.21h4.23l0.13,23.63v12.94
							c-2.49-0.37-5.1,0.75-7.34-0.25C350.57,544.83,349.95,544.33,349.2,543.96z"/>
						<path class="st4" d="M384.28,602.55v5.1c0,3.98-3.23,7.21-7.21,7.21H354.3c-4.1,0-7.34-3.23-7.34-7.21V580.4h-27.12
							c-3.98,0-7.21-3.23-7.21-7.21v-22.76c0-3.98,3.23-7.21,7.21-7.21h2.24c0,0,0,14.67,0,15.72c0,3.24-1.47,10.77,2.55,11.99
							c3.76,1.14,9.32,0.11,13.23,0.11c7.03,0,14.06,0,21.09,0c0.19,0,0.39,0,0.58,0c0,2.58,0.6,5.05,0.55,7.68
							c-0.06,2.7-0.35,5.39-0.35,8.09c0,2.84,0,5.68,0,8.53c0,3.92-0.9,7.56,4.14,7.47C370.72,602.67,377.44,602.67,384.28,602.55z"
							/>
					</g>
				</g>
				<g>
					<g>
						<path class="st3" d="M365.63,690.74c-185.47,0-336.36-150.9-336.36-336.37S180.16,18,365.63,18C551.1,18,702,168.9,702,354.37
							S551.1,690.74,365.63,690.74z M365.63,33.02c-177.19,0-321.34,144.16-321.34,321.35c0,177.19,144.15,321.35,321.34,321.35
							s321.35-144.16,321.35-321.35C686.98,177.18,542.82,33.02,365.63,33.02z"/>
					</g>
				</g>
			</g>
		</g>
	</g>
</g>
<g>
	<g>
		<circle class="st15" cx="360" cy="360" r="57.78"/>
		<g>
			<defs>
				<circle id="SVGID_9_" cx="360" cy="360" r="57.78"/>
			</defs>
			<clipPath id="SVGID_10_">
				<use xlink:href="#SVGID_9_"  style="overflow:visible;"/>
			</clipPath>
			<g class="st16">
				<g>
					<g>
						<line class="st17" x1="375.08" y1="364.94" x2="379.92" y2="362.56"/>
						<line class="st17" x1="375.27" y1="367.35" x2="380.61" y2="368.13"/>
					</g>
					<g>
						<line class="st17" x1="374.68" y1="369.85" x2="378.9" y2="373.19"/>
					</g>
				</g>
				<g>
					<path class="st18" d="M365.14,344.17c0,0,5.5-0.58,6.91-3.59"/>
					<path class="st18" d="M384.38,343.12c0,0-3.14-0.4-4.58-3.17"/>
				</g>
				<path class="st19" d="M369.8,349.79c0,0,3.06-3.48,7.84-1.12"/>
				<path class="st20" d="M341.44,337.82c1.19-0.8,2.88-0.93,4.28-0.39c-1.11-7.62,0.39-15.31,6.3-19.97
					c1.25-0.98,2.58-1.72,3.97-2.23c6.54-2.43,14.21,0.11,19.6,4.85c5.39,4.74,8.66,11.83,9.38,19.07
					c0.97,9.71-3.04,20.1-12.83,22.71c-0.5,0.13-1,0.23-1.51,0.31l0.35,15.89c0.19,6.72-5.63,12.04-12.3,11.24
					c-5.78-0.69-10.02-5.76-9.68-11.57c0,0,0.89-24.1,0.94-27.38c0-0.18-0.18-0.27-0.33-0.2c-1.9,0.91-4.32,1.01-6.18,0.14
					c-2.31-1.08-4.05-3.53-4.4-6.2C338.71,341.69,339.57,339.08,341.44,337.82z"/>
				<path class="st21" d="M346.27,345.3c-1.4,0-2.54-0.87-2.54-1.95c0-0.81,0.63-1.51,1.54-1.81"/>
				<path class="st22" d="M370.83,367.63l-0.02-5.71c0,0-9.54,1.93-17.12-6.71C353.69,355.21,357.62,365.51,370.83,367.63z"/>
				<path class="st23" d="M359.51,313.47c6.07,0.06,27.86-2.54,23.35,6.62c-4.51,9.16-23.32,3.41-23.32,3.41s-3.1,22.01-15.31,13.79
					c0,0-0.87-1.39-2.79,0.54C341.44,337.82,331.57,313.2,359.51,313.47z"/>
				<g>
					<path class="st17" d="M364.83,339.07c2.65-0.74,6.31-0.52,6.31-0.52l-2.7-1.8"/>
					<path class="st17" d="M383.11,335.97c0,0-2.6,0.15-4.26,1.06l1.34-2.22"/>
				</g>
				<g>
					<path class="st24" d="M407.46,427.78c0,0-11.15-50.79-36.08-55.15c-7.98,2.8-15.8,1.98-23.71-0.89
						c-27.44,7.24-35.13,54.9-35.13,54.9L407.46,427.78z"/>
					<line class="st19" x1="347.75" y1="440.02" x2="347.91" y2="435.5"/>
				</g>
				<g>
					<path class="st25" d="M376.12,343.04c0.15-0.44,0.37-0.8,0.62-1.14c0.25-0.34,0.53-0.64,0.83-0.93l0.21,1.02
						c-0.63-0.31-0.92-0.71-1.23-1.09c-0.28-0.4-0.54-0.8-0.75-1.22c-0.43-0.83-0.76-1.7-0.96-2.62c0.61,0.71,1.17,1.43,1.73,2.12
						c0.29,0.34,0.56,0.69,0.86,0.99c0.28,0.3,0.61,0.6,0.82,0.66l0.91,0.28l-0.7,0.75c-0.28,0.3-0.58,0.6-0.92,0.84
						c-0.33,0.25-0.69,0.48-1.13,0.64c-0.12,0.04-0.26-0.02-0.3-0.14C376.11,343.14,376.11,343.09,376.12,343.04z"/>
				</g>
				<path class="st19" d="M372.11,329.07c0,0-1.83,5.29-8.26,4.83"/>
				<path class="st19" d="M375.82,328.32c0,0,1.54,4.37,6.86,3.96"/>
				<g class="st26">
					<g>
						<path class="st27" d="M361.34,368.48c-0.72,0.09-1.27,0.73-1.1,1.48c0.16,0.71,0.94,1.02,1.59,0.74
							c0.71-0.31,0.95-1.19,0.43-1.8c-0.55-0.64-1.53-0.57-2.01,0.11c-0.92,1.32,0.81,2.76,2.07,2.01c0.64-0.38,0.88-1.19,0.72-1.88
							c-0.16-0.71-0.77-1.24-1.47-1.39c-1.38-0.29-2.87,0.79-2.78,2.27c0.09,1.53,1.97,2.38,3.33,2.08c1.63-0.36,1.98-2.33,1-3.51
							c-0.95-1.14-2.93-1.45-4.04-0.38c-1.02,0.99-1.01,2.62-0.06,3.63c1.01,1.08,2.72,1.18,3.91,0.34
							c1.24-0.88,2.03-2.73,0.91-4.02c-0.49-0.56-1.24-0.87-1.94-1.07c-0.8-0.23-1.67-0.31-2.5-0.21c-0.83,0.1-1.53,0.48-1.88,1.27
							c-0.31,0.68-0.33,1.45-0.13,2.16c0.43,1.5,1.75,2.51,3.28,2.67c1.47,0.15,2.99-0.54,3.78-1.79c0.79-1.25,0.62-2.99-0.53-3.95
							c-1.07-0.89-2.56-1.02-3.9-0.93c-0.76,0.05-1.66,0.09-2.35,0.46c-0.67,0.36-1.02,1.06-1.13,1.78
							c-0.18,1.18,0.05,2.55,0.93,3.41c0.77,0.75,1.83,1.13,2.89,1.16c0.72,0.02,1.44-0.13,2.12-0.37c0.77-0.27,0.44-1.5-0.34-1.23
							c-0.81,0.28-1.67,0.44-2.52,0.22c-0.31-0.08-0.52-0.17-0.79-0.33c-0.26-0.15-0.3-0.19-0.51-0.4
							c-0.04-0.05-0.22-0.27-0.12-0.12c-0.08-0.11-0.15-0.23-0.2-0.35c-0.19-0.43-0.25-0.92-0.24-1.39
							c0.01-0.35,0.06-0.77,0.28-1.05c0.28-0.35,0.85-0.38,1.26-0.43c1.36-0.17,3.9-0.34,4.33,1.43c0.21,0.84-0.26,1.7-0.95,2.16
							c-0.76,0.51-1.73,0.64-2.59,0.33c-0.79-0.28-1.39-1.01-1.53-1.84c-0.07-0.38-0.03-0.82,0.18-1.16
							c0.24-0.38,0.68-0.42,1.09-0.44c0.93-0.04,2.14,0.11,2.89,0.72c0.72,0.59,0.28,1.59-0.28,2.11c-0.59,0.55-1.46,0.71-2.16,0.28
							c-0.61-0.37-0.89-1.09-0.57-1.75c0.37-0.76,1.29-0.82,1.97-0.44c0.54,0.3,1.13,1.2,0.44,1.69c-0.54,0.38-1.73,0.03-2.01-0.55
							c-0.28-0.58,0.39-1.22,0.94-1.22c0.32,0,0.67,0.14,0.75,0.48c0.05,0.2-0.03,0.47-0.18,0.51c-0.09,0.03-0.19,0-0.27-0.04
							c-0.06-0.03-0.09-0.09-0.09-0.07c0-0.05,0.04-0.08,0.04-0.12c0.01-0.05-0.04,0.03-0.04,0c0,0.03,0.03-0.12,0.05-0.18
							c0,0-0.06-0.01-0.03,0c0.11,0.04,0.11,0.08,0.19,0.15c0.05,0.05-0.06,0.03,0.01,0c-0.08,0.04,0.07,0.04-0.15,0.06
							c0.34-0.04,0.64-0.26,0.64-0.64C361.98,368.81,361.69,368.44,361.34,368.48L361.34,368.48z"/>
					</g>
				</g>
				<g>
					<g>
						<path class="st15" d="M363.16,385.09c-1.87,0.91,2.17-8.65,2.37-10.31c0.16-1.32-0.89-1.66-1.65-0.62
							c-1.22,1.68-3.79,9.33-4.9,9.79c-0.59-1.69,2.48-8.65,1.39-9.5c-2.41-1.89-5.92,13.13-6.13,13.84
							c-0.2,0.69-1.02-1.38-1.45-5.33c-0.28-2.58-2.47-3.89-2.4-1.49c0.11,3.69-0.06,9.71,0.97,13.42l-5.33,13.79l8.21,9.96
							c0,0,6.61-17.29,7.12-18.34c5.4-6.73,7.79-12.53,8.57-14c1.65-3.14,1.46-4.97,0.21-4.14c-0.81,0.54-3.37,5.7-4.43,5.39
							c-0.65-0.19,4.25-9.3,2.61-10.08C366.58,376.63,364.43,384.47,363.16,385.09z"/>
						<path class="st19" d="M363.16,385.09c-1.87,0.91,2.17-8.65,2.37-10.31c0.16-1.32-0.89-1.66-1.65-0.62
							c-1.22,1.68-3.79,9.33-4.9,9.79c-0.59-1.69,2.48-8.65,1.39-9.5c-2.41-1.89-5.92,13.13-6.13,13.84
							c-0.2,0.69-1.02-1.38-1.45-5.33c-0.28-2.58-2.47-3.89-2.4-1.49c0.11,3.69-0.06,9.71,0.97,13.42l-5.33,13.79l8.21,9.96
							c0,0,6.61-17.29,7.12-18.34c5.4-6.73,7.79-12.53,8.57-14c1.65-3.14,1.46-4.97,0.21-4.14c-0.81,0.54-3.37,5.7-4.43,5.39
							c-0.65-0.19,4.25-9.3,2.61-10.08C366.58,376.63,364.43,384.47,363.16,385.09z"/>
						<polygon class="st24" points="346.92,394.4 367.95,408.71 352.59,443.53 326.99,437.56 						"/>
					</g>
					<line class="st17" x1="346.92" y1="394.4" x2="331.61" y2="427.55"/>
				</g>
			</g>
		</g>
	</g>
</g>
<g>
	<g>
		<circle class="st15" cx="360" cy="360" r="57.78"/>
		<g>
			<defs>
				<circle id="SVGID_11_" cx="360" cy="360" r="57.78"/>
			</defs>
			<clipPath id="SVGID_12_">
				<use xlink:href="#SVGID_11_"  style="overflow:visible;"/>
			</clipPath>
			<g class="st28">
				<g>
					<path class="st19" d="M366.78,336.45c0,0,1.53-4.37,6.85-3.98"/>
					<path class="st19" d="M386.05,339.75c0,0-0.12-4.63-5.31-5.87"/>
					<path class="st20" d="M343.67,337.23c1.32-0.58,3-0.4,4.28,0.38c0.27-7.7,3.12-15,9.77-18.52c1.4-0.74,2.85-1.23,4.3-1.49
						c6.87-1.22,13.96,2.65,18.42,8.28c4.46,5.63,6.4,13.19,5.82,20.44c-0.78,9.72-6.59,19.24-16.68,20.05
						c-0.51,0.04-1.03,0.05-1.54,0.04l-2.5,15.69c-1.01,6.64-7.69,10.84-14.11,8.86c-5.56-1.71-8.83-7.46-7.45-13.11
						c0,0,5.19-23.55,5.83-26.77c0.03-0.17-0.12-0.3-0.29-0.26c-2.03,0.55-4.43,0.22-6.1-0.97c-2.08-1.47-3.35-4.19-3.22-6.89
						C340.29,340.55,341.6,338.14,343.67,337.23z"/>
					<path class="st21" d="M347.08,345.46c-1.38-0.25-2.34-1.31-2.15-2.37c0.14-0.8,0.89-1.37,1.84-1.5"/>
					<g>
						<path class="st25" d="M376.86,348.57c0.22-0.4,0.51-0.72,0.81-1.01c0.3-0.29,0.64-0.53,0.98-0.76l0.03,1.04
							c-0.56-0.42-0.78-0.86-1.02-1.3c-0.21-0.44-0.39-0.88-0.52-1.33c-0.27-0.9-0.45-1.81-0.48-2.75c0.48,0.81,0.89,1.61,1.32,2.4
							c0.22,0.39,0.43,0.77,0.67,1.12c0.22,0.34,0.5,0.7,0.69,0.8l0.85,0.43l-0.82,0.61c-0.33,0.25-0.68,0.48-1.05,0.67
							c-0.37,0.19-0.77,0.35-1.22,0.42c-0.13,0.02-0.25-0.07-0.27-0.2C376.82,348.67,376.83,348.62,376.86,348.57z"/>
					</g>
					<path class="st22" d="M367.24,371.81l1.01-5.62c0,0-9.73,0.19-15.64-9.66C352.61,356.53,354.63,367.37,367.24,371.81z"/>
					<path class="st23" d="M365.8,316.51c5.96,1.14,27.86,2.48,21.79,10.69c-6.08,8.2-23.55-0.82-23.55-0.82
						s-6.98,21.11-17.53,10.83c0,0-0.61-1.52-2.84,0.03C343.67,337.23,338.36,311.24,365.8,316.51z"/>
					<g>
						<path class="st17" d="M366.24,342.3c2.75,0.1,6.16,1.43,6.16,1.43l-2.02-2.54"/>
						<path class="st17" d="M384.59,344.94c0,0-2.52-0.65-4.38-0.29l1.95-1.71"/>
					</g>
					<path class="st19" d="M369.83,353.15c0,0,3.51-3.02,7.92-0.02"/>
				</g>
				<g>
					<path class="st24" d="M402.98,431.5c0,0-10.52-53.69-34.97-58.52c-7.86,2.88-15.53,1.95-23.28-1.16
						c-27.02,7.39-34.97,57.61-34.97,57.61L402.98,431.5z"/>
					<line class="st19" x1="342.26" y1="397.07" x2="340.83" y2="430.12"/>
				</g>
				<g>
					<g>
						<path class="st15" d="M393.59,387.65c-2.06,0.23,4.94-7.42,5.69-8.92c0.59-1.19-0.28-1.86-1.35-1.13
							c-1.71,1.17-6.7,7.52-7.9,7.58c0.01-1.79,5.23-7.32,4.5-8.48c-1.64-2.59-9.98,10.39-10.41,10.99
							c-0.42,0.58-0.5-1.64,0.42-5.51c0.61-2.52-1.02-4.49-1.76-2.21c-1.14,3.51-3.31,9.13-3.59,12.97l-9.64,11.2l4.4,12.13
							c0,0,12.02-14.07,12.86-14.89c7.34-4.53,11.54-9.19,12.76-10.32c2.6-2.4,3.04-4.2,1.58-3.83c-0.95,0.24-5.08,4.24-5.98,3.59
							c-0.55-0.4,7.12-7.34,5.84-8.62C399.65,380.83,395,387.49,393.59,387.65z"/>
						<path class="st19" d="M393.59,387.65c-2.06,0.23,4.94-7.42,5.69-8.92c0.59-1.19-0.28-1.86-1.35-1.13
							c-1.71,1.17-6.7,7.52-7.9,7.58c0.01-1.79,5.23-7.32,4.5-8.48c-1.64-2.59-9.98,10.39-10.41,10.99
							c-0.42,0.58-0.5-1.64,0.42-5.51c0.61-2.52-1.02-4.49-1.76-2.21c-1.14,3.51-3.31,9.13-3.59,12.97l-9.64,11.2l4.4,12.13
							c0,0,12.02-14.07,12.86-14.89c7.34-4.53,11.54-9.19,12.76-10.32c2.6-2.4,3.04-4.2,1.58-3.83c-0.95,0.24-5.08,4.24-5.98,3.59
							c-0.55-0.4,7.12-7.34,5.84-8.62C399.65,380.83,395,387.49,393.59,387.65z"/>
						<polygon class="st24" points="375.17,390.99 390.19,411.51 364.05,439.18 341.93,424.97 						"/>
					</g>
					<line class="st17" x1="375.17" y1="390.99" x2="349.64" y2="417.09"/>
				</g>
			</g>
		</g>
	</g>
</g>
<g>
	<g>
		<g>
			<circle class="st15" cx="360" cy="360" r="342"/>
			<g>
				<defs>
					<circle id="SVGID_13_" cx="360" cy="360" r="342"/>
				</defs>
				<clipPath id="SVGID_14_">
					<use xlink:href="#SVGID_13_"  style="overflow:visible;"/>
				</clipPath>
				<g class="st29">
					<path class="st19" d="M422.01,172.62c0,0-8.96,25.91-40.47,23.67"/>
					<path class="st19" d="M460.75,172.51c0,0,9.11,25.86,40.6,23.44"/>
					<path class="st20" d="M250.15,228.72c7.05-4.76,17.03-5.49,25.33-2.33c-6.6-45.11,2.31-90.65,37.28-118.18
						c7.39-5.82,15.28-10.18,23.47-13.22c38.72-14.38,84.13,0.65,116.03,28.7c31.93,28.08,51.25,70.03,55.54,112.85
						c5.75,57.46-18.01,119-75.94,134.42c-2.95,0.79-5.93,1.37-8.91,1.85l2.05,94.04c1.15,39.76-33.31,71.25-72.82,66.53
						c-34.2-4.09-59.3-34.1-57.27-68.48c0,0,5.27-142.62,5.59-162.06c0.02-1.04-1.04-1.63-1.98-1.18
						c-11.23,5.36-25.57,5.97-36.57,0.84c-13.66-6.37-23.95-20.87-26.06-36.69C233.98,251.61,239.1,236.18,250.15,228.72z"/>
					<path class="st21" d="M278.75,272.99c-8.29,0.02-15.03-5.14-15.05-11.53c-0.01-4.79,3.76-8.92,9.14-10.69"/>
					<g>
						<path class="st25" d="M456.19,260.36c0.78-0.95,1.62-1.86,2.42-2.78l2.5-2.71c0.82-0.91,1.7-1.77,2.55-2.65l2.57-2.63
							l0.21,1.02c-1.36-0.59-2.47-1.48-3.48-2.41c-1.01-0.94-1.93-1.96-2.79-3.01c-1.72-2.11-3.28-4.33-4.7-6.63
							c-1.42-2.3-2.77-4.64-4.04-7.01c-1.24-2.39-2.46-4.79-3.55-7.26c1.31,2.35,2.63,4.69,4.04,6.98c1.38,2.31,2.8,4.58,4.31,6.8
							c1.52,2.2,3.06,4.39,4.79,6.42c0.86,1.01,1.77,1.98,2.74,2.85c0.97,0.87,2.02,1.66,3.15,2.12l0.87,0.36l-0.66,0.66l-2.6,2.61
							c-0.87,0.86-1.72,1.75-2.62,2.59l-2.67,2.54c-0.92,0.82-1.81,1.66-2.75,2.46c-0.09,0.08-0.22,0.06-0.3-0.03
							C456.12,260.55,456.12,260.44,456.19,260.36z"/>
					</g>
					<path class="st22" d="M424.07,405.13l-0.1-33.79c0,0-56.49,11.4-101.32-39.71C322.66,331.64,345.94,392.61,424.07,405.13z"/>
					<path class="st23" d="M357.12,84.6c35.91,0.35,164.89-15.04,138.2,39.17c-26.69,54.21-138.03,20.17-138.03,20.17
						s-18.32,130.3-90.65,81.6c0,0-5.14-8.23-16.49,3.18C250.15,228.72,191.73,82.97,357.12,84.6z"/>
					<g>
						<path class="st17" d="M388.56,236.1c15.67-4.4,37.32-3.09,37.32-3.09l-15.95-10.67"/>
						<path class="st17" d="M496.78,217.79c0,0-15.38,0.9-25.22,6.3l7.91-13.16"/>
					</g>
					<g>
						<path class="st24" d="M640.92,761.2c0,0-65.98-300.63-213.57-326.45c-47.23,16.56-93.5,11.73-140.33-5.27
							C124.6,472.32,79.08,754.44,79.08,754.44L640.92,761.2z"/>
						<line class="st19" x1="295.17" y1="611.18" x2="288.41" y2="806.89"/>
					</g>
					<path class="st19" d="M437.54,291.47c0,0,10.35-11.4,23.21-3.31"/>
				</g>
			</g>
		</g>
	</g>
</g>
</svg>
