<?xml version="1.0" encoding="utf-8"?>
<!-- Generator: Adobe Illustrator 24.1.2, SVG Export Plug-In . SVG Version: 6.00 Build 0)  -->
<svg version="1.1" id="Layer_1" xmlns="http://www.w3.org/2000/svg" xmlns:xlink="http://www.w3.org/1999/xlink" x="0px" y="0px"
	 viewBox="0 0 720 720" style="enable-background:new 0 0 720 720;" xml:space="preserve">
<style type="text/css">
	.st0{fill:#6050AD;}
	.st1{fill:#7296E0;}
	.st2{fill:#82ABFE;}
	.st3{fill:#FEFEFE;}
	.st4{fill:#81E5DA;}
	.st5{fill:#7AD8CE;}
	.st6{fill:#61B2A9;}
	.st7{fill:#74CFC5;}
	.st8{fill:#C83E5F;}
	.st9{fill:#9E2E48;}
	.st10{fill:#932B43;}
	.st11{clip-path:url(#SVGID_2_);}
	.st12{fill:#BA3857;}
</style>
<g>
	<g>
		<path class="st0" d="M34.62,474.41c58,172.52,250.89,267.34,430.47,211.63c179.59-55.72,278.3-241.02,220.29-413.54
			C627.38,99.98,434.49,5.16,254.91,60.88C75.32,116.59-23.39,301.89,34.62,474.41"/>
		<g>
			<path class="st1" d="M511.29,155.76c-0.92-0.55-1.92-1-2.98-1.35c-2.17-0.73-4.4-0.99-6.63-0.77c-3.91,0.37-7.99,2.23-12.14,5.52
				c-3.44,2.7-6.72,6.13-10.32,10.77c-2.34,3.03-4.66,6.39-7.29,10.57c-0.19-2.72-0.51-5.47-0.89-8.18
				c-0.36-2.5-0.79-4.97-1.22-7.46c-0.77-4.35-1.91-10.01-3.99-15.34c-1.04-2.68-2.25-4.89-3.7-6.78c-1.04-1.37-2.3-2.51-3.63-3.31
				c-0.61-0.36-1.2-0.64-1.78-0.85c-2.4-0.86-5.28-0.74-7.71,0.33c-1.07,0.47-2.09,1.18-3.11,2.17c-1.06,1.04-1.8,2.19-2.39,3.18
				c-1.19,1.99-1.85,4.2-2.4,6.3c-0.48,1.85-0.83,3.9-1.06,6.29c-0.48,5-0.2,10.5,0.84,16.36c1.02,5.74,2.79,11.67,5.4,18.13
				c1.87,4.59,4.12,9.19,6.88,14.04c-1.79-0.31-3.6-0.55-5.41-0.73c-0.23-0.03-0.49,0.02-0.81,0.16
				c-16.37,0.42-33.05,1.94-49.58,4.5c-18.41,2.85-36.11,6.97-52.58,12.29c-18.03,5.79-34.28,12.98-48.29,21.35
				c-7.35,4.38-14.28,9.26-20.61,14.52c-6.24,5.18-12.02,11-17.2,17.31c-5.09,6.2-9.46,12.98-12.99,20.17
				c-3.62,7.37-6.33,15.22-8.06,23.31c-1.79,8.35-2.56,17.26-2.31,26.49c0.23,7.91,1.2,15.55,2.91,22.72
				c1.49,6.35,3.65,12.79,6.59,19.68c2.68,6.26,6.03,12.68,9.97,19.06c7.6,12.31,17.2,24.1,28.52,35.07
				c11.08,10.73,23.51,20.26,36.94,28.33l0.35,0.21c13.4,8,27.37,14.15,41.52,18.28c14.73,4.31,29.27,6.19,43.22,5.59
				c3.4-0.15,7-0.47,10.68-0.98c3.78-0.52,7.73-1.3,12.43-2.45c9.06-2.2,17.84-5.34,26.08-9.33c7.52-3.64,14.74-8.21,21.48-13.59
				c6.05-4.84,11.8-10.63,17.09-17.23c9.51-11.84,16.91-26.17,22.01-42.61c4.62-14.94,7.14-31.5,7.51-49.24
				c0.34-16.38-1.3-33.43-4.85-50.67c-0.97-4.65-2.19-9.75-3.87-16.04c-1.57-5.89-3.38-12.07-5.69-19.45
				c-4.1-13.07-8.79-26.34-12.87-37.75c-0.16-0.45-0.38-0.91-0.93-1.25c-0.38-0.22-0.84-0.33-1.29-0.3c-0.53-1.1-1.1-2.2-1.68-3.31
				c0.17,0.08,0.36,0.1,0.57,0.09c4.51-0.21,8.59-0.58,12.49-1.13c2.03-0.3,4.08-0.65,6.08-1.04c5.53-1.05,10.9-2.37,15.96-3.9
				c6.2-1.87,11.59-4.02,16.46-6.55c2.53-1.32,4.81-2.75,6.79-4.27c2.18-1.67,3.9-3.37,5.25-5.16c1.45-1.93,2.47-4.01,3.01-6.2
				c0.32-1.24,0.61-3.13,0.2-5.07c-0.14-0.67-0.32-1.39-0.68-2.09c-0.42-0.8-0.89-1.47-1.55-2.17c-0.53-0.54-1.13-1.02-1.81-1.42
				c-0.58-0.34-1.2-0.63-1.82-0.86c-3.56-1.37-7.51-1.37-10.9-1.21c-4.69,0.22-9.37,1.09-13.32,1.92
				c-4.95,1.02-10.2,2.37-17.04,4.38c-2.14,0.64-4.29,1.29-6.42,1.94c1.11-1.44,2.14-2.96,3.14-4.49c2.69-4.1,4.82-7.96,6.5-11.78
				c0.94-2.16,1.71-4.32,2.3-6.42c0.55-1.96,0.88-4.03,0.98-6.16c0.08-1.91-0.17-3.78-0.76-5.54c-0.58-1.73-1.63-3.35-3.13-4.81
				C512.94,156.79,512.06,156.22,511.29,155.76"/>
			<path class="st1" d="M489.17,225.53c-0.48-0.24-1.03-0.31-1.54-0.17c-0.53,0.15-0.99,0.49-1.26,0.96
				c-0.22,0.41-0.37,1.04-0.17,1.48c2.1,4.72,3.83,9.57,5.72,14.36c0.2,0.52,0.49,0.93,1.01,1.21c0.47,0.24,1.03,0.31,1.55,0.17
				c1.01-0.27,1.83-1.43,1.42-2.44c-1.88-4.8-3.62-9.64-5.71-14.36c-0.22-0.48-0.44-0.87-0.91-1.15
				C489.24,225.57,489.21,225.55,489.17,225.53"/>
			<path class="st1" d="M490,224c-0.47-0.24-1.04-0.31-1.54-0.17c-0.54,0.14-0.99,0.49-1.26,0.96c-0.23,0.4-0.37,1.05-0.17,1.48
				c2.24,5.07,3.88,10.35,5.76,15.54c0.38,1.02,1.42,1.68,2.55,1.38c1.03-0.29,1.8-1.43,1.44-2.45c-1.89-5.2-3.53-10.47-5.78-15.54
				c-0.21-0.48-0.44-0.87-0.9-1.15C490.06,224.04,490.03,224.02,490,224"/>
			<path class="st1" d="M489.23,224.59c-1.03,0.28-1.81,1.43-1.43,2.44c2.06,5.54,3.61,11.25,5.82,16.73
				c0.2,0.53,0.47,0.93,1.01,1.21c0.46,0.24,1.03,0.31,1.54,0.16c1-0.26,1.83-1.43,1.42-2.44c-2.2-5.5-3.76-11.2-5.82-16.74
				c-0.18-0.49-0.52-0.9-0.95-1.16C490.37,224.52,489.81,224.42,489.23,224.59"/>
			<path class="st1" d="M490.61,225.27c-0.52-0.12-1.09-0.04-1.56,0.23c-0.46,0.27-0.81,0.71-0.94,1.23c-0.15,0.55,0,0.99,0.24,1.49
				c0.07,0.15,0.14,0.29,0.2,0.44c2.2,5.01,3.43,10.34,5.56,15.36c0.22,0.52,0.48,0.93,1.01,1.21c0.47,0.25,1.03,0.31,1.55,0.17
				c0.53-0.14,0.98-0.49,1.26-0.96c0.23-0.41,0.37-1.03,0.17-1.48c-1.17-2.75-2.07-5.58-2.99-8.41c-0.94-2.85-1.95-5.65-3.22-8.38
				c-0.12-0.25-0.36-0.47-0.63-0.62C491.05,225.41,490.82,225.33,490.61,225.27 M488.56,228.66c0.07,0.14,0.12,0.27,0.19,0.41
				C488.68,228.94,488.62,228.8,488.56,228.66"/>
			<path class="st1" d="M489.64,227.74c-0.46,0.27-0.8,0.71-0.93,1.23c-0.14,0.53-0.02,1,0.24,1.49c0.35,0.65,0.66,1.31,0.97,1.97
				c1.9,4.29,3.17,8.8,5.08,13.1c0.23,0.51,0.46,0.92,0.99,1.2c0.47,0.25,1.05,0.31,1.54,0.17c0.54-0.14,0.99-0.49,1.26-0.96
				c0.22-0.41,0.37-1.05,0.17-1.49c-2.36-5.28-3.79-10.89-6.5-16.04c-0.14-0.27-0.36-0.49-0.62-0.64
				C491.2,227.38,490.29,227.36,489.64,227.74"/>
			<path class="st2" d="M497.43,226.63c-3.5-0.13-6.94-0.63-10.34-1.41c-4.84-1.25-9.48-3.06-13.89-5.35
				c-4.36-2.41-8.42-5.27-12.07-8.62c-2.85-2.8-5.38-5.88-7.43-9.28c-0.53-0.86-1.8-1.42-2.79-1.53c-1.06-0.12-2.15,0.16-3.01,0.79
				c-0.88,0.65-1.45,1.62-1.58,2.68c-0.14,1.12,0.25,1.93,0.82,2.88c4.88,8.06,12.41,14.54,20.74,19.21
				c8.67,4.87,18.49,8.12,28.58,8.5c1.1,0.05,2.09-0.12,3-0.78c0.87-0.65,1.45-1.62,1.58-2.68c0.18-1.48-0.63-3.12-1.98-3.92
				C498.57,226.84,498.02,226.66,497.43,226.63 M460.75,210.88c0.08,0.07,0.15,0.15,0.24,0.22
				C460.9,211.03,460.83,210.95,460.75,210.88 M472.78,219.65l-0.33-0.17C472.56,219.53,472.67,219.59,472.78,219.65"/>
			<path class="st2" d="M504.66,236.08c-1.9-0.99-3.86-1.9-5.83-2.74c-0.6-0.26-1.2-0.5-1.81-0.73c-0.02-0.05-0.03-0.1-0.05-0.15
				c-0.22-0.59-0.47-1.08-1.03-1.41c-0.53-0.32-1.16-0.43-1.78-0.29c-0.59,0.14-1.13,0.49-1.45,0.99c-0.31,0.46-0.5,1.16-0.32,1.69
				c0.36,0.98,0.66,1.98,1,2.97c0.53,1.59,1.09,3.17,1.68,4.73c1.51,4.04,3.17,8.05,5.27,11.85c1.03,1.89,2.22,3.68,3.52,5.41
				c1.12,1.48,2.43,2.81,3.93,3.95c1.35,0.99,2.97,1.65,4.66,1.8c1.69,0.15,3.43-0.42,4.81-1.34c0.83-0.55,1.55-1.18,2.21-1.92
				c0.74-0.82,1.4-1.68,1.89-2.66c0.44-0.87,0.73-1.75,0.88-2.72c0.15-0.9,0.1-1.77-0.01-2.68c-0.11-0.85-0.41-1.65-0.73-2.43
				c-0.34-0.84-0.83-1.62-1.35-2.37c-1.17-1.67-2.61-3.13-4.16-4.5c-2.27-1.98-4.77-3.71-7.37-5.26
				C507.33,237.5,506,236.78,504.66,236.08 M512.19,243.93c-0.09-0.08-0.19-0.14-0.28-0.22c1.81,1.46,3.51,3.05,4.92,4.86
				c0.66,0.91,1.23,1.87,1.65,2.89c0.21,0.6,0.37,1.21,0.46,1.85c0.02,0.46,0,0.92-0.06,1.38c-0.09,0.41-0.22,0.8-0.38,1.19
				c-0.29,0.55-0.63,1.06-1.03,1.56c-0.6,0.67-1.27,1.31-2.01,1.85c-0.36,0.23-0.75,0.43-1.14,0.59c-0.28,0.09-0.56,0.15-0.84,0.18
				c-0.25,0.01-0.49-0.01-0.73-0.03c-0.35-0.09-0.69-0.2-1.03-0.33c-0.5-0.26-0.97-0.55-1.41-0.89c-1.02-0.86-1.9-1.85-2.71-2.89
				c-1.64-2.23-2.95-4.67-4.16-7.14c-1.31-2.66-2.45-5.39-3.52-8.14c0.05,0.12,0.11,0.24,0.15,0.37c-0.68-1.78-1.32-3.57-1.96-5.37
				c0.27,0.11,0.53,0.23,0.79,0.35c-0.09-0.05-0.18-0.09-0.28-0.13C503.41,238.03,508.07,240.69,512.19,243.93 M518.44,256
				c-0.03,0.07-0.06,0.15-0.1,0.22L518.44,256z M515.68,259.15c-0.04,0.03-0.08,0.05-0.11,0.07
				C515.6,259.2,515.64,259.18,515.68,259.15 M500.14,241.21c-0.03-0.07-0.05-0.12-0.08-0.19
				C500.09,241.09,500.11,241.15,500.14,241.21"/>
			<path class="st2" d="M520.78,217.76c-5.35,0.14-10.64,1.86-15.25,4.42c-2.31,1.27-4.47,2.82-6.37,4.61
				c-1.71,1.6-3.22,3.45-4.25,5.53c-0.23,0.46-0.36,0.86-0.25,1.38c0.11,0.46,0.42,0.88,0.84,1.13c0.42,0.27,0.95,0.35,1.44,0.24
				c0.3-0.06,0.65-0.22,0.9-0.45c2.54,0.13,5.09,0.37,7.63,0.54c4.21,0.28,8.43,0.51,12.66,0.5c2.13,0.01,4.24-0.05,6.35-0.22
				c1.93-0.14,3.87-0.35,5.77-0.74c2.76-0.59,5.96-1.72,7.04-4.49c0.46-1.21,0.21-2.51-0.24-3.67c-0.58-1.5-1.67-2.81-2.79-3.98
				c-0.88-0.91-1.86-1.68-2.93-2.31C528.22,218.39,524.44,217.66,520.78,217.76 M530.52,223.92c0.85,0.7,1.62,1.49,2.3,2.34
				c0.38,0.53,0.72,1.07,0.98,1.67c0.07,0.21,0.12,0.43,0.15,0.65c0,0.11-0.01,0.23-0.02,0.35c-0.02,0.09-0.05,0.18-0.08,0.27
				c-0.07,0.11-0.14,0.22-0.21,0.33c-0.18,0.17-0.36,0.32-0.55,0.47c-0.49,0.3-1.01,0.54-1.54,0.75c-2,0.67-4.1,0.96-6.21,1.16
				c-5.35,0.42-10.76,0.18-16.13-0.17c-2.96-0.2-5.91-0.53-8.88-0.81c0.01-0.01,0.02-0.02,0.03-0.03c1.37-1.54,2.93-2.9,4.62-4.1
				c2.3-1.56,4.77-2.82,7.38-3.8c2.39-0.85,4.86-1.42,7.41-1.68c1.68-0.11,3.34-0.07,5.01,0.19c1.16,0.23,2.28,0.56,3.37,1.02
				C528.98,222.91,529.77,223.38,530.52,223.92 M530.56,223.95c0.09,0.06,0.17,0.12,0.25,0.19
				C530.73,224.08,530.65,224.02,530.56,223.95 M505.07,226.71c-0.02,0.01-0.03,0.02-0.05,0.04
				C505.03,226.73,505.05,226.72,505.07,226.71"/>
			<path class="st2" d="M493.59,264.63c-0.73,0.16-1.29,0.93-1.06,1.65c3.82,12.71,6.53,25.77,7.94,38.93
				c-0.02-0.17-0.04-0.33-0.05-0.48c1.13,10.71,1.44,21.49,0.91,32.24c-0.54,10.87-2.01,21.66-3.77,32.4
				c0.06-0.32,0.11-0.66,0.16-0.98c-0.6,3.65-1.22,7.3-1.83,10.95c-0.01,0.64,0.15,1.25,0.45,1.82c0.47,0.87,1.33,1.53,2.31,1.81
				c1.92,0.54,4.27-0.54,4.76-2.49c1.83-7.26,2.88-14.71,3.47-22.15c0.55-7.2,0.69-14.41,0.49-21.63
				c-0.4-14.43-2.17-28.82-4.95-43.01c-1.86-9.46-4.3-18.79-7.11-28.03c-0.11-0.37-0.35-0.68-0.67-0.86
				C494.35,264.61,493.98,264.54,493.59,264.63"/>
			<path class="st2" d="M489.4,347.26c-1.22-0.03-2.43,0.96-2.39,2.17c0.28,9.56-0.32,19.12-1.83,28.58
				c0.01-0.05,0.02-0.11,0.03-0.17c-0.03,0.17-0.06,0.34-0.09,0.5c-0.01,0.07-0.02,0.13-0.03,0.18l0.02-0.12
				c-2.52,14.8-7.3,29.1-13.41,42.88c-0.37,0.82-0.12,1.97,0.29,2.72c0.47,0.87,1.29,1.52,2.27,1.8c0.94,0.26,1.98,0.17,2.85-0.27
				c0.96-0.49,1.45-1.25,1.86-2.2c5.03-11.68,8.47-23.88,10.51-36.37c2.04-12.36,2.58-24.9,2.18-37.4
				c-0.02-0.82-0.44-1.57-1.12-1.97C490.21,347.38,489.83,347.27,489.4,347.26 M485.11,378.39c0.01-0.02,0.01-0.04,0.01-0.06
				c0.02-0.11,0.04-0.22,0.06-0.33C485.16,378.13,485.14,378.26,485.11,378.39"/>
			<path class="st2" d="M301.77,257.56c-3.22,2.24-6.37,4.59-9.41,7.07c-3.03,2.46-5.94,5.07-8.73,7.79
				c-2.78,2.7-5.43,5.53-7.95,8.47c-2.51,2.91-4.84,5.97-7.06,9.09c-2.23,3.13-4.29,6.36-6.16,9.7c-1.88,3.39-3.6,6.85-5.14,10.38
				c-3.08,7.01-5.28,14.4-6.55,21.91c-0.21,1.28-0.42,2.57-0.57,3.87c-0.08,0.65,0.28,1.39,0.72,1.85c0.5,0.52,1.2,0.83,1.93,0.85
				c0.71,0.02,1.42-0.23,1.94-0.71c0.15-0.17,0.31-0.36,0.46-0.54c0.26-0.4,0.41-0.84,0.42-1.31c0.17-1.31,0.35-2.62,0.55-3.93
				c1.62-9.68,4.51-19.15,8.65-28.09c4.36-9.17,9.93-17.79,16.59-25.55c-0.07,0.09-0.15,0.17-0.23,0.26
				c6.4-7.41,13.68-14.11,21.79-19.77c0.41-0.29,0.37-0.94,0.05-1.28c-0.06-0.06-0.12-0.11-0.19-0.15
				C302.56,257.25,302.13,257.33,301.77,257.56 M264.82,304.1c-0.03,0.05-0.05,0.1-0.07,0.15
				C264.77,304.2,264.79,304.15,264.82,304.1"/>
			<path class="st2" d="M273.5,313.14c-3.33,5.72-6.09,11.75-8.13,18c-1.04,3.13-1.75,6.35-2.35,9.57
				c-0.66,3.42-1.15,6.88-1.48,10.34c-0.63,6.59-0.55,13.23,0.03,19.84c0.6,6.78,1.63,13.54,3.19,20.18
				c0.4,1.72,2.28,2.82,4.06,2.42c1.76-0.4,2.97-2.18,2.52-3.9c-0.98-3.71-1.9-7.44-2.63-11.21c-0.7-3.58-1.24-7.19-1.66-10.82
				c-0.98-9.46-1.15-19.04,0.32-28.48c-0.01,0.07-0.02,0.13-0.03,0.18c0.02-0.11,0.04-0.22,0.06-0.34c0.01-0.05,0.02-0.11,0.03-0.16
				c-0.01,0.03-0.01,0.04-0.01,0.07c1.16-6.88,2.95-13.76,5.91-20.14c-0.01,0.01-0.02,0.03-0.02,0.04c0.71-1.48,1.47-2.93,2.28-4.37
				c0.33-0.56,0.2-1.29-0.39-1.64C274.65,312.42,273.83,312.58,273.5,313.14 M273.26,318.89c-0.02,0.04-0.05,0.09-0.07,0.14
				C273.21,318.97,273.23,318.93,273.26,318.89 M267.41,338.94c-0.01,0.05-0.02,0.11-0.02,0.15c0.01-0.08,0.03-0.16,0.04-0.24
				C267.42,338.88,267.42,338.92,267.41,338.94"/>
			<path class="st3" d="M363.11,286.01c-0.59-0.13-1.03,0.02-1.57,0.25c-14.51,6.26-28.16,14.8-38.85,26.22
				c-5.27,5.64-9.75,12.06-13.01,18.97c-2.43,5.16-3.88,10.71-4.31,16.34c-0.2,2.84-0.03,5.66,0.46,8.46
				c0.46,2.72,1.41,5.34,2.75,7.78c1.33,2.46,3.24,4.66,5.44,6.44c2.36,1.92,5.1,3.31,8.03,4.24c2.74,0.86,5.68,1.13,8.55,1.04
				c2.97-0.09,5.95-0.66,8.8-1.46c2.97-0.84,5.85-2.01,8.62-3.33c2.72-1.28,5.33-2.79,7.85-4.4c2.85-1.83,5.56-3.85,8.17-5.98
				c0.38-0.32,0.55-0.93,0.55-1.4c-0.02-0.54-0.27-1.05-0.66-1.41c-0.4-0.35-0.93-0.54-1.46-0.53c-0.6,0.02-1.02,0.27-1.47,0.63
				c-0.47,0.4-0.95,0.78-1.44,1.17c0.14-0.11,0.29-0.23,0.42-0.34c-4.87,3.83-10.18,7.17-15.91,9.7c-3.4,1.44-6.95,2.56-10.63,3.13
				c-2.06,0.27-4.13,0.34-6.21,0.18c-1.66-0.19-3.27-0.53-4.84-1.06c-1.61-0.6-3.13-1.38-4.55-2.32c-1.27-0.91-2.44-1.93-3.48-3.08
				c-1.13-1.35-2.07-2.81-2.83-4.38c-0.82-1.85-1.39-3.77-1.75-5.75c-0.42-2.75-0.46-5.53-0.21-8.3c0.44-3.87,1.39-7.66,2.8-11.31
				c-0.07,0.16-0.13,0.31-0.2,0.47c2-5.03,4.8-9.76,8.01-14.16c4.5-6.03,9.88-11.37,15.83-16.1c8.42-6.55,17.81-11.83,27.69-16.09
				c0.46-0.21,0.8-0.78,0.92-1.23c0.12-0.51,0.03-1.05-0.25-1.5c-0.18-0.26-0.41-0.48-0.67-0.64
				C363.53,286.14,363.32,286.07,363.11,286.01 M335.93,305.8c-0.11,0.08-0.21,0.17-0.32,0.24
				C335.71,305.96,335.82,305.88,335.93,305.8 M309.59,346.67c-0.01,0.04-0.01,0.08-0.01,0.12
				C309.58,346.75,309.59,346.71,309.59,346.67 M333.93,371.46c-0.12,0.02-0.25,0.04-0.38,0.05
				C333.68,371.5,333.81,371.48,333.93,371.46 M327.22,371.71c-0.15-0.01-0.3-0.03-0.46-0.04
				C326.93,371.68,327.08,371.69,327.22,371.71 M314.14,365c0.04,0.04,0.07,0.08,0.11,0.12C314.22,365.08,314.18,365.04,314.14,365"
				/>
			<path class="st4" d="M437,250.11c-4.03-2.4-9.06-3.98-14.95-4.69c-3.11-0.36-6.5-0.41-10.36-0.17c-3.8,0.23-7.82,0.74-11.95,1.52
				c-7.18,1.34-13.74,3.55-19.5,6.58c-5.26,2.77-9.88,6.37-13.71,10.68c-1.87,2.09-3.57,4.37-5.07,6.77
				c-1.37,2.19-2.66,4.67-3.93,7.59c-2.13,4.85-3.75,10.37-4.99,16.88c-1.08,5.69-1.81,11.99-2.23,19.25
				c-0.19,3.15-0.27,6.3-0.35,9.45c-0.05,1.76-0.09,3.52-0.16,5.28l-0.1,2.82c-0.27,7.32-0.55,14.9-0.5,22.36
				c0.05,5.6,0.25,10.6,0.63,15.28c0.43,5.58,1.08,10.5,2,15.03c0.99,4.95,2.31,9.2,4.01,13.01c1.74,3.93,3.94,7.08,6.55,9.36
				c0.89,0.78,1.81,1.46,2.73,2c0.46,0.28,0.93,0.53,1.42,0.75c0.83,0.39,1.62,0.7,2.42,0.94c0.26,0.5,0.45,0.88,0.76,1.16
				c2.53,2.27,5.48,4.42,8.78,6.39c1.09,0.65,2.19,1.27,3.31,1.85c4.87,2.58,10.13,4.73,15.65,6.39c5.65,1.7,11.32,2.72,16.85,3.04
				c5.78,0.33,11.06-0.26,15.73-1.75c2.5-0.79,4.79-1.85,6.83-3.16c1.22-0.77,2.36-1.63,3.38-2.55c1.18-1.05,2.31-2.34,3.47-3.92
				c1.75-2.36,3.21-5.3,4.44-8.98c1.2-3.6,1.83-7.33,2.24-10.18c0.67-4.63,0.92-9.37,1.16-13.96c0.1-1.96,0.2-3.92,0.34-5.87
				c0.37-5.53,0.82-11.05,1.26-16.58l0.68-8.56c0.78-10.1,1.24-17.86,1.49-25.18c0.11-3.44,0.14-6.88,0.17-10.32l0.01-0.7l0.06-4.23
				l0.06-4.23c0.06-5.14,0.07-11.21-0.27-17.24c-0.32-6.26-1-11.69-2.06-16.59c-1.21-5.53-2.95-10.21-5.3-14.27
				c-2.49-4.32-5.96-8-10.05-10.68C437.62,250.49,437.31,250.3,437,250.11"/>
			<path class="st5" d="M411.7,245.2c-3.87,0.24-7.89,0.75-11.96,1.5c-7.21,1.35-13.78,3.57-19.51,6.59
				c-5.28,2.78-9.9,6.38-13.73,10.69c-1.87,2.1-3.57,4.37-5.08,6.77c-1.36,2.16-2.65,4.65-3.94,7.6
				c-2.11,4.83-3.75,10.36-4.99,16.88c-1.08,5.7-1.81,11.99-2.22,19.26c-0.18,2.92-0.26,5.84-0.33,8.76l-0.02,0.7
				c-0.04,1.76-0.08,3.52-0.16,5.28l-0.1,2.81c-0.27,6.95-0.57,14.81-0.5,22.37c0.03,5.44,0.24,10.44,0.61,15.29
				c0.44,5.54,1.09,10.46,2,15.03c0.98,4.91,2.3,9.16,4.02,13.01c1.74,3.93,3.94,7.09,6.56,9.38c0.95,0.81,1.87,1.5,2.74,2.01
				c0.46,0.27,0.94,0.53,1.42,0.75c0.22,0.1,0.42,0.19,0.62,0.28c-1.23-2.9-2.35-5.85-3.32-8.85c-1.34-4.17-2.45-8.4-3.23-12.69
				c-0.79-4.34-1.31-8.72-1.53-13.13c-0.16-3.28-0.21-6.58-0.2-9.87c0-3.29,0.07-6.58,0.2-9.87c0.27-6.74,0.81-13.46,1.7-20.16
				c0.88-6.68,2.07-13.33,3.66-19.89c1.58-6.57,3.56-13.06,6.02-19.37c4.72-12.06,11.2-23.62,20.09-33.33
				c4.39-4.8,9.3-9.12,14.75-12.79c2.79-1.88,5.7-3.62,8.72-5.16C413.24,245.11,412.49,245.15,411.7,245.2"/>
			<path class="st6" d="M415.01,377.33c-5.34-3.05-11.21-5.1-17.28-6.33c-2.85-0.57-5.77-0.91-8.68-0.99
				c-2.69-0.07-5.39,0.09-8.02,0.65c-3.09,0.65-6.03,1.9-8.67,3.55c-2.54,1.57-4.71,3.71-6.31,6.16c-1.93,2.99-2.88,6.47-3.06,9.97
				c-0.2,3.6,0.46,7.17,1.57,10.61c1.15,3.53,2.96,6.86,5.13,9.91c2.16,3.04,4.85,5.76,7.95,7.94c0.31,0.22,0.73,0.16,0.97-0.13
				c0.22-0.28,0.15-0.71-0.14-0.92c-1.18-0.83-2.28-1.74-3.31-2.73c-2-1.94-3.7-4.11-5.15-6.45c-1.5-2.53-2.66-5.2-3.48-7.99
				c-0.65-2.36-1.03-4.77-1.09-7.22c0.01-2,0.23-3.99,0.73-5.94c-0.02,0.12-0.06,0.23-0.08,0.35c0.43-1.57,1.05-3.06,1.84-4.47
				c0.8-1.32,1.74-2.54,2.83-3.64c1.14-1.05,2.37-1.96,3.7-2.75c1.76-0.95,3.62-1.71,5.56-2.27c2.22-0.56,4.48-0.79,6.76-0.85
				c3.87,0.01,7.72,0.53,11.48,1.42c4.6,1.17,9.06,2.83,13.22,5.05c-0.12-0.07-0.24-0.12-0.34-0.2l0.43,0.24
				c0.03,0.02,0.06,0.03,0.08,0.04c-0.03-0.01-0.06-0.03-0.08-0.04c2.68,1.5,5.22,3.24,7.45,5.32c1.19,1.18,2.26,2.46,3.15,3.86
				c0.64,1.11,1.15,2.25,1.53,3.45c0.23,0.87,0.36,1.75,0.4,2.64c-0.03,0.78-0.13,1.54-0.3,2.28c-0.24,0.77-0.56,1.5-0.95,2.2
				c-0.5,0.78-1.07,1.5-1.73,2.17c-0.92,0.85-1.93,1.6-3.02,2.25c-1.45,0.78-2.97,1.38-4.56,1.84c-1.65,0.4-3.32,0.63-5.03,0.7
				c-0.92-0.01-1.82-0.07-2.72-0.16c-0.92-0.11-1.85-0.29-2.75-0.5c-2.98-0.76-5.86-1.86-8.58-3.26c-2.62-1.43-5.05-3.15-7.22-5.16
				c-1.73-1.69-3.27-3.54-4.55-5.58c-0.15-0.24-0.28-0.49-0.42-0.74c-0.25-0.45-0.54-0.8-1.05-0.99c-0.46-0.18-0.99-0.17-1.44,0.01
				c-0.94,0.37-1.45,1.48-1.03,2.4c0.69,1.48,1.52,2.88,2.45,4.23c1.01,1.47,2.22,2.78,3.5,4.02c1.25,1.2,2.56,2.32,3.97,3.35
				c1.54,1.12,3.18,2.06,4.86,2.97c3.12,1.7,6.5,2.85,9.99,3.6c2.78,0.59,5.72,0.59,8.52,0.18c1.38-0.2,2.74-0.55,4.08-0.96
				c1.31-0.41,2.58-0.96,3.78-1.6c2.4-1.29,4.55-2.95,6.19-5.08c1.57-2.04,2.53-4.53,2.72-7.08c0.21-2.9-0.63-5.8-2.04-8.34
				c-0.6-1.12-1.32-2.17-2.11-3.16c-0.87-1.1-1.89-2.08-2.92-3.04c-1.78-1.63-3.77-3.04-5.86-4.28
				C415.57,377.66,415.29,377.49,415.01,377.33 M387.1,373.77c-0.11,0.01-0.22,0.01-0.33,0.01
				C386.88,373.78,386.99,373.77,387.1,373.77 M386.73,373.78h-0.12H386.73z M374.8,376.69c-0.09,0.05-0.19,0.11-0.28,0.16
				C374.62,376.8,374.71,376.74,374.8,376.69 M368.08,382.98c-0.02,0.04-0.05,0.09-0.07,0.14
				C368.03,383.07,368.06,383.02,368.08,382.98 M382.67,392.37c0.05,0.08,0.1,0.17,0.16,0.26
				C382.77,392.54,382.72,392.45,382.67,392.37 M402.92,406.32c-0.15-0.04-0.3-0.07-0.45-0.11
				C402.62,406.24,402.77,406.28,402.92,406.32 M366.53,400.68c0.01,0.03,0.02,0.07,0.03,0.1
				C366.55,400.76,366.54,400.71,366.53,400.68 M411.54,380.29c-0.03-0.02-0.06-0.03-0.08-0.04
				C411.49,380.26,411.51,380.27,411.54,380.29L411.54,380.29z"/>
			<path class="st7" d="M425.26,347.74c-3.06-0.89-6.21-1.43-9.37-1.81c-3.3-0.39-6.61-0.55-9.93-0.52
				c-6.61,0.08-13.27,1-19.62,2.79c-6.17,1.75-12.11,4.45-17.31,8.11c-2.55,1.81-4.9,3.86-7,6.13c-2.13,2.3-3.95,4.88-5.5,7.58
				c-1.02,1.8-1.86,3.68-2.61,5.59c-0.2,0.51,0.28,1.1,0.79,1.21c0.27,0.06,0.55,0.03,0.79-0.11c0.28-0.16,0.37-0.37,0.49-0.64
				c0.02-0.07,0.05-0.14,0.07-0.21c-0.01,0.03-0.02,0.06-0.03,0.09c0.02-0.07,0.05-0.14,0.07-0.2c0.01-0.02,0.02-0.04,0.02-0.07
				c-0.01,0.02-0.01,0.04-0.02,0.05c1.22-2.97,2.79-5.78,4.71-8.37c-0.02,0.02-0.03,0.03-0.05,0.05c0.03-0.04,0.06-0.07,0.08-0.11
				c0.03-0.04,0.06-0.09,0.1-0.12c-0.01,0.01-0.02,0.03-0.04,0.05c2.14-2.75,4.62-5.2,7.41-7.35c3.13-2.35,6.53-4.28,10.15-5.85
				c4.91-2.06,10.08-3.4,15.37-4.22c-0.15,0.02-0.29,0.04-0.43,0.06c6.37-0.94,12.83-1.04,19.25-0.46c1.93,0.19,3.84,0.45,5.76,0.77
				c1.99,0.32,3.97,0.74,5.95,1.17c1.03,0.23,2.09-0.4,2.33-1.38c0.12-0.47,0.02-0.98-0.23-1.39c-0.16-0.26-0.37-0.45-0.62-0.6
				C425.68,347.88,425.48,347.8,425.26,347.74 M378.74,353.93c-0.03,0.01-0.06,0.03-0.09,0.04
				C378.68,353.96,378.7,353.95,378.74,353.93 M368.49,359.77c-0.03,0.02-0.05,0.04-0.08,0.06
				C368.44,359.81,368.46,359.79,368.49,359.77 M356.1,375.76c-0.01,0.04-0.02,0.07-0.04,0.1c0.02-0.04,0.03-0.08,0.05-0.11
				C356.11,375.75,356.11,375.76,356.1,375.76 M360.86,367.32c-0.02,0.02-0.03,0.04-0.04,0.05c0.03-0.04,0.07-0.09,0.1-0.13
				C360.9,367.27,360.88,367.29,360.86,367.32"/>
			<path class="st7" d="M433.06,322.59c-3.1-1.2-6.28-2.16-9.55-2.86c-3.25-0.68-6.57-1.09-9.89-1.29
				c-6.64-0.41-13.31,0.17-19.81,1.51c-6.51,1.34-12.77,3.66-18.69,6.55c-5.84,2.88-11.29,6.52-16.07,10.83
				c-2.01,1.81-3.88,3.75-5.64,5.77c-0.31,0.35-0.34,0.85,0.02,1.19c0.32,0.3,0.93,0.34,1.23-0.02c2.61-2.98,5.55-5.64,8.7-8.07
				c-0.04,0.03-0.08,0.07-0.13,0.1c4.7-3.55,9.84-6.5,15.3-8.81c-0.1,0.04-0.19,0.08-0.29,0.12c5.65-2.36,11.65-3.97,17.73-4.95
				l-0.1,0.02l0.32-0.05c0.03-0.01,0.06-0.01,0.1-0.02c-0.01,0-0.02,0.01-0.03,0.01c5.86-0.86,11.79-1.06,17.69-0.52
				c5.41,0.56,10.73,1.73,15.85,3.53c-0.06-0.03-0.12-0.05-0.19-0.08c0.09,0.03,0.18,0.07,0.27,0.1c0.09,0.03,0.17,0.06,0.26,0.09
				c-0.05-0.02-0.1-0.03-0.15-0.05c0.36,0.14,0.72,0.28,1.09,0.42c0.17,0.07,0.36,0.12,0.53,0.2c0.35,0.08,0.71,0.08,1.06-0.04
				c0.54-0.14,0.98-0.5,1.24-0.96c0.27-0.47,0.33-1.02,0.18-1.53c-0.12-0.4-0.42-0.87-0.82-1.11
				C433.19,322.64,433.13,322.61,433.06,322.59 M396.19,322.63l-0.21,0.03c0.09-0.01,0.19-0.02,0.28-0.04
				C396.23,322.62,396.21,322.62,396.19,322.63 M429.86,325.65c-0.02-0.01-0.05-0.02-0.07-0.03l0.19,0.07
				C429.94,325.68,429.9,325.66,429.86,325.65"/>
			<path class="st7" d="M426.83,293.41c-1.48-0.56-2.97-1.08-4.5-1.49c-1.59-0.43-3.22-0.75-4.86-0.99
				c-3.19-0.48-6.43-0.64-9.65-0.53c-6.49,0.2-12.92,1.6-19.04,3.64c-3.1,1.04-6.11,2.31-9.03,3.73c-2.93,1.4-5.75,3-8.49,4.71
				c-2.67,1.68-5.21,3.52-7.67,5.49c-2.39,1.91-4.65,3.99-6.83,6.14c-0.33,0.33-0.67,0.67-1,1.01c-0.34,0.34-0.33,0.87,0.02,1.19
				c0.34,0.31,0.92,0.31,1.24-0.03c1.1-1.11,2.23-2.18,3.41-3.21c1.22-1.06,2.49-2.05,3.77-3.02c-0.08,0.05-0.15,0.1-0.21,0.15
				c5.51-4.18,11.54-7.68,17.95-10.42c-0.12,0.05-0.23,0.09-0.34,0.14c2.89-1.2,5.83-2.25,8.83-3.15c2.89-0.87,5.83-1.5,8.81-1.98
				c4.82-0.72,9.71-0.9,14.57-0.47c3.97,0.42,7.9,1.25,11.68,2.47c0.33,0.08,0.65,0.08,0.97-0.02c0.48-0.14,0.89-0.45,1.13-0.88
				c0.25-0.42,0.29-0.93,0.15-1.39c-0.11-0.36-0.38-0.78-0.74-0.99C426.94,293.47,426.89,293.44,426.83,293.41 M413.7,294.3
				c-0.06-0.01-0.11-0.01-0.17-0.02C413.59,294.28,413.65,294.29,413.7,294.3 M399.23,294.78c-0.05,0.01-0.08,0.01-0.12,0.02
				C399.14,294.79,399.18,294.79,399.23,294.78"/>
			<path class="st3" d="M443.59,264.19c-6.37-3.26-13.1-5.86-20.02-7.8c-7.03-1.98-14.26-3.25-21.53-4
				c-14.68-1.5-29.63-0.59-44.11,2.16c-7.08,1.35-14.08,3.2-20.88,5.52c-5.03,1.71-9.99,3.62-14.69,6.05
				c-3.9,2.02-7.6,4.36-11.15,6.89c-3.57,2.54-6.92,5.37-9.9,8.53c-5.16,5.45-9.82,12.7-8.19,20.36c0.83,3.88,3.42,7.23,6.51,9.76
				c4.84,3.96,10.85,6.55,17.01,7.92c6.44,1.44,13.16,1.62,19.74,1.18c4.53-0.29,9.02-0.9,13.48-1.71c0.01-0.52,0.03-1.04,0.07-1.56
				c0-0.07,0.01-0.12,0.02-0.18c0.03-0.78,0.07-1.56,0.12-2.33c-3.63,0.7-7.29,1.24-10.98,1.62c0.07-0.01,0.14-0.02,0.19-0.03
				c-6.24,0.59-12.54,0.66-18.76-0.27c-3.42-0.57-6.76-1.46-9.95-2.77c-2.58-1.12-5.07-2.49-7.33-4.13
				c-1.39-1.06-2.66-2.25-3.77-3.6c-0.01,0-0.01-0.01-0.01-0.01s0,0.01,0.01,0.01c-0.02-0.03-0.05-0.05-0.07-0.08
				c-0.69-0.94-1.28-1.94-1.74-3c-0.35-0.97-0.6-1.95-0.72-2.98c-0.07-1-0.03-2.01,0.11-3.01c0.27-1.38,0.7-2.73,1.27-4.02
				c1.07-2.3,2.53-4.43,4.14-6.42c3.43-4.05,7.56-7.54,11.92-10.64c-0.04,0.02-0.07,0.04-0.11,0.07c0.1-0.07,0.2-0.14,0.31-0.22
				c0.05-0.03,0.09-0.06,0.14-0.1c-0.05,0.04-0.1,0.07-0.14,0.1c2.92-2.03,5.96-3.89,9.11-5.56c3.73-1.99,7.63-3.6,11.62-5.07
				c-0.18,0.07-0.35,0.13-0.53,0.18c12.35-4.51,25.28-7.42,38.41-8.72c11.78-1.1,23.67-0.9,35.38,0.86
				c-0.08-0.01-0.15-0.03-0.23-0.04c0.1,0.01,0.18,0.03,0.27,0.04c-0.01,0-0.03-0.01-0.05-0.01c0.05,0.01,0.1,0.02,0.16,0.03
				l0.08,0.02h0.05h-0.01h0.01h0.02l-0.01,0.01c8.99,1.45,17.8,3.83,26.17,7.33c2.18,0.93,4.31,1.94,6.4,3
				c0.98,0.51,2.23,0.29,2.84-0.67c0.54-0.85,0.3-2.11-0.61-2.66C443.65,264.23,443.62,264.21,443.59,264.19 M408.86,257.24
				c-0.02,0.01-0.02,0-0.04,0c-0.02-0.01-0.03-0.01-0.05-0.01C408.81,257.23,408.84,257.23,408.86,257.24"/>
			<path class="st3" d="M408.87,257.24L408.87,257.24c0,0.01,0.01,0.01,0.01,0.01C408.88,257.24,408.88,257.24,408.87,257.24"/>
			<path class="st3" d="M314.58,275.5c-0.06,0.04-0.12,0.09-0.18,0.13C314.47,275.59,314.52,275.55,314.58,275.5"/>
		</g>
		<g>
			<path class="st8" d="M178.27,142.61c-20.4,18.36-28.61,41.83-18.31,52.39c10.29,10.57,35.22,4.25,55.63-14.1
				c20.4-18.35,28.61-41.83,18.32-52.39C223.61,117.95,198.68,124.26,178.27,142.61"/>
			<path class="st9" d="M378.37,18c-1.14,0-2.26,0.42-3.07,1.16l-66.08,61.52l-44.35,41.28l-67.03,62.37l-66.66,62.02
				c-16.25,15.17-32.52,30.31-48.79,45.46L66.6,306.48l-15.45,14.39c-0.51,0.47-0.88,1.09-1.07,1.76c-0.55,0.94-0.69,1.98-0.38,2.92
				c4.17,12.54,13.72,23.31,25.56,28.78c0.88,0.4,1.58,0.58,2.27,0.58c0.32,0,0.63-0.04,0.97-0.11c0.66-0.15,1.27-0.45,1.77-0.87
				c0.67-0.18,1.28-0.53,1.81-1.02l68.43-63.7l68.44-63.69L362.22,92.19l9.49-8.85c12.91-12.03,25.81-24.05,38.74-36.04
				c0.79-0.76,1.23-1.8,1.23-2.92c0-1.09-0.43-2.13-1.19-2.88c-1.72-5.29-5.59-10.36-11.47-15.02c-6.26-4.93-12.62-7.72-18.91-8.29
				C379.19,18.06,378.77,18,378.37,18"/>
			<path class="st10" d="M405.7,38.57c-4.7,4.82-9.48,9.57-14.26,14.32c-9.61,9.46-19.32,18.83-29.13,28.13
				c-25.81,24.44-52.13,48.35-78.12,72.61c-6.5,6.05-12.92,12.16-19.44,18.18c-6.47,6.01-13.02,11.92-19.63,17.78
				c-13.18,11.71-26.61,23.18-40.17,34.49c-6.16,5.13-12.34,10.25-18.57,15.34c-4.97,4.03-9.96,8.04-15.01,11.95
				c-11.09,8.57-22.5,16.78-34.52,24.12c-12.14,7.4-24.88,14-38.46,18.58c-7.82,2.64-15.98,4.56-24.25,5.26l-7.62,7.07l-15.46,14.39
				c-0.55,0.53-0.93,1.17-1.06,1.8c-0.57,0.93-0.73,2.01-0.37,3.01c4.15,12.56,13.73,23.33,25.59,28.8
				c0.93,0.45,1.63,0.64,2.32,0.64c0.36,0,0.66-0.06,1.02-0.17c0.64-0.15,1.26-0.45,1.81-0.85c0.66-0.19,1.28-0.53,1.82-1.02
				l68.43-63.7l68.43-63.68L362.3,92.29l9.5-8.85l5.32-4.99c11.13-10.37,22.26-20.75,33.41-31.06c0.82-0.8,1.28-1.89,1.28-3.01
				c0-1.1-0.46-2.18-1.24-2.97c-0.57-1.8-1.4-3.57-2.48-5.31C407.29,36.93,406.5,37.76,405.7,38.57"/>
		</g>
		<g>
			<defs>
				<path id="SVGID_1_" d="M34.62,474.41c58,172.52,250.89,267.34,430.47,211.63c179.59-55.72,278.3-241.02,220.29-413.54
					C627.38,99.98,434.49,5.16,254.91,60.88C75.32,116.59-23.39,301.89,34.62,474.41"/>
			</defs>
			<clipPath id="SVGID_2_">
				<use xlink:href="#SVGID_1_"  style="overflow:visible;"/>
			</clipPath>
			<g class="st11">
				<path class="st8" d="M111.61,477.78c-1.15,0-2.32,0.47-3.14,1.25c-0.68,0.68-1.43,1.88-1.27,3.01
					c7.68,64.68,15.39,129.38,23.1,194.06c1.19,9.85,2.36,19.7,3.52,29.55c0.14,1.31,0.41,2.24,1.31,3.1
					c0.31,0.29,0.63,0.52,0.97,0.67c0.33,0.54,0.93,1.01,1.79,1.42c58.77,29.48,124.71,46.25,190.68,48.5
					c5.08,0.17,10.16,0.26,15.26,0.26c24.75,0,49.65-2.05,74.03-6.09c16.34-2.73,29.43-5.67,41.22-9.23
					c15.07-4.54,27.79-10.71,37.82-18.36c0.2-0.15,0.38-0.3,0.54-0.47c0.22-0.14,0.41-0.32,0.59-0.48c0.92-0.89,1.14-1.84,1.32-3
					c7.02-56.55,14-112.96,20.96-169.37l2.23-17.94c2.16-17.33,4.31-34.69,6.43-52.04c0.16-1.04-0.53-2.28-1.27-3.04
					c-0.29-0.24-0.6-0.48-0.94-0.65c-0.72-0.59-1.67-0.92-2.65-0.92H349.17H138.49h-25.46
					C112.49,477.86,112.04,477.78,111.61,477.78"/>
				<path class="st12" d="M108.39,478.95c-0.73,0.74-1.48,1.95-1.32,3.1c7.68,64.68,15.39,129.38,23.1,194.06
					c1.19,9.86,2.36,19.71,3.53,29.57c0.15,1.29,0.42,2.27,1.35,3.16c0.33,0.3,0.71,0.55,1.02,0.68c0.28,0.53,0.88,1,1.79,1.42
					c58.76,29.5,124.7,46.29,190.72,48.53c0.3,0.01,0.59,0.02,0.89,0.03c-5.16-2.54-10.24-5.24-15.17-8.16
					c-9.92-5.88-19.37-12.5-28.16-19.85c-10.42-8.76-19.98-18.46-28.51-28.93c-8.61-10.58-16.31-21.81-23.1-33.56
					c-14.86-25.77-25.88-53.58-33.3-82.14c-3.8-14.7-6.74-29.61-8.7-44.66c-2.01-15.25-3.11-30.61-3.18-45.99
					c-0.03-6.11,0.1-12.22,0.38-18.33h-51.24h-25.46c-0.57-0.17-1.03-0.23-1.41-0.23C110.47,477.66,109.25,478.15,108.39,478.95"/>
				<path class="st9" d="M547.62,445.14H395.55H192.25H85.84c-1.32,0-2.63,0.64-3.49,1.69c-0.63,0.31-1.17,0.83-1.55,1.49
					c-1.93,3.31-3.24,7.09-4.02,11.56c-0.75,4.36-0.94,8.86-0.62,13.78c0.31,4.6,1.12,9.25,2.43,13.84
					c1.33,4.61,3.17,8.67,5.46,12.06c0.59,0.89,1.47,1.55,2.49,1.87c0.72,0.53,1.62,0.83,2.51,0.83h195.32h199.71h59.56
					c2.13,0,3.96-1.49,4.36-3.55c0.86-1.08,1.57-2.21,2.23-3.55c0.86-1.72,1.64-3.7,2.39-6.08c1.5-4.95,2.07-10.1,2.41-14.01
					c0.35-4.52,0.31-9.24-0.11-13.99c-0.44-5.09-1.18-8.87-2.39-12.25c-0.29-0.84-0.8-1.56-1.48-2.11
					C550.21,445.72,548.96,445.14,547.62,445.14"/>
				<path class="st10" d="M301.33,641.06c0,65.8,8.47,119.22,18.91,119.22s18.91-53.42,18.91-119.22
					c0-65.8-8.47-119.22-18.91-119.22S301.33,575.26,301.33,641.06"/>
				<path class="st10" d="M418.66,639.48c-10.02,65.09-9.78,119.13,0.54,120.59c10.32,1.47,26.85-50.18,36.87-115.28
					c10.03-65.09,9.79-119.13-0.54-120.6C445.21,522.74,428.69,574.39,418.66,639.48"/>
				<path class="st10" d="M186.61,644.12c10.95,64.96,28.21,116.39,38.51,114.78c10.31-1.6,9.78-55.64-1.18-120.59
					c-10.95-64.96-28.21-116.39-38.51-114.79C175.14,525.14,175.66,579.17,186.61,644.12"/>
			</g>
		</g>
	</g>
</g>
</svg>
