<?xml version="1.0" encoding="utf-8"?>
<!-- Generator: Adobe Illustrator 24.1.2, SVG Export Plug-In . SVG Version: 6.00 Build 0)  -->
<svg version="1.1" id="Layer_1" xmlns="http://www.w3.org/2000/svg" xmlns:xlink="http://www.w3.org/1999/xlink" x="0px" y="0px"
	 viewBox="0 0 720 720" style="enable-background:new 0 0 720 720;" xml:space="preserve">
<style type="text/css">
	.st0{fill:#6050AD;}
	.st1{fill:#FEFEFE;}
	.st2{fill:#69BFB6;}
	.st3{fill:#61B2A9;}
	.st4{fill:#81E5DA;}
	.st5{fill:#7AD8CE;}
	.st6{fill:#74CFC5;}
</style>
<g>
	<g>
		<path class="st0" d="M34.62,465.09c58.01,179.59,250.89,278.3,430.47,220.29c179.58-58,278.29-250.89,220.29-430.48
			C627.38,75.32,434.49-23.38,254.91,34.62C75.33,92.62-23.39,285.51,34.62,465.09"/>
		<g>
			<path class="st1" d="M456.53,136.23c-10.18,1.32-20.27,3.31-30.26,5.68c-14.66,3.47-29.11,7.88-43.26,13.02
				c-28.8,10.49-56.29,24.56-81.44,42.07c-19.63,13.65-37.54,29.66-53.02,47.88c-0.68,0.81-0.84,2.18-0.64,3.18
				c0.22,1.1,0.86,2.07,1.79,2.72c0.93,0.62,2.07,0.86,3.18,0.64c1.19-0.24,1.94-0.9,2.72-1.79c1.14-1.36,2.31-2.7,3.49-4.04
				c16.29-18.15,35.12-33.81,55.44-47.19c25.9-16.82,54.03-30,83.32-39.71c-0.24,0.08-0.5,0.17-0.75,0.25
				c14.39-4.73,29.03-8.62,43.86-11.57c10.46-2.07,21.02-3.57,31.66-4.3c11.14-0.66,22.39-0.43,33.37,1.65
				c-0.12-0.03-0.24-0.05-0.37-0.08c5.7,1.18,11.26,2.85,16.5,5.36c3.53,1.83,6.83,4.01,9.82,6.65c2.15,2.04,4.06,4.29,5.74,6.74
				c1.85,2.92,3.32,6.06,4.43,9.36c1.25,4.13,1.95,8.38,2.28,12.69c0.28,5.78-0.18,11.49-1.24,17.19
				c-1.86,8.82-5.07,17.24-8.99,25.34c-7.53,15.03-17.26,28.72-26.66,42.58c-4.9,7.22-9.83,14.44-15.01,21.46
				c-5.4,7.33-11.06,14.44-17.09,21.25c-7.26,8.08-15.01,15.68-23.45,22.56c-1.79,1.46-1.92,4.26-0.46,5.99
				c1.54,1.79,4.19,1.92,5.99,0.46c12.76-10.42,24-22.52,34.27-35.35c9.96-12.45,18.77-25.75,27.76-38.91
				c8.7-12.76,17.22-25.66,23.83-39.68c6.45-13.71,10.51-28.8,9.43-44.05c-0.42-5.96-1.61-11.72-3.75-17.32
				c-1.75-4.55-4.37-8.81-7.48-12.54c-6.16-7.35-14.78-12.23-23.74-15.3c-4.79-1.64-9.76-2.7-14.75-3.47
				c-5.05-0.79-10.16-1.17-15.26-1.32c-1.4-0.04-2.8-0.06-4.21-0.06C474.52,134.28,465.47,135.05,456.53,136.23 M521.31,149.61
				c0.27,0.13,0.53,0.26,0.79,0.4C521.84,149.88,521.57,149.75,521.31,149.61 M531.3,156.06c0.18,0.16,0.36,0.32,0.53,0.49
				C531.65,156.39,531.47,156.23,531.3,156.06 M315.42,197.82c-0.28,0.2-0.58,0.39-0.89,0.58
				C314.84,198.21,315.13,198.01,315.42,197.82 M543.21,202.33l-0.05,0.23L543.21,202.33z M534.13,228.03
				c-0.08,0.16-0.16,0.33-0.25,0.5C533.97,228.36,534.04,228.19,534.13,228.03 M258.71,246.01c-0.12,0.14-0.24,0.28-0.37,0.41
				C258.46,246.29,258.59,246.15,258.71,246.01 M396.82,159.04c0.1-0.03,0.19-0.06,0.29-0.1
				C397.01,158.98,396.91,159.01,396.82,159.04"/>
			<path class="st1" d="M551.69,321.61c-11.37,1.26-22.57,3.67-33.63,6.43c-22.76,5.65-45,13.58-65.98,24.05
				c-21.42,10.69-41.4,24.2-59.38,40.01c-1.72,1.53-1.96,4.19-0.44,5.99c1.48,1.72,4.24,1.98,5.96,0.44
				c9.63-8.47,19.84-16.28,30.55-23.34c-0.05,0.03-0.09,0.06-0.12,0.09c0.04-0.03,0.08-0.06,0.13-0.09
				c0.25-0.17,0.51-0.34,0.77-0.51c-0.21,0.15-0.44,0.29-0.66,0.44c20.77-13.48,43.27-23.99,66.75-31.84
				c-0.33,0.14-0.68,0.24-1.02,0.36c13.49-4.48,27.28-8.08,41.21-10.93c8.57-1.75,17.27-2.94,26-3.52
				c9.63-0.56,19.35-0.34,28.85,1.37c4.99,0.99,9.91,2.44,14.55,4.62c2.84,1.46,5.52,3.18,7.94,5.26c1.73,1.61,3.28,3.4,4.64,5.35
				c1.29,2.06,2.33,4.26,3.13,6.55c0.84,2.75,1.32,5.58,1.56,8.47c0.23,4.8-0.27,9.56-1.15,14.29c-1.52,7.15-3.91,14.04-7.09,20.62
				c-4.24,8.3-9.63,15.91-15.71,22.95c0.01-0.01,0.01-0.02,0.02-0.02c-0.01,0.01-0.02,0.02-0.02,0.02
				c-0.24,0.28-0.49,0.57-0.73,0.84c0.18-0.21,0.36-0.42,0.54-0.63c-14.97,16.74-33.38,29.84-51.79,42.48
				c-0.88,0.6-1.41,1.9-1.48,2.94c-0.06,1.1,0.31,2.2,1.02,3.05c0.73,0.86,1.81,1.39,2.96,1.46c1.19,0.08,2.08-0.36,3.03-1.02
				c22.83-15.66,45.95-32.26,61.98-55.25c4-5.72,7.36-11.88,10.14-18.28c2.79-6.38,4.64-13.09,5.87-19.94
				c1.77-9.92,1.35-20.61-3.2-29.75c-8.37-16.76-28.22-22.32-45.49-23.74c-3.36-0.28-6.73-0.4-10.1-0.4
				C564.73,320.42,558.17,320.89,551.69,321.61 M605.31,335.21c0.18,0.08,0.35,0.16,0.53,0.25
				C605.65,335.38,605.48,335.3,605.31,335.21 M614.58,395.04c-0.06,0.1-0.11,0.21-0.16,0.32
				C614.47,395.25,614.52,395.14,614.58,395.04 M598.34,418.87c0.06-0.07,0.13-0.14,0.19-0.21
				C598.47,418.73,598.4,418.8,598.34,418.87 M428.78,375.18C428.78,375.18,428.78,375.18,428.78,375.18
				c0.03-0.02,0.08-0.05,0.12-0.07C428.86,375.14,428.82,375.16,428.78,375.18"/>
			<path class="st2" d="M406.42,384.13c-0.94,0-1.89,0.36-2.64,1.03c-1.96,0.29-3.93,0.69-5.88,1.2
				c-6.41,1.62-12.95,4.45-20.57,8.89c-12.52,7.28-23.84,16.38-33.65,27.06c-9.1,9.92-16.6,21.09-22.32,33.22
				c-2.79,5.99-5.17,12.23-7.07,18.56c-1.74,5.76-3.11,12.11-4.19,19.44c-1.73,11.79-1.76,24.48-0.11,37.71
				c1.5,12.17,4.87,24.89,10,37.8c-0.12,0.31-0.2,0.72-0.23,1.19c-0.02,1.15,0.43,2.28,1.23,3.11c0.62,0.64,1.71,1.29,2.74,1.29
				c35.96-3.35,69.67-16.42,97.93-28.76c16.31-7.13,32.48-14.92,46.13-21.6c18-8.82,32.82-16.61,46.64-24.51
				c10.66-6.09,20.9-12.41,30.45-18.8c9.5-6.35,19.5-13.39,28.28-21.75c1.46-1.37,1.71-3.71,0.58-5.44
				c-0.33-0.86-0.94-1.63-1.76-2.2c-27.29-18.72-52.81-33.23-78-44.35c-25.16-11.13-48.3-18.11-70.77-21.36
				c-0.65-0.57-1.48-0.89-2.63-1.01c-2.59-0.28-4.96-0.42-7.25-0.42c-0.77,0-1.53,0.02-2.3,0.05c-1.5-0.11-2.96-0.22-4.4-0.31
				L406.42,384.13z M327.82,565.67c-0.04-0.09-0.11-0.29-0.11-0.29c6.46-0.62,13.05-1.63,19.87-3.05
				C340.83,563.77,334.29,564.88,327.82,565.67"/>
			<path class="st3" d="M535.86,471.92c-16.43,11.19-34.45,20.14-53.42,26.12c-13.43,4.24-27.28,7.11-41.3,8.48
				c-7.24,0.68-14.53,1.03-21.8,0.97c-6.93-0.07-13.87-0.47-20.75-1.09c-11.93-1.08-23.83-2.76-35.47-5.54
				c-10.42-2.5-20.67-5.81-30.34-10.38c-7-3.28-13.7-7.19-19.88-11.8c-1.16,4.55-2.13,9.45-2.93,14.84
				c-1.72,11.75-1.75,24.44-0.11,37.72c1.55,12.28,4.92,25,10.03,37.82c-0.14,0.27-0.22,0.71-0.24,1.15
				c-0.02,1.19,0.44,2.36,1.28,3.21c0.62,0.66,1.75,1.32,2.83,1.32c35.95-3.36,69.69-16.43,97.98-28.8
				c16.25-7.09,32.33-14.86,46.13-21.59c17.98-8.84,32.79-16.63,46.64-24.53c10.6-6.03,20.85-12.35,30.45-18.79
				c9.43-6.29,19.39-13.27,28.31-21.75c1.5-1.41,1.75-3.8,0.59-5.56c-0.33-0.9-0.97-1.68-1.81-2.26c-2.1-1.44-4.17-2.84-6.25-4.23
				C556.57,456.32,546.57,464.62,535.86,471.92 M327.82,565.32c1.92-0.13,3.88-0.31,5.92-0.55c-1.99,0.27-3.91,0.53-5.85,0.75
				L327.82,565.32z"/>
			<path class="st4" d="M252.36,234.9l-0.75,0.44l-1.04,0.64l-0.79,0.49l-0.58,0.36l-0.58,0.33c-18.24,14.62-35.53,29.66-51.4,44.72
				c-21.53,20.41-39.53,40.02-55.01,59.91c-18.26,23.47-30.93,45.22-38.75,66.51c-4.18,11.33-6.72,22.63-7.6,33.56
				c-0.9,11.24,0.2,21.58,3.24,30.74c2.98,9.01,7.89,17.67,14.57,25.7c5.96,7.15,13.49,13.87,23.04,20.53
				c7.97,5.59,17.13,10.78,28.81,16.34c9.25,4.39,19.5,8.55,31.33,12.7c19.12,6.69,38.4,11.79,53.07,15.46l4.04,1.01
				c7.51,1.9,15.26,3.87,22.99,5.36c12.89,2.52,26.19,3.89,39.09,5.17l2.32,0.14c1.05,0.02,2.09,0.05,3.13,0.07
				c0.02-0.01,0.03-0.01,0.05-0.01c2.09-0.18,4.17-0.37,6.26-0.56c0.03-0.01,0.05-0.01,0.07-0.02c0.66-0.53,1.17-1.19,1.44-2.03
				c6.56-23.21,15.59-46.71,27.58-71.81c10.95-22.73,23.71-45.36,37.94-67.27c14.24-21.82,29.63-42.33,45.75-60.97
				c13.34-15.26,26.19-28.22,39.4-39.7c0.84-0.75,1.35-1.79,1.44-2.96c0.07-1.15-0.31-2.27-1.06-3.11c-0.31-0.33-0.6-0.57-0.89-0.75
				c-0.28-0.38-0.64-0.71-1.03-0.95c-25.2-16.83-53.84-32.42-85.13-46.38c-30.56-13.6-61.92-24.91-93.16-33.58
				c-7.09-1.97-14.53-3.87-22.1-5.65c-9.25-2.17-17.63-3.62-25.62-4.44H252.36z M163.69,329.08c0.05-0.07,0.11-0.15,0.18-0.22
				l0.07-0.05l0.05-0.07v-0.02l0.08-0.18l0.4-0.27c-0.9,0.99-1.79,1.99-2.67,2.98C162.41,330.57,163.06,329.81,163.69,329.08"/>
			<path class="st4" d="M163.96,328.74l0.03-0.01C163.98,328.73,163.97,328.73,163.96,328.74"/>
			<path class="st5" d="M197.14,281.78c-21.49,20.36-39.48,39.97-55,59.91c-18.29,23.52-30.96,45.29-38.78,66.55
				c-4.15,11.28-6.71,22.59-7.61,33.61c-0.89,11.27,0.22,21.62,3.27,30.79c2.98,9.03,7.9,17.71,14.6,25.74
				c5.96,7.16,13.51,13.89,23.05,20.54c7.9,5.55,17.07,10.74,28.81,16.34c9.25,4.39,19.53,8.55,31.36,12.7
				c19.72,6.91,39.73,12.14,53.07,15.46l4.04,1.02c7.51,1.92,15.26,3.89,23.01,5.41c13.23,2.56,27.34,3.97,38.64,5.12l2.76,0.18
				c1.04,0.04,2.1,0.06,3.16,0.08l6.31-0.57c0.82-0.62,1.35-1.33,1.59-2.14c0.13-0.44,0.25-0.87,0.38-1.3
				c-7.65-1.96-15.18-4.38-22.53-7.29c-10.86-4.31-21.37-9.54-31.24-15.81c-9.87-6.29-19.21-13.49-27.69-21.59
				c-9.65-9.21-18.35-19.44-25.82-30.5c-7.82-11.61-14.46-24.04-19.59-37.07c-5.14-13.16-8.88-26.87-11-40.85
				c-2.07-13.73-2.83-27.67-2.12-41.56c2.32-46.25,18.92-91.26,45.78-128.88C222.19,258.82,209.31,270.26,197.14,281.78"/>
			<path class="st6" d="M269.55,264.26c-22.63,20.78-43.68,43.41-62.1,68.03c-19.19,25.68-36.43,53.13-48.16,83.07
				c-2.39,6.14-4.62,12.35-6.54,18.64c-1.94,6.38-3.53,12.85-4.92,19.37c-1.35,6.29-2.36,12.65-3.09,19.06
				c-0.69,6.08-1.04,12.23-0.84,18.36v0.75c0,1.39,0.22,2.62,1.12,3.73c0.89,1.08,2.19,1.76,3.56,1.88
				c2.67,0.24,5.55-1.85,5.61-4.68c0.05-1.81,0.22-3.62,0.36-5.43c0.11-1.81,0.24-3.65,0.37-5.46c0.29-3.65,0.66-7.26,1.11-10.91
				c0.88-7.13,2.13-14.22,3.68-21.23c3.09-13.49,7.13-26.69,12.13-39.61c2.65-6.83,5.48-13.58,8.55-20.23
				c3.09-6.66,6.45-13.25,9.87-19.76c-0.15,0.29-0.31,0.58-0.46,0.84c8.15-15.37,17.67-30.03,27.98-44.03
				c10.17-13.74,21.01-26.96,32.68-39.46c0.06-0.07,0.12-0.13,0.18-0.19c-0.02,0.02-0.03,0.03-0.05,0.05
				c0.05-0.05,0.1-0.1,0.15-0.15c-0.02,0.03-0.04,0.05-0.06,0.07c6.64-7.07,13.54-13.92,20.68-20.49c0.58-0.53,0.71-1.37,0.2-1.98
				c-0.28-0.34-0.71-0.53-1.14-0.53C270.08,263.95,269.79,264.04,269.55,264.26 M143.9,490.85c0.01,0.37,0.03,0.73,0.05,1.1
				C143.92,491.58,143.9,491.22,143.9,490.85 M250.62,286.99l0.03-0.03L250.62,286.99z"/>
			<path class="st6" d="M328.22,293.12c-10.46,9.98-20.53,20.38-30.07,31.27c-10.27,11.7-19.98,23.84-29.19,36.41
				c-9.41,12.83-18.11,26.21-25.97,40.06c-7.8,13.76-14.88,27.93-21,42.51c-5.25,12.48-9.65,25.29-12.85,38.45
				c-1.59,6.54-2.89,13.14-3.87,19.81c-0.46,3.22-0.81,6.45-1.1,9.7c-0.11,1.46-0.2,2.92-0.27,4.39c-0.08,1.75-0.05,3.51-0.11,5.26
				c-0.05,1.32,0.26,2.56,1.1,3.6c0.84,1.03,2.1,1.7,3.42,1.83c2.63,0.22,5.3-1.81,5.43-4.55c0.07-1.46,0.24-2.89,0.38-4.35
				c0.18-1.75,0.33-3.51,0.51-5.26c0.35-3.53,0.77-7.04,1.25-10.55c0.97-6.94,2.25-13.82,3.74-20.67
				c2.96-13.01,6.81-25.82,11.41-38.33c4.81-13.05,10.61-25.69,17.06-37.99c18.05-34.08,40.5-65.82,66.81-94.08
				c0.07-0.07,0.13-0.14,0.2-0.21c-0.02,0.02-0.04,0.04-0.06,0.06c0.05-0.06,0.1-0.1,0.15-0.16c-0.02,0.02-0.04,0.05-0.06,0.07
				c4.82-5.15,9.76-10.17,14.87-15.06c0.55-0.53,0.71-1.35,0.2-1.98c-0.27-0.33-0.71-0.52-1.15-0.52
				C328.75,292.81,328.45,292.9,328.22,293.12 M247.92,405.05c-0.06,0.11-0.12,0.23-0.18,0.34
				C247.8,405.28,247.86,405.16,247.92,405.05 M219.76,480.45c-0.03,0.15-0.06,0.3-0.1,0.45
				C219.7,480.75,219.72,480.6,219.76,480.45 M315.11,310.41l0.03-0.03L315.11,310.41z"/>
			<path class="st6" d="M393.26,321.09c-10.62,11.06-20.91,22.44-30.7,34.23c-9.98,12.06-19.41,24.57-28.27,37.5
				c-8.85,12.92-16.96,26.37-24.35,40.19c-3.69,6.89-7.31,13.82-10.62,20.89c-3.34,7.07-6.4,14.27-9.32,21.51
				c-4.73,11.84-8.76,23.98-12.19,36.26c-1.76,6.45-3.38,12.92-4.79,19.43c-1.39,6.4-2.6,12.88-3.15,19.41
				c-0.24,3.07,2.05,5.87,5.14,6.14c1.46,0.13,2.94-0.31,4.09-1.24c1.23-1.01,1.83-2.36,2.05-3.88c0.95-6.16,1.66-12.37,2.58-18.53
				c0.9-6.08,2.01-12.13,3.28-18.15c1.62-7.26,3.47-14.45,5.59-21.58c2.14-7.18,4.6-14.26,7.18-21.29
				c2.58-7.02,5.56-13.91,8.56-20.78c3.11-7.18,6.54-14.18,10.18-21.11l-0.4,0.73c19.83-37.54,45.11-72.14,74.04-103.17
				c-0.11,0.11-0.22,0.24-0.36,0.36c1.26-1.33,2.54-2.67,3.8-4c0.71-0.73,0.97-1.77,0.27-2.65c-0.34-0.42-0.95-0.69-1.54-0.69
				C393.95,320.67,393.56,320.8,393.26,321.09"/>
		</g>
		<g>
			<path class="st1" d="M258.99,147.55c-0.02-1.13-0.5-2.23-1.32-3.01c-0.26-0.24-0.56-0.36-0.84-0.51c-0.52-0.8-1.2-1.32-2.09-1.77
				c-0.8-0.42-1.61-0.82-2.41-1.23c0.06,0.03,0.12,0.07,0.18,0.1c-0.32-0.16-0.63-0.33-0.94-0.49c-0.01-0.01-0.02-0.01-0.03-0.01
				c0.01,0,0.01,0,0.01,0c-9.2-4.83-18.19-10.15-26.01-17.07c-3.8-3.55-7.22-7.43-10.13-11.76c-0.08-0.14-0.18-0.28-0.26-0.42
				c-0.62-0.97-1.24-1.72-2.39-2.14c-0.45-0.16-0.93-0.24-1.41-0.24c-0.64,0-1.29,0.14-1.88,0.42c-0.97,0.49-1.77,1.35-2.14,2.39
				c-0.33,0.95-0.4,2.39,0.18,3.29c2.48,3.89,5.23,7.51,8.41,10.87c3.31,3.51,7.04,6.67,10.91,9.56c3.86,2.88,7.92,5.45,12.1,7.84
				c-7.92,0.47-15.79,1.68-23.5,3.67c-12.05,3.11-23.6,8.3-34.05,15.04c-20.47,13.18-36.55,32.9-45.62,55.47
				c-4.88,12.12-7.69,24.86-8.5,37.89c-0.84,13.53,0.88,27.22,4.53,40.28c0.62,2.23,3.07,3.51,5.25,2.87
				c2.26-0.67,3.49-3.05,2.87-5.28c-1.27-4.55-2.29-9.14-3.05-13.8c-1.43-9.72-1.66-19.54-0.69-29.3
				c1.13-9.74,3.45-19.26,6.96-28.41c3.49-8.72,7.99-16.96,13.41-24.61c5.69-7.73,12.26-14.72,19.64-20.87
				c7.56-6.08,15.81-11.19,24.62-15.21c8.79-3.84,17.98-6.55,27.44-8.15c-0.11,0.02-0.22,0.03-0.33,0.05
				c0.2-0.03,0.4-0.06,0.59-0.09c0.18-0.03,0.36-0.06,0.54-0.09c-0.14,0.02-0.26,0.05-0.39,0.07c4.8-0.7,9.63-1.08,14.47-1.21
				c-4.98,3.99-9.84,8.12-14.35,12.66c-6.76,6.8-12.76,14.35-17.75,22.54c-1.22,1.97-0.93,4.53,1.06,5.9c1.81,1.26,4.7,0.9,5.9-1.06
				c3.87-6.3,8.27-12.18,13.19-17.67c7.31-7.89,15.54-14.81,24.17-21.22c0.44-0.33,0.77-0.75,1.01-1.22
				C257.9,150.95,259.02,149.22,258.99,147.55z"/>
			<path class="st1" d="M228.23,152.94c0.14-0.02,0.27-0.05,0.41-0.07c-0.05,0.01-0.1,0.02-0.15,0.02
				C228.4,152.91,228.32,152.92,228.23,152.94z"/>
			<path class="st1" d="M252.33,141.04c-0.25-0.14-0.52-0.28-0.79-0.41c0.01,0.01,0.01,0.01,0.02,0.01
				C251.81,140.78,252.07,140.91,252.33,141.04z"/>
		</g>
	</g>
</g>
</svg>
