<?xml version="1.0" encoding="utf-8"?>
<!-- Generator: Adobe Illustrator 24.1.2, SVG Export Plug-In . SVG Version: 6.00 Build 0)  -->
<svg version="1.1" id="Layer_1" xmlns="http://www.w3.org/2000/svg" xmlns:xlink="http://www.w3.org/1999/xlink" x="0px" y="0px"
	 viewBox="0 0 720 720" style="enable-background:new 0 0 720 720;" xml:space="preserve">
<style type="text/css">
	.st0{fill:#6050AD;}
	.st1{fill:#0C273A;}
	.st2{fill:#061B2A;}
	.st3{fill:#F89796;}
	.st4{fill:#DA8483;}
	.st5{fill:#FF9F9E;}
	.st6{fill:#143751;}
	.st7{fill:#B86E6D;}
	.st8{fill:#FEFEFE;}
	.st9{clip-path:url(#SVGID_2_);}
	.st10{fill:#A5C9E4;}
	.st11{fill:#9CBED8;}
	.st12{fill:#B83856;}
	.st13{fill:#932B43;}
	.st14{fill:#C83E5F;}
	.st15{fill:#81E5DA;}
	.st16{fill:#7AD8CE;}
	.st17{fill:#74CFC5;}
</style>
<g>
	<g>
		<path class="st0" d="M78.71,486.57c51.27,163.31,221.79,253.07,380.54,200.32c158.76-52.74,246.01-228.15,194.74-391.45
			C602.71,132.13,432.2,42.37,273.44,95.11C114.69,147.86,27.43,323.26,78.71,486.57"/>
		<path class="st1" d="M374.5,18c-2.99,0-5.95,0.06-8.94,0.2c-45.42,2.11-90.03,20.41-122.39,50.23c-7.5,0.25-14.44,1.56-20.6,3.91
			c-7.08,2.71-13.42,6.87-18.85,12.36c-4.75,4.81-9.03,11.01-12.72,18.42c-3.2,6.46-5.92,13.72-8.57,22.86
			c-3.42,11.8-5.84,24.06-8.19,35.91l-1.73,8.65c-2.93,14.49-6,28.6-11.3,41.94c-2.78,6.73-5.83,12.32-9.33,17.08
			c-0.78,1.03-1.58,2.05-2.38,3.06c-0.91,1.16-1.83,2.31-2.71,3.49c-2.3,3.03-4.62,6.28-6.87,9.68
			c-3.88,5.91-7.42,12.24-10.51,18.82c-5.77,12.25-9.68,25.16-11.64,38.37c-1.85,12.57-1.93,25.63-0.23,38.79
			c1.63,12.66,4.89,25.6,9.68,38.46c4.39,11.78,10.2,23.88,17.26,35.97c7.03,12.02,15.17,23.81,24.19,35.03
			c7.76,9.62,17,18.49,28.25,27.1c11.43,8.78,23.9,16.02,33.48,21.35c0.41,0.24,0.88,0.39,1.38,0.45
			c21.89,7.33,45.57,12.9,70.37,16.58c22.12,3.28,44.44,4.95,66.34,4.95c3.61,0,7.22-0.04,10.83-0.13
			c26.76-0.69,52.43-3.96,76.32-9.72c25.15-6.04,48.11-15.03,68.25-26.74c9.85-5.7,19.2-12.55,27.81-20.35
			c8.28-7.47,16.3-16.33,23.82-26.31c14.8-19.66,26.34-41.79,34.27-65.8c3.85-11.71,6.66-23.73,8.34-35.75
			c1.73-12.34,2.21-24.4,1.44-35.86c-0.84-12.56-3.22-24.6-7.05-35.78c-1.98-5.71-4.39-11.2-7.17-16.31
			c-2.45-4.55-5.51-9.18-9.36-14.17c-4.39-5.66-9.74-11.2-16.36-16.91c-2.98-2.55-6.14-5.06-9.65-7.69
			c-1.62-1.22-3.29-2.38-4.96-3.55c-1.91-1.33-3.82-2.67-5.68-4.09c-3.25-2.67-6.22-5.72-8.82-9.07c-2.66-3.69-5-7.92-6.96-12.57
			c-3.95-10.06-5.85-20.92-7.69-31.43l-0.41-2.33c-1.19-6.77-2.28-12.44-3.67-18.12c-1.34-5.55-3.11-11.29-5.39-17.56
			c-4.02-11-9.08-21.18-15.02-30.25c-5.72-8.73-12.51-16.7-20.17-23.68c-14.39-13.1-32.7-23.18-54.42-29.95
			c-9.94-3.1-20.83-5.52-33.27-7.39C393.96,18.73,384.18,18,374.5,18"/>
		<path class="st2" d="M398.48,86.01h0.04c-0.07,0.02-0.17,0.02-0.25,0.04c0.03-0.02,0.07-0.02,0.11-0.02c-0.06,0-0.11,0-0.19,0.02
			h0.08c-21.53,3.01-42.67,8.93-62.72,17.59c0.09-0.04,0.19-0.1,0.29-0.14c-15.42,6.73-30.27,15.06-43.61,25.54l0.02-0.02
			l-0.06,0.06l0.04-0.04c-0.04,0.04-0.1,0.08-0.17,0.14c0,0-0.02,0.02-0.04,0.02c0,0.02,0,0.02-0.02,0.02
			c0.02,0,0.02-0.02,0.02-0.02c-3.9,3.16-7.69,6.49-11.22,10.12c-3.3,3.39-6.4,6.97-9.28,10.76c-3.02,4.04-5.82,8.29-8.26,12.73
			c-2.42,4.38-4.57,8.92-6.46,13.56c0.04-0.1,0.08-0.2,0.11-0.32c-3.94,9.74-6.83,19.84-9.33,30.04
			c-2.87,11.67-5.29,23.42-8.22,35.04c-0.8,3.17-1.64,6.34-2.52,9.47c-0.84,3.01-1.7,6-2.67,8.96c-2.05,6.1-4.59,12.01-7.56,17.69
			c-2.99,5.74-6.31,11.3-9.8,16.73c-3.49,5.44-7.13,10.76-10.7,16.13c-3.57,5.38-7.11,10.76-10.34,16.36s-6.23,11.39-8.73,17.39
			l0.11-0.3c-1.21,2.95-2.32,5.92-3.26,8.98c-0.93,2.99-1.74,6.04-2.44,9.11c-1.23,5.44-2.23,10.92-2.95,16.47
			c0,0.04,0,0.1-0.02,0.14c0.02-0.04,0.02-0.1,0.02-0.14v-0.06c-0.86,6.97-1.37,13.96-1.33,20.98c0.02,6.81,0.45,13.64,1.33,20.38
			c0.93,6.99,2.32,13.92,4.16,20.74c1.79,6.63,4,13.09,6.58,19.44l-0.11-0.3c2.95,7.13,6.33,14.06,10.17,20.72
			c0.08,0.14,0.15,0.26,0.23,0.4c10.75,7.95,22.04,14.46,30.84,19.34c0.33,0.22,0.78,0.38,1.4,0.48
			c21.9,7.33,45.58,12.91,70.37,16.59c22.18,3.29,44.51,4.93,66.35,4.93c3.61,0,7.23-0.04,10.83-0.12
			c26.77-0.7,52.46-3.97,76.35-9.74c24.77-5.94,47.36-14.73,67.22-26.15c1.51-1.91,2.99-3.84,4.46-5.78
			c13.49-18.03,25.32-37.49,33.98-58.47c-0.02,0.08-0.05,0.16-0.07,0.22c2.85-6.95,5.35-14.04,7.34-21.29
			c1.93-6.99,3.44-14.1,4.41-21.29v0.1c0.72-5.62,1.17-11.28,1.19-16.97c0.02-5.66-0.31-11.3-1.05-16.91
			c0.02,0.12,0.03,0.24,0.05,0.34c-0.68-4.98-1.64-9.94-2.95-14.8c-1.26-4.68-2.83-9.27-4.66-13.77c0.02,0.04,0.04,0.1,0.07,0.14
			c-0.03-0.1-0.07-0.18-0.11-0.28c0,0.02,0.01,0.05,0.01,0.07c0.01,0.03,0.02,0.05,0.03,0.08c-0.01-0.03-0.02-0.05-0.03-0.08
			c-0.01-0.02-0.02-0.05-0.03-0.07h0.02c-0.02,0-0.02-0.02-0.02-0.04v0.04c-0.84-1.98-1.77-3.89-2.85-5.76
			c-1.08-1.8-2.25-3.56-3.48-5.24c-0.01-0.01-0.02-0.02-0.03-0.04c0.01,0,0.01,0.01,0.02,0.01c-0.01-0.02-0.03-0.03-0.04-0.05
			c-3.61-4.78-7.75-9.04-11.97-13.21c-4.1-4.06-8.28-8.06-12.02-12.47c-1.93-2.29-3.79-4.66-5.43-7.21
			c-1.66-2.57-3.14-5.28-4.35-8.11c-1.31-2.99-2.44-6.07-3.36-9.22c-0.95-3.36-1.75-6.75-2.36-10.18
			c-1.25-7.05-1.91-14.2-2.24-21.36c-0.33-6.89-0.39-13.8-0.54-20.72c-0.29-12.29-0.84-24.6-2.42-36.83
			c0.02,0.08,0.02,0.16,0.04,0.24c-0.84-6.34-1.95-12.67-3.51-18.87c-1.54-6.09-3.47-12.03-5.82-17.81l0.12,0.3
			c-2.38-5.8-5.16-11.42-8.32-16.83c-3.3-5.62-6.93-11.01-10.83-16.22h0.02l-0.05-0.06c0.02,0.02,0.04,0.04,0.04,0.06
			c-0.06-0.06-0.1-0.14-0.14-0.2c0.02,0.03,0.03,0.04,0.04,0.06c-0.03-0.04-0.06-0.09-0.08-0.12v0.01c0.02,0.02,0.02,0.04,0.04,0.05
			c-0.01-0.02-0.03-0.04-0.04-0.05c-1.18-1.55-2.39-3.08-3.6-4.62c-4.7-1.65-9.46-3.04-14.28-4.15c-5.04-1.19-10.11-2.11-15.23-2.81
			c0.06,0,0.14,0.02,0.19,0.02c-8.33-1.11-16.71-1.63-25.1-1.63C418.11,83.98,408.25,84.69,398.48,86.01 M573.07,378.92
			c-0.02,0.08-0.02,0.16-0.04,0.24C573.03,379.08,573.05,379,573.07,378.92 M527.28,480.11c-0.02,0.02-0.04,0.06-0.06,0.08
			C527.24,480.17,527.26,480.13,527.28,480.11"/>
		<path class="st2" d="M292.06,129.16c0.03-0.02,0.06-0.04,0.09-0.07C292.12,129.12,292.09,129.14,292.06,129.16"/>
		<path class="st3" d="M216.63,219.85c-2.22,0-4.41,0.32-6.52,0.97c-4.15,1.27-8.05,4.14-10.96,8.09c-3.03,4.13-5.02,9.21-5.75,14.7
			c-0.68,5.04-0.37,10.52,0.94,16.3c1.14,5.15,3.24,10.47,6.23,15.82c2.72,4.81,6.26,9.3,10.22,12.98c1.76,1.62,3.75,3.15,5.92,4.54
			c1.96,1.24,4.25,2.32,6.98,3.3c3.05,1.08,6.07,1.63,8.95,1.63c1.05,0,2.09-0.07,3.13-0.23c1.62-0.24,3.16-0.69,4.72-1.39
			c1.43-0.66,2.78-1.54,4.27-2.78c2.26-1.89,4.2-4.63,5.75-8.13c1.45-3.33,2.41-6.97,2.91-11.12c0.48-3.83,0.56-7.89,0.21-12.06
			c-0.71-8.58-3.01-16.5-6.64-22.91c-0.93-1.67-2.09-3.33-3.44-4.93c-0.41-0.49-1.02-0.77-1.72-0.77c-0.35,0-0.71,0.07-1.05,0.22
			c-4.37-6.58-10.73-11.33-17.85-13.36C220.88,220.15,218.75,219.85,216.63,219.85"/>
		<path class="st4" d="M209.52,232.67c-0.19,0.66,0.2,1.43,0.86,1.59c1.4,0.34,2.75,0.77,4.07,1.29c-0.04-0.02-0.08-0.04-0.13-0.07
			c0.09,0.04,0.18,0.08,0.28,0.13l0.03,0.01c-0.01,0-0.02-0.01-0.02-0.01c2.13,0.98,4.09,2.22,5.96,3.68
			c-0.11-0.08-0.23-0.18-0.35-0.26c2.39,1.97,4.46,4.25,6.34,6.7c2.98,4.17,5.3,8.79,7.31,13.54c0.31,0.72,1.17,1.29,1.87,1.49
			c0.82,0.22,1.69,0.1,2.44-0.32c0.7-0.42,1.23-1.13,1.44-1.95c0.04-0.28,0.08-0.57,0.11-0.86c-0.02-0.59-0.15-1.13-0.45-1.63
			c-2.48-6.04-6.4-11.3-11.26-15.54c-4.8-4.24-10.83-7.19-16.99-8.68c-0.1-0.03-0.21-0.04-0.31-0.04
			C210.17,231.75,209.67,232.09,209.52,232.67 M226.39,245.5c0.05,0.07,0.09,0.13,0.14,0.2
			C226.48,245.64,226.43,245.57,226.39,245.5 M214.61,235.61C214.61,235.61,214.6,235.61,214.61,235.61
			c-0.06-0.03-0.11-0.05-0.16-0.07C214.5,235.57,214.56,235.59,214.61,235.61"/>
		<path class="st3" d="M523.55,207.55c2.22,0,4.41,0.32,6.52,0.97c4.15,1.27,8.05,4.14,10.95,8.09c3.04,4.13,5.02,9.21,5.75,14.7
			c0.69,5.04,0.37,10.52-0.93,16.31c-1.14,5.14-3.24,10.47-6.23,15.82c-2.72,4.81-6.26,9.3-10.22,12.98
			c-1.76,1.62-3.75,3.15-5.93,4.54c-1.96,1.24-4.24,2.32-6.98,3.3c-3.05,1.08-6.07,1.63-8.96,1.63c-1.04,0-2.09-0.07-3.13-0.23
			c-1.62-0.24-3.16-0.69-4.71-1.39c-1.43-0.66-2.78-1.55-4.27-2.78c-2.26-1.89-4.2-4.63-5.75-8.13c-1.45-3.33-2.41-6.97-2.91-11.12
			c-0.49-3.83-0.56-7.89-0.21-12.06c0.71-8.58,3.01-16.5,6.64-22.91c0.93-1.67,2.09-3.33,3.44-4.93c0.41-0.49,1.02-0.77,1.72-0.77
			c0.35,0,0.72,0.08,1.05,0.22c4.37-6.57,10.73-11.32,17.85-13.36C519.29,207.85,521.42,207.55,523.55,207.55"/>
		<path class="st4" d="M530.65,220.36c0.19,0.66-0.2,1.43-0.86,1.59c-1.4,0.34-2.74,0.77-4.07,1.3c0.04-0.02,0.09-0.05,0.13-0.07
			c-0.09,0.04-0.18,0.09-0.27,0.13c-0.01,0.01-0.02,0.01-0.04,0.01c0.01,0,0.02-0.01,0.03-0.01c-2.13,0.98-4.09,2.23-5.96,3.68
			c0.11-0.08,0.23-0.18,0.35-0.26c-2.39,1.97-4.46,4.25-6.34,6.7c-2.98,4.17-5.3,8.79-7.31,13.54c-0.31,0.72-1.17,1.29-1.87,1.49
			c-0.82,0.22-1.69,0.1-2.44-0.32c-0.7-0.42-1.23-1.13-1.44-1.95c-0.04-0.28-0.08-0.57-0.11-0.86c0.02-0.59,0.15-1.13,0.45-1.63
			c2.48-6.04,6.4-11.3,11.26-15.54c4.8-4.24,10.83-7.19,16.99-8.68c0.1-0.03,0.21-0.04,0.31-0.04
			C530,219.44,530.5,219.79,530.65,220.36 M513.79,233.19c-0.05,0.07-0.09,0.14-0.14,0.2C513.69,233.33,513.74,233.26,513.79,233.19
			 M525.56,223.31c0.01,0,0.01-0.01,0.01-0.01c0.05-0.02,0.09-0.04,0.14-0.06C525.67,223.27,525.62,223.29,525.56,223.31"/>
		<polygon class="st3" points="385.95,401.43 385.95,401.43 385.97,401.43 		"/>
		<path class="st5" d="M404.58,72.92c-5.07,0-10.28,0.31-15.49,0.93c-13.38,1.58-27.32,5.32-41.42,11.09
			c-12.98,5.34-25.73,12.27-37.87,20.61c-7.28,5-14.72,10.91-23.41,18.61c-2.09,1.86-4.18,3.72-6.26,5.6
			c-5.38,4.83-10.94,9.82-16.67,14.4c-5.94,4.66-11.55,8.45-17.18,11.58c-1.3,0.71-2.05,2.34-1.82,3.99
			c-0.12,0.38-0.2,0.8-0.21,1.19c-0.25,7.24-0.95,15.1-2.19,24.74l-0.07,0.54c-1.03,7.77-2.24,15.53-3.45,23.3
			c-2.94,18.89-5.99,38.43-6.35,57.92c-0.26,14.73,1.22,27.57,4.55,39.25c1.72,6.11,4.17,12.18,7.27,18.02
			c2.73,5.13,6.29,10.35,10.56,15.51c6.19,7.46,14.05,14.36,23.36,20.51c8.15,5.39,17.61,10.03,28.12,13.82
			c10.32,3.7,21.43,6.25,33.04,7.55c0.51,0.3,1.12,0.46,1.89,0.5c1.85,0.12,3.71,0.22,5.54,0.28c0.51,0.27,1.1,0.42,1.8,0.46
			l0.63,0.04l0.63,0.04l0.95,0.06l0.51,0.02c4.02,0.21,8.04,0.3,12.06,0.3c1.9,0.1,3.81,0.14,5.71,0.14c4.05,0,8.4-0.2,13.7-0.63
			c3.63-0.14,7.2-0.41,10.6-0.8l1.54-0.11c0.35-0.03,0.6-0.07,0.86-0.15c14.57-0.95,28.32-3.72,40.86-8.24
			c10.51-3.78,19.97-8.43,28.12-13.82c9.32-6.15,17.18-13.05,23.36-20.51c4.28-5.16,7.84-10.38,10.56-15.51
			c3.1-5.84,5.55-11.91,7.27-18.02c3.32-11.68,4.81-24.52,4.55-39.25c-0.28-15.53-2.3-31.09-4.25-44.26
			c-0.45-4.68-1.1-9.34-1.74-13.99l-0.39-2.82c-1.01-7.88-1.71-15.93-2.39-23.71c-1.02-11.72-2.08-23.84-4.22-35.63
			c-1.79-9.87-4.51-19.16-8.11-27.61c-3.92-9.2-9.48-17.76-16.54-25.43c-0.68-0.74-1.62-1.15-2.65-1.15c-0.18,0-0.37,0.02-0.55,0.04
			c-11.38-7.81-24.14-13.36-37.91-16.48C422.9,73.91,413.84,72.92,404.58,72.92"/>
		<path class="st3" d="M389.09,73.72c-13.45,1.62-27.39,5.36-41.46,11.14c-12.92,5.28-25.67,12.21-37.87,20.6
			c-7.22,4.96-14.68,10.86-23.46,18.61c-2.09,1.85-4.18,3.72-6.27,5.6c-5.08,4.55-10.81,9.74-16.67,14.4
			c-5.92,4.66-11.52,8.43-17.12,11.58c-1.34,0.7-2.13,2.37-1.91,4.06c-0.11,0.39-0.19,0.81-0.21,1.21
			c-0.25,7.47-0.93,15.32-2.18,24.74l-0.08,0.54c-1.03,7.77-2.22,15.54-3.43,23.29l-0.1,0.7c-0.78,5.03-1.57,10.12-2.31,15.23
			c0.05,0.05,0.1,0.1,0.16,0.15c0.05,0.04,0.1,0.08,0.15,0.12c-0.01-0.02-0.02-0.02-0.03-0.04c0.01,0.02,0.01,0.02,0.03,0.04
			c0.95,0.77,1.94,1.45,3.01,2.01c0.9,0.42,1.82,0.72,2.79,0.95c0.86,0.12,1.74,0.16,2.61,0.14c1.19-0.14,2.34-0.4,3.48-0.82
			c1.5-0.6,2.91-1.41,4.25-2.35c0.58-0.44,1.15-0.9,1.66-1.41c0.56-0.58,1.11-1.18,1.64-1.8c-0.07,0.08-0.13,0.16-0.21,0.24
			c0.78-0.99,1.5-2.03,2.13-3.14c0.48-0.88,0.93-1.74,1.36-2.64c-0.01,0.01-0.01,0.01-0.01,0.02c0-0.01,0.01-0.01,0.01-0.02
			c0-0.01,0-0.01,0-0.01c0.01-0.02,0.01-0.05,0.02-0.06c-0.01,0.01-0.01,0.04-0.02,0.06c0.02-0.05,0.04-0.09,0.06-0.14
			c2.15-4.96,3.42-10.24,4.37-15.58c0.47-2.73,0.88-5.5,1.27-8.25c0.06-0.34,0.15-0.63,0.41-0.86c0.15-0.16,0.34-0.26,0.55-0.31
			c0.28-0.54,0.9-0.79,1.47-0.61c2.07,0.6,4.12,1.13,6.25,1.53c4.1,0.74,8.28,1.16,12.46,1.47c3.78,0.28,7.59,0.46,11.38,0.52
			c7.67,0.14,15.34-0.12,22.98-0.75c-0.1,0.02-0.21,0.02-0.33,0.04c10.95-0.95,21.84-2.61,32.58-5.06
			c10.38-2.39,20.61-5.44,30.63-9.18c-0.1,0.04-0.21,0.08-0.31,0.12c9.54-3.6,18.89-7.77,27.88-12.71
			c8.18-4.48,16.07-9.46,23.64-14.94c-0.08,0.06-0.17,0.12-0.25,0.2c11.24-8.21,21.76-17.51,30.69-28.38
			c-0.06,0.1-0.14,0.19-0.19,0.26c2.69-3.31,5.25-6.77,7.53-10.38c2.07-3.27,3.93-6.63,5.59-10.12c0-0.02,0.01-0.03,0.01-0.04
			c0-0.02,0-0.02,0.02-0.04c0-0.02,0.02-0.06,0.04-0.08v-0.02c0-0.02,0-0.02,0.02-0.04c0.39-0.86,0.76-1.73,1.13-2.61
			c-1.91-2.59-4-5.1-6.23-7.53c-0.7-0.76-1.68-1.18-2.73-1.18c-0.17,0-0.37,0.02-0.55,0.04c-11.3-7.77-24.05-13.31-37.87-16.49
			c-8.73-1.95-17.8-2.96-26.96-2.96C399.65,72.79,394.46,73.12,389.09,73.72"/>
		<path class="st3" d="M477.76,103.55c0.01-0.01,0.02-0.02,0.02-0.04C477.78,103.52,477.76,103.54,477.76,103.55"/>
		<path class="st3" d="M477.76,103.56L477.76,103.56c0,0.01,0,0.01,0,0.02c-0.02,0.03-0.04,0.06-0.04,0.09
			c-0.01,0-0.01,0.01-0.01,0.02C477.72,103.64,477.74,103.6,477.76,103.56z"/>
		<path class="st6" d="M293.13,253.41c0,10.05,3.25,18.21,7.25,18.21c4,0,7.25-8.16,7.25-18.21c0-10.05-3.25-18.21-7.25-18.21
			C296.38,235.21,293.13,243.36,293.13,253.41"/>
		<path class="st6" d="M435.77,246.53c0,10.05,3.25,18.21,7.25,18.21c4,0,7.25-8.16,7.25-18.21c0-10.05-3.25-18.21-7.25-18.21
			C439.01,228.32,435.77,236.48,435.77,246.53"/>
		<path class="st6" d="M448.19,159.2c-13.78-3.62-25.91-2.77-27.07,1.89c-1.15,4.66,9.1,11.38,22.88,15
			c13.78,3.61,25.91,2.77,27.07-1.9C472.23,169.54,461.97,162.82,448.19,159.2"/>
		<path class="st7" d="M374.55,231.41c-0.71,0-1.25,0.56-1.36,1.39c-0.66,6.82-0.64,13.03,0.08,18.98c0.37,2.86,0.91,5.75,1.58,8.6
			c0.73,3.08,1.76,6.11,3.14,9.25c0.28,0.69,1.08,1.21,1.75,1.41c0.26,0.08,0.52,0.12,0.79,0.12c0.55,0,1.09-0.15,1.51-0.43
			c1.39-0.82,1.85-2.61,1.05-4.16c-1.17-2.39-2.32-4.78-3.34-7.24c-0.8-2.09-1.5-4.19-2.1-6.34c-0.59-2.13-1.06-4.51-1.54-7.73
			c-0.23-2.03-0.41-4.07-0.46-6.12c-0.06-1.92,0.02-3.93,0.25-6.34c0.02-0.31-0.09-0.64-0.32-0.92
			C375.29,231.59,374.91,231.41,374.55,231.41"/>
		<path class="st8" d="M173.71,250.55c-3.02,1.08-5.7,2.79-8.06,5c-2.01,1.87-3.65,4.15-4.88,6.63c-1.25,2.59-1.95,5.32-2.32,8.19
			c-0.33,2.65-0.15,5.38,0.17,8.01c0.39,2.97,1.25,5.87,2.24,8.68c3.69,10.58,11.22,19.35,19.21,26.81
			c8.81,8.19,18.8,14.92,29.32,20.48c10.83,5.74,22.27,10.22,34.05,13.33c11.16,2.95,22.74,4.68,34.28,4.35
			c0.68-0.02,1.29-0.14,1.81-0.62c0.51-0.46,0.8-1.08,0.86-1.77c0.08-1.3-0.95-2.79-2.32-2.75c-8.69,0.24-17.33-0.7-25.86-2.41
			c0.16,0.03,0.31,0.07,0.46,0.1c-13.3-2.76-26.21-7.34-38.39-13.44c0.17,0.1,0.37,0.2,0.56,0.3c-10.89-5.51-21.22-12.22-30.4-20.43
			c-5.24-4.81-10.18-10.1-14.12-16.11c-2.14-3.43-3.92-7.08-5.25-10.93c-0.9-2.88-1.53-5.8-1.77-8.83c0,0.08,0.01,0.16,0.01,0.25
			c-0.01-0.1-0.01-0.19-0.01-0.29c-0.01-0.12-0.02-0.25-0.02-0.38c0.01,0.11,0.01,0.22,0.02,0.32c-0.07-2.05,0.04-4.07,0.41-6.1
			c0.32-1.41,0.76-2.77,1.33-4.1c0.75-1.51,1.64-2.9,2.71-4.2c1.15-1.27,2.4-2.37,3.78-3.36c1.26-0.79,2.58-1.43,3.96-1.96
			c1.61-0.5,3.23-0.81,4.89-0.96c2.41-0.09,4.77,0.12,7.15,0.52c6.23,1.32,12.07,3.91,17.76,6.75l-0.58-0.3
			c5.86,2.95,11.51,6.2,17.06,9.7c5.78,3.63,11.42,7.51,17.06,11.37c5.64,3.88,11.3,7.71,17.08,11.35c5.7,3.6,11.57,6.89,17.63,9.84
			c0.55,0.28,1.35,0.14,1.87-0.12c0.6-0.28,1.07-0.84,1.29-1.49c0.21-0.64,0.17-1.35-0.1-1.93c-0.33-0.68-0.82-1.02-1.46-1.33
			c-0.69-0.35-1.39-0.68-2.07-1.03c0.08,0.04,0.17,0.08,0.26,0.12c-13.19-6.74-25.34-15.38-37.62-23.71
			c-11.5-7.81-23.31-15.3-36.08-20.72c-5.6-2.39-11.63-4.16-17.73-4.2c-0.06,0-0.12,0-0.18,0C179,249.2,176.27,249.64,173.71,250.55
			 M165.22,264.42c-0.04,0.11-0.09,0.22-0.14,0.33C165.13,264.64,165.17,264.53,165.22,264.42 M163.3,275.1c0,0.02,0,0.03,0,0.04
			c0-0.03,0-0.06,0-0.09C163.3,275.06,163.3,275.08,163.3,275.1"/>
		<path class="st5" d="M151.47,267.57l-0.2,0.01c-0.68,0.08-0.87,0.1-1.1,0.2c-0.62,0.22-0.87,0.42-1.36,0.81
			c-0.85,0.69-1.3,1.87-1.6,2.82c-0.21,0.7-0.31,1.45-0.39,2.18c-0.13,0.95-0.19,1.91-0.21,2.88c-0.15,5.27,0.52,10.83,1.99,16.5
			c1.41,5.5,3.69,11.24,7.15,18.11c3.19,6.28,7.28,12.85,12.5,20.06c4.06,5.58,8.48,11,13.14,16.11c-0.16,0.14-0.28,0.41-0.4,0.67
			c-0.35,0.7-0.68,1.38-1.01,2.09c-5.59,11.57-11.86,22.99-18.66,33.95c-6.87,11.05-14.25,21.38-21.92,30.7
			c-0.03-0.01-0.07-0.01-0.11-0.01c-0.35,0-0.67,0.08-1,0.23c-0.6,0.3-1.06,0.83-1.29,1.5c-0.22,0.67-0.19,1.38,0.1,2
			c3.02,6.44,7.1,12.87,12.13,19.11c5.37,6.63,11.46,12.34,18.13,16.96c3.11,2.17,6.63,4.14,10.47,5.85
			c3.32,1.47,7.04,2.58,11.04,3.27c1.91,0.33,3.92,0.49,5.97,0.49c1.79,0,3.58-0.12,5.37-0.35c3.59-0.46,7.39-1.66,11.3-3.56
			c0.17-0.09,0.33-0.2,0.46-0.31h0.03c0.91,0,1.74-0.48,2.12-1.26l0.43-0.86c5.02-9.94,10.21-20.22,14.52-30.73
			c2.53-6.2,4.53-11.84,6.11-17.24c1.72-5.88,2.94-11.99,3.63-18.16c0.61-5.59,0.51-11.32-0.29-17.02
			c-0.79-5.65-2.64-11.25-5.49-16.62c-0.95-1.82-2.05-3.59-3.14-5.35l-1.33-2.16c-1.46-2.39-2.91-4.78-4.31-7.19
			c-2.57-4.34-4.6-8.29-6.2-12.04c-3.39-8.42-4.91-17.25-5.95-24.77c-0.62-4.55-1.28-8.62-3.21-12.27
			c-0.61-1.17-1.45-2.15-2.41-2.85c-0.9-0.68-1.97-1.03-3.17-1.05c-2.46,0-4.47,1.84-5.76,3.37c-2.14,2.55-3.53,5.65-4.5,8.07
			l-0.29,0.7c-0.08-3.07-0.27-6.16-0.51-9.26c-0.34-4.17-0.79-8.63-1.79-12.88c-0.35-1.53-0.86-3.03-1.53-4.45
			c-0.59-1.26-1.5-2.33-2.63-3.09c-1.19-0.79-2.67-1.29-4.37-1.49c-0.08-0.01-0.15-0.01-0.23-0.01c-0.77,0-1.29,0.09-1.76,0.19
			c-0.58,0.12-1.21,0.4-1.98,0.89c-2.7,1.81-3.88,5.26-4.53,7.7c-0.48,1.77-0.75,3.6-0.98,5.31c-0.25,2.03-0.41,4.08-0.51,6.13
			c-0.09,2.43-0.09,4.9-0.02,7.36c-0.21-0.63-0.51-1.23-0.8-1.83l-0.55-1.12c-1.46-2.99-2.92-5.98-4.43-8.94
			c-1.58-3.1-3.48-6.74-5.57-10.22c-0.82-1.35-1.66-2.65-2.58-3.94c-0.78-1.1-1.66-2.25-2.7-3.24c-0.86-0.84-1.76-1.41-2.77-1.76
			C152.15,267.63,151.79,267.57,151.47,267.57"/>
		<path class="st4" d="M193.22,304.53c-0.7,0.08-1.15,0.7-1.11,1.4c0.1,1.99,0.31,3.96,0.66,5.92c0.31,1.75,0.8,3.48,1.34,5.16
			c1.15,3.58,2.97,6.91,5.06,9.98c0.39,0.58,1.21,0.68,1.76,0.28c0.54-0.42,0.66-1.22,0.27-1.78c-0.92-1.36-1.77-2.73-2.55-4.18
			c-0.6-1.2-1.14-2.41-1.64-3.65c-0.6-1.54-1.07-3.14-1.48-4.76c-0.22-0.98-0.39-1.98-0.55-2.98c-0.23-1.4-0.31-2.83-0.39-4.26
			c-0.02-0.66-0.65-1.15-1.26-1.15C193.29,304.53,193.25,304.53,193.22,304.53 M195.57,313.14c0.01,0.03,0.01,0.06,0.02,0.09
			C195.59,313.2,195.58,313.17,195.57,313.14 M198.56,321.16c0.01,0.03,0.03,0.05,0.04,0.08
			C198.59,321.21,198.58,321.18,198.56,321.16"/>
		<g>
			<defs>
				<path id="SVGID_1_" d="M78.71,486.57c51.27,163.31,221.79,253.07,380.54,200.32c158.76-52.74,246.01-228.15,194.74-391.45
					C602.71,132.13,432.2,42.37,273.44,95.11C114.69,147.86,27.43,323.26,78.71,486.57"/>
			</defs>
			<clipPath id="SVGID_2_">
				<use xlink:href="#SVGID_1_"  style="overflow:visible;"/>
			</clipPath>
			<g class="st9">
				<path class="st5" d="M382.64,345.47c-2.48,0-5.16,0.2-8.21,0.61c-7.53,1.04-15.11,3.29-22.52,6.67
					c-5.23,2.39-10.06,5.34-14.36,8.76c-2.64,2.14-4.82,4.26-6.66,6.47c0.02-0.54-0.17-1-0.53-1.41c-0.43-0.5-1.07-0.82-1.75-0.86
					c-0.83,0-1.54,0.32-2.04,0.85c-0.43,0.46-0.66,1.03-0.64,1.61c0.22,11.62-0.42,21.16-2.05,30.01l0.21-0.66
					c-1.52,7.42-3.59,13.96-6.42,19.99c-2.4,4.86-5.3,9.34-8.61,13.3l0.49-0.44c-3.54,3.97-7.39,7.51-11.84,10.74l-0.46,0.41
					l0.03,0.04c-1.77,1.1-3.78,2.36-5.85,3.55c-1.24,0.71-1.73,2.26-1.11,3.52c0.27,0.55,0.77,1.02,1.35,1.25
					c0.38,4.63,1.37,9.24,2.94,13.67c1.64,4.6,4,9.27,7.02,13.88c5.49,8.41,13.16,16.29,22.79,23.41
					c8.84,6.53,18.74,11.67,29.41,15.28c4.97,1.68,10.08,2.9,15.18,3.64c3.48,0.49,6.7,0.73,9.85,0.73c1.56,0,3.12-0.06,4.69-0.19
					c8.05-0.65,16.2-3.07,24.22-7.19c7.17-3.69,14.07-8.99,20.51-15.74c5.85-6.11,10.98-13.36,15.27-21.55
					c4.18-7.97,7.22-16.51,9.05-25.38c0.1-0.48,0.08-0.97-0.04-1.41c0.57-1.65-0.14-3.11-1.47-3.61c-2.48-0.94-4.89-1.99-7.16-3.13
					c-4.38-2.29-8.38-5-11.88-8.02c-3.27-2.97-6.14-6.24-8.62-9.81c-2.86-4.29-5.26-9.16-7.12-14.47
					c-2.38-7.12-3.89-14.97-4.61-24.01l-0.04,0.69c-0.07-2.34-0.17-4.67-0.23-7c0.81-4.21,1.08-7.93,0.82-11.37
					c-0.28-3.57-1.21-6.91-2.76-9.94c-0.61-1.19-1.44-2.41-2.54-3.72c-1.03-1.29-2.28-2.34-3.48-3.28c-2.13-1.7-4.82-3.06-8.23-4.17
					c-2.86-0.91-6.12-1.46-9.97-1.67C384.38,345.49,383.52,345.47,382.64,345.47"/>
				<path class="st3" d="M374.43,345.96c-7.61,1.08-15.19,3.33-22.55,6.69c-5.21,2.39-10.05,5.34-14.41,8.78
					c-2.69,2.21-4.86,4.34-6.66,6.49c0.19-0.44,0.06-0.93-0.37-1.41c-0.47-0.54-1.11-0.86-1.83-0.9c-0.84,0-1.56,0.3-2.13,0.88
					c-0.16,0.18-0.3,0.38-0.41,0.58c0.97,2.1,2.07,4.14,3.28,6.11l-0.17-0.3c1.41,2.25,2.95,4.4,4.65,6.41
					c1.69,2.02,3.49,3.9,5.42,5.66c4.16,3.76,8.79,6.92,13.73,9.46c5.15,2.57,10.56,4.5,16.18,5.7c-0.09-0.02-0.21-0.04-0.31-0.06
					c5.56,1.18,11.22,1.67,16.89,1.4h-0.08h0.08c0.07-0.02,0.14-0.02,0.21-0.02h0.01h0.02c5.03-0.3,10.01-1.2,14.81-2.73
					c2.46-0.82,4.9-1.77,7.21-2.93c1.58-0.78,3.11-1.62,4.6-2.53c-0.32-2.33-0.57-4.73-0.78-7.23l-0.25,0.66l0.11-2.31
					c-0.06-1.51-0.09-3.03-0.13-4.56c0.82-4.34,1.09-8.05,0.82-11.46c-0.27-3.56-1.21-6.93-2.79-9.98
					c-0.62-1.24-1.46-2.45-2.54-3.75c-1.09-1.35-2.38-2.41-3.49-3.3c-2.16-1.73-4.86-3.07-8.28-4.17c-2.89-0.93-6.17-1.49-9.99-1.69
					c-0.88-0.06-1.74-0.08-2.61-0.08C380.21,345.36,377.52,345.56,374.43,345.96"/>
				<g>
					<path class="st10" d="M295.31,437.82c-0.41,0-0.81,0.11-1.16,0.33c-10.69,6.4-21.37,12.82-32.05,19.23l-20.22,12.14
						c-1.08,0.63-1.59,1.9-1.25,3.07c-0.04,0.17-0.04,0.42-0.02,0.67c1.28,13.12,1.56,26.66,0.86,41.38c0,0.03,0.01,0.35,0.03,0.35
						c0.03,0,0.04,0.25,0.04,0.25c-1.36,23.62-5.02,47.44-8.56,70.48c-1.27,8.32-2.55,16.65-3.72,24.98
						c-1.29,9.15-2.24,16.81-3,24.11c-0.41,3.88-0.76,7.76-1.07,11.65c-0.18,2.4-0.25,4.7-0.19,6.87c0.07,3.81,0.63,7.82,1.66,11.92
						c0.85,3.4,2.19,6.83,4.1,10.49c3.15,6.07,7.93,11.72,14.2,16.8c5.66,4.56,12.38,8.5,20.57,12.05
						c7.23,3.11,15.32,5.73,24.74,7.99c8.09,1.95,16.75,3.49,26.5,4.7c14.58,1.84,30.1,2.73,47.44,2.73l2.45-0.01
						c10.79-0.04,20.61-0.45,30.01-1.24c14.91-1.27,30.53-3.67,47.77-7.33c7.17-1.52,14.77-3.31,23.23-5.46l3.32-0.84
						c4.7-1.18,9.55-2.41,14.23-3.96c5.98-1.98,10.79-4.5,14.73-7.67c2.04-1.66,3.96-3.65,5.71-5.94c1.78-2.35,3.31-5.09,4.81-8.62
						c2.45-5.7,4.11-12.12,5.1-19.64c0.83-6.13,1.09-12.99,0.8-20.97c-0.49-14.2-2.86-28.46-5.15-42.25l-0.14-0.84
						c-3.94-23.69-8.72-47.46-12.86-67.59l-1.76-8.41l-1.76-8.42c-1.17-5.5-2.32-11-3.3-16.56c-0.5-2.88-0.98-5.76-1.46-8.65
						c-1.35-8.18-2.75-16.63-4.75-24.81c-0.14-0.63-0.74-1.19-1.27-1.48c-0.31-0.15-0.63-0.21-0.9-0.24
						c-0.24-0.61-0.76-1.11-1.39-1.37c-7.89-3.21-15.62-6.84-22.99-10.8c-4.49-2.48-9.01-5.19-13.27-7.99
						c-0.41-0.27-0.9-0.43-1.47-0.45c-0.27-0.1-0.57-0.15-0.89-0.15c-0.98,0-1.83,0.49-2.2,1.29c-1.09,2.35-2.42,4.62-4.05,6.91
						c-2.47,3.21-5.33,6.14-8.06,8.83c-2.31,2.27-4.53,4.25-6.79,6.06c-5.71,4.49-12.1,8.33-18.98,11.42l-0.54,0.24
						c-7.52,3.17-15.61,5.41-23.96,6.59l0.07-0.01c-3.96,0.5-7.96,0.76-11.88,0.76c-4.03,0-8.07-0.27-12-0.79
						c-7.34-1.11-14.25-3.06-20.67-5.82c-5.59-2.49-10.83-5.63-15.59-9.34c-4.56-3.68-8.68-7.91-12.23-12.56
						c-2.88-3.92-5.44-8.17-7.59-12.66c-0.37-0.8-1.21-1.3-2.19-1.3C295.89,437.87,295.59,437.82,295.31,437.82"/>
					<path class="st11" d="M262.06,457.3l-20.22,12.13c-1.13,0.66-1.66,1.97-1.31,3.19c-0.03,0.12-0.05,0.36-0.03,0.64
						c1.3,13.15,1.58,26.69,0.85,41.37l0.14,0.62c-1.42,23.68-5.08,47.47-8.61,70.46c-1.29,8.34-2.56,16.65-3.73,24.98
						c-1.29,9.13-2.24,16.8-3,24.11c-0.41,3.88-0.76,7.75-1.07,11.65c-0.17,2.51-0.23,4.82-0.19,6.87
						c0.09,3.95,0.66,7.99,1.68,11.97c0.84,3.35,2.18,6.79,4.12,10.5c3.14,6.09,7.95,11.75,14.21,16.83
						c5.7,4.58,12.44,8.54,20.61,12.07c7.23,3.11,15.31,5.74,24.74,8.01c8.2,1.96,16.87,3.51,26.53,4.72
						c3.82,0.47,7.71,0.89,11.67,1.24c-0.65-0.59-1.28-1.2-1.91-1.81c-5.33-5.16-10.07-10.96-14.13-17.23
						c-8.41-12.91-14.09-27.55-18.02-42.53c-4.28-16.29-6.7-33.05-8.4-49.84c-1.79-17.71-2.79-35.5-3.92-53.27
						c-1.09-17.53-2.28-35.06-4.55-52.45c0.02,0.1,0.04,0.22,0.06,0.34c-2.11-16.14-5.14-32.26-10.46-47.61
						C265.42,455.28,263.74,456.29,262.06,457.3"/>
					<path class="st11" d="M294.65,435.1c-1.19,0.7-1.56,2.29-0.9,3.52c5.82,10.48,13.26,20.02,22.59,27.43
						c4.25,3.35,8.83,6.23,13.68,8.57c4.8,2.33,9.84,4.1,15.01,5.36c10.89,2.65,22.25,2.85,33.34,1.53
						c6.05-0.72,12.02-1.91,17.92-3.45c5.84-1.51,11.5-3.61,16.98-6.18c6.93-3.25,13.41-7.51,19.17-12.63
						c5.84-5.2,10.72-11.65,13.96-18.88c0.29-0.64,0.43-1.26,0.25-1.99c-0.17-0.64-0.6-1.18-1.15-1.53
						c-1.09-0.66-2.85-0.36-3.42,0.93c-1.56,3.47-3.47,6.72-5.71,9.77c-3.1,4-6.65,7.52-10.55,10.67
						c-5.39,4.15-11.24,7.53-17.42,10.29c0.08-0.04,0.16-0.07,0.24-0.1l-0.39,0.16c-0.07,0.04-0.14,0.07-0.22,0.1
						c0.03-0.02,0.07-0.03,0.1-0.05c-9.28,3.91-19.09,6.3-29.03,7.67c0.23-0.04,0.45-0.06,0.66-0.1
						c-8.79,1.16-17.65,1.36-26.45,0.18c0.21,0.02,0.45,0.06,0.66,0.08c-6.65-0.94-13.12-2.67-19.32-5.28
						c-5.51-2.44-10.67-5.55-15.44-9.28c-5.1-4.13-9.62-8.89-13.64-14.13c-2.75-3.74-5.26-7.65-7.53-11.73
						c-0.44-0.82-1.29-1.26-2.16-1.26C295.48,434.76,295.04,434.87,294.65,435.1 M305.77,447.98c0.04,0.06,0.07,0.1,0.11,0.15
						L305.77,447.98z M318.88,461.61c0.04,0.03,0.08,0.06,0.12,0.1C318.97,461.67,318.93,461.65,318.88,461.61 M408.15,468.61
						c0.04-0.02,0.08-0.03,0.12-0.05c0.04-0.02,0.09-0.04,0.14-0.06C408.32,468.53,408.24,468.57,408.15,468.61"/>
					<path class="st12" d="M258.05,456.65l-0.45,0.04h0c-0.45,0-0.84,0.09-1.18,0.27l-6.31,3.1
						c-20.98,10.29-42.68,20.93-59.35,38.17c-3.8,3.91-7.45,8.51-11.46,14.47c-2.87,4.25-5.71,8.81-8.67,13.92
						c-5.81,10.04-10.94,20.64-15.23,31.5c-4.47,11.31-7.74,22.79-9.72,34.14c-2.06,11.72-2.41,23.19-1.03,34.09
						c1.42,11.22,5.17,22.08,10.86,31.41c6.64,10.92,15.82,19.84,26.53,25.8c7.92,4.4,17.19,7.42,28.34,9.24
						c10,1.67,20.13,1.89,28.72,1.89l0.94-0.01c0.12,0.16,0.3,0.31,0.52,0.44c0.37,0.23,0.82,0.34,1.3,0.34
						c0.98,0,1.82-0.5,2.18-1.29c5.44-11.57,9.97-24.26,13.48-37.72c3.19-12.31,5.58-25.61,7.32-40.65
						c2.84-24.7,3.36-51.7,1.64-84.98c-1.25-24.35-3.59-48.34-5.86-71.55c-0.08-0.73-0.24-1.33-0.76-1.86
						C259.37,456.92,258.72,456.65,258.05,456.65"/>
					<path class="st12" d="M460.95,446.71l0.45,0.04h0c0.45,0,0.84,0.1,1.18,0.28l6.31,3.29c20.98,10.91,42.68,22.2,59.35,40.47
						c3.8,4.14,7.45,9.02,11.47,15.33c2.87,4.51,5.7,9.34,8.67,14.76c5.81,10.64,10.94,21.88,15.23,33.39
						c4.46,11.99,7.74,24.17,9.72,36.2c2.06,12.42,2.41,24.59,1.03,36.15c-1.42,11.9-5.17,23.41-10.86,33.3
						c-6.64,11.58-15.82,21.04-26.53,27.35c-7.92,4.66-17.19,7.87-28.34,9.8c-10.01,1.76-20.13,2-28.72,2l-0.94-0.01
						c-0.12,0.17-0.29,0.33-0.52,0.46c-0.37,0.24-0.82,0.36-1.29,0.36c-0.98,0-1.82-0.52-2.19-1.37
						c-5.44-12.26-9.97-25.72-13.47-39.99c-3.19-13.05-5.59-27.15-7.33-43.1c-2.84-26.19-3.36-54.82-1.64-90.1
						c1.25-25.81,3.59-51.25,5.86-75.86c0.08-0.78,0.24-1.4,0.76-1.97C459.63,447,460.28,446.71,460.95,446.71"/>
				</g>
			</g>
		</g>
		<path class="st4" d="M173.38,301c-0.33,0.04-0.62,0.2-0.84,0.46c-0.19,0.24-0.35,0.64-0.27,0.94c0.45,2.11,0.98,4.18,1.6,6.23
			c0.68,2.19,1.52,4.32,2.44,6.41c1.77,4.04,4.04,7.83,6.54,11.45c0.39,0.56,1.19,0.68,1.73,0.28c0.56-0.42,0.68-1.23,0.27-1.79
			c-1.56-2.29-3.02-4.63-4.35-7.07c0.01,0.01,0.01,0.02,0.01,0.02c-1.19-2.27-2.25-4.6-3.18-6.99c-0.95-2.41-1.68-4.9-2.28-7.41
			c0.02,0.1,0.04,0.22,0.06,0.32c-0.12-0.57-0.25-1.13-0.37-1.71c-0.07-0.34-0.17-0.62-0.44-0.86c-0.23-0.19-0.53-0.28-0.83-0.28
			C173.43,301,173.4,301,173.38,301"/>
		<path class="st13" d="M158.17,389.33c-1.17,0-2.34,0.06-3.52,0.16c-1.74,0.14-3.59,0.5-5.67,1.08c-1.55,0.43-3.18,1.14-5.1,2.21
			c-3.12,1.74-5.85,4.54-7.89,8.11c-2.04,3.54-3.32,7.84-3.91,13.15c-0.14,1.46,0.8,2.77,2.15,2.99h0.07c1.59,0,2.68-0.96,2.84-2.19
			l0.56,0.87l0.65,0.84c1.54,1.97,3.12,3.9,4.72,5.82c3.37,4.02,6.96,8.03,10.97,12.27c9.21,9.7,17.89,17.24,26.54,23.06
			c4.94,3.3,9.57,5.8,14.16,7.63c4.8,1.91,9.48,2.92,13.92,3h0.07c2.63,0,4.76-0.25,6.81-0.75c2.34-0.59,4.51-1.56,6.44-2.88
			c1.51-1.03,2.9-2.45,4.13-4.23c1.14-1.7,2.03-3.72,2.64-6.02c1-3.87,1.08-8.3,0.25-13.18c-0.78-4.53-2.29-9.02-4.5-13.35
			c-0.94-1.89-1.87-3.5-2.85-4.9c-0.84-1.23-1.8-2.39-2.79-3.5c-2.22-2.49-4.71-4.88-7.6-7.29c-5.87-4.92-12.84-9.48-20.72-13.56
			c-8.06-4.17-15.98-7.02-23.52-8.46C164.05,389.64,161.06,389.33,158.17,389.33"/>
		<path class="st14" d="M140,405.43c0.1-0.02,0.21-0.02,0.31-0.04c-1.5,0.14-2.99,0.28-4.47,0.5c-4.27,1.87-8.49,4.33-12.9,7.53
			c-1.79,0.93-3.57,1.89-5.31,2.91c-8.67,5.06-17.18,11.86-26.04,20.78c-7.56,7.63-14.82,16.49-22.21,27.07
			c-6.19,8.86-12.18,18.58-18.3,29.74c-2.65,4.86-5.23,9.84-7.67,14.82c-1.85,3.76-3.59,7.83-5.13,12.07
			c-6.13,16.69-9.04,34.7-8.69,53.53c0.17,8.9,1.27,17.81,3.22,26.51c1.91,8.6,4.71,16.57,8.3,23.72c3.75,7.49,8.4,14.1,13.78,19.64
			c5.43,5.56,12.04,10.12,19.17,13.23c3.55,1.57,7.4,2.79,11.75,3.76c3.88,0.84,8.18,1.32,13.12,1.47c0.64,0.02,1.29,0.02,1.93,0.02
			c3.87,0,7.95-0.32,12.46-0.99c5.27-0.78,10.36-1.97,15.15-3.47c8.38-2.65,16.65-7.15,24.64-13.42
			c7.18-5.64,14.15-12.85,20.71-21.45c5.97-7.81,11.54-16.67,16.97-27.07c4.82-9.2,9.19-19.1,13.39-30.28
			c7.15-18.94,12.79-39.24,16.81-60.3c0.84-4.4,1.58-8.8,2.24-13.2c0.76-5.2,1.17-10.8,1.23-16.65c0.01-4.11-0.2-8.15-0.66-12.14
			c-0.61-2.27-1.23-4.53-1.87-6.78c-2.56-5.78-5.49-11.37-8.91-16.67c0.06,0.1,0.11,0.18,0.17,0.28c-2.09-3.19-4.31-6.27-6.78-9.14
			c-2.28-2.67-4.7-5.2-7.3-7.55l0.11,0.12c-2.24-2.01-4.61-3.92-7.09-5.6c-2.48-1.71-5.06-3.25-7.73-4.64
			c-0.06-0.02-0.13-0.06-0.21-0.1c0.04,0.02,0.1,0.04,0.14,0.06c-0.06-0.04-0.12-0.06-0.2-0.1c0.02,0.02,0.04,0.02,0.06,0.04
			c-2.98-1.51-6.03-2.81-9.2-3.88c-3.32-1.1-6.68-2-10.11-2.71h0.02c-3.79-0.75-7.62-1.26-11.48-1.55
			c-2.63-0.18-5.25-0.28-7.87-0.28C143.7,405.25,141.84,405.31,140,405.43 M199.23,424.01c0.04,0.02,0.08,0.06,0.11,0.1
			C199.31,424.07,199.27,424.05,199.23,424.01"/>
		<path class="st14" d="M184.37,413.75c-0.01-0.01-0.02-0.02-0.04-0.02C184.34,413.74,184.35,413.75,184.37,413.75"/>
		<path class="st14" d="M140,405.44c0.1-0.02,0.21-0.02,0.31-0.04c-1.63,0.14-3.27,0.31-4.9,0.58c-1.53,0.56-3.04,1.17-4.53,1.81
			c-10.42,4.54-20.28,11.35-27.61,20.3c-0.87,1.06-0.8,2.69,0.23,3.61c1.01,0.93,2.65,0.83,3.53-0.24c1.83-2.23,3.81-4.29,5.94-6.26
			c4.98-4.42,10.52-8.09,16.42-11.1c5.41-2.64,11.05-4.68,16.91-5.94c-0.01,0.01-0.03,0.01-0.04,0.02
			c4.33-0.86,8.73-1.26,13.18-1.02c-0.01-0.01-0.02-0.01-0.04-0.01c0.04,0.01,0.07,0.01,0.11,0.01h-0.07c0.07,0,0.17,0,0.27,0.02
			c-0.02-0.01-0.06-0.02-0.09-0.02c0.1,0,0.2,0.02,0.3,0.02h-0.21c1.25,0.1,2.48,0.24,3.71,0.46c0.72,0.12,1.42-0.06,1.97-0.47
			c-0.19-0.04-0.37-0.08-0.56-0.12c0.02,0.02,0.05,0.02,0.07,0.04c-3.78-0.74-7.61-1.26-11.47-1.54c-2.62-0.18-5.25-0.29-7.87-0.29
			C143.71,405.25,141.85,405.31,140,405.44"/>
		<path class="st14" d="M140.52,406.2c-8.34,2.61-16.09,6.75-23.25,11.81c-7.38,5.2-14.08,11.41-20.52,17.77
			c-0.99,0.97-0.72,2.77,0.23,3.63c0.49,0.42,1.15,0.66,1.8,0.62c0.7-0.04,1.23-0.38,1.73-0.88c2.45-2.4,4.91-4.77,7.45-7.08
			c-0.03,0.04-0.07,0.07-0.1,0.1l0.11-0.1c0.13-0.12,0.26-0.24,0.4-0.36c-0.03,0.04-0.07,0.07-0.1,0.1
			c7.18-6.41,14.82-12.21,23.37-16.55c3.38-1.65,6.85-3.04,10.43-4.17c1.3-0.4,2.03-1.93,1.6-3.25c-0.34-1.08-1.33-1.75-2.38-1.75
			C141.03,406.08,140.77,406.12,140.52,406.2 M107.98,432.07C107.98,432.07,107.98,432.07,107.98,432.07
			c0.1-0.09,0.2-0.17,0.29-0.26L107.98,432.07z"/>
		<path class="st14" d="M125.82,412.28c-5.78,2.39-11.13,5.62-16.09,9.52c-5.15,4.06-9.78,8.8-14.09,13.75
			c-0.92,1.04-0.78,2.71,0.23,3.63c1.03,0.93,2.63,0.79,3.53-0.26c2.94-3.39,6.02-6.63,9.32-9.65c4.63-4.12,9.61-7.71,15.1-10.53
			c1.17-0.55,2.35-1.08,3.55-1.59c1.27-0.52,2.05-1.85,1.6-3.23c-0.33-1.01-1.35-1.79-2.39-1.79
			C126.33,412.13,126.07,412.18,125.82,412.28"/>
		<path class="st14" d="M121.96,413.87c-5.17,2.67-10.05,5.78-14.64,9.42c-4.73,3.78-9.02,8.13-12.83,12.87
			c-0.86,1.08-0.8,2.69,0.25,3.63c0.99,0.9,2.65,0.82,3.51-0.24c2.68-3.35,5.6-6.47,8.74-9.35c5.41-4.78,11.36-8.75,17.74-12.03
			c0.54-0.3,0.93-1.04,1.05-1.65c0.13-0.66,0-1.37-0.35-1.93c-0.37-0.56-0.96-0.97-1.6-1.11c-0.15-0.03-0.3-0.05-0.45-0.05
			C122.88,413.45,122.44,413.63,121.96,413.87 M107.44,429.8c-0.11,0.12-0.24,0.23-0.37,0.34
			C107.19,430.03,107.31,429.91,107.44,429.8"/>
		<path class="st14" d="M119.43,414.98c-8.61,5.54-16.85,11.81-23.23,20.04c-0.84,1.08-0.82,2.67,0.25,3.63
			c1,0.88,2.68,0.85,3.51-0.26c2.5-3.21,5.25-6.13,8.24-8.84c-0.15,0.14-0.33,0.3-0.51,0.44c4.53-4.01,9.43-7.49,14.51-10.74
			c1.15-0.75,1.42-2.41,0.7-3.55c-0.49-0.75-1.28-1.14-2.09-1.14C120.34,414.57,119.86,414.71,119.43,414.98"/>
		<path class="st14" d="M120.24,414.9c-2.2,0.98-4.33,2.09-6.4,3.31c-2.34,1.37-4.55,2.99-6.66,4.7c-4,3.23-7.56,7.01-10.76,11.07
			c-0.85,1.1-0.8,2.69,0.25,3.63c0.99,0.9,2.65,0.84,3.51-0.26c2.44-3.09,5.1-5.97,7.99-8.64c3.61-3.17,7.49-5.87,11.72-8.05
			c0.63-0.3,1.26-0.59,1.9-0.88c0.62-0.28,1.13-0.64,1.46-1.31c0.27-0.6,0.33-1.31,0.11-1.93c-0.31-1-1.33-1.81-2.37-1.81
			C120.75,414.73,120.49,414.79,120.24,414.9 M119.75,420.73c-0.06,0.03-0.13,0.06-0.19,0.09
			C119.62,420.8,119.69,420.76,119.75,420.73 M108.59,428.34c-0.1,0.11-0.22,0.21-0.34,0.32
			C108.36,428.55,108.47,428.44,108.59,428.34"/>
		<path class="st14" d="M119.14,414.75c-4.12,2.39-8.06,5.06-11.73,8.13c-3.63,3.01-6.93,6.43-9.91,10.1
			c-0.88,1.08-0.8,2.69,0.23,3.63c1.01,0.9,2.65,0.82,3.53-0.26c2.23-2.74,4.62-5.31,7.22-7.72c4.14-3.69,8.65-6.84,13.44-9.59
			c1.19-0.7,1.4-2.47,0.7-3.57c-0.49-0.76-1.25-1.12-2.04-1.12C120.09,414.36,119.59,414.49,119.14,414.75"/>
		<path class="st14" d="M120.65,414.12c-5,2.57-9.6,5.76-13.88,9.46c-4.22,3.65-8.07,7.75-11.73,11.99
			c-0.92,1.04-0.78,2.71,0.23,3.61c1.03,0.95,2.61,0.8,3.53-0.24c3.16-3.65,6.44-7.15,9.99-10.4c-0.04,0.04-0.09,0.07-0.14,0.11
			c4.52-4.02,9.4-7.5,14.74-10.26c0.56-0.28,0.95-1.04,1.07-1.62c0.13-0.68,0-1.37-0.37-1.95c-0.35-0.57-0.93-0.97-1.58-1.08
			c-0.16-0.04-0.31-0.06-0.46-0.06C121.57,413.68,121.13,413.87,120.65,414.12"/>
		<path class="st14" d="M118.74,415.4c-10.11,5.44-19.25,12.77-26.12,22.21c-0.82,1.13-0.84,2.65,0.23,3.61
			c0.98,0.88,2.71,0.88,3.53-0.24c2.7-3.71,5.73-7.08,9.07-10.17c4.91-4.37,10.3-8.04,16.06-11.12c0.54-0.3,0.93-1.02,1.07-1.64
			c0.11-0.66-0.02-1.37-0.37-1.93c-0.37-0.57-0.93-0.97-1.6-1.08c-0.17-0.04-0.33-0.06-0.48-0.06
			C119.65,414.98,119.22,415.15,118.74,415.4"/>
		<path class="st14" d="M112.57,420.08c-8.01,4.96-14.7,11.67-20.71,18.96c-0.87,1.06-0.8,2.69,0.23,3.63
			c1.01,0.9,2.66,0.8,3.53-0.26c3.3-4,6.8-7.81,10.62-11.29c-0.17,0.14-0.33,0.3-0.5,0.44c3-2.67,6.19-5.08,9.58-7.21
			c1.17-0.72,1.42-2.43,0.7-3.55c-0.48-0.76-1.26-1.13-2.06-1.13C113.48,419.68,113,419.81,112.57,420.08"/>
		<path class="st12" d="M98.79,430.15c-2.4,2.15-4.82,4.44-7.26,6.89c-7.54,7.61-14.8,16.47-22.21,27.11
			C63.1,472.96,57.13,482.7,51,493.88c-2.53,4.64-5.13,9.62-7.67,14.82c-1.91,3.88-3.63,7.95-5.13,12.07
			c-6.13,16.67-9.06,34.7-8.71,53.58c0.17,8.84,1.27,17.77,3.24,26.55c1.91,8.6,4.71,16.57,8.3,23.71
			c3.75,7.49,8.38,14.1,13.8,19.68c5.41,5.54,12.04,10.12,19.21,13.23c3.47,1.55,7.34,2.79,11.75,3.8
			c3.93,0.84,8.22,1.33,13.16,1.47c0.64,0.02,1.29,0.02,1.93,0.02c3.86,0,7.95-0.32,12.45-0.99c5.27-0.8,10.36-1.98,15.17-3.51
			c3.66-1.15,7.3-2.66,10.9-4.51c-4.43-0.24-8.84-0.81-13.18-1.78c-5-1.11-9.91-2.65-14.64-4.72c-4.69-2.07-9.2-4.56-13.37-7.55
			c-2.26-1.6-4.43-3.31-6.5-5.16c-1.93-1.73-3.79-3.56-5.56-5.49c-3.73-4.06-7.07-8.53-9.9-13.29c-3.04-5.12-5.66-10.52-7.71-16.14
			c-2.05-5.6-3.69-11.37-4.9-17.21c-2.5-12.05-3.36-24.4-2.89-36.69c0.5-12.91,2.34-25.76,5.33-38.31
			c3.01-12.63,7.03-25.02,12-36.97c4.92-11.77,10.66-23.15,17.3-33.98c1.69-2.77,3.44-5.5,5.25-8.19
			C100,428.93,99.38,429.53,98.79,430.15"/>
		<path class="st8" d="M552.28,249.5c3.03,1.08,5.7,2.79,8.06,5c2.01,1.87,3.65,4.15,4.88,6.63c1.25,2.59,1.95,5.32,2.32,8.19
			c0.33,2.65,0.15,5.38-0.17,8.01c-0.39,2.97-1.25,5.87-2.25,8.68c-3.69,10.58-11.22,19.35-19.2,26.81
			c-8.81,8.19-18.8,14.92-29.32,20.48c-10.83,5.74-22.27,10.22-34.04,13.33c-11.16,2.95-22.74,4.68-34.28,4.35
			c-0.68-0.02-1.29-0.14-1.81-0.62c-0.51-0.46-0.8-1.08-0.86-1.77c-0.08-1.3,0.95-2.79,2.32-2.75c8.69,0.24,17.33-0.7,25.86-2.41
			c-0.16,0.03-0.31,0.07-0.46,0.11c13.29-2.76,26.2-7.35,38.39-13.44c-0.17,0.1-0.37,0.2-0.56,0.3
			c10.89-5.51,21.22-12.22,30.4-20.43c5.24-4.81,10.18-10.1,14.12-16.11c2.13-3.44,3.92-7.08,5.25-10.94
			c0.9-2.88,1.53-5.8,1.77-8.83c-0.01,0.08-0.01,0.16-0.01,0.24c0.01-0.09,0.01-0.19,0.02-0.29c0.01-0.12,0.02-0.25,0.02-0.38
			c-0.01,0.11-0.02,0.22-0.02,0.32c0.07-2.05-0.04-4.06-0.41-6.1c-0.32-1.41-0.76-2.77-1.33-4.1c-0.75-1.51-1.65-2.89-2.71-4.2
			c-1.15-1.27-2.4-2.37-3.78-3.36c-1.26-0.79-2.58-1.43-3.96-1.96c-1.62-0.5-3.23-0.81-4.89-0.96c-2.4-0.09-4.77,0.11-7.15,0.52
			c-6.22,1.32-12.07,3.91-17.76,6.75l0.58-0.3c-5.86,2.95-11.52,6.2-17.06,9.7c-5.78,3.63-11.42,7.51-17.06,11.37
			c-5.64,3.88-11.3,7.71-17.08,11.35c-5.7,3.6-11.57,6.89-17.63,9.84c-0.55,0.28-1.35,0.14-1.87-0.12c-0.6-0.28-1.07-0.84-1.29-1.49
			s-0.17-1.35,0.1-1.93c0.33-0.68,0.82-1.02,1.46-1.33c0.69-0.35,1.39-0.68,2.07-1.03c-0.08,0.04-0.17,0.08-0.26,0.12
			c13.19-6.74,25.34-15.38,37.61-23.71c11.49-7.81,23.31-15.3,36.07-20.72c5.61-2.39,11.64-4.16,17.73-4.2h0.18
			C546.99,248.15,549.72,248.59,552.28,249.5 M560.77,263.37c0.04,0.11,0.09,0.22,0.15,0.33
			C560.87,263.59,560.83,263.48,560.77,263.37 M562.7,274.05c-0.01,0.02-0.01,0.03-0.01,0.05c0-0.04,0.01-0.06,0.01-0.1V274.05z"/>
		<path class="st5" d="M574.53,266.52c0,0,0.2,0.01,0.2,0.01c0.68,0.08,0.87,0.11,1.1,0.2c0.62,0.23,0.87,0.42,1.36,0.81
			c0.85,0.69,1.3,1.87,1.6,2.82c0.21,0.71,0.31,1.45,0.39,2.18c0.13,0.95,0.19,1.91,0.21,2.88c0.15,5.27-0.52,10.83-1.99,16.5
			c-1.41,5.5-3.69,11.25-7.15,18.11c-3.19,6.29-7.28,12.85-12.5,20.07c-4.06,5.57-8.49,10.99-13.14,16.11
			c0.16,0.14,0.28,0.41,0.4,0.67c0.35,0.7,0.68,1.38,1.01,2.09c5.59,11.57,11.86,22.99,18.66,33.95
			c6.88,11.06,14.25,21.38,21.92,30.7c0.03,0,0.07-0.01,0.1-0.01c0.35,0,0.68,0.08,1.01,0.23c0.6,0.3,1.06,0.83,1.29,1.5
			c0.22,0.67,0.19,1.38-0.09,2c-3.02,6.44-7.1,12.87-12.13,19.11c-5.37,6.63-11.46,12.34-18.13,16.96
			c-3.1,2.17-6.63,4.14-10.47,5.85c-3.33,1.48-7.04,2.58-11.04,3.27c-1.91,0.33-3.92,0.49-5.97,0.49c-1.79,0-3.59-0.12-5.37-0.35
			c-3.59-0.46-7.4-1.66-11.3-3.56c-0.17-0.09-0.32-0.19-0.46-0.31h-0.03c-0.91,0-1.74-0.48-2.12-1.26l-0.43-0.85
			c-5.02-9.95-10.21-20.23-14.52-30.74c-2.53-6.2-4.53-11.84-6.11-17.24c-1.72-5.88-2.95-11.99-3.63-18.16
			c-0.61-5.59-0.51-11.32,0.29-17.03c0.79-5.65,2.64-11.25,5.49-16.62c0.95-1.83,2.05-3.59,3.14-5.36l1.32-2.16
			c1.46-2.39,2.91-4.78,4.31-7.19c2.57-4.34,4.6-8.29,6.21-12.04c3.38-8.42,4.91-17.25,5.95-24.76c0.61-4.56,1.28-8.63,3.21-12.27
			c0.61-1.16,1.45-2.15,2.41-2.85c0.9-0.68,1.97-1.03,3.17-1.05c2.45,0,4.47,1.84,5.76,3.37c2.14,2.55,3.53,5.65,4.5,8.07l0.29,0.7
			c0.08-3.07,0.28-6.16,0.51-9.26c0.33-4.17,0.79-8.63,1.79-12.88c0.35-1.54,0.86-3.03,1.53-4.45c0.59-1.26,1.5-2.34,2.63-3.1
			c1.2-0.79,2.67-1.29,4.38-1.49c0.08-0.01,0.15-0.01,0.23-0.01c0.77,0,1.29,0.1,1.76,0.19c0.58,0.12,1.21,0.41,1.98,0.89
			c2.7,1.81,3.88,5.26,4.53,7.7c0.48,1.77,0.75,3.6,0.98,5.31c0.25,2.03,0.41,4.08,0.5,6.13c0.1,2.43,0.1,4.9,0.02,7.36
			c0.22-0.63,0.51-1.23,0.8-1.83l0.55-1.12c1.45-2.99,2.92-5.98,4.43-8.94c1.58-3.1,3.48-6.74,5.57-10.22
			c0.82-1.35,1.66-2.66,2.58-3.94c0.78-1.09,1.65-2.25,2.7-3.24c0.85-0.84,1.76-1.41,2.77-1.76
			C573.85,266.58,574.21,266.52,574.53,266.52"/>
		<path class="st4" d="M532.78,303.48c0.7,0.08,1.15,0.7,1.11,1.4c-0.1,1.99-0.31,3.96-0.66,5.92c-0.31,1.75-0.8,3.48-1.34,5.16
			c-1.15,3.58-2.97,6.91-5.06,9.98c-0.39,0.58-1.21,0.68-1.76,0.28c-0.54-0.42-0.66-1.22-0.27-1.78c0.92-1.36,1.77-2.73,2.55-4.18
			c0.6-1.2,1.14-2.41,1.64-3.65c0.61-1.54,1.07-3.14,1.48-4.76c0.22-0.98,0.39-1.98,0.55-2.98c0.23-1.4,0.31-2.83,0.39-4.26
			c0.02-0.66,0.65-1.15,1.26-1.15C532.71,303.47,532.74,303.47,532.78,303.48 M530.42,312.09c-0.01,0.03-0.02,0.06-0.02,0.09
			C530.41,312.15,530.41,312.12,530.42,312.09 M527.43,320.1c-0.01,0.03-0.03,0.05-0.04,0.08
			C527.41,320.16,527.42,320.13,527.43,320.1"/>
		<path class="st4" d="M552.62,299.95c0.33,0.04,0.62,0.2,0.84,0.46c0.19,0.24,0.35,0.64,0.27,0.94c-0.45,2.11-0.98,4.18-1.6,6.23
			c-0.68,2.19-1.52,4.32-2.44,6.41c-1.77,4.04-4.04,7.83-6.54,11.45c-0.39,0.56-1.19,0.68-1.73,0.28c-0.56-0.42-0.68-1.23-0.27-1.79
			c1.56-2.29,3.02-4.63,4.34-7.06c-0.01,0.01-0.01,0.01-0.01,0.02c1.19-2.27,2.25-4.6,3.18-6.99c0.95-2.41,1.68-4.9,2.28-7.41
			c-0.02,0.1-0.04,0.22-0.06,0.32c0.12-0.57,0.25-1.13,0.37-1.71c0.08-0.34,0.17-0.62,0.44-0.86c0.23-0.19,0.53-0.28,0.83-0.28
			C552.56,299.95,552.59,299.95,552.62,299.95"/>
		<path class="st13" d="M567.82,388.28c1.17,0,2.35,0.06,3.52,0.16c1.74,0.15,3.59,0.5,5.67,1.09c1.55,0.43,3.18,1.14,5.1,2.21
			c3.12,1.74,5.85,4.54,7.89,8.11c2.04,3.54,3.32,7.84,3.92,13.15c0.14,1.46-0.8,2.77-2.15,2.99h-0.07c-1.59,0-2.68-0.97-2.84-2.2
			l-0.56,0.87l-0.65,0.84c-1.54,1.97-3.12,3.9-4.72,5.83c-3.37,4.01-6.96,8.03-10.97,12.27c-9.21,9.7-17.89,17.24-26.54,23.06
			c-4.94,3.31-9.56,5.8-14.16,7.64c-4.8,1.91-9.48,2.92-13.91,3h-0.07c-2.63,0-4.76-0.26-6.82-0.75c-2.34-0.59-4.51-1.56-6.44-2.88
			c-1.51-1.03-2.9-2.46-4.13-4.23c-1.14-1.7-2.03-3.72-2.64-6.02c-1-3.87-1.08-8.3-0.25-13.18c0.78-4.53,2.29-9.03,4.5-13.35
			c0.94-1.89,1.87-3.5,2.85-4.9c0.84-1.23,1.8-2.4,2.8-3.5c2.22-2.49,4.7-4.88,7.6-7.29c5.87-4.92,12.84-9.48,20.72-13.56
			c8.06-4.17,15.97-7.01,23.51-8.46C561.95,388.58,564.93,388.28,567.82,388.28"/>
		<path class="st14" d="M585.99,404.38c-0.1-0.02-0.21-0.02-0.31-0.04c1.5,0.14,2.99,0.28,4.47,0.5c4.27,1.87,8.49,4.33,12.9,7.53
			c1.79,0.93,3.57,1.89,5.31,2.91c8.67,5.06,17.18,11.86,26.04,20.78c7.56,7.63,14.82,16.49,22.21,27.07
			c6.19,8.86,12.18,18.58,18.3,29.74c2.65,4.86,5.23,9.84,7.67,14.82c1.85,3.76,3.59,7.83,5.13,12.07
			c6.13,16.69,9.04,34.7,8.69,53.53c-0.17,8.9-1.27,17.81-3.22,26.51c-1.91,8.6-4.71,16.57-8.3,23.72
			c-3.75,7.49-8.4,14.1-13.78,19.64c-5.43,5.56-12.04,10.12-19.17,13.23c-3.55,1.57-7.4,2.79-11.75,3.76
			c-3.88,0.84-8.18,1.32-13.12,1.47c-0.64,0.02-1.29,0.02-1.93,0.02c-3.87,0-7.95-0.32-12.46-0.99c-5.27-0.78-10.36-1.97-15.15-3.47
			c-8.38-2.65-16.65-7.15-24.64-13.42c-7.18-5.64-14.15-12.85-20.71-21.45c-5.97-7.81-11.54-16.67-16.97-27.07
			c-4.82-9.2-9.19-19.1-13.39-30.28c-7.15-18.94-12.79-39.24-16.81-60.3c-0.84-4.4-1.58-8.8-2.24-13.2
			c-0.76-5.2-1.17-10.8-1.23-16.65c-0.01-4.1,0.2-8.15,0.66-12.14c0.61-2.27,1.22-4.53,1.86-6.78c2.56-5.77,5.49-11.37,8.91-16.67
			c-0.06,0.1-0.11,0.18-0.17,0.28c2.09-3.19,4.31-6.27,6.78-9.14c2.28-2.67,4.7-5.2,7.3-7.55l-0.11,0.12
			c2.24-2.01,4.61-3.92,7.09-5.6c2.48-1.71,5.06-3.25,7.73-4.64c0.06-0.02,0.13-0.06,0.21-0.1c-0.04,0.02-0.1,0.04-0.14,0.06
			c0.06-0.04,0.12-0.06,0.2-0.1c-0.02,0.02-0.04,0.02-0.06,0.04c2.98-1.51,6.03-2.81,9.2-3.88c3.32-1.1,6.68-2,10.11-2.71h-0.02
			c3.79-0.75,7.62-1.26,11.48-1.55c2.63-0.18,5.25-0.28,7.87-0.28C582.3,404.2,584.15,404.26,585.99,404.38 M526.76,422.95
			c-0.04,0.02-0.08,0.06-0.11,0.1C526.68,423.02,526.72,423,526.76,422.95"/>
		<path class="st14" d="M541.63,412.7c0.02-0.01,0.03-0.01,0.04-0.02C541.66,412.69,541.64,412.69,541.63,412.7"/>
		<path class="st14" d="M586,404.39c-0.1-0.02-0.21-0.02-0.31-0.04c1.63,0.14,3.27,0.31,4.9,0.58c1.53,0.56,3.04,1.17,4.53,1.81
			c10.42,4.54,20.28,11.35,27.61,20.3c0.87,1.06,0.8,2.69-0.23,3.61c-1.01,0.93-2.65,0.83-3.53-0.24c-1.83-2.23-3.81-4.29-5.94-6.26
			c-4.98-4.42-10.52-8.09-16.42-11.1c-5.41-2.64-11.06-4.67-16.92-5.94c0.02,0.01,0.03,0.01,0.05,0.02
			c-4.33-0.86-8.73-1.26-13.18-1.02c0.01-0.01,0.02-0.01,0.03-0.01c-0.04,0.01-0.07,0.01-0.11,0.01h0.08c-0.08,0-0.17,0-0.27,0.02
			c0.03-0.01,0.05-0.02,0.09-0.02c-0.1,0.01-0.2,0.02-0.3,0.02h0.21c-1.25,0.1-2.48,0.24-3.71,0.46c-0.72,0.12-1.42-0.06-1.97-0.46
			c0.19-0.04,0.37-0.08,0.56-0.12c-0.02,0.02-0.05,0.02-0.07,0.04c3.78-0.74,7.61-1.26,11.47-1.54c2.62-0.18,5.24-0.29,7.87-0.29
			C582.29,404.2,584.14,404.25,586,404.39"/>
		<path class="st14" d="M585.47,405.15c8.34,2.61,16.09,6.75,23.25,11.81c7.38,5.2,14.07,11.41,20.51,17.77
			c0.99,0.97,0.72,2.77-0.23,3.63c-0.48,0.42-1.15,0.66-1.79,0.62c-0.7-0.04-1.23-0.38-1.74-0.88c-2.45-2.4-4.91-4.77-7.45-7.08
			c0.03,0.03,0.07,0.06,0.1,0.09c-0.03-0.03-0.07-0.07-0.11-0.1c-0.13-0.12-0.26-0.24-0.39-0.36c0.03,0.04,0.07,0.07,0.1,0.1
			c-7.18-6.41-14.82-12.21-23.36-16.55c-3.38-1.64-6.85-3.04-10.43-4.17c-1.31-0.4-2.03-1.93-1.6-3.25
			c0.34-1.08,1.33-1.75,2.38-1.75C584.96,405.03,585.22,405.07,585.47,405.15 M618.02,431.01
			C618.02,431.01,618.02,431.01,618.02,431.01c-0.1-0.09-0.19-0.17-0.29-0.26C617.82,430.84,617.92,430.93,618.02,431.01"/>
		<path class="st14" d="M600.18,411.23c5.78,2.39,11.13,5.62,16.09,9.52c5.15,4.06,9.78,8.8,14.09,13.75
			c0.92,1.04,0.78,2.71-0.23,3.63c-1.03,0.93-2.63,0.79-3.53-0.26c-2.94-3.39-6.02-6.62-9.32-9.65c-4.63-4.12-9.61-7.71-15.1-10.53
			c-1.17-0.54-2.35-1.07-3.55-1.59c-1.27-0.52-2.05-1.85-1.6-3.23c0.33-1.01,1.35-1.79,2.4-1.79
			C599.66,411.08,599.93,411.13,600.18,411.23"/>
		<path class="st14" d="M604.04,412.83c5.17,2.67,10.05,5.78,14.64,9.42c4.73,3.78,9.02,8.13,12.83,12.87
			c0.86,1.08,0.8,2.69-0.25,3.63c-0.99,0.9-2.65,0.82-3.51-0.24c-2.68-3.36-5.6-6.47-8.73-9.36c-5.41-4.77-11.36-8.75-17.74-12.03
			c-0.54-0.3-0.93-1.04-1.05-1.65c-0.13-0.66,0-1.37,0.35-1.93c0.37-0.56,0.96-0.97,1.6-1.11c0.15-0.03,0.3-0.05,0.45-0.05
			C603.11,412.4,603.55,412.58,604.04,412.83 M618.56,428.75c0.11,0.12,0.25,0.23,0.37,0.34
			C618.81,428.98,618.68,428.86,618.56,428.75"/>
		<path class="st14" d="M606.56,413.93c8.61,5.54,16.85,11.81,23.23,20.04c0.84,1.08,0.82,2.67-0.25,3.63
			c-1,0.88-2.68,0.85-3.51-0.26c-2.5-3.21-5.25-6.13-8.24-8.84c0.15,0.14,0.33,0.3,0.51,0.44c-4.53-4.01-9.43-7.49-14.51-10.74
			c-1.15-0.75-1.42-2.41-0.7-3.55c0.49-0.75,1.28-1.14,2.09-1.14C605.65,413.52,606.14,413.66,606.56,413.93"/>
		<path class="st14" d="M605.75,413.85c2.2,0.98,4.33,2.09,6.4,3.31c2.34,1.37,4.55,2.99,6.66,4.7c4,3.23,7.56,7.01,10.76,11.07
			c0.85,1.1,0.8,2.69-0.25,3.63c-0.99,0.9-2.65,0.84-3.51-0.26c-2.45-3.09-5.1-5.97-7.99-8.64c-3.61-3.17-7.5-5.87-11.73-8.05
			c-0.62-0.3-1.25-0.59-1.9-0.88c-0.62-0.28-1.13-0.64-1.46-1.31c-0.27-0.6-0.33-1.31-0.11-1.93c0.31-0.99,1.33-1.81,2.37-1.81
			C605.24,413.69,605.5,413.74,605.75,413.85 M606.24,419.68c0.06,0.03,0.12,0.06,0.19,0.09
			C606.37,419.74,606.3,419.71,606.24,419.68 M617.41,427.28c0.1,0.11,0.22,0.22,0.34,0.32
			C617.64,427.5,617.52,427.39,617.41,427.28"/>
		<path class="st14" d="M606.86,413.7c4.12,2.39,8.06,5.06,11.73,8.13c3.63,3.01,6.93,6.43,9.91,10.1c0.88,1.08,0.8,2.69-0.23,3.63
			c-1.01,0.9-2.65,0.82-3.53-0.26c-2.23-2.74-4.63-5.31-7.22-7.72c-4.14-3.68-8.65-6.84-13.44-9.59c-1.19-0.7-1.4-2.47-0.7-3.57
			c0.49-0.76,1.25-1.12,2.04-1.12C605.91,413.3,606.4,413.44,606.86,413.7"/>
		<path class="st14" d="M605.35,413.07c5,2.57,9.6,5.76,13.88,9.46c4.22,3.65,8.07,7.75,11.73,11.99c0.92,1.04,0.78,2.71-0.23,3.61
			c-1.03,0.95-2.61,0.8-3.53-0.24c-3.16-3.65-6.44-7.15-9.99-10.4c0.05,0.04,0.09,0.07,0.14,0.11c-4.52-4.02-9.4-7.5-14.74-10.26
			c-0.56-0.28-0.95-1.04-1.07-1.62c-0.13-0.68,0-1.37,0.37-1.95c0.35-0.57,0.93-0.97,1.58-1.08c0.16-0.04,0.31-0.05,0.46-0.05
			C604.43,412.64,604.86,412.82,605.35,413.07"/>
		<path class="st14" d="M607.25,414.35c10.11,5.44,19.25,12.77,26.12,22.21c0.82,1.13,0.84,2.65-0.23,3.61
			c-0.98,0.88-2.71,0.88-3.53-0.24c-2.7-3.71-5.73-7.08-9.07-10.17c-4.91-4.37-10.3-8.04-16.06-11.12c-0.54-0.3-0.93-1.02-1.07-1.65
			c-0.11-0.66,0.02-1.37,0.37-1.93c0.37-0.57,0.93-0.97,1.6-1.08c0.17-0.04,0.33-0.06,0.48-0.06
			C606.35,413.92,606.78,414.1,607.25,414.35"/>
		<path class="st14" d="M613.43,419.03c8.01,4.96,14.7,11.67,20.71,18.96c0.87,1.06,0.8,2.69-0.23,3.63
			c-1.01,0.9-2.66,0.8-3.53-0.26c-3.3-4-6.8-7.81-10.62-11.29c0.17,0.14,0.33,0.3,0.5,0.44c-3-2.67-6.19-5.08-9.58-7.21
			c-1.17-0.72-1.42-2.43-0.7-3.55c0.48-0.76,1.26-1.13,2.06-1.13C612.51,418.63,613,418.76,613.43,419.03"/>
		<path class="st12" d="M627.21,429.1c2.4,2.15,4.82,4.44,7.26,6.89c7.54,7.61,14.8,16.47,22.21,27.11
			c6.21,8.82,12.18,18.56,18.32,29.74c2.53,4.64,5.13,9.62,7.67,14.82c1.91,3.88,3.63,7.95,5.13,12.07
			c6.13,16.67,9.06,34.7,8.71,53.58c-0.17,8.84-1.27,17.77-3.24,26.55c-1.91,8.6-4.71,16.57-8.3,23.71
			c-3.75,7.49-8.38,14.1-13.8,19.68c-5.41,5.54-12.04,10.12-19.21,13.23c-3.47,1.55-7.34,2.79-11.75,3.8
			c-3.93,0.84-8.22,1.33-13.16,1.47c-0.64,0.02-1.29,0.02-1.93,0.02c-3.86,0-7.95-0.32-12.45-0.99c-5.27-0.8-10.36-1.98-15.17-3.51
			c-3.66-1.16-7.3-2.66-10.9-4.51c4.43-0.24,8.85-0.81,13.18-1.78c5-1.11,9.91-2.65,14.64-4.72c4.69-2.07,9.2-4.56,13.37-7.55
			c2.26-1.6,4.43-3.31,6.5-5.16c1.93-1.73,3.79-3.56,5.56-5.49c3.73-4.06,7.07-8.53,9.9-13.29c3.04-5.12,5.66-10.52,7.71-16.14
			c2.05-5.6,3.69-11.37,4.9-17.21c2.5-12.05,3.36-24.4,2.89-36.69c-0.5-12.91-2.34-25.76-5.33-38.31
			c-3.01-12.63-7.03-25.02-12-36.97c-4.92-11.77-10.66-23.15-17.3-33.98c-1.69-2.77-3.44-5.5-5.25-8.19
			C626,427.88,626.61,428.48,627.21,429.1"/>
		<path class="st15" d="M366.96,257.3c-3.45,0.18-6.91,0.58-10.34,1.2c-6.99,1.33-13.8,3.48-20.42,6.15
			c-6.5,2.61-12.86,5.62-19.17,8.71c0.09-0.04,0.19-0.1,0.29-0.14c-8.32,4.08-16.59,8.29-25.14,11.84
			c-4.29,1.79-8.65,3.45-13.1,4.78c-4.29,1.29-8.62,2.3-13.03,3.01c0,0.01,0,0.02,0,0.03c-0.74,3.41-1.33,6.83-1.8,10.28
			c0.02-0.08,0.02-0.14,0.04-0.22c-0.58,4.52-0.93,9.06-0.95,13.61c-0.02,4.28,0.23,8.52,0.74,12.73v-0.04
			c0-0.04-0.02-0.1-0.02-0.14c0.02,0.04,0.02,0.1,0.02,0.14c0.45,3.41,1.07,6.79,1.95,10.1c0.8,2.99,1.75,5.92,2.89,8.8
			c1.01,2.45,2.13,4.88,3.43,7.17c0.55,0.99,1.13,1.95,1.74,2.91c1.25,0.88,2.52,1.75,3.81,2.59c8.18,5.42,17.65,10.08,28.11,13.81
			c10.25,3.7,21.37,6.25,33.09,7.59c0.5,0.28,1.13,0.46,1.89,0.5c1.85,0.12,3.71,0.22,5.54,0.28c0.43,0.24,1.01,0.38,1.8,0.46
			l0.62,0.04l0.64,0.04l0.96,0.06l0.5,0.02c4.02,0.2,8.05,0.3,12.06,0.3c1.91,0.1,3.81,0.16,5.72,0.16c3.92,0,8.16-0.2,13.68-0.64
			c3.87-0.18,7.44-0.44,10.6-0.8l1.54-0.1c0.39-0.04,0.64-0.1,0.92-0.2c14.52-0.9,28.26-3.68,40.85-8.23
			c10.46-3.74,19.93-8.39,28.11-13.82c4.78-3.13,9.18-6.47,13.16-10l0.06-0.12c-0.02,0.04-0.04,0.08-0.04,0.12
			c1.11-2.81,2.07-5.71,2.77-8.66c0.68-2.81,1.21-5.64,1.6-8.51v0.02c0.54-4.42,0.8-8.86,0.72-13.29c-0.08-4.6-0.43-9.18-1.03-13.74
			c0.01,0.12,0.03,0.24,0.05,0.34c-1.29-9.32-3.53-18.45-6.68-27.29c-0.01-0.02-0.01-0.03-0.01-0.04c-0.16,0.09-0.34,0.14-0.53,0.14
			c-8.34-0.06-16.61-1.18-24.75-3.03c-8.03-1.81-15.93-4.2-23.78-6.71c-7.89-2.49-15.75-5.1-23.72-7.25
			c-4.12-1.11-8.26-2.13-12.41-2.94c-3.91-0.74-7.83-1.32-11.77-1.71c0.12,0,0.23,0.02,0.33,0.02c-2.84-0.25-5.7-0.43-8.57-0.43
			C368.95,257.23,367.95,257.25,366.96,257.3"/>
		<path class="st16" d="M356.6,258.38c-6.66,1.29-13.33,3.32-20.44,6.18c-7.09,2.83-13.98,6.14-19.17,8.71l-3.86,1.91
			c-6.95,3.41-13.94,6.85-20.98,9.8c-4.96,2.07-9.12,3.57-13.1,4.78c-4.6,1.37-8.86,2.33-13.02,2.96
			c-0.76,3.27-1.35,6.56-1.89,10.44c-0.58,4.62-0.9,9.13-0.91,13.39c-0.02,4.18,0.23,8.48,0.74,12.73c0.49,3.63,1.13,6.95,1.97,10.1
			c0.8,2.97,1.76,5.94,2.89,8.8c1.21,2.91,2.3,5.18,3.45,7.17c0.54,0.99,1.13,1.95,1.74,2.91c1.27,0.92,2.53,1.78,3.82,2.63
			c8.24,5.46,17.69,10.12,28.13,13.82c10.21,3.7,21.36,6.25,33.13,7.63c0.51,0.28,1.17,0.46,1.89,0.5c1.85,0.12,3.71,0.22,5.54,0.28
			c0.35,0.2,0.92,0.34,1.78,0.46l0.64,0.04l0.64,0.04l0.95,0.06l0.51,0.02c4.02,0.2,8.04,0.3,12.06,0.3c1.91,0.1,3.8,0.16,5.72,0.16
			c3.87,0,8.08-0.21,13.68-0.64c4.02-0.21,7.58-0.46,10.6-0.81l1.45-0.09c-2.31,0.11-4.63,0.19-6.94,0.24
			c-9.52,0.18-19.09-0.2-28.56-1.49c-8.86-1.21-17.69-3.07-26.1-6.2c-7.73-2.89-15.13-6.71-21.59-11.97
			c-6.31-5.12-11.65-11.53-15.3-18.91c-0.96-1.97-1.84-3.98-2.6-6.05c-1.07-2.99-2.03-6.05-2.59-9.18c-0.49-2.71-0.84-5.5-0.74-8.28
			c0.08-2.25,0.31-4.51,0.9-6.68c0.58-2.19,1.4-4.36,2.52-6.35c1.01-1.8,2.18-3.53,3.53-5.12c3.08-3.57,6.77-6.56,10.67-9.16
			c2.28-1.51,4.61-2.93,6.97-4.28c1.15-0.64,2.3-1.29,3.45-1.91c1.27-0.68,2.56-1.37,3.81-2.09c5.53-3.2,10.68-7.03,15.7-11.01
			c5.78-4.6,11.44-9.4,17.49-13.63c1.29-0.9,2.59-1.79,3.92-2.64C358.28,258.1,357.45,258.24,356.6,258.38"/>
		<path class="st17" d="M355.79,278.94c-9.08,1.91-18.1,4.14-27.35,4.92c-0.1,0.01-0.2,0.02-0.31,0.02
			c-0.19,0.02-0.41,0.04-0.6,0.06c-0.41,0.08-0.76,0.26-1.07,0.54c-0.45,0.42-0.72,1.02-0.76,1.64c-0.04,0.63,0.17,1.27,0.58,1.73
			c0.27,0.32,0.6,0.54,0.97,0.68c0.41,0.12,0.82,0.16,1.23,0.06c4-0.42,7.95-1.08,11.87-1.91c3.94-0.82,7.85-1.81,11.75-2.77
			c7.65-1.9,15.33-3.74,23.2-4.46c3.59-0.28,7.18-0.28,10.77-0.02c3.82,0.28,7.61,0.9,11.36,1.62c-0.13-0.02-0.25-0.04-0.39-0.06
			c15.99,3.23,31.54,9.24,47.96,9.7c0.68,0.02,1.28-0.48,1.32-1.2c0.04-0.68-0.48-1.35-1.17-1.37c-4.73-0.12-9.37-0.72-14-1.6
			c0.11,0.02,0.21,0.04,0.33,0.06c-8.41-1.67-16.61-4.19-24.89-6.41c-8.12-2.17-16.38-3.92-24.77-4.24
			c-0.79-0.03-1.58-0.04-2.38-0.04C371.49,275.9,363.57,277.31,355.79,278.94"/>
		<path class="st17" d="M439.78,315.64c-13.27,2.97-26.75,4.86-40.27,5.92c0.12,0,0.25-0.02,0.39-0.02
			c-12.34,0.93-24.74,1.06-37.09,0.48c-11.98-0.56-23.91-2.01-35.7-4.31c-1.89-0.39-3.81-0.82-5.7-1.27
			c-0.66-0.16-1.27-0.2-1.91,0.14c-0.57,0.3-1.01,0.82-1.21,1.44c-0.21,0.64-0.16,1.36,0.13,1.97c0.19,0.4,0.47,0.72,0.84,0.96
			c0.37,0.24,0.76,0.38,1.21,0.42c4.84,0.86,9.7,1.67,14.56,2.33c4.98,0.66,9.99,1.13,14.99,1.49c10.21,0.77,20.46,0.93,30.69,0.61
			c20.04-0.63,40.01-3.23,59.59-7.65c0.66-0.16,1.09-0.84,0.96-1.53c-0.13-0.59-0.65-1.01-1.21-1.01
			C439.96,315.61,439.87,315.62,439.78,315.64"/>
		<path class="st17" d="M438.62,347.83c-0.66,0.26-1.33,0.5-1.99,0.75c0.09-0.04,0.21-0.06,0.31-0.1
			c-13.27,4.8-27.29,7.09-41.27,8.21c0.14-0.02,0.27-0.02,0.41-0.04c-10.26,0.78-20.57,0.84-30.82,0.2
			c-9.85-0.6-19.65-1.75-29.34-3.65l0.58,0.12c-1.89-0.38-3.78-0.78-5.66-1.22c-1.84-0.44-3.63-0.96-5.45-1.42
			c-0.68-0.18-1.35-0.2-1.99,0.14c-0.58,0.32-1.05,0.86-1.27,1.51c-0.21,0.68-0.17,1.42,0.14,2.05c0.29,0.56,0.86,1.16,1.48,1.32
			c2.03,0.46,4.1,0.82,6.17,1.21c2.38,0.44,4.78,0.82,7.19,1.2c4.78,0.75,9.6,1.29,14.42,1.73c10.15,0.95,20.38,1.15,30.57,0.82
			c10.03-0.32,20.09-1.29,30-3.01c9.41-1.64,18.69-4.06,27.65-7.51c0.64-0.24,0.82-1.16,0.54-1.73c-0.23-0.47-0.65-0.67-1.09-0.67
			C439.02,347.71,438.81,347.75,438.62,347.83"/>
		<path class="st1" d="M404.76,57.77c-9.09,0-18.19,0.6-27.03,1.79c-21.54,2.88-43.13,9.04-64.18,18.32
			c-10.45,4.59-20.53,10.01-29.97,16.13c-9.82,6.36-18.69,13.33-26.32,20.71c-8.03,7.74-14.9,16.15-20.44,25.01
			c-2.68,4.3-5.19,9.09-7.46,14.24c-0.71,1.59-1.43,3.19-1.95,4.82c-0.29,0.95-0.51,1.91-0.72,2.87c-1.29,5.88-2.2,12.42-2.87,20.61
			c-0.78,9.15-0.88,17.98-0.31,26.23c0.28,4.25,0.8,8.02,1.6,11.54c0.87,3.84,2.01,6.92,3.48,9.41c0.89,1.53,1.7,2.61,2.61,3.51
			c1.19,1.19,2.5,2.1,4.09,2.86c1.06,0.49,2.4,0.79,3.98,0.89h0.08c1.97,0,3.5-0.35,5.01-1.05c3.15-1.44,5.38-4.66,6.7-7.11
			c1.7-3.11,3.04-6.74,4.22-11.44c1.89-7.43,3.08-15.62,3.84-26.56c0.21-3.07,0.37-6.17,0.45-9.24c3.11,0.49,6.26,1.03,9.41,1.57
			c3.47,0.59,6.94,1.18,10.43,1.65c4.39,0.6,9.14,0.89,14.5,0.89c1.63,0,3.26-0.02,4.89-0.07c10.68-0.25,21.87-1.31,33.27-3.14
			c23.34-3.72,46.31-10.48,68.27-20.06c17.84-7.77,34.14-17.31,48.46-28.36c15.18-11.69,27.48-24.98,36.56-39.49
			c0.9-0.76,1.46-1.48,1.76-2.32c0.36-1.04,0.2-1.93-0.17-3.03c-1.67-4.9-4.62-9.46-8.53-13.2c-3.28-3.14-7.2-5.79-12.33-8.32
			c-4.06-1.99-8.6-3.59-14.3-5.05c-4.67-1.19-9.84-2.14-15.82-2.91c-9.49-1.24-19.22-1.55-28.31-1.71
			C406.7,57.77,405.74,57.77,404.76,57.77"/>
		<path class="st2" d="M465.97,93.69c-12.55,11.93-26.74,21.93-41.7,30.38l0.41-0.24c-5.14,2.87-10.42,5.46-15.76,7.95
			c-5.62,2.65-11.34,5.06-17.14,7.29c-5.82,2.25-11.75,4.26-17.69,6.15c-5.95,1.89-11.98,3.55-18.04,5.06
			c0.06-0.01,0.11-0.03,0.17-0.04c-11.28,2.73-22.73,4.75-34.28,6.05c-11.11,1.24-22.3,1.72-33.49,1.53h0.02
			c-7.98-0.18-15.95-0.82-23.87-1.85c-2.52-0.32-4.92,1.38-5.29,4.01c-0.37,2.51,1.36,5.14,3.88,5.44
			c12.24,1.49,24.67,1.77,36.97,1.17c6.29-0.32,12.57-0.98,18.82-1.77c6.35-0.82,12.67-1.91,18.93-3.17
			c6.38-1.29,12.71-2.85,18.99-4.56c6.27-1.71,12.45-3.65,18.59-5.78c12.24-4.26,24.17-9.58,35.68-15.58
			c5.15-2.71,10.19-5.66,15.17-8.69c5-3.01,9.88-6.18,14.66-9.56c4.68-3.31,9.29-6.77,13.74-10.42c4.39-3.57,8.59-7.37,12.67-11.28
			c0.51-0.48,0.7-1.19,0.27-1.81c-0.23-0.31-0.66-0.52-1.07-0.52C466.41,93.43,466.16,93.51,465.97,93.69 M356.91,150.08
			c-0.21,0.05-0.41,0.1-0.62,0.15C356.49,150.18,356.69,150.12,356.91,150.08"/>
		<path class="st2" d="M420.18,108.49c-2.65,1.79-5.37,3.45-8.14,5.04c0.12-0.06,0.21-0.12,0.33-0.18c-6.02,3.38-12.36,6-18.74,8.48
			c-6.41,2.47-12.96,4.48-19.6,6.12c0.21-0.06,0.44-0.12,0.68-0.18c-6.11,1.49-12.28,2.59-18.51,3.35
			c-6.6,0.82-13.19,1.13-19.83,1.33c-0.85,0.02-1.77,0.62-2.3,1.31c-0.55,0.72-0.8,1.62-0.7,2.53c0.09,0.93,0.56,1.81,1.27,2.37
			c0.74,0.6,1.54,0.75,2.46,0.75c7.48-0.16,14.93-1.04,22.29-2.37c7.54-1.35,14.99-3.25,22.27-5.66c7.05-2.33,13.9-5.28,20.48-8.75
			c3.16-1.67,6.25-3.57,9.33-5.44c3.45-2.11,6.85-4.31,10.19-6.61c0.56-0.4,0.66-1.26,0.27-1.8c-0.25-0.34-0.61-0.5-0.99-0.5
			C420.68,108.25,420.41,108.33,420.18,108.49"/>
		<path class="st2" d="M228.18,86.01c-7.09,4.98-13.47,10.99-18.68,18.01c-5.14,6.94-9.18,14.74-12.61,22.71
			c-1.77,4.12-3.34,8.31-4.78,12.57c-1.46,4.32-2.87,8.66-4.14,13.05c-2.63,9.18-4.96,18.45-7.5,27.67
			c0.08-0.32,0.17-0.62,0.25-0.95c-0.34,1.26-0.7,2.54-1.05,3.81c-1.97,7.04-4.02,14.09-6.35,21.01c-1.13,3.35-2.32,6.66-3.61,9.96
			c-1.33,3.43-2.81,6.79-4.32,10.14c-0.99,2.23,0.14,4.98,2.29,5.92c1.05,0.46,2.24,0.5,3.32,0.08c0.33-0.2,0.68-0.39,1.03-0.59
			c0.62-0.48,1.11-1.1,1.42-1.85c3.3-6.12,5.72-12.77,7.79-19.44c2.25-7.29,4.04-14.74,5.62-22.23c3.05-14.49,5.67-29.13,9.54-43.42
			c2.97-10.64,6.75-21.09,12.22-30.66c-0.08,0.14-0.17,0.26-0.25,0.41c3.71-6.37,8.12-12.37,13.31-17.56
			c-0.01,0.02-0.02,0.03-0.04,0.04c2.49-2.42,5.17-4.64,7.99-6.64c0.56-0.4,0.66-1.24,0.27-1.78c-0.24-0.35-0.62-0.52-1-0.52
			C228.66,85.76,228.4,85.84,228.18,86.01"/>
		<path class="st2" d="M206.44,180.89c-0.64,2.73-1.34,5.44-2.09,8.13c0.01-0.03,0.02-0.05,0.02-0.08
			c-3.67,13.13-8.39,26.07-15.11,37.91c-0.7,1.21-1.43,2.41-2.19,3.6c-0.39,0.6-0.64,1.22-0.56,1.97c0.08,0.74,0.45,1.4,0.99,1.87
			c0.55,0.44,1.25,0.64,1.93,0.56c0.97-0.1,1.76-0.74,2.17-1.62c1.95-4.19,3.8-8.44,5.54-12.71c1.74-4.26,3.28-8.59,4.72-12.95
			c2.83-8.62,5.06-17.43,7.05-26.28c0.15-0.68-0.41-1.37-1.05-1.47c-0.06-0.01-0.12-0.01-0.18-0.01
			C207.06,179.8,206.61,180.27,206.44,180.89 M204.45,188.69l-0.06,0.23C204.41,188.84,204.43,188.77,204.45,188.69"/>
		<path class="st6" d="M565.12,222.72c-0.46,0.46-0.52,1.35,0,1.8c5.08,4.5,9.6,9.52,13.7,14.94l-0.23-0.3
			c5.19,6.96,9.65,14.45,13,22.53c0.97,2.43,1.91,4.87,2.77,7.36c0.91,2.69,1.72,5.4,2.48,8.15c1.58,5.72,2.65,11.6,3.45,17.51
			c0-0.05-0.01-0.11-0.02-0.16c1.2,9.81,1.34,19.71,0.16,29.54c-0.44,3.21-1.02,6.43-1.66,9.6c-0.25,1.22-0.17,2.39,0.43,3.48
			c0.58,1,1.52,1.76,2.61,2.07c2.3,0.66,4.76-0.78,5.39-3.15c1.37-5.1,2.13-10.32,2.6-15.59c0.46-5.38,0.39-10.78-0.04-16.16
			c-0.9-10.68-3.46-21.18-7.46-31.11c-1.91-4.8-4.06-9.49-6.58-13.98c-2.63-4.72-5.46-9.31-8.51-13.73
			c-5.84-8.44-12.69-16.06-20.34-22.79c-0.26-0.24-0.59-0.38-0.92-0.38C565.66,222.35,565.36,222.47,565.12,222.72 M591.38,261.14
			c0.03,0.08,0.06,0.16,0.1,0.25C591.44,261.3,591.41,261.22,591.38,261.14 M600.16,293.61c0.02,0.18,0.04,0.35,0.06,0.53
			C600.21,293.96,600.18,293.79,600.16,293.61"/>
		<path class="st6" d="M494.98,77.54c-0.51,0.52-0.43,1.26,0,1.81c0.85,1.05,1.69,2.12,2.51,3.21c5.39,7.35,9.91,15.32,13.47,23.78
			c-0.07-0.14-0.13-0.3-0.19-0.44c4.02,9.84,6.72,20.18,8.51,30.7c0.12,0.68,0.7,1.35,1.27,1.69c0.64,0.39,1.4,0.48,2.13,0.28
			c0.68-0.2,1.27-0.66,1.64-1.31c0.39-0.7,0.41-1.4,0.27-2.17c-0.98-5.4-2.42-10.68-4.18-15.86c-0.8-2.37-1.74-4.68-2.71-6.99
			c-1.09-2.65-2.28-5.26-3.55-7.81c-2.42-4.9-5.1-9.64-8.06-14.19c-2.87-4.42-6.01-8.64-9.34-12.69c-0.21-0.26-0.52-0.38-0.84-0.38
			C495.57,77.17,495.22,77.3,494.98,77.54"/>
		<g>
			<path class="st0" d="M112.47,135.65c-0.78,0-1.58,0.28-2.5,0.86c-19.46,12.37-36.36,27.3-50.22,44.37
				c-11.28,13.84-20.55,29.4-27.55,46.26c0.06-0.97-0.1-1.98-0.28-3c-0.83-4.58-1.99-9.15-3.11-13.57l-1.02-4.02
				c-0.47-1.95-0.94-3.93-1.39-5.89c-0.25-1.32-0.7-2.15-1.55-2.86c-0.74-0.6-1.64-0.93-2.55-0.93c-0.56,0.04-0.58,0.06-0.59,0.08
				c-1.08,0.12-2.08,0.69-2.76,1.59c-0.61,0.79-1.12,2.1-0.86,3.21c0.9,4.09,1.92,8.17,2.95,12.23l0.53,2.06
				c1.75,7.22,3.41,15.05,3.45,23.11c0,0.52-0.02,1.07-0.04,1.62c-0.02,0.95,0.02,2.06,0.8,3.15c0.13,0.2,0.3,0.39,0.54,0.6
				c0.09,0.26,0.24,0.53,0.44,0.8c0.69,0.94,1.72,1.56,2.81,1.72c0.17,0.02,0.36,0.02,0.56,0.02c1.04,0,1.97-0.31,2.53-0.85
				l0.66-0.64c0.63-0.32,1.17-0.82,1.54-1.44c3.32-2.95,7.05-5.62,11.4-8.17c6.42-3.5,13.56-6.32,21.23-8.38
				c1.07-0.29,1.95-1.43,2.32-2.36c0.43-1.05,0.43-2.22,0.02-3.27c-0.41-1.07-1.24-1.94-2.27-2.38c-0.48-0.23-0.96-0.33-1.47-0.33
				c-0.51,0-1.03,0.09-1.7,0.31c-9.04,2.43-17.21,5.83-24.28,10.11c3.07-6.81,6.35-13.42,9.83-19.58
				c7.97-13.72,17.85-26.59,29.36-38.26l-0.92,0.62c11.11-10.81,23.4-20.58,36.59-28.96c0.83-0.52,1.4-1.42,1.62-2.54
				c0.22-1.25-0.05-2.58-0.73-3.54c-0.69-0.92-1.72-1.54-2.83-1.71L112.47,135.65"/>
			<path class="st0" d="M607.53,126.58L607.53,126.58l-0.52,0.04c-1.1,0.17-2.14,0.8-2.83,1.71c-0.68,0.96-0.95,2.28-0.73,3.54
				c0.22,1.12,0.79,2.02,1.62,2.54c13.35,8.49,25.61,18.29,36.43,29.13l-0.6-0.96c11.44,11.93,21.29,24.83,29.19,38.43
				c3.63,6.44,6.89,13.07,9.66,19.71c-6.79-4.36-14.94-7.79-24.14-10.27c-0.54-0.14-1.12-0.28-1.68-0.28c-0.47,0-0.94,0.1-1.49,0.31
				c-1.03,0.44-1.86,1.31-2.27,2.38c-0.41,1.05-0.41,2.22,0.02,3.27c0.36,0.94,1.25,2.07,2.32,2.36c7.86,2.14,14.81,4.89,21.25,8.41
				c4.26,2.48,8,5.17,11.43,8.2c0.34,0.59,0.9,1.09,1.55,1.41l0.6,0.61c0.57,0.54,1.49,0.85,2.53,0.85c0.19,0,0.39,0,0.56-0.02
				c1.09-0.15,2.12-0.78,2.81-1.71c0.19-0.27,0.35-0.54,0.47-0.84c0.2-0.17,0.37-0.37,0.51-0.57c0.77-1.09,0.82-2.2,0.8-3.15
				l-0.02-0.81l-0.03-0.79c0.07-7.98,1.7-15.83,3.45-23.13l0.54-2.06c1.02-4.06,2.05-8.15,2.94-12.23c0.26-1.12-0.24-2.42-0.86-3.21
				c-0.66-0.88-1.72-1.49-2.81-1.62c-1.41,0-2.3,0.26-3.09,0.88c-0.85,0.71-1.31,1.54-1.58,2.87c-0.4,1.97-0.87,3.95-1.34,5.91
				l-0.77,3c-1.21,4.73-2.47,9.63-3.39,14.56c-0.17,0.99-0.34,2-0.49,3.01c-6.7-16.72-15.93-32.27-27.31-46.25
				c-13.87-17.07-30.76-32-50.22-44.36C609.16,126.85,608.36,126.58,607.53,126.58"/>
		</g>
	</g>
</g>
</svg>
