<?xml version="1.0" encoding="utf-8"?>
<!-- Generator: Adobe Illustrator 24.1.2, SVG Export Plug-In . SVG Version: 6.00 Build 0)  -->
<svg version="1.1" id="Layer_1" xmlns="http://www.w3.org/2000/svg" xmlns:xlink="http://www.w3.org/1999/xlink" x="0px" y="0px"
	 viewBox="0 0 720 720" style="enable-background:new 0 0 720 720;" xml:space="preserve">
<style type="text/css">
	.st0{fill:#6050AD;}
	.st1{clip-path:url(#SVGID_2_);}
	.st2{fill:#EE9190;}
	.st3{fill:#81E5DA;}
	.st4{fill:#FF9F9E;}
	.st5{fill:#DA8483;}
</style>
<g>
	<g>
		<path class="st0" d="M34.62,465.09c58,179.59,250.89,278.3,430.47,220.29c179.59-58.01,278.3-250.89,220.29-430.48
			C627.38,75.32,434.49-23.39,254.91,34.62C75.32,92.61-23.39,285.5,34.62,465.09"/>
		<g>
			<defs>
				<path id="SVGID_1_" d="M34.62,465.09c58,179.59,250.89,278.3,430.47,220.29c179.59-58.01,278.3-250.89,220.29-430.48
					C627.38,75.32,434.49-23.39,254.91,34.62C75.32,92.61-23.39,285.5,34.62,465.09"/>
			</defs>
			<clipPath id="SVGID_2_">
				<use xlink:href="#SVGID_1_"  style="overflow:visible;"/>
			</clipPath>
			<g class="st1">
				<path class="st2" d="M318.49,221.78c-6.38,0-11.55,1.19-15.82,3.63c-1.19,0.7-2.22,1.49-3.23,2.5
					c-1.24,1.24-2.42,2.83-3.52,4.74c-1.69,2.91-2.54,6.49-2.48,10.35c0.02,3.07,0.92,6.5,2.59,9.94c1.62,3.38,3.76,6.64,6.55,9.95
					c4.68,5.54,10.61,10.9,18.64,16.86c6.6,4.9,13.92,9.64,23.04,14.93c6.7,3.89,13.69,7.62,21.38,11.4l3.97,1.94l1.04,0.51
					c-26.73,8.2-54.18,15.13-80.73,21.82l-0.88,0.22l-13.58,3.43c-3.6,0.88-7.22,1.83-10.84,2.78l-1.88,0.49
					c-5.23,1.37-10.49,2.74-15.77,4.02l-5.17,1.23c-4.56,1.09-9.07,2.17-13.56,3.27c-13.8,3.41-31.93,8.12-49.8,14.24
					c-9.3,3.17-16.74,6.12-23.44,9.3c-7.26,3.42-12.4,6.63-16.64,10.41l-0.55,0.53l-0.53,0.49c-3.78,3.8-5.71,8.04-5.45,11.92
					c0.21,2.72,1.11,5.22,2.62,7.24c1.77,2.39,4.05,4.47,7.17,6.55c2.91,1.98,6.48,3.79,11.27,5.68c4.25,1.7,9.14,2.93,15.39,3.91
					c5.52,0.82,11.14,1.22,17.19,1.22c1.31,0,2.65-0.02,3.99-0.05c-9.04,2.06-16.55,4.26-24.3,7.04c-4.52,1.61-8.5,3.23-12.19,4.97
					c-3.64,1.71-6.51,3.37-9.04,5.24c-1.38,0.98-2.6,2.01-3.71,3.12c-1.2,1.2-2.15,2.43-2.91,3.72c-1.55,2.62-2.08,5.64-1.53,8.74
					c0.23,1.21,0.74,2.5,1.57,3.95c0.8,1.37,1.88,2.72,3.32,4.14c3.48,3.39,7.97,5.88,11.03,7.45c4.91,2.5,10,4.47,15.12,5.81
					c5.01,1.35,10.53,2.28,16.85,2.83c3.56,0.33,7.25,0.49,11.29,0.49c1.57,0,3.18-0.02,4.82-0.07c-8.5,2.46-15.81,5.27-23.04,8.72
					c-3.49,1.65-6.57,3.37-9.43,5.26c-2.5,1.65-4.33,3.09-5.78,4.53c-0.44,0.45-0.86,0.93-1.28,1.42c-1.1,1.38-1.75,2.28-2.28,3.37
					c-0.75,1.55-1.15,2.93-1.33,4.64c-0.11,1.14,0.05,2.44,0.44,3.69c0.57,1.88,1.57,3.31,2.46,4.45c0.86,1.14,1.94,2.06,3.39,3.17
					c1.25,0.96,2.69,1.86,4.65,2.92c3.96,2.06,8.47,3.78,14.63,5.59c12.27,3.66,25.84,5.68,40.31,6.01
					c1.37,0.02,2.74,0.05,4.13,0.05c8.98,0,18.87-0.65,30.24-1.99c4.64-0.55,9.28-1.21,13.9-1.94c-5.1,1.68-10.24,3.82-15.76,6.44
					c-6.5,3.13-13.95,7.05-19.98,12.47c-0.46,0.42-0.84,0.8-1.23,1.19c-1.8,1.78-3.21,3.66-4.17,5.59
					c-1.22,2.42-1.75,4.98-1.62,7.84c0.18,4.88,2,9.27,5.27,12.67c2.91,2.98,6.99,5.21,12.48,6.83c6.25,1.82,12.97,2.23,17.48,2.39
					c1.29,0.02,2.57,0.05,3.89,0.05c5.29,0,10.97-0.32,17.41-0.97c15.39-1.53,31.45-4.32,52.1-9.05c16.79-3.84,34.78-8.62,55-14.6
					c15.68-4.64,32.02-9.82,48.58-15.42c10.98-3.69,20.83-7.18,30.13-10.67l1.41-0.55c2.41-0.9,4.79-1.81,7.16-2.8
					c11.87-4.93,25.17-10.46,38.2-15.61l-1.18,0.11c26.21-10,47.46-17.3,66.89-22.88c22.87-6.56,45.24-11.07,66.5-13.42
					c11.94-1.29,24.26-1.94,36.65-1.94c14.76,0,29.68,0.93,44.33,2.78c0.43,0.17,0.96,0.27,1.53,0.27c1.23,0,2.45-0.47,3.24-1.28
					c0.4-0.39,0.69-0.85,0.88-1.37c4.24-12.05,6.91-25.07,7.95-38.68c0.96-12.82,0.54-26.6-1.24-40.95
					c-1.67-13.16-4.52-26.6-8.7-41.1c-3.65-12.69-8.37-25.74-14.04-38.79c-5.38-12.38-11.63-24.55-18.58-36.16
					c-0.58-1.01-1.86-1.61-2.86-1.77c-0.21-0.02-0.43-0.05-0.63-0.05c-0.89,0-1.76,0.27-2.46,0.76c-0.21-0.09-0.53-0.14-0.88-0.14
					c-0.46,0-0.95,0.07-1.53,0.23c-8.12,2.1-15.37,3.81-22.17,5.23c-17.61,3.68-35.07,6.26-51.87,7.68
					c-10.4,0.89-21.22,1.35-32.17,1.35c-6.29,0-12.66-0.15-18.92-0.46c-18.36-0.96-37.17-3.31-55.93-6.95
					c-18.55-3.6-37.49-8.56-57.92-15.17c-6.4-2.1-13.09-4.42-19.84-6.89c-1.83-0.66-3.63-1.41-5.4-2.17l-1.2-0.5l-6.79-2.99
					l-3.41-1.52l-1.83-0.81l-8.24-3.67c-16.74-7.39-36.63-15.77-57.16-21.75c-7.12-2.1-16.57-4.59-26.48-5.33
					C322.05,221.87,320.3,221.78,318.49,221.78"/>
				<g>
					<path class="st3" d="M298.41,98.12c-2.89,0-5.53,0.12-8.11,0.37c-8.72,0.84-16.95,2.67-24.48,5.46
						c-4.27,1.59-8.34,3.43-12.11,5.46c-3.32,1.8-6.66,4.04-10.8,7.22c-6.29,4.87-11.6,10.88-15.36,17.41
						c-4.12,7.07-6.38,15.25-6.56,23.65c-0.16,6.98,1.36,14.27,4.66,22.27c-0.79-0.15-1.62-0.18-2.47-0.18c-7.05,0-14,2.07-20.12,6
						c-8.05,5.16-13.98,13.15-16.7,22.51c-0.75,2.57-1.21,5.33-1.37,8.19c-2.42-2.66-5.29-5.13-8.44-7.38
						c-4.2-3-9.32-5.47-15.21-7.32c-5.1-1.61-10.74-2.45-16.78-2.5h-0.1c-11.66,0-23.3,3.72-33.08,10.45
						c-4.83,3.32-8.85,7.03-11.98,11.03c-3.09,3.97-5.51,8.07-7.41,12.52c-3.32,7.73-5.17,15.96-5.5,24.46
						c-0.33,8.45,1.03,16.7,3.93,23.87c1.57,3.88,3.4,7.19,5.59,10.11c2.53,3.34,5.45,6.17,8.93,8.64c2.19,1.55,4.59,2.82,7.33,3.87
						c-9.4,6.49-17.81,16.29-24.34,28.23c-9.49,17.35-13.21,36.07-10.48,52.7c0.83,4.99,2.56,9.82,5,13.98
						c2.47,4.26,6.14,8.06,10.62,10.97c4.24,2.75,9.34,4.43,16.06,5.27c1.65,0.2,3.3,0.29,4.95,0.29c1.7,0,3.4-0.1,5.11-0.25
						c-0.24,2.52-0.23,5.04-0.02,7.41c0.29,3.08,0.75,5.83,1.41,8.42c0.77,3.04,2,5.91,3.1,8.36c1.94,4.35,4.84,8.6,8.86,13
						c3.17,3.47,7.29,6.82,12.24,9.97c9.83,6.23,21.55,9.66,33,9.66c10.25,0,19.91-2.75,27.94-7.94c2.07-1.34,4.05-2.85,5.9-4.51
						c0.21,2.77,0.75,5.57,1.5,8.29c2.33,8.43,7.26,16.3,14.26,22.75c6.47,5.94,14.51,10.42,24.58,13.7
						c7.98,2.61,16.94,3.95,26.61,3.95c0.88,0,1.76-0.01,2.65-0.03c15.34-0.41,30.05-4.39,42.53-11.51
						c6.22-3.56,11.98-8.08,16.67-13.06c5.64-1.65,11.57-2.92,18.12-3.89c6.95-0.84,14.41-1.24,22.79-1.24
						c10.08,0,20.33,0.59,30.23,1.15l3.3,0.19c9.59,0.54,19.52,1.11,29.29,1.11c8.69,0,16.37-0.45,23.48-1.37
						c10.77-1.39,18.88-3.19,26.31-5.88c5-1.81,10.23-4.25,16.02-7.42c11.25-6.17,22.56-14.23,33.6-23.97
						c6.63-5.83,12.81-12.47,18.38-19.75c5.59-7.33,9.61-14.69,12.29-22.49c1.45-4.16,2.07-8.43,2.45-11.69
						c0.42-3.55,0.23-7.46-0.62-12.3c-0.89-5.31-3.16-10.61-6.74-15.74c2.88-1.95,5.65-4.15,8.2-6.44
						c4.06-3.66,7.9-8.15,11.76-13.75c6.17-8.93,10.37-19.63,12.15-30.96c1.8-11.36,1.18-22.19-1.86-32.2
						c-3.07-10.09-8.8-19.01-16.13-25.13c-6.69-5.59-14.82-9.29-23.54-10.72c-2.91-0.49-6.04-0.75-9.29-0.8
						c2.56-2.92,4.81-6.01,6.72-9.1c2.43-3.91,4.55-8.46,6.3-13.53c1.35-3.87,2.24-8.13,2.85-13.83c0.41-3.74,0.38-7.63-0.09-11.87
						c-0.58-4.99-1.49-9.38-2.76-13.41c-2.58-8.11-6.54-15.81-11.78-22.87c-2.96-4.01-5.92-7.48-9.02-10.63
						c-3.54-3.63-7.47-6.78-10.49-9.12c-6.5-5-13.75-9.08-22.19-12.51c-7.34-2.98-15.43-4.73-23.4-5.06
						c-0.59-0.02-1.21-0.05-1.81-0.05c-3.12,0-6.52,0.34-10.38,1.05c-3.44,0.61-6.93,1.78-11.32,3.78
						c-3.87,1.78-7.25,4.34-9.75,6.37c-3.43,2.79-6.09,6.18-8.22,9.14c-2.35,3.19-4.38,6.98-6.39,11.91l-0.28,0.68l-0.28,0.68
						c-1.98-1.64-4.51-3.02-7.43-4.14c-2.18-0.82-4.65-1.23-7.35-1.23c-1.55,0-3.17,0.14-4.8,0.41c-0.96,0.16-1.88,0.36-2.79,0.62
						c0.12-1.35,0.06-2.76-0.12-4.15c-0.62-4.73-2.2-8.62-4.85-11.88c-5.82-7.27-15.28-8.56-20.4-8.68l-0.88-0.01
						c-7.79,0-16.2,2.46-23.67,6.95c-3.8,2.26-7.39,5.22-10.39,8.58c-0.74-3.21-1.9-6.76-3.7-10.98c-1.87-4.29-4.67-8.01-6.9-10.77
						c-2.83-3.5-6.38-6.26-9.15-8.29c-3.49-2.54-7.31-4.29-10.92-5.79c-3.17-1.31-6.63-2.36-10.28-3.11
						C309.5,98.67,304.03,98.12,298.41,98.12"/>
					<path class="st3" d="M157.63,152.52c0,7.89,6.6,14.49,14.49,14.49c7.88,0,14.48-6.6,14.48-14.49s-6.6-14.49-14.48-14.49
						C164.24,138.03,157.63,144.63,157.63,152.52"/>
					<path class="st3" d="M568.8,218.46c0,13.87,11.57,25.44,25.44,25.44c13.87,0,25.44-11.57,25.44-25.44s-11.57-25.44-25.44-25.44
						C580.37,193.02,568.8,204.6,568.8,218.46"/>
					<path class="st3" d="M353.21,579.11c0,13.87,11.57,25.44,25.44,25.44c13.87,0,25.44-11.57,25.44-25.44
						s-11.57-25.44-25.44-25.44C364.78,553.67,353.21,565.24,353.21,579.11"/>
					<path class="st3" d="M423.77,584.91c0,6.03,5.04,11.06,11.06,11.06c6.03,0,11.06-5.04,11.06-11.06s-5.04-11.06-11.06-11.06
						C428.81,573.84,423.77,578.88,423.77,584.91"/>
					<path class="st3" d="M330.71,623.86c0,4.73,3.95,8.68,8.68,8.68s8.68-3.95,8.68-8.68s-3.95-8.68-8.68-8.68
						S330.71,619.14,330.71,623.86"/>
					<path class="st3" d="M200.06,114.81c0,4.95,4.13,9.07,9.07,9.07s9.08-4.13,9.08-9.07c0-4.95-4.13-9.07-9.08-9.07
						S200.06,109.87,200.06,114.81"/>
				</g>
				<g>
					<path class="st4" d="M224.44,179.51c-5.3,0-9.63,1.61-12.19,4.52c-1.75,2-2.87,4.38-3.24,6.9c-0.44,2.95-0.3,6.01,0.42,9.66
						c0.72,3.6,1.97,7.41,3.96,11.98c1.87,4.28,4.44,8.6,8.11,13.59c3.98,5.39,8.61,10.58,14.16,15.85
						c-8.68-5.19-15.58-8.89-22.31-12.06c-4.43-2.09-8.4-3.76-12.14-5.1c-3.86-1.38-7.06-2.23-10.09-2.68
						c-1.72-0.28-3.3-0.42-4.82-0.42c-1.68,0-3.2,0.18-4.65,0.55c-2.93,0.77-5.42,2.53-7.19,5.08c-0.69,0.98-1.23,2.23-1.67,3.86
						c-0.41,1.52-0.6,3.23-0.57,5.25c0.04,4.77,1.37,9.47,2.52,13.02c1.66,5.18,3.87,10.16,6.56,14.81
						c2.56,4.42,5.8,8.96,9.92,13.88c3.22,3.87,6.86,7.68,11.09,11.68c-8.46-4.37-15.66-7.5-22.57-9.94
						c-3.7-1.32-7.09-2.28-10.39-2.95c-2.86-0.58-5.17-0.86-7.25-0.86c-0.64,0-1.28,0.05-1.93,0.08c-1.49,0.15-2.73,0.33-3.94,0.76
						c-1.61,0.55-2.84,1.25-4.17,2.32c-0.89,0.72-1.7,1.74-2.29,2.87c-0.9,1.68-1.2,3.33-1.4,4.86c-0.22,1.5-0.05,3.05,0.15,4.63
						c0.21,1.59,0.6,3.28,1.22,5.3c1.35,4.26,3.32,8.67,6.39,14.3c6.07,11.22,14.23,22.22,24.26,32.71
						c7.06,7.39,15.21,14.68,25.66,22.92c3.66,2.89,7.42,5.7,11.2,8.45c-5.56-2.53-10.75-4.58-15.82-6.37
						c-6.77-2.38-14.79-4.87-22.92-5.31c-0.61-0.02-1.15-0.05-1.71-0.05c-2.59,0-4.9,0.34-6.86,1c-2.52,0.84-4.69,2.27-6.63,4.38
						c-3.31,3.57-5.12,7.93-5.2,12.61c-0.06,4.17,1.23,8.62,3.96,13.61c3.15,5.73,7.6,10.74,10.67,14.01
						c4.31,4.6,9.3,9.18,15.71,14.4c11.88,9.74,25.21,19.13,43.19,30.43c14.72,9.22,30.83,18.56,49.22,28.55
						c14.42,7.85,29.65,15.74,45.25,23.45c10.46,5.18,19.89,9.68,28.84,13.75l1.39,0.63c2.33,1.05,4.67,2.11,7.05,3.06
						c12.2,5.02,25.27,10.44,38.05,15.99l-0.99-0.57c25.19,11.06,45.4,20.85,63.57,30.93c20.73,11.48,39.75,24.11,56.55,37.53
						c20.84,16.83,39.91,36.3,56.67,57.87c0.66,1.52,2.36,2.63,4.02,2.63c0.54,0,1.06-0.12,1.53-0.34
						c11.51-5.52,22.59-12.83,32.94-21.71c9.7-8.32,19.14-18.34,28.07-29.81c8.01-10.31,15.5-21.83,22.9-35.19
						c6.39-11.53,12.27-24.09,17.5-37.34c4.94-12.53,9.12-25.55,12.43-38.7c0.28-1.07-0.19-2.36-0.78-3.17
						c-0.63-0.85-1.58-1.45-2.62-1.66c-0.34-0.61-0.92-1.15-1.78-1.65c-6.9-4.05-13.25-7.98-19.38-11.96
						c-15.11-9.88-29.29-20.4-42.13-31.27c-12.89-10.88-25.25-22.82-36.76-35.5c-12.24-13.6-23.94-28.62-34.64-44.47
						c-10.61-15.71-20.49-32.63-30.23-51.73c-3.01-5.91-6.1-12.27-9.16-18.9c-1.01-2.14-1.89-4.35-2.78-6.56
						c-1.62-4.08-3.18-8.17-4.74-12.27l-3.24-8.42c-6.65-17.13-14.83-37.16-25.04-55.79c-3.57-6.52-8.49-14.99-14.96-22.47
						c-4.04-4.69-9.65-10.34-17.21-12.4c-1.28-0.34-2.6-0.51-4.01-0.51c-1.78,0-3.73,0.28-5.82,0.84c-3.21,0.86-6.33,2.78-9.02,5.54
						c-2.15,2.19-3.94,5.23-5.18,8.81c-1.24,3.56-2.03,7.37-2.39,11.65c-0.61,7.24-0.21,15.21,1.26,25.08
						c1.22,8.16,3.03,16.69,5.72,26.84c1.94,7.31,4.25,14.89,7.04,23.16l1.45,4.19l0.38,1.09c-25-13.03-49.63-27.76-73.44-42
						l-12.02-7.18c-3.21-1.91-6.44-3.8-9.66-5.69c-5.23-3.06-10.47-6.13-15.64-9.3l-4.53-2.78c-3.96-2.43-7.92-4.87-11.91-7.27
						c-12.23-7.38-28.44-16.9-45.27-25.15c-8.91-4.35-16.26-7.52-23.14-9.98c-7.63-2.72-13.52-4.07-19.1-4.38
						C225.44,179.53,224.93,179.51,224.44,179.51"/>
					<path class="st5" d="M239.54,245c-0.44,0.62-0.31,1.53,0.29,1.99c21.15,15.85,42.33,31.73,64.37,46.35
						c5.32,3.56,10.68,7.02,16.12,10.42c5.74,3.55,11.55,6.98,17.45,10.29c11.48,6.47,23.17,12.58,35.2,17.98
						c1.52,0.66,3.37-0.2,3.97-1.7c0.62-1.59-0.18-3.29-1.7-3.95c-7.18-3.21-14.27-6.56-21.31-10.05
						c-7.26-3.6-14.42-7.42-21.5-11.39l0.59,0.33c-15.92-8.92-31.46-18.48-46.64-28.62c-15.26-10.2-30.16-20.93-44.85-31.93
						c-0.26-0.18-0.55-0.27-0.85-0.27C240.24,244.44,239.81,244.63,239.54,245"/>
					<path class="st5" d="M207.47,294.02c-0.49,0.68-0.27,1.46,0.29,1.99c8.88,8.43,18.21,16.36,27.86,23.84
						c5.08,3.93,10.27,7.71,15.48,11.44c5.56,3.95,11.17,7.82,16.89,11.57c5.43,3.56,10.97,6.95,16.54,10.29
						c5.54,3.29,11.22,6.38,16.91,9.34c5.59,2.89,11.26,5.59,17.03,8.11c2.8,1.24,5.63,2.39,8.46,3.49
						c3.07,1.17,6.18,2.21,9.27,3.27c1.7,0.6,3.62-0.11,4.31-1.85c0.68-1.72-0.2-3.58-1.83-4.31c-2.72-1.21-5.41-2.52-8.11-3.75
						c-2.76-1.28-5.54-2.54-8.3-3.82c-5.7-2.63-11.37-5.3-17.03-8.04c-5.79-2.79-11.53-5.68-17.25-8.59
						c-5.65-2.86-11.19-5.86-16.71-8.93c0.06,0.04,0.12,0.08,0.19,0.12c-5.7-3.21-11.35-6.5-16.87-9.96
						c-5.46-3.43-10.8-7.02-16.03-10.76c-10.2-7.29-20.01-15.1-29.13-23.74c-0.21-0.2-0.49-0.29-0.77-0.29
						C208.23,293.45,207.73,293.68,207.47,294.02 M271.3,338.07c-0.16-0.1-0.32-0.18-0.47-0.26
						C270.98,337.9,271.14,337.98,271.3,338.07"/>
					<path class="st5" d="M221.05,376.36c-0.46,0.64-0.37,1.68,0.31,2.14c6.89,4.68,14,8.98,21.29,13
						c3.84,2.14,7.75,4.15,11.68,6.09c3.93,1.97,7.86,3.89,11.84,5.77c7.64,3.58,15.33,7.11,22.98,10.62c4,1.85,7.99,3.69,11.99,5.5
						c4.02,1.83,8.02,3.71,12.1,5.41c1.55,0.64,3.38-0.18,4-1.72c0.29-0.73,0.29-1.59-0.02-2.32c-0.33-0.84-0.93-1.28-1.7-1.68
						c-6.27-3.36-12.87-6.12-19.47-8.79c-6.87-2.78-13.82-5.41-20.71-8.17c-6.87-2.76-13.71-5.61-20.45-8.7
						c-6.64-3.07-13.19-6.35-19.57-9.94c0.02,0.02,0.05,0.03,0.07,0.05l-0.08-0.05c-0.01-0.01-0.02-0.01-0.03-0.02
						c0.01,0.01,0.01,0.01,0.02,0.01c-4.13-2.35-8.15-4.84-12.09-7.51c-0.28-0.19-0.6-0.29-0.93-0.29
						C221.81,375.76,221.36,375.96,221.05,376.36 M235.3,383.58c0.01,0,0.01,0.01,0.02,0.01l-0.03-0.02
						C235.29,383.57,235.3,383.57,235.3,383.58"/>
				</g>
			</g>
		</g>
	</g>
</g>
</svg>
