<?xml version="1.0" encoding="utf-8"?>
<!-- Generator: Adobe Illustrator 24.1.2, SVG Export Plug-In . SVG Version: 6.00 Build 0)  -->
<svg version="1.1" id="Layer_1" xmlns="http://www.w3.org/2000/svg" xmlns:xlink="http://www.w3.org/1999/xlink" x="0px" y="0px"
	 viewBox="0 0 720 720" style="enable-background:new 0 0 720 720;" xml:space="preserve">
<style type="text/css">
	.st0{fill:#6050AD;}
	.st1{clip-path:url(#SVGID_2_);}
	.st2{fill:#7296E0;}
	.st3{fill:#82ABFE;}
	.st4{fill:#FEFEFE;}
	.st5{fill:#81E5DA;}
	.st6{fill:#7AD8CE;}
	.st7{fill:#61B2A9;}
	.st8{fill:#74CFC5;}
</style>
<g>
	<g>
		<path class="st0" d="M34.62,473.82c58,165.09,250.89,255.83,430.48,202.51c179.58-53.32,278.29-230.64,220.29-395.74
			C627.38,115.51,434.49,24.77,254.91,78.09C75.32,131.41-23.38,308.73,34.62,473.82"/>
		<g>
			<defs>
				<path id="SVGID_1_" d="M34.62,465.09c58,179.59,250.89,278.3,430.48,220.29c179.58-58.01,278.29-250.89,220.29-430.48
					C627.38,75.32,434.49-23.39,254.91,34.62C75.32,92.61-23.38,285.5,34.62,465.09"/>
			</defs>
			<clipPath id="SVGID_2_">
				<use xlink:href="#SVGID_1_"  style="overflow:visible;"/>
			</clipPath>
			<g class="st1">
				<path class="st2" d="M366.14,30.33c-2.23,0-4.49,0.24-6.72,0.71c-4.6,0.95-8.78,2.74-12.44,5.33
					c-6.4,4.52-11.44,11.69-14.97,21.32c-2.95,7.94-4.81,16.93-5.85,28.29c-0.67,7.4-0.92,15.31-0.8,24.91
					c-3.4-4.35-7.07-8.64-10.79-12.78c-3.44-3.81-7-7.52-10.55-11.24c-6.24-6.5-14.63-14.83-24.26-21.65
					c-4.83-3.42-9.45-5.92-14.12-7.64c-3.36-1.25-6.84-1.91-10.07-1.91c-1.48,0-2.82,0.11-4.07,0.36
					c-5.15,0.95-10.05,4.03-13.09,8.22c-1.34,1.86-2.32,4.06-2.99,6.74c-0.68,2.8-0.67,5.46-0.58,7.69
					c0.19,4.53,1.51,8.89,2.92,12.92c1.24,3.57,2.96,7.34,5.26,11.56c4.8,8.82,11.5,17.74,19.93,26.5
					c8.26,8.57,18.03,16.71,29.88,24.89c8.45,5.82,17.56,11.25,27.85,16.61c-3.46,1.25-6.89,2.67-10.27,4.17
					c-0.43,0.18-0.83,0.53-1.24,1.07c-28.08,17.04-55.5,36.19-81.47,56.93c-28.94,23.1-55.15,47.64-77.92,72.95
					c-24.92,27.66-45.18,55.86-60.2,83.81c-7.89,14.64-14.48,29.71-19.59,44.79c-5.05,14.86-8.59,30.35-10.49,46.07
					c-1.89,15.43-1.86,31.12,0.08,46.64c2.02,15.92,6.13,31.72,12.24,46.97c6.31,15.73,15.01,31.39,25.86,46.56
					c9.32,12.98,19.66,24.77,30.72,35.06c9.77,9.12,20.8,17.72,33.7,26.29c11.74,7.8,24.83,15.17,38.92,21.91
					c27.15,12.98,57.21,23.12,89.36,30.15c31.45,6.88,63.9,10.41,96.46,10.49h0.83c32.44,0,63.77-3.64,93.12-10.84
					c30.56-7.48,58.07-18.83,81.74-33.75c5.78-3.63,11.67-7.76,17.54-12.28c6-4.64,12.01-9.87,18.93-16.49
					c13.34-12.71,25.11-26.7,35.01-41.58c9.02-13.56,16.48-28.41,22.15-44.1c5.09-14.11,8.59-29.53,10.4-45.81
					c3.26-29.25-0.01-60.58-9.67-93.12c-8.79-29.56-23.08-59.75-42.47-89.73c-17.9-27.7-40-54.56-65.66-79.81
					c-6.95-6.82-14.85-14.1-24.87-22.94c-9.39-8.27-19.52-16.79-31.87-26.82c-21.91-17.76-45.08-35.24-65.08-50.24
					c-0.78-0.59-1.69-1.14-3.04-1.14c-0.92,0-1.84,0.27-2.59,0.78c-2.17-1.3-4.42-2.58-6.68-3.86c0.38-0.03,0.74-0.2,1.09-0.42
					c7.64-4.83,14.35-9.52,20.52-14.33c3.22-2.52,6.38-5.13,9.45-7.8c8.46-7.27,16.35-14.82,23.45-22.43
					c8.72-9.31,15.7-18.25,21.34-27.36c2.92-4.71,5.29-9.39,7.03-13.9c1.92-4.98,3.01-9.51,3.34-13.85
					c0.36-4.67-0.22-9.16-1.75-13.36c-0.84-2.39-2.46-5.84-5.35-8.67c-1.01-0.98-2.13-2-3.54-2.81c-1.63-0.94-3.22-1.58-5.16-2.08
					c-1.52-0.37-3.12-0.57-4.77-0.57c-1.39,0-2.81,0.14-4.16,0.36c-7.75,1.27-14.65,5.19-20.38,8.86
					c-7.95,5.05-15.12,11.16-21.1,16.47c-7.48,6.64-15.13,14.13-24.8,24.3c-3.02,3.19-6.03,6.41-9.01,9.65
					c0.3-3.52,0.38-7.07,0.41-10.62c0.07-9.53-0.56-18.09-1.94-26.16c-0.8-4.54-1.89-8.92-3.24-13.02c-1.24-3.81-3-7.6-5.24-11.26
					c-2.01-3.28-4.57-6.14-7.59-8.5c-2.96-2.32-6.62-3.97-10.89-4.91C370.2,30.4,368,30.33,366.14,30.33"/>
				<path class="st2" d="M406.28,168.92c-1.1,0.06-2.14,0.51-2.89,1.26c-0.75,0.77-1.17,1.81-1.1,2.86
					c0.07,0.89,0.53,2.11,1.37,2.64c8.99,5.78,17.49,12.16,26.19,18.29c0.95,0.67,1.9,1.08,3.11,1.02c1.1-0.06,2.14-0.51,2.89-1.26
					c1.46-1.46,1.57-4.22-0.26-5.5c-8.7-6.13-17.23-12.5-26.19-18.29c-0.93-0.59-1.75-1.02-2.89-1.02
					C406.43,168.91,406.36,168.92,406.28,168.92"/>
				<path class="st2" d="M406,165.54c-1.1,0.06-2.17,0.51-2.89,1.26c-0.77,0.77-1.17,1.81-1.1,2.86c0.05,0.89,0.53,2.11,1.37,2.64
					c9.63,6.23,18.46,13.42,27.6,20.22c1.81,1.32,4.37,1.38,6-0.24c1.48-1.51,1.53-4.18-0.26-5.52c-9.16-6.8-17.98-13.96-27.63-20.2
					c-0.92-0.59-1.75-1.02-2.87-1.02C406.15,165.54,406.07,165.54,406,165.54"/>
				<path class="st2" d="M405.31,167.29c-1.48,1.48-1.54,4.18,0.27,5.5c9.85,7.18,18.99,15.18,29.04,22.14
					c0.95,0.67,1.88,1.1,3.11,1.02c1.09-0.06,2.14-0.51,2.87-1.26c1.46-1.44,1.59-4.22-0.27-5.5
					c-10.05-6.98-19.19-14.96-29.03-22.17c-0.88-0.64-1.93-0.98-2.96-0.98C407.23,166.04,406.15,166.43,405.31,167.29"/>
				<path class="st2" d="M408.5,167.06c-1.06,0.3-1.94,1.01-2.45,1.93c-0.51,0.91-0.62,1.99-0.27,2.98c0.37,1.08,1.12,1.66,2.1,2.25
					c0.29,0.18,0.58,0.35,0.85,0.53c9.49,6.17,17.67,13.85,27.06,20.12c0.97,0.65,1.88,1.08,3.11,1.01c1.11-0.06,2.14-0.5,2.89-1.26
					c0.75-0.77,1.17-1.8,1.1-2.86c-0.06-0.91-0.53-2.09-1.37-2.63c-5.14-3.44-9.92-7.27-14.7-11.06
					c-4.86-3.82-9.79-7.49-15.08-10.78c-0.5-0.3-1.16-0.43-1.81-0.43C409.43,166.85,408.92,166.93,408.5,167.06 M408.74,174.75
					c0.27,0.17,0.53,0.33,0.8,0.5C409.27,175.1,409,174.93,408.74,174.75"/>
				<path class="st2" d="M409.59,172.14c-0.51,0.91-0.59,1.99-0.24,2.98c0.36,1.03,1.1,1.7,2.1,2.26c1.33,0.74,2.63,1.52,3.92,2.32
					c8.16,5.27,15.47,11.55,23.66,16.82c0.97,0.63,1.85,1.08,3.09,1.02c1.1-0.06,2.17-0.53,2.89-1.26c0.77-0.77,1.17-1.83,1.1-2.86
					c-0.07-0.89-0.53-2.11-1.37-2.66c-10.07-6.48-18.9-14.43-29.46-20.32c-0.56-0.32-1.19-0.45-1.81-0.45
					C411.9,169.98,410.29,170.86,409.59,172.14"/>
				<path class="st3" d="M421.94,162.54c-6.26,3.26-12.83,5.86-19.64,7.95c-9.88,2.72-20.01,4.33-30.29,4.9
					c-10.36,0.32-20.65-0.42-30.8-2.38c-8.16-1.83-16.03-4.46-23.45-8.09c-1.9-0.91-4.75-0.57-6.6,0.22
					c-1.99,0.85-3.56,2.41-4.35,4.32c-0.79,1.95-0.71,4.16,0.27,6.05c1.02,2.01,2.63,2.98,4.68,4
					c17.62,8.61,38.07,11.92,57.88,11.43c20.63-0.5,41.45-4.87,59.49-14.27c1.97-1.01,3.51-2.29,4.35-4.3
					c0.8-1.95,0.71-4.16-0.26-6.05c-1.35-2.66-4.63-4.58-7.87-4.58C424.16,161.73,423,161.98,421.94,162.54 M340.13,172.79
					c0.22,0.04,0.44,0.09,0.66,0.14C340.57,172.88,340.35,172.83,340.13,172.79 M371.03,175.43c-0.26,0.01-0.52,0.03-0.78,0.04
					C370.51,175.45,370.77,175.44,371.03,175.43"/>
				<path class="st3" d="M445.22,171.09c-4.44,0.24-8.88,0.67-13.27,1.24c-1.33,0.17-2.66,0.36-3.99,0.58
					c-0.08-0.06-0.16-0.12-0.25-0.19c-1.03-0.77-2.03-1.32-3.4-1.32c-1.28,0-2.52,0.45-3.43,1.28c-0.88,0.81-1.41,1.95-1.41,3.11
					c-0.02,1.08,0.45,2.44,1.37,3.14c1.72,1.28,3.37,2.64,5.08,3.96c2.71,2.13,5.48,4.2,8.28,6.23c7.2,5.24,14.62,10.27,22.57,14.54
					c3.93,2.13,8.02,3.94,12.26,5.54c3.65,1.36,7.4,2.28,11.33,2.68c3.47,0.33,7.04-0.2,10.15-1.64c3.11-1.42,5.52-4.12,6.89-7.03
					c0.82-1.75,1.37-3.51,1.7-5.4c0.35-2.11,0.55-4.2,0.29-6.33c-0.22-1.89-0.71-3.65-1.53-5.42c-0.77-1.64-1.83-3.06-3.05-4.46
					c-1.15-1.3-2.58-2.33-4.02-3.33c-1.54-1.05-3.27-1.89-5.03-2.62c-3.93-1.62-8.11-2.63-12.35-3.37c-6.2-1.04-12.5-1.44-18.8-1.44
					C451.49,170.83,448.34,170.93,445.22,171.09 M467.22,176.72c-0.24-0.04-0.49-0.06-0.73-0.1c4.81,0.62,9.57,1.58,14.08,3.22
					c2.17,0.85,4.25,1.89,6.13,3.18c1.06,0.8,2.02,1.67,2.88,2.65c0.57,0.75,1.05,1.54,1.46,2.36c0.3,0.78,0.52,1.57,0.67,2.36
					c0.12,1.22,0.1,2.42-0.03,3.64c-0.31,1.74-0.75,3.46-1.42,5.1c-0.38,0.75-0.81,1.46-1.32,2.13c-0.39,0.41-0.81,0.8-1.27,1.14
					c-0.42,0.25-0.85,0.48-1.31,0.67c-0.71,0.22-1.42,0.37-2.16,0.48c-1.16,0.07-2.32,0.03-3.48-0.08c-2.76-0.42-5.41-1.2-7.99-2.14
					c-5.38-2.09-10.42-4.87-15.33-7.77c-5.27-3.13-10.36-6.56-15.33-10.09c0.23,0.17,0.46,0.32,0.69,0.48
					c-3.19-2.29-6.34-4.64-9.49-7.01c0.59-0.07,1.19-0.15,1.78-0.21c-0.22,0.02-0.42,0.04-0.64,0.06
					C445.25,175.6,456.38,175.4,467.22,176.72 M491.77,190.64c0.03,0.16,0.06,0.31,0.07,0.47
					C491.82,190.96,491.79,190.8,491.77,190.64 M490.49,198.66l-0.11,0.24L490.49,198.66z M443.13,184.19
					c-0.11-0.08-0.23-0.17-0.35-0.25C442.9,184.02,443.01,184.1,443.13,184.19"/>
				<path class="st3" d="M452.68,124.43c-9.19,5.57-16.47,13.72-21.64,22.6c-2.58,4.43-4.62,9.18-5.92,14.05
					c-1.17,4.39-1.72,9-1.17,13.48c0.11,0.99,0.33,1.81,1.12,2.56c0.71,0.67,1.72,1.05,2.74,1.05c1.03,0.02,2.05-0.36,2.78-1.03
					c0.45-0.41,0.88-1.02,1.06-1.66c4.6-2.32,9.31-4.44,13.93-6.7c7.67-3.74,15.28-7.55,22.66-11.78c3.71-2.11,7.33-4.32,10.84-6.7
					c3.22-2.15,6.36-4.45,9.23-7.01c4.17-3.73,8.48-8.81,7.22-14.51c-0.55-2.47-2.45-4.4-4.55-5.88c-2.71-1.93-6.09-3.03-9.36-3.86
					c-2.56-0.65-5.15-0.95-7.73-0.95C466.38,118.08,458.96,120.62,452.68,124.43 M476.64,125.03c2.28,0.32,4.51,0.87,6.65,1.62
					c1.27,0.5,2.48,1.07,3.58,1.81c0.36,0.3,0.7,0.6,1.01,0.94c0.14,0.2,0.25,0.39,0.37,0.6c0.07,0.17,0.11,0.35,0.16,0.53
					c0.01,0.25,0.01,0.5-0.01,0.75c-0.1,0.45-0.25,0.89-0.42,1.34c-0.51,0.99-1.15,1.91-1.85,2.8c-2.72,3.1-6.08,5.69-9.54,8.11
					c-8.87,6.04-18.59,11.03-28.34,15.79c-5.41,2.62-10.93,5.03-16.42,7.5c0.01-0.04,0.01-0.07,0.01-0.1
					c0.66-3.94,1.85-7.75,3.44-11.46c2.25-4.88,5.15-9.45,8.59-13.7c3.22-3.79,6.88-7.22,11.03-10.18c2.81-1.86,5.76-3.45,8.97-4.68
					c2.28-0.77,4.61-1.34,7.03-1.66C472.81,124.86,474.72,124.85,476.64,125.03 M476.75,125.04c0.22,0.02,0.44,0.04,0.66,0.06
					C477.19,125.08,476.97,125.06,476.75,125.04 M435.35,155.05c-0.01,0.04-0.03,0.07-0.05,0.1
					C435.33,155.12,435.34,155.08,435.35,155.05"/>
				<path class="st3" d="M458.12,229.83c-1.08,0.99-1.19,2.84,0,3.81c21.02,17.42,40.5,36.54,57.81,57.11
					c-0.22-0.27-0.44-0.51-0.64-0.75c14.06,16.77,26.76,34.47,37.98,52.94c11.32,18.69,20.93,38.18,29.98,57.87
					c-0.27-0.59-0.55-1.2-0.81-1.8c3.07,6.7,6.09,13.42,9.16,20.12c0.71,1.08,1.66,1.95,2.83,2.6c1.81,0.97,4.04,1.24,6.07,0.73
					c3.97-1.01,6.85-5.16,5.5-8.91c-5.01-13.95-11.57-27.45-18.95-40.46c-7.16-12.58-15.06-24.76-23.56-36.62
					c-16.98-23.71-36.3-45.98-57.17-66.91c-13.91-13.95-28.71-27.1-44.03-39.73c-0.61-0.51-1.37-0.78-2.14-0.78
					C459.43,229.04,458.7,229.29,458.12,229.83"/>
				<path class="st3" d="M544.05,372.04c-2.16,1.16-3.15,4.02-1.72,6.01c11.28,15.69,21.02,32.26,29.06,49.55l-0.13-0.3
					c0.14,0.3,0.28,0.61,0.42,0.92c0.05,0.11,0.11,0.22,0.16,0.34c-0.03-0.08-0.07-0.15-0.11-0.23c12.3,27.24,20.09,55.89,24.97,85
					c0.29,1.73,2.01,3.41,3.58,4.27c1.79,0.97,3.97,1.24,5.98,0.73c1.94-0.5,3.65-1.68,4.66-3.28c1.13-1.79,1.13-3.53,0.77-5.52
					c-4.42-24.52-12.17-48.36-22.7-71.25c-10.4-22.67-23.61-44.15-38.4-64.65c-0.97-1.35-2.54-2.17-4.18-2.17
					C545.63,371.44,544.82,371.63,544.05,372.04 M571.73,428.33c-0.02-0.04-0.03-0.08-0.05-0.11c-0.09-0.21-0.19-0.42-0.29-0.62
					C571.51,427.85,571.61,428.09,571.73,428.33"/>
				<path class="st3" d="M115.29,409.22c-3.09,6.96-5.94,14.03-8.46,21.19c-2.52,7.12-4.64,14.37-6.45,21.7
					c-1.81,7.29-3.22,14.65-4.32,22.07c-1.11,7.37-1.7,14.8-2.06,22.23c-0.35,7.45-0.31,14.9,0.2,22.35
					c0.53,7.53,1.45,15.02,2.74,22.46c2.54,14.77,7.04,29.33,13.3,43.13c1.08,2.35,2.18,4.71,3.37,7.03
					c0.6,1.16,2.06,2.05,3.36,2.37c1.46,0.36,3.02,0.18,4.33-0.51c1.25-0.69,2.2-1.8,2.58-3.1c0.06-0.45,0.13-0.91,0.2-1.36
					c0-0.94-0.24-1.81-0.75-2.62c-1.18-2.36-2.35-4.73-3.46-7.12c-8.11-17.77-13.75-36.47-16.61-55.55
					c-2.74-19.67-2.73-39.6,0.14-59.22c-0.02,0.22-0.07,0.45-0.09,0.67c2.8-18.76,7.95-37.21,15.72-54.75
					c0.4-0.89-0.42-1.95-1.35-2.19c-0.18-0.04-0.35-0.06-0.51-0.06C116.3,407.92,115.64,408.47,115.29,409.22 M103.3,523.8
					c0.01,0.11,0.03,0.21,0.05,0.32C103.32,524.01,103.31,523.91,103.3,523.8"/>
				<path class="st3" d="M128.67,530.24c0.64,12.87,2.63,25.7,6.12,38.19c1.72,6.25,4.13,12.34,6.72,18.33
					c2.71,6.36,5.76,12.63,9.1,18.74c6.34,11.65,13.98,22.65,22.44,33.11c8.7,10.72,18.13,21.01,28.35,30.53
					c2.65,2.47,7.16,2.43,9.83,0c2.62-2.44,2.71-6.62,0-9.04c-5.9-5.22-11.71-10.53-17.25-16.09c-5.26-5.27-10.29-10.77-15.09-16.42
					c-12.39-14.83-23.51-30.67-31.58-47.89c0.05,0.11,0.1,0.23,0.15,0.34c-0.1-0.21-0.19-0.42-0.28-0.62
					c-0.05-0.1-0.09-0.19-0.14-0.29c0.02,0.05,0.05,0.09,0.07,0.14c-5.73-12.66-10.38-25.93-12.41-39.54
					c0.01,0.03,0.01,0.06,0.01,0.09c-0.44-3.18-0.75-6.37-0.94-9.57c-0.06-1.28-1.1-2.35-2.54-2.35
					C129.86,527.89,128.6,528.96,128.67,530.24 M134.72,540.08c0.02,0.1,0.03,0.2,0.04,0.29
					C134.75,540.28,134.73,540.18,134.72,540.08 M147.15,579.41c0.05,0.09,0.09,0.19,0.14,0.29c-0.07-0.15-0.14-0.3-0.2-0.44
					C147.11,579.3,147.13,579.36,147.15,579.41"/>
				<path class="st4" d="M254.48,395.62c-1.19,0.36-1.79,1.05-2.45,1.97c-18.26,24.93-32.46,52.8-38.23,82.54
					c-2.85,14.68-3.42,29.87-1.3,44.66c1.59,11.04,5.32,21.74,10.93,31.59c2.85,4.95,6.34,9.48,10.34,13.66
					c3.88,4.08,8.5,7.51,13.58,10.27c5.1,2.78,10.91,4.55,16.76,5.32c6.29,0.85,12.65,0.45,18.81-0.93
					c5.74-1.28,11.19-3.78,16.09-6.78c5.08-3.11,9.63-7.03,13.71-11.2c4.24-4.37,7.93-9.2,11.28-14.17
					c3.31-4.85,6.16-9.97,8.75-15.16c2.92-5.91,5.36-11.98,7.51-18.15c0.31-0.91-0.08-2.11-0.62-2.88
					c-0.64-0.87-1.63-1.48-2.74-1.68c-1.09-0.2-2.23,0.02-3.14,0.57c-1.04,0.63-1.48,1.47-1.85,2.52c-0.38,1.13-0.77,2.25-1.19,3.39
					c0.11-0.32,0.24-0.67,0.35-0.99c-4.18,11.24-9.68,22.13-16.83,32.06c-4.31,5.8-9.24,11.21-15.03,15.83
					c-3.28,2.5-6.82,4.69-10.63,6.49c-3.11,1.33-6.31,2.36-9.64,3.05c-3.49,0.61-7.02,0.81-10.56,0.67
					c-3.26-0.25-6.44-0.8-9.57-1.67c-3.49-1.12-6.79-2.63-9.89-4.5c-3.52-2.27-6.68-4.92-9.54-7.87c-3.85-4.17-7.04-8.78-9.74-13.66
					c-3.62-6.9-6.23-14.17-7.88-21.67l0.2,0.98c-2.2-10.39-2.65-21.1-2.01-31.64c1.06-14.55,4.42-28.84,9.47-42.67
					c7.32-19.34,17.75-37.52,30.18-54.47c0.57-0.82,0.53-2.12,0.22-2.99c-0.36-0.97-1.12-1.78-2.14-2.25
					c-0.59-0.27-1.24-0.4-1.89-0.4C255.36,395.42,254.91,395.48,254.48,395.62 M229.35,455.75c-0.09,0.25-0.18,0.49-0.28,0.73
					C229.17,456.23,229.26,455.99,229.35,455.75 M229.51,550.28c0.04,0.07,0.07,0.14,0.11,0.21
					C229.59,550.42,229.55,550.35,229.51,550.28 M299.98,567.43c-0.2,0.16-0.4,0.32-0.61,0.47
					C299.59,567.75,299.79,567.59,299.98,567.43 M288.56,574.53c-0.28,0.14-0.57,0.27-0.85,0.4
					C288,574.78,288.28,574.66,288.56,574.53 M258.14,576.37c0.11,0.03,0.23,0.06,0.33,0.09L258.14,576.37z"/>
				<path class="st5" d="M342.95,261.98c-9.75,0-20.31,2.38-31.38,7.07c-5.84,2.5-11.82,5.79-18.27,10.04
					c-6.38,4.18-12.82,9.04-19.15,14.44c-11.04,9.4-20,19.63-26.62,30.42c-6.06,9.88-10.06,20.48-11.89,31.5
					c-0.89,5.36-1.3,10.87-1.22,16.37c0.08,5.02,0.64,10.45,1.7,16.59c1.76,10.22,5.14,21.07,10.34,33.16
					c4.54,10.58,10.38,21.83,17.85,34.39c3.23,5.45,6.64,10.79,10.06,16.14c1.91,2.99,3.81,5.97,5.69,8.97l3,4.81
					c7.79,12.51,15.85,25.44,24.36,37.87c6.4,9.3,12.4,17.45,18.33,24.89c7.05,8.89,13.74,16.46,20.45,23.13
					c7.33,7.29,14.42,13.09,21.67,17.73c7.48,4.84,14.88,7.9,22,9.1c2.43,0.42,4.8,0.64,7.03,0.64c1.12,0,2.23-0.06,3.35-0.17
					c1.88-0.17,3.61-0.45,5.29-0.84c1.01,0.58,1.77,1.02,2.62,1.18c6.98,1.27,14.56,1.92,22.56,1.92c2.62,0,5.25-0.07,7.86-0.19
					c11.4-0.54,23.02-2.2,34.52-4.94c11.78-2.8,22.83-6.74,32.85-11.72c10.44-5.2,19.02-11.46,25.47-18.6
					c3.47-3.82,6.28-7.88,8.36-12.07c1.26-2.52,2.27-5.08,3.02-7.64c0.88-2.93,1.41-6.2,1.64-10c0.38-5.7-0.4-12.05-2.39-19.43
					c-1.96-7.19-5.08-14.06-7.58-19.23c-4.04-8.4-8.97-16.57-13.72-24.47c-2.04-3.37-4.07-6.75-6.05-10.15
					c-5.57-9.6-11.03-19.28-16.5-28.95l-8.48-14.98c-10.02-17.65-17.98-31.08-25.81-43.55c-3.7-5.86-7.52-11.63-11.35-17.41
					l-0.77-1.16l-4.68-7.13l-4.68-7.12c-5.71-8.64-12.54-18.8-19.92-28.55c-7.64-10.13-14.94-18.52-22.31-25.65
					c-8.36-8.05-16.66-14.12-25.36-18.56c-9.22-4.72-19.45-7.43-29.59-7.82C344.47,262,343.7,261.98,342.95,261.98"/>
				<path class="st6" d="M293.25,279c-6.49,4.26-12.94,9.12-19.19,14.43c-11.06,9.44-20.02,19.69-26.63,30.47
					c-6.08,9.91-10.1,20.52-11.91,31.54c-0.88,5.36-1.3,10.86-1.22,16.36c0.07,4.95,0.62,10.39,1.7,16.63
					c1.76,10.17,5.14,21.03,10.36,33.17c4.53,10.6,10.36,21.85,17.84,34.39c2.98,5.05,6.14,10,9.32,14.96l0.75,1.17
					c1.92,2.98,3.82,5.97,5.67,9l3.01,4.79c7.37,11.88,15.72,25.32,24.38,37.88c6.21,9.06,12.19,17.2,18.33,24.93
					c7.03,8.83,13.71,16.41,20.45,23.13c7.26,7.22,14.35,13.01,21.7,17.72c7.47,4.85,14.88,7.94,22.04,9.15
					c2.58,0.41,4.95,0.63,7.04,0.63c1.1,0,2.23-0.06,3.34-0.17c0.48-0.05,0.94-0.1,1.4-0.16c-5.43-3.62-10.7-7.44-15.77-11.47
					c-7.04-5.62-13.76-11.59-19.96-17.99c-6.27-6.45-12.13-13.26-17.47-20.4c-4-5.32-7.8-10.78-11.5-16.28
					c-3.71-5.5-7.31-11.06-10.78-16.68c-7.13-11.53-13.78-23.31-19.79-35.36c-6-12.04-11.44-24.32-16.07-36.87
					c-4.64-12.55-8.52-25.36-11.35-38.37c-5.36-24.85-7.11-50.61-2.54-75.7c2.25-12.38,5.96-24.5,11.31-36.08
					c2.74-5.92,5.85-11.73,9.4-17.31C295.84,277.31,294.55,278.14,293.25,279"/>
				<path class="st7" d="M448.14,496.43c-12.76,0.22-25.33,2.66-37.29,6.66c-5.63,1.89-11.11,4.22-16.28,7.01
					c-4.77,2.56-9.3,5.52-13.27,9.07c-4.66,4.16-8.37,9.17-11.13,14.57c-2.65,5.16-4.04,10.9-4.06,16.59
					c0,6.92,2.27,13.68,5.9,19.71c3.71,6.21,8.9,11.53,14.7,16.16c5.99,4.75,12.92,8.51,20.14,11.43c7.2,2.93,14.97,4.79,22.83,5.34
					c0.77,0.06,1.46-0.45,1.54-1.18c0.07-0.69-0.53-1.34-1.28-1.4c-3-0.21-5.96-0.62-8.87-1.24c-5.67-1.26-11.1-3.19-16.26-5.65
					c-5.47-2.72-10.53-6.04-15.11-9.88c-3.8-3.3-7.19-6.93-10.06-10.97c-2.24-3.35-4.1-6.91-5.42-10.66
					c0.09,0.22,0.16,0.43,0.24,0.65c-1.01-3.05-1.61-6.15-1.83-9.31c-0.1-3.01,0.16-5.96,0.83-8.9c0.79-2.89,1.92-5.63,3.36-8.28
					c2-3.34,4.39-6.47,7.13-9.33c3.24-3.13,6.93-5.79,10.85-8.16c6.76-3.84,14.08-6.8,21.63-9.06c9.34-2.63,19.01-4.29,28.77-4.75
					c-0.27,0.01-0.55,0.02-0.82,0.02c0.34-0.01,0.68-0.02,1.02-0.03c0.07-0.01,0.13-0.01,0.2-0.01c-0.06,0.01-0.12,0.01-0.19,0.01
					c6.37-0.17,12.76,0.2,19.02,1.46c3.4,0.78,6.7,1.85,9.84,3.29c2.36,1.21,4.56,2.62,6.57,4.25c1.36,1.24,2.58,2.57,3.66,4.03
					c0.83,1.32,1.52,2.68,2.06,4.12c0.45,1.51,0.72,3.05,0.83,4.61c0.01,1.8-0.19,3.58-0.57,5.35c-0.64,2.34-1.58,4.6-2.75,6.77
					c-1.65,2.75-3.63,5.29-5.9,7.62c-2.42,2.32-5.08,4.37-7.98,6.16c-1.6,0.91-3.24,1.71-4.94,2.45c-1.74,0.74-3.54,1.35-5.36,1.91
					c-6.06,1.7-12.32,2.73-18.65,3.1c-6.2,0.21-12.37-0.22-18.43-1.41c-4.94-1.11-9.71-2.67-14.24-4.79
					c-0.53-0.27-1.06-0.54-1.57-0.82c-0.95-0.51-1.85-0.81-2.96-0.61c-1.02,0.16-1.92,0.69-2.5,1.44c-1.24,1.56-0.86,3.92,0.9,5.04
					c2.87,1.79,5.9,3.31,9.06,4.63c3.4,1.44,7,2.44,10.64,3.23c3.53,0.75,7.09,1.32,10.71,1.63c3.95,0.34,7.89,0.29,11.84,0.12
					c7.38-0.28,14.57-1.73,21.51-3.95c5.52-1.79,10.64-4.71,15.08-8.18c2.18-1.7,4.17-3.65,6.03-5.66c1.83-1.99,3.42-4.16,4.79-6.44
					c2.74-4.55,4.62-9.46,5.08-14.65c0.42-4.97-0.71-10.11-3.25-14.54c-2.91-5.05-7.64-9.05-12.96-11.92
					c-2.32-1.26-4.75-2.29-7.24-3.16c-2.76-0.96-5.65-1.59-8.52-2.15c-4.95-0.97-10.01-1.31-15.06-1.31
					C449.49,496.41,448.82,496.42,448.14,496.43 M395.41,518.29c-0.19,0.12-0.38,0.23-0.57,0.34
					C395.03,518.52,395.22,518.41,395.41,518.29 M394.77,518.67c-0.08,0.05-0.15,0.09-0.23,0.12
					C394.62,518.76,394.69,518.72,394.77,518.67 M377.23,535.42c-0.1,0.18-0.21,0.37-0.31,0.56
					C377.02,535.79,377.13,535.61,377.23,535.42 M372.6,552.64c0.01,0.1,0.02,0.2,0.02,0.3C372.61,552.83,372.6,552.74,372.6,552.64
					 M408.66,553.77c0.19,0.09,0.37,0.19,0.57,0.29C409.04,553.96,408.85,553.87,408.66,553.77 M459.75,556.89
					c-0.3,0.09-0.6,0.19-0.9,0.27C459.14,557.07,459.44,556.98,459.75,556.89 M389.86,583.75c0.06,0.04,0.12,0.09,0.18,0.15
					C389.98,583.85,389.92,583.8,389.86,583.75 M445.42,504.82c-0.07,0.01-0.13,0.01-0.2,0.01c0.07-0.01,0.14-0.01,0.21-0.01H445.42
					z"/>
				<path class="st8" d="M432.63,436.78c-6.34,1.58-12.45,3.79-18.4,6.31c-6.18,2.64-12.17,5.66-17.93,9.04
					c-11.46,6.72-22.04,14.9-31.09,24.22c-8.78,9.07-16.12,19.51-21.06,30.8c-2.41,5.56-4.19,11.32-5.3,17.21
					c-1.12,5.97-1.39,12.1-1.03,18.15c0.24,4.02,0.9,8,1.76,11.94c0.22,1.05,1.72,1.56,2.74,1.24c0.53-0.16,0.99-0.5,1.23-0.97
					c0.31-0.53,0.24-0.99,0.14-1.54c-0.04-0.15-0.07-0.29-0.1-0.43c0.01,0.06,0.02,0.12,0.03,0.19c-0.03-0.13-0.05-0.27-0.08-0.39
					c-0.01-0.05-0.02-0.09-0.03-0.13c0.01,0.03,0.02,0.06,0.03,0.1c-1.23-6.17-1.65-12.42-1.22-18.69
					c-0.01,0.04-0.01,0.09-0.02,0.14c0.01-0.09,0.02-0.17,0.02-0.25c0.01-0.11,0.01-0.21,0.02-0.32c0,0.05,0,0.09,0,0.13
					c0.63-6.72,2.2-13.3,4.64-19.66c2.79-7.04,6.56-13.66,11.11-19.89c6.23-8.33,13.75-15.73,22.06-22.35
					c-0.24,0.18-0.46,0.36-0.68,0.52c10.06-7.93,21.23-14.54,33.1-19.97c3.58-1.59,7.21-3.07,10.91-4.45
					c3.84-1.44,7.77-2.72,11.7-3.98c2.06-0.65,3.21-2.74,2.52-4.65c-0.33-0.89-1.06-1.64-1.97-2.09c-0.58-0.27-1.17-0.38-1.76-0.38
					C433.53,436.6,433.08,436.66,432.63,436.78 M358.42,493.5c-0.03,0.05-0.07,0.1-0.11,0.16
					C358.34,493.59,358.38,493.54,358.42,493.5 M347.11,513.47c-0.02,0.06-0.04,0.11-0.07,0.17L347.11,513.47z M343.54,552.52
					c0.02,0.07,0.03,0.14,0.05,0.21c-0.02-0.08-0.03-0.16-0.06-0.24C343.54,552.49,343.54,552.51,343.54,552.52 M342.32,533.68
					l-0.01,0.12c0.01-0.1,0.02-0.2,0.02-0.31C342.33,533.55,342.33,533.62,342.32,533.68"/>
				<path class="st8" d="M417.87,386.98c-6.78,1.1-13.41,2.66-19.9,4.75c-6.45,2.09-12.7,4.73-18.73,7.7
					c-12.05,5.93-23.05,13.56-32.88,22.27c-9.85,8.73-18.15,18.84-25.22,29.57c-6.95,10.62-12.34,22.15-15.83,34.11
					c-1.45,5.04-2.54,10.13-3.33,15.26c-0.14,0.89,0.37,1.77,1.37,1.97c0.9,0.19,2.01-0.36,2.14-1.26
					c1.18-7.58,3.3-14.95,6.08-22.15c-0.04,0.1-0.07,0.2-0.12,0.31c4.19-10.62,9.85-20.67,16.76-29.98
					c-0.11,0.16-0.24,0.32-0.35,0.48c7.19-9.57,15.85-18.24,25.35-25.93c-0.05,0.04-0.1,0.08-0.15,0.11
					c0.16-0.13,0.33-0.26,0.49-0.39c0.05-0.04,0.1-0.08,0.15-0.12c-0.01,0.02-0.02,0.03-0.03,0.04
					c9.25-7.27,19.37-13.52,30.28-18.51c10.09-4.45,20.68-7.81,31.65-9.89c-0.14,0.02-0.28,0.05-0.42,0.07
					c0.19-0.03,0.38-0.07,0.58-0.1c0.18-0.04,0.37-0.07,0.55-0.11c-0.1,0.03-0.2,0.05-0.31,0.07c0.79-0.14,1.58-0.27,2.36-0.39
					c0.38-0.06,0.77-0.14,1.15-0.2c0.71-0.22,1.32-0.59,1.81-1.12c0.77-0.77,1.15-1.81,1.08-2.84c-0.06-1.05-0.57-2.03-1.41-2.72
					c-0.67-0.55-1.72-1.03-2.68-1.03C418.15,386.95,418,386.96,417.87,386.98 M353.55,423.8c-0.11,0.09-0.22,0.18-0.34,0.28
					c0.16-0.11,0.31-0.23,0.45-0.36C353.62,423.75,353.59,423.77,353.55,423.8 M415.75,395.29l-0.16,0.03
					c0.13-0.03,0.27-0.05,0.4-0.07C415.91,395.26,415.83,395.27,415.75,395.29"/>
				<path class="st8" d="M374.06,344.46c-3.22,0.52-6.4,1.15-9.54,1.99c-3.27,0.87-6.47,1.97-9.6,3.21
					c-6.09,2.37-11.95,5.34-17.45,8.73c-11.11,6.8-20.74,15.55-29.13,25.05c-4.24,4.81-8.03,9.95-11.57,15.22
					c-3.53,5.26-6.65,10.74-9.5,16.34c-2.76,5.46-5.12,11.08-7.2,16.81c-2.01,5.58-3.62,11.31-4.99,17.05
					c-0.22,0.89-0.42,1.81-0.62,2.7c-0.2,0.89,0.42,1.79,1.39,1.97c0.95,0.18,1.94-0.38,2.14-1.28c0.66-2.95,1.44-5.87,2.32-8.77
					c0.93-2.98,2.04-5.9,3.16-8.81c-0.07,0.16-0.13,0.33-0.2,0.47c4.9-12.47,11.48-24.34,19.59-35.3c-0.16,0.2-0.29,0.38-0.44,0.57
					c3.69-4.89,7.64-9.58,11.85-14.07c4.07-4.33,8.49-8.31,13.13-12.09c7.62-6.01,15.95-11.18,24.91-15.31
					c7.4-3.26,15.2-5.79,23.19-7.52c0.66-0.2,1.22-0.52,1.68-0.99c0.68-0.71,1.04-1.64,0.97-2.6c-0.05-0.96-0.53-1.84-1.3-2.47
					c-0.6-0.49-1.55-0.93-2.42-0.93C374.32,344.43,374.19,344.44,374.06,344.46 M352.15,359.02c-0.11,0.05-0.21,0.09-0.32,0.14
					C351.93,359.11,352.04,359.07,352.15,359.02 M327.42,374.26c-0.06,0.05-0.12,0.1-0.19,0.14
					C327.29,374.36,327.35,374.31,327.42,374.26"/>
				<path class="st4" d="M370.32,278.94c-14.82,0.89-29.48,3.27-43.77,6.92c-14.48,3.69-28.55,8.79-42.09,14.78
					c-27.32,12.12-52.4,28.54-74.55,47.56c-10.84,9.32-20.96,19.39-30.23,30.05c-6.85,7.85-13.36,16-18.81,24.74
					c-4.53,7.27-8.35,14.86-11.68,22.64c-3.36,7.8-6.03,15.86-7.66,24.09c-2.85,14.25-2.8,31,8.7,42.19
					c5.83,5.66,14.13,8.67,22.37,9.82c12.92,1.79,26.34,0.12,38.64-3.72c12.87-4.02,24.79-10.41,35.8-17.7
					c7.56-5.01,14.73-10.49,21.59-16.3c-0.56-0.88-1.1-1.78-1.63-2.68c-0.07-0.1-0.11-0.2-0.18-0.33c-0.83-1.33-1.63-2.66-2.42-4.01
					c-5.56,4.78-11.32,9.34-17.34,13.65c0.11-0.08,0.22-0.16,0.31-0.24c-10.22,7.21-21.15,13.6-33.05,18.25
					c-6.63,2.45-13.45,4.3-20.49,5.3c-5.79,0.69-11.66,0.89-17.45,0.41c-3.63-0.4-7.2-1.11-10.64-2.24
					c-0.01-0.01-0.01-0.01-0.02-0.01c0.01,0,0.02,0.01,0.02,0.01c-0.07-0.03-0.15-0.05-0.22-0.07c-2.27-0.89-4.42-1.97-6.43-3.29
					c-1.7-1.26-3.24-2.66-4.61-4.24c-1.26-1.63-2.32-3.33-3.21-5.13c-1.1-2.58-1.85-5.26-2.32-8c-0.73-4.91-0.59-9.91-0.02-14.86
					c1.41-10.19,4.68-20.14,8.79-29.66c-0.05,0.06-0.07,0.14-0.11,0.22c0.1-0.22,0.2-0.44,0.29-0.67c0.05-0.1,0.09-0.2,0.13-0.31
					c-0.04,0.1-0.08,0.21-0.13,0.31c2.8-6.3,6.02-12.43,9.62-18.38c4.26-7.05,9.28-13.62,14.58-20.05
					c-0.24,0.28-0.47,0.57-0.71,0.83c16.47-19.84,35.75-37.6,57.21-52.86c19.32-13.58,40.3-25.09,62.73-33.82
					c-0.15,0.06-0.29,0.1-0.44,0.16c0.18-0.07,0.36-0.14,0.53-0.2c-0.03,0.01-0.06,0.02-0.09,0.04c0.1-0.04,0.2-0.07,0.3-0.11
					c0.06-0.02,0.11-0.04,0.16-0.05c0.03-0.02,0.05-0.03,0.07-0.05l-0.01,0.01c0.01-0.01,0.01-0.01,0.02-0.01s0.02-0.01,0.03-0.01
					c0,0-0.01,0-0.01,0.01c17.32-6.53,35.4-11.34,53.96-13.83c4.86-0.61,9.72-1.05,14.57-1.36c2.3-0.14,4.22-1.75,4.19-3.96
					c-0.02-1.96-1.85-3.84-4.06-3.84H370.32z M301.87,301.94c-0.02,0.02-0.05,0.02-0.07,0.04c-0.03,0.01-0.06,0.02-0.09,0.03
					C301.76,301.98,301.82,301.96,301.87,301.94"/>
				<path class="st4" d="M301.89,301.93C301.89,301.93,301.88,301.93,301.89,301.93c0,0.01,0.01,0,0.02-0.01
					C301.9,301.93,301.89,301.93,301.89,301.93"/>
				<path class="st4" d="M157.9,426.42c-0.06,0.13-0.11,0.27-0.16,0.4C157.79,426.69,157.84,426.55,157.9,426.42"/>
			</g>
		</g>
	</g>
</g>
</svg>
