<?xml version="1.0" encoding="utf-8"?>
<!-- Generator: Adobe Illustrator 24.1.2, SVG Export Plug-In . SVG Version: 6.00 Build 0)  -->
<svg version="1.1" id="Layer_1" xmlns="http://www.w3.org/2000/svg" xmlns:xlink="http://www.w3.org/1999/xlink" x="0px" y="0px"
	 viewBox="0 0 720 720" style="enable-background:new 0 0 720 720;" xml:space="preserve">
<style type="text/css">
	.st0{fill:#6050AD;}
	.st1{fill:#FEFEFE;}
	.st2{fill:#81E5DA;}
	.st3{fill:#7AD8CE;}
	.st4{fill:#61B2A9;}
	.st5{fill:#74CFC5;}
</style>
<g>
	<g>
		<path class="st0" d="M34.62,465.09c58.01,179.59,250.89,278.3,430.47,220.29c179.58-58,278.29-250.89,220.29-430.48
			C627.38,75.32,434.49-23.38,254.91,34.62C75.33,92.62-23.39,285.51,34.62,465.09"/>
		<g>
			<path class="st1" d="M246.13,231.54c-27.51,0.89-54.99,4.49-81.65,11.4c-12.13,3.14-24.1,6.99-35.71,11.64
				c-11.57,4.65-22.81,10.22-33.26,17.05c-5.15,3.35-10.1,7-14.76,11.03c-4.52,3.89-8.68,8.21-12.5,12.8
				c-3.66,4.4-6.84,9.19-9.51,14.26c-2.36,4.52-4.38,9.21-5.75,14.14c-1.99,7.11-2.69,14.81-0.57,21.97
				c0.49,1.64,1.06,3.26,1.78,4.81c0.76,1.65,1.74,3.17,2.74,4.66c1.84,2.77,4.2,5.1,6.69,7.28c5.37,4.66,12.01,7.86,18.63,10.36
				c7.78,2.91,15.95,4.74,24.13,6.16c17.39,3.03,35.16,3.75,52.75,3.82c8.76,0.02,17.47-0.16,26.23-0.42
				c6.35-0.18,12.74-0.46,19.11-0.47c1.17-0.01,2.2-0.24,3.13-1.03c0.83-0.73,1.35-1.76,1.44-2.87c0.18-2.14-1.56-4.57-3.87-4.56
				c-5.42,0.02-10.85,0.24-16.28,0.4c-7.48,0.23-14.99,0.42-22.51,0.47c-17.56,0.15-35.19-0.36-52.62-2.75
				c-4.34-0.59-8.7-1.34-12.99-2.24c0.14,0.03,0.27,0.06,0.41,0.1c-0.27-0.06-0.53-0.11-0.8-0.18c-0.09-0.02-0.18-0.04-0.28-0.06
				c0.05,0.01,0.1,0.02,0.14,0.02c-7.97-1.79-15.87-4.17-23.17-7.88c0.33,0.15,0.65,0.32,0.97,0.47c-3.54-1.81-6.9-3.97-9.9-6.6
				c-1.69-1.59-3.23-3.31-4.56-5.21c-1.11-1.75-2.04-3.6-2.74-5.55c-0.67-2.19-1.09-4.43-1.25-6.71c-0.07-2.84,0.2-5.67,0.72-8.46
				c1.13-5.12,3.01-10.01,5.34-14.7c3.1-5.96,6.96-11.45,11.35-16.51c6.63-7.35,14.32-13.63,22.55-19.12
				c-0.02,0.01-0.05,0.03-0.07,0.05c14.7-9.57,30.92-16.64,47.52-22.24c-0.01,0-0.03,0.01-0.04,0.01c0.02-0.01,0.05-0.02,0.07-0.02
				c0.34-0.12,0.67-0.23,1.01-0.34c-0.11,0.05-0.21,0.08-0.33,0.12c29.36-9.57,60.11-14.66,90.92-16.34
				c-0.38,0.03-0.76,0.05-1.13,0.07c35.43-1.84,71.01,0.98,105.7,8.41c-0.35-0.06-0.72-0.15-1.07-0.21
				c31.61,6.85,62.36,17.52,91.2,32.21c-0.04-0.02-0.07-0.04-0.11-0.06c0.01,0.01,0.02,0.01,0.02,0.01c1.05,0.54,1.97,0.9,3.17,0.66
				c1.12-0.21,2.1-0.84,2.73-1.78c0.62-0.92,0.88-2.07,0.65-3.17c-0.17-0.98-0.83-2.23-1.75-2.7c-14.69-7.52-29.8-14.09-45.34-19.63
				c-15.58-5.56-31.56-10.03-47.71-13.54c-21.24-4.6-42.82-7.48-64.5-8.63C269.08,231.29,257.61,231.17,246.13,231.54 M60.51,328.44
				c-0.03,0.18-0.07,0.36-0.11,0.55C60.44,328.8,60.47,328.62,60.51,328.44 M100.39,369.36c0.13,0.03,0.26,0.06,0.38,0.08
				c-0.18-0.04-0.35-0.08-0.52-0.11C100.3,369.34,100.34,369.35,100.39,369.36 M147.06,256.84c-0.01,0-0.02,0.01-0.03,0.01
				c0.24-0.08,0.47-0.15,0.72-0.24C147.51,256.69,147.28,256.76,147.06,256.84"/>
			<path class="st1" d="M203.64,307.97c-14.71,3.37-29.17,8.05-43.02,14.06c-13.83,5.99-26.99,13.5-39.19,22.34
				c-4.91,3.54-9.59,7.34-13.95,11.51c-4.36,4.17-8.41,8.69-12.19,13.35c-8.01,9.84-14.79,20.87-19.37,32.7
				c-4.27,10.98-6.37,23.32-3.58,34.9c2.74,11.33,10.37,20.98,20.31,26.93c9.28,5.57,20.14,7.99,30.84,9
				c11.97,1.12,24.15,0.26,36.05-1.32c11.87-1.58,23.61-4.1,35.16-7.18c9.67-2.58,19.25-5.57,28.66-8.98
				c2.19-0.79,2.98-3.69,2.06-5.64c-0.48-1.04-1.36-1.84-2.45-2.2c-1.11-0.4-2.11-0.25-3.19,0.14c-4.44,1.62-8.92,3.13-13.44,4.55
				c0.02-0.01,0.03-0.01,0.06-0.02c-20.87,6.48-42.52,11.35-64.38,12.51c-9.53,0.42-19.12,0.06-28.48-1.87
				c-4.87-1.1-9.59-2.65-14.05-4.84c-2.97-1.57-5.74-3.42-8.3-5.61c0.1,0.09,0.19,0.18,0.28,0.27c-0.1-0.09-0.19-0.18-0.29-0.27
				c-0.19-0.16-0.37-0.32-0.55-0.48c0.16,0.13,0.32,0.27,0.47,0.4c-2.29-2.14-4.32-4.5-6.09-7.08c-1.63-2.62-2.92-5.39-3.9-8.32
				c-0.88-3.06-1.38-6.18-1.55-9.36c0.01,0.35,0.03,0.71,0.03,1.06c-0.18-4.26,0.22-8.5,1.02-12.7c1.46-6.69,3.9-13.07,6.9-19.2
				c5.21-10.2,11.91-19.62,19.55-28.15c-0.26,0.27-0.52,0.57-0.78,0.84c3.73-4.14,7.65-8.04,11.89-11.66
				c5.48-4.68,11.44-8.86,17.49-12.79c15.99-10.14,33.3-17.91,51.34-23.64c-0.36,0.11-0.7,0.23-1.05,0.32
				c22.52-7.05,45.9-10.87,69.44-12.05c12.43-0.56,24.86-0.36,37.26,0.52c2.32,0.17,4.37-1.56,4.56-3.89
				c0.19-2.27-1.56-4.4-3.87-4.57c-2.05-0.14-4.1-0.27-6.14-0.38C259.2,299.69,230.96,301.74,203.64,307.97 M256.17,309.45
				c-0.17,0.01-0.33,0.02-0.5,0.02C255.83,309.47,256,309.46,256.17,309.45 M80.78,414.79c-0.03,0.2-0.08,0.4-0.12,0.6
				C80.69,415.19,80.73,414.99,80.78,414.79 M84.6,444.53c0.08,0.11,0.15,0.23,0.23,0.34C84.75,444.77,84.67,444.65,84.6,444.53
				 M91.15,452.28c0,0,0.01,0.01,0.01,0.01c-0.03-0.02-0.06-0.05-0.1-0.08C91.1,452.23,91.13,452.26,91.15,452.28"/>
			<path class="st2" d="M440.41,266.25c-27.18-1.44-56.93,1.41-88.41,8.49c-7.6,1.72-15.26,3.69-23.38,6.01
				c-6.97,2.02-12.24,3.7-17.11,5.47c-9.85,3.57-19.77,7.94-30.32,13.36c-22.39,11.5-42.63,25.5-60.18,41.58
				c-19.58,17.97-33.23,37.04-40.56,56.67c-3.87,10.28-5.76,21.32-5.48,31.93c0.27,11.07,3.1,22.39,8.42,33.61
				c2.46,5.23,5.69,10.55,9.84,16.28c3.64,4.98,7.63,9.73,11.84,14.13c7.8,8.12,17.17,15.56,27.88,22.11
				c9.54,5.83,20.2,10.84,32.58,15.31c10.83,3.89,22.47,7.02,35.59,9.57c16.22,3.17,33.67,5.22,53.34,6.26
				c7.19,0.38,14.6,0.63,22.66,0.76c23.4,0.38,47.17-0.5,70.17-1.35l2.21-0.08l6.86-0.24c5.4-0.18,10.79-0.37,16.17-0.7
				c6.7-0.43,13.53-1.03,20.86-1.83c18.5-2.04,35.3-4.79,51.36-8.43c19.7-4.46,36.09-9.89,50.14-16.61
				c7.33-3.5,14.05-7.62,19.96-12.23c5.77-4.49,10.41-9.57,13.8-15.1c3.44-5.62,5.45-12.15,5.81-18.86
				c0.38-6.7-1.15-13.9-4.66-22.01c-2.02-4.72-4.89-9.63-8.76-15c-1.87-2.59-4.04-5.35-6.63-8.43c-2.63-3.09-5.77-6.67-9.15-9.75
				c5.55-6.77,7.29-15.16,7.77-21c0.38-4.52-0.06-9.48-1.34-15.17c-1.06-4.7-2.82-9.62-5.53-15.46
				c-4.34-9.34-10.58-18.72-19.6-29.49c-7.17-8.51-15.57-16.92-25-24.99c-8.64-7.37-16.15-12.89-23.64-17.36
				c-5.43-3.26-11.61-6.37-19.43-9.79c-7.25-3.17-14.9-5.99-22.74-8.35c-14.37-4.36-30.27-7.3-47.27-8.75
				C445.79,266.58,443.1,266.39,440.41,266.25"/>
			<path class="st3" d="M351.97,274.63c-7.41,1.66-15.05,3.62-23.39,6.01c-7.07,2.04-12.33,3.73-17.09,5.49
				c-9.81,3.53-19.74,7.89-30.36,13.36c-22.37,11.51-42.64,25.5-60.19,41.59c-19.59,18-33.26,37.07-40.6,56.72
				c-3.87,10.32-5.78,21.39-5.5,31.97c0.3,11.12,3.15,22.44,8.43,33.66c2.43,5.17,5.66,10.5,9.89,16.29
				c3.52,4.88,7.51,9.62,11.83,14.14c7.79,8.13,17.2,15.57,27.89,22.13c9.62,5.86,20.28,10.88,32.62,15.31
				c10.92,3.92,22.56,7.06,35.6,9.58c16.22,3.18,33.67,5.23,53.36,6.28c7.04,0.37,14.45,0.61,22.67,0.73
				c23.15,0.39,46.59-0.47,69.26-1.3l0.9-0.04l2.22-0.08l6.85-0.23c5.4-0.18,10.79-0.36,16.18-0.71c6.27-0.4,13.1-1.01,20.86-1.84
				c18.51-2.02,35.3-4.78,51.37-8.44c8.51-1.93,16.41-4.03,23.76-6.34c-26.39,6.2-53.47,9.22-80.54,10.23
				c-27.81,1.02-55.69,0.03-83.4-2.39c-11.05-0.96-22.07-2.1-33.03-3.9c-10.67-1.76-21.28-4-31.7-6.9
				c-10.57-2.95-20.98-6.47-31-10.87c-9.77-4.3-19.25-9.36-27.97-15.52c-8.32-5.91-16.02-12.79-22.34-20.84
				c-6.26-8-11.22-17.07-14.15-26.8c-1.54-5.1-2.66-10.36-3.19-15.67c-0.6-5.72-0.67-11.49-0.26-17.22
				c0.78-10.95,3.1-21.73,6.9-32.03c3.77-10.22,8.88-19.88,15.01-28.86c6.38-9.3,13.78-17.89,21.93-25.68
				c16.96-16.22,36.67-29.32,57.66-39.74c21.28-10.53,43.9-18.43,67.14-23.39c6.78-1.44,13.62-2.64,20.5-3.54
				C405.79,265.47,379.57,268.44,351.97,274.63"/>
			<path class="st4" d="M605.19,414.49c-2.97,1.81-6.04,3.39-9.15,4.94c-0.2,0.1-0.42,0.13-0.64,0.12c-2.2,0.99-4.48,1.87-6.8,2.62
				c-8.83,2.76-18.01,3.89-27.23,4.35c-0.02,0-0.05-0.01-0.07-0.01c-0.02,0-0.06,0-0.08,0.02c0-0.02,0.02-0.02,0.02-0.02
				c-6.79,0.28-13.57,0.23-20.33,0.07c-7.51-0.18-15.02-0.33-22.51-0.46c-17.43-0.29-34.88-0.66-52.31-0.15
				c-8.67,0.25-17.34,0.83-25.94,1.72c-8.68,0.93-17.28,2.22-25.81,4.05c-7.38,1.58-14.68,3.58-21.87,5.85
				c-6.79,2.11-13.49,4.59-19.93,7.63c-6.14,2.91-12.04,6.46-17.39,10.67c-5.51,4.31-10.42,9.67-13.84,15.76
				c-0.73,1.29-1.13,2.53-0.85,4.02c0.25,1.43,1.09,2.74,2.29,3.55c2.43,1.66,5.96,1.05,7.57-1.44c1.78-2.78,3.76-5.39,5.92-7.89
				c4.01-4.34,8.52-8.07,13.43-11.36c10.55-6.69,22.31-11.18,34.14-14.97c-0.38,0.11-0.76,0.24-1.15,0.36
				c5.69-1.82,11.4-3.48,17.22-4.86c6.45-1.52,12.95-2.76,19.49-3.79c12.73-2,25.61-3,38.49-3.6c-0.27,0.01-0.51,0.02-0.78,0.03
				c13.27-0.58,26.58-0.67,39.87-0.7c5.97-0.02,11.97-0.05,17.96-0.08c5.46-0.05,10.93-0.07,16.38-0.24
				c10.74-0.36,21.51-1.25,31.96-3.84c4.92-1.23,9.73-2.91,14.28-5.13c0.19-0.11,0.39-0.21,0.58-0.32
				c-0.05,0.02-0.08,0.03-0.11,0.05c-0.04,0.02-0.07,0.05-0.11,0.07c0.03-0.02,0.07-0.05,0.11-0.07c0.79-0.45,1.58-0.9,2.36-1.38
				c0.42-0.28,0.84-0.58,1.23-0.88c0.32-0.23,0.65-0.47,0.94-0.7c1.07-0.88,2.08-1.77,3.06-2.74c-0.09,0.08-0.19,0.16-0.28,0.25
				c1.21-1.2,2.36-2.46,3.39-3.82c0.05-0.06,0.12-0.15,0.16-0.21C607.68,412.9,606.47,413.72,605.19,414.49 M597.87,421.53
				c-0.05,0.02-0.07,0.02-0.1,0.04C597.8,421.55,597.83,421.53,597.87,421.53"/>
			<path class="st4" d="M588.61,422.16c0.01,0,0.01,0,0.02-0.01C588.63,422.16,588.62,422.16,588.61,422.16"/>
			<path class="st4" d="M588.63,422.15c0.07-0.02,0.12-0.04,0.19-0.06C588.75,422.11,588.69,422.12,588.63,422.15"/>
			<path class="st4" d="M561.3,426.51c-0.02,0-0.02,0-0.05,0c0.05,0,0.07,0,0.11,0C561.35,426.51,561.32,426.51,561.3,426.51"/>
			<path class="st4" d="M561.24,426.51c0.01,0,0.01,0,0.02,0C561.25,426.51,561.24,426.51,561.24,426.51"/>
			<path class="st5" d="M399.88,293.1c-2.05,0.14-3.75,1.84-4.1,3.81c-0.19,1.2,0.11,2.48,0.84,3.47c0.62,0.85,1.81,1.75,2.93,1.79
				c2.95,0.14,5.89,0.23,8.84,0.33c6.03,0.24,12.05,0.52,18.06,1.03c6.14,0.53,12.27,1.29,18.37,2.24
				c11.79,1.83,23.43,4.53,34.87,7.91c-0.01-0.01-0.02-0.01-0.02-0.01c0.01,0.01,0.03,0.01,0.05,0.02c0.32,0.09,0.63,0.19,0.95,0.28
				c-0.1-0.03-0.2-0.05-0.29-0.08c10.02,3.09,19.83,6.76,29.38,11.09c9.59,4.32,18.94,9.27,27.96,14.72
				c-0.08-0.05-0.16-0.11-0.25-0.16c0.19,0.12,0.38,0.24,0.58,0.36c0.02,0.01,0.03,0.02,0.05,0.03c-0.01-0.01-0.02-0.01-0.02-0.01
				c7.37,4.59,14.43,9.62,21.28,14.98c3.39,2.66,6.72,5.4,10.02,8.18c3.53,3,6.88,6.23,10.13,9.54c0.67,0.7,1.97,0.44,2.53-0.27
				c0.67-0.83,0.41-1.84-0.28-2.54c-2.58-2.68-5.22-5.3-7.87-7.91c-2.86-2.83-5.76-5.61-8.76-8.29c-5.76-5.08-11.82-9.8-18.06-14.29
				c-6.18-4.42-12.53-8.6-19.06-12.47c-6.61-3.91-13.39-7.43-20.33-10.67c-27.88-13-58.18-20.82-88.88-22.87
				c-0.86-0.06-1.71-0.11-2.58-0.15C410.78,292.87,405.32,292.78,399.88,293.1 M408.27,302.49c-0.12-0.01-0.25-0.01-0.37-0.02
				C408.02,302.48,408.15,302.49,408.27,302.49 M538.08,339.91c-0.01-0.01-0.02-0.01-0.02-0.02l-0.33-0.2
				C537.84,339.77,537.96,339.84,538.08,339.91 M480.39,313.89c-0.22-0.07-0.44-0.14-0.66-0.2c-0.01-0.01-0.02-0.01-0.02-0.01
				C479.92,313.75,480.15,313.82,480.39,313.89"/>
			<path class="st5" d="M328.1,348.15c-7.91,0.73-15.78,1.87-23.6,3.33c-3.91,0.72-7.8,1.55-11.65,2.48
				c-4.01,0.94-8,1.97-11.91,3.19c-2.11,0.66-3.41,3.02-3.21,5.16c0.12,1.34,0.81,2.59,1.85,3.42c0.93,0.76,2.4,1.35,3.61,1.1
				c8.07-1.61,16.1-3.37,24.23-4.82c8.12-1.43,16.32-2.61,24.53-3.54c16.12-1.82,32.36-2.52,48.56-2.03
				c23.68,0.88,47.23,4.75,69.95,11.59c19.33,5.93,37.91,13.99,55.18,24.52c-0.15-0.08-0.3-0.18-0.43-0.24
				c0.81,0.5,1.62,1.01,2.46,1.52c0.88,0.55,2.01,0.59,2.71-0.3c0.62-0.74,0.6-2.15-0.3-2.71c-13.37-8.45-27.4-15.82-42-21.95
				c-14.58-6.12-29.7-10.77-45.07-14.38c-15.43-3.61-31.21-5.77-47.01-6.87c-1.73-0.12-3.47-0.23-5.2-0.32
				C356.57,346.54,342.28,346.84,328.1,348.15 M449.8,367.83c0.11,0.03,0.21,0.07,0.33,0.1C450.02,367.9,449.92,367.86,449.8,367.83
				"/>
			<path class="st5" d="M320.32,399.37c-10.09,0.48-20.13,1.81-30.03,3.8c-5.26,1.05-10.48,2.32-15.68,3.66
				c-5.34,1.37-10.66,2.93-15.89,4.69c-2.18,0.75-3.25,3.36-2.45,5.46c0.38,1.06,1.2,1.93,2.22,2.37c1.08,0.48,2.17,0.45,3.25,0.08
				c6.21-2.01,12.37-4.1,18.63-5.98c6.36-1.92,12.76-3.6,19.21-5.11c-0.07,0.01-0.14,0.03-0.21,0.04
				c7.72-1.76,15.49-3.21,23.36-4.16c8.39-1.02,16.87-1.27,25.33-0.98c-0.15-0.01-0.31,0-0.46-0.01
				c11.29,0.47,22.49,2.17,33.46,4.89c0.75,0.2,1.51-0.45,1.63-1.15c0.14-0.81-0.41-1.44-1.15-1.63c-10.32-2.6-20.8-4.44-31.38-5.44
				c-2.49-0.23-5-0.41-7.5-0.54C335.23,398.97,327.77,399,320.32,399.37"/>
		</g>
		<g>
			<path class="st1" d="M440.21,97.19c0.15-0.02,0.31-0.04,0.45-0.06c-0.07,0.01-0.14,0.02-0.22,0.03
				C440.37,97.17,440.29,97.18,440.21,97.19z"/>
			<path class="st1" d="M466,97.07c0.07,0.01,0.14,0.02,0.21,0.03c-0.02,0-0.05-0.01-0.07-0.01C466.09,97.08,466.04,97.07,466,97.07
				z"/>
			<path class="st1" d="M623.07,218.71c-0.82-0.83-1.88-1.22-2.93-1.22c-1.1,0-2.2,0.42-3.07,1.22
				c-7.48,6.94-13.8,15.01-18.93,23.85c-2.65,4.56-4.95,9.32-7.06,14.17c-3.48-26.04-8.63-51.99-18.45-76.41
				c-2.89-7.18-6.18-14.18-9.98-20.93c-3.58-6.34-7.69-12.39-12.08-18.15c-4.33-5.68-8.97-11.06-13.98-16.12
				c-4.92-4.97-10.24-9.52-15.81-13.76c-10.82-8.21-23.03-14.6-35.99-18.72c-10.02-3.21-20.57-4.79-31.1-4.79
				c-3.23,0-6.45,0.15-9.66,0.44c-13.82,1.26-27.34,5.21-39.64,11.66c-11.08,5.81-20.97,13.98-28.97,23.58
				c-8.84,10.64-15.29,23.03-19.34,36.21c-4.2,13.56-5.61,28.02-4.66,42.15c0.16,2.32,1.81,4.24,4.24,4.24
				c2.19,0,4.4-1.92,4.24-4.24c-0.51-7.58-0.29-15.19,0.62-22.73c1.26-9.17,3.64-18.14,7.14-26.69c3.2-7.41,7.22-14.4,12.09-20.84
				c4.74-6.04,10.12-11.45,16.16-16.2c6.26-4.74,13.06-8.65,20.28-11.73c7.74-3.13,15.79-5.28,24.04-6.51
				c-0.14,0.02-0.28,0.03-0.43,0.05c0.22-0.03,0.45-0.06,0.67-0.08c0.16-0.02,0.31-0.05,0.46-0.07c-0.08,0.01-0.16,0.03-0.24,0.04
				c8.42-1.06,16.9-1.09,25.34-0.06c-0.25-0.03-0.5-0.07-0.76-0.11c0.3,0.04,0.59,0.08,0.89,0.12c0.03,0,0.05,0.01,0.08,0.01h-0.01
				c0.01,0,0.01,0,0.02,0c8.74,1.26,17.24,3.67,25.4,7.05c9.13,3.95,17.67,9.08,25.59,15.09c9.72,7.6,18.34,16.46,25.94,26.16
				c3.88,5.1,7.51,10.4,10.8,15.91c3.64,6.09,6.75,12.48,9.54,18.98c10.25,24.54,15.61,50.81,19.19,77.07
				c0-0.02-0.01-0.04-0.01-0.06c0.08,0.58,0.14,1.16,0.22,1.74c-4.63-5-9.63-9.64-15.07-13.79c-4.06-3.09-8.3-5.92-12.74-8.46
				c-4.77-2.74-9.81-5.04-14.91-7.07c-0.32-0.12-0.67-0.18-1.04-0.18c-0.79,0-1.62,0.26-2.23,0.62c-0.95,0.55-1.66,1.46-1.94,2.52
				c-0.31,1.1-0.15,2.3,0.42,3.27c0.6,1.03,1.46,1.52,2.54,1.94c0.63,0.27,1.25,0.52,1.89,0.78c8.33,3.61,16.16,8.19,23.41,13.68
				c7.65,6,14.5,12.91,20.46,20.61c0.36,0.44,0.91,0.74,1.5,0.94c0.16,0.27,0.27,0.56,0.52,0.81c0.18,0.18,0.41,0.26,0.61,0.41
				c0.55,0.61,1.21,1.12,1.96,1.33c1.09,0.29,2.3,0.13,3.27-0.44c1.02-0.6,1.55-1.46,1.94-2.54c1.41-3.76,2.86-7.5,4.4-11.19
				c3.99-9.32,8.7-18.27,14.83-26.38c3.16-4,6.62-7.73,10.36-11.21C624.77,223.12,624.66,220.3,623.07,218.71z"/>
		</g>
	</g>
</g>
</svg>
