<?xml version="1.0" encoding="utf-8"?>
<!-- Generator: Adobe Illustrator 24.1.2, SVG Export Plug-In . SVG Version: 6.00 Build 0)  -->
<svg version="1.1" id="Layer_1" xmlns="http://www.w3.org/2000/svg" xmlns:xlink="http://www.w3.org/1999/xlink" x="0px" y="0px"
	 viewBox="0 0 720 720" style="enable-background:new 0 0 720 720;" xml:space="preserve">
<style type="text/css">
	.st0{fill:#F5F2EE;}
	.st1{clip-path:url(#SVGID_2_);}
	.st2{opacity:0.4;}
	.st3{fill:#DE8BA5;}
	.st4{fill:none;stroke:#D5958A;stroke-width:0.9328;stroke-linecap:round;stroke-linejoin:round;stroke-miterlimit:10;}
	.st5{fill:none;stroke:#232222;stroke-width:1.1703;stroke-linecap:round;stroke-miterlimit:10;}
	.st6{fill:none;stroke:#000402;stroke-width:1.191;stroke-linecap:round;stroke-linejoin:round;stroke-miterlimit:10;}
	.st7{fill:none;stroke:#1E1C1C;stroke-width:1.258;stroke-linecap:round;stroke-miterlimit:10;}
	.st8{fill:#000402;stroke:#000402;stroke-width:0.696;stroke-linecap:round;stroke-linejoin:round;stroke-miterlimit:10;}
	.st9{fill:#040302;}
	.st10{fill:none;stroke:#000000;stroke-width:1.0855;stroke-linecap:round;stroke-linejoin:round;stroke-miterlimit:10;}
	.st11{fill:#EDB966;}
	.st12{fill:#1E1C1C;}
	.st13{fill:#DBD7D8;}
</style>
<g>
	<g>
		<circle class="st0" cx="360" cy="360" r="342"/>
		<g>
			<defs>
				<circle id="SVGID_1_" cx="360" cy="360" r="342"/>
			</defs>
			<clipPath id="SVGID_2_">
				<use xlink:href="#SVGID_1_"  style="overflow:visible;"/>
			</clipPath>
			<g class="st1">
				<g>
					<g class="st2">
						<g>
							<path class="st3" d="M401.87,232.31c-1.28,0.76-1.71,2.26-0.93,3.56c0.86,1.45,2.72,1.84,4.22,1.26
								c1.44-0.55,2.62-2.07,2.2-3.66c-0.42-1.58-2.1-2.44-3.6-2.66c-4.17-0.63-7.47,3.18-6.17,7.2c0.55,1.7,1.63,3.25,3.36,3.87
								c1.7,0.61,3.57,0.29,5.18-0.45c3.45-1.59,5.61-5.88,2.12-8.63c-2.83-2.23-6.83-3.03-10.37-2.65
								c-3.31,0.36-6.88,1.78-8.38,4.97c-1.34,2.83-0.66,6.25,1.72,8.3c3.05,2.63,7.54,2.63,11.27,1.83
								c3.9-0.84,8.24-2.65,10.91-5.73c2.69-3.1,2.98-7.41-0.13-10.33c-3.14-2.95-7.81-4.75-12.04-5.29
								c-8.51-1.08-17.14,4.06-19.18,12.6c-0.49,2.04-0.7,4.24,0.25,6.18c0.8,1.63,2.25,2.88,3.78,3.81
								c3.66,2.24,8.25,3.05,12.49,2.82c7.5-0.41,16.47-4.87,17.44-13.17c0.48-4.15-1.65-7.95-5.07-10.21
								c-3.67-2.42-8.14-2.78-12.36-1.9c-2.3,0.48-4.5,1.29-6.69,2.11c-1.36,0.51-0.77,2.72,0.61,2.2
								c5.95-2.23,13.19-4.35,18.51,0.5c2.29,2.08,3.3,5.16,2.54,8.18c-0.67,2.65-2.5,4.89-4.67,6.49
								c-5.07,3.73-12.11,4.43-18.04,2.6c-2.51-0.78-5.74-2.24-6.69-4.92c-1.01-2.87,0.75-6.85,2.41-9.15
								c3.8-5.27,10.87-7,16.95-5.37c2.93,0.78,6.29,2.2,8.43,4.43c2.56,2.66,1,6.07-1.49,8.11c-2.31,1.89-5.29,3.09-8.17,3.76
								c-2.82,0.66-6.19,0.87-8.77-0.67c-1.94-1.16-2.92-3.43-2.2-5.61c0.81-2.42,3.29-3.63,5.64-4.09
								c2.88-0.57,6.15-0.17,8.73,1.26c0.64,0.36,1.37,0.77,1.81,1.37c0.59,0.78,0.3,1.65-0.19,2.39c-0.85,1.27-2.42,2.13-3.92,2.3
								c-3.72,0.43-5.42-5.28-1.76-6.66c0.7-0.26,3.6-0.42,3.55,0.93c-0.02,0.68-1.13,1.06-1.69,0.93
								c-0.37-0.09-0.95-0.53-0.46-0.81C404.28,233.53,403.14,231.56,401.87,232.31L401.87,232.31z"/>
						</g>
					</g>
				</g>
				<g>
					<g class="st2">
						<g>
							<path class="st3" d="M487.18,220.55c-1.28,0.76-1.71,2.26-0.93,3.56c0.86,1.45,2.72,1.84,4.22,1.26
								c1.44-0.55,2.62-2.07,2.2-3.66c-0.42-1.58-2.1-2.44-3.61-2.67c-4.17-0.63-7.47,3.18-6.17,7.2c0.55,1.7,1.63,3.25,3.36,3.87
								c1.7,0.61,3.57,0.29,5.18-0.45c3.45-1.59,5.61-5.88,2.12-8.63c-2.83-2.23-6.83-3.03-10.37-2.65
								c-3.31,0.36-6.88,1.78-8.38,4.97c-1.34,2.83-0.66,6.25,1.72,8.3c3.05,2.63,7.54,2.63,11.27,1.83
								c3.9-0.84,8.24-2.65,10.91-5.73c2.69-3.1,2.98-7.41-0.13-10.33c-3.14-2.95-7.81-4.75-12.04-5.29
								c-8.51-1.08-17.14,4.06-19.18,12.6c-0.49,2.04-0.7,4.24,0.25,6.18c0.8,1.63,2.25,2.88,3.78,3.81
								c3.66,2.24,8.25,3.05,12.49,2.82c7.5-0.41,16.48-4.87,17.44-13.17c0.48-4.15-1.65-7.95-5.07-10.21
								c-3.67-2.42-8.14-2.78-12.36-1.9c-2.3,0.48-4.5,1.29-6.69,2.11c-1.36,0.51-0.77,2.72,0.61,2.2
								c5.95-2.23,13.19-4.35,18.51,0.5c2.29,2.08,3.3,5.16,2.54,8.18c-0.67,2.65-2.5,4.89-4.67,6.49
								c-5.07,3.73-12.11,4.43-18.04,2.6c-2.51-0.77-5.74-2.24-6.69-4.92c-1.01-2.87,0.75-6.85,2.41-9.15
								c3.8-5.27,10.87-6.99,16.95-5.37c2.93,0.78,6.29,2.2,8.43,4.43c2.56,2.67,1,6.07-1.49,8.11c-2.31,1.89-5.29,3.09-8.17,3.76
								c-2.82,0.66-6.19,0.87-8.77-0.67c-1.94-1.15-2.92-3.43-2.2-5.61c0.81-2.42,3.29-3.63,5.64-4.09
								c2.88-0.57,6.15-0.17,8.73,1.26c0.64,0.36,1.37,0.77,1.81,1.37c0.59,0.78,0.3,1.65-0.19,2.39c-0.85,1.27-2.42,2.13-3.92,2.3
								c-3.72,0.43-5.42-5.28-1.76-6.66c0.7-0.26,3.6-0.42,3.55,0.93c-0.02,0.68-1.13,1.06-1.69,0.93
								c-0.37-0.09-0.95-0.53-0.46-0.81C489.6,221.78,488.45,219.8,487.18,220.55L487.18,220.55z"/>
						</g>
					</g>
				</g>
				<g>
					<path class="st4" d="M390.45,266.32c0,0,32.58-3.45,40.93-21.27"/>
					<path class="st4" d="M504.28,260.07c0,0-18.58-2.37-27.1-18.75"/>
				</g>
				<path class="st5" d="M418.01,299.6c0,0,18.09-20.6,46.41-6.63"/>
				<path class="st6" d="M250.15,228.72c7.05-4.76,17.03-5.49,25.33-2.33c-6.6-45.11,2.31-90.65,37.28-118.18
					c7.39-5.82,15.28-10.18,23.47-13.22c38.72-14.38,84.13,0.65,116.03,28.7c31.93,28.08,51.25,70.03,55.54,112.85
					c5.75,57.46-18.01,119-75.94,134.42c-2.95,0.79-5.93,1.37-8.91,1.85l2.05,94.04c1.15,39.76-33.31,71.25-72.82,66.53
					c-34.2-4.09-59.3-34.1-57.27-68.48c0,0,5.27-142.62,5.59-162.06c0.02-1.04-1.04-1.62-1.98-1.18
					c-11.23,5.36-25.57,5.97-36.57,0.84c-13.66-6.37-23.95-20.87-26.06-36.69C233.98,251.61,239.1,236.18,250.15,228.72z"/>
				<path class="st7" d="M278.75,272.99c-8.29,0.02-15.03-5.14-15.05-11.53c-0.01-4.8,3.76-8.92,9.14-10.69"/>
				<path class="st8" d="M424.07,405.13l-0.1-33.79c0,0-56.49,11.4-101.32-39.71C322.66,331.64,345.94,392.61,424.07,405.13z"/>
				<path class="st9" d="M357.12,84.6c35.91,0.35,164.89-15.04,138.2,39.17c-26.69,54.21-138.03,20.17-138.03,20.17
					s-18.32,130.3-90.65,81.6c0,0-5.14-8.24-16.49,3.18C250.15,228.72,191.72,82.97,357.12,84.6z"/>
				<g>
					<path class="st10" d="M388.56,236.1c15.67-4.4,37.32-3.09,37.32-3.09l-15.95-10.67"/>
					<path class="st10" d="M496.78,217.79c0,0-15.38,0.9-25.22,6.3l7.91-13.16"/>
				</g>
				<g>
					<path class="st11" d="M640.92,761.19c0,0-65.98-300.63-213.57-326.45c-47.23,16.56-93.5,11.73-140.33-5.27
						C124.6,472.32,79.08,754.44,79.08,754.44L640.92,761.19z"/>
					<line class="st5" x1="287.49" y1="833.66" x2="288.41" y2="806.89"/>
				</g>
				<g>
					<path class="st12" d="M456.19,260.36c0.78-0.95,1.62-1.86,2.42-2.78l2.5-2.71c0.82-0.91,1.7-1.77,2.55-2.65l2.57-2.63
						l0.21,1.02c-1.36-0.59-2.47-1.47-3.48-2.41c-1.01-0.94-1.93-1.96-2.79-3.01c-1.72-2.11-3.28-4.33-4.7-6.63
						c-1.42-2.3-2.77-4.64-4.04-7.01c-1.24-2.39-2.46-4.8-3.55-7.26c1.31,2.35,2.63,4.69,4.04,6.98c1.38,2.31,2.8,4.58,4.31,6.8
						c1.52,2.2,3.06,4.39,4.79,6.42c0.86,1.01,1.77,1.98,2.74,2.85c0.97,0.87,2.02,1.66,3.15,2.12l0.87,0.36l-0.66,0.66l-2.6,2.61
						c-0.87,0.86-1.72,1.75-2.62,2.59l-2.67,2.54c-0.92,0.82-1.81,1.66-2.75,2.46c-0.09,0.08-0.22,0.06-0.3-0.02
						C456.12,260.55,456.12,260.44,456.19,260.36z"/>
				</g>
				<path class="st5" d="M431.67,176.94c0,0-10.83,31.31-48.91,28.61"/>
				<path class="st5" d="M453.65,172.51c0,0,9.11,25.86,40.6,23.44"/>
				<g>
					<path class="st13" d="M444.57,224.35c16.91-9.36,31.93,13.79,36.56,26.59c16.14,44.72,4.74,100.84,37.3,135.48
						c7.57,8.06,17.06,14.23,24.05,22.79c6.99,8.57,11.13,20.98,5.85,30.69c-8.39,15.43-30.79,12.28-48.05,15.5
						c-14.34,2.68-26.85,11.02-39.49,18.29c-12.64,7.28-26.71,13.82-41.21,12.33c-14.51-1.49-28.75-14.01-27.04-28.5
						c0.72-6.11,4.04-11.56,7.16-16.87c9.61-16.32,18.19-33.56,21.91-52.13c6.06-30.28-1.11-62.45,7.64-92.07
						c5.87-19.86,17.28-31.79,13.6-52.17C442.09,240.02,442.24,228.01,444.57,224.35c2.33-3.66,10.05-1.95,8.58,2.13"/>
				</g>
				<path class="st0" d="M541.93,282.33c-12.44,8.53-2.05-15.32-14.73-14.52c-6.13,0.39-9.83,4.63-13.36,10.68
					c-1.68,2.88-5.97,1.91-6.31-1.41c-0.84-8.26-3.76-13.91-10.42-14.18c-11.58-0.47-7.7,46.46-8.42,50.95
					c-0.7,4.37-8.82-6.31-16.06-28.7c-4.73-14.62-21.87-18.53-18.83-4.62c4.68,21.41,6.93,63.11,18.29,83.04l-18.7,94.56L521,491.26
					c0,0,18.46-100.63,22.46-110.57C551.96,359.53,564.37,258.62,541.93,282.33z"/>
				<path class="st5" d="M541.93,282.33c-12.44,8.53-2.05-15.32-14.73-14.52c-6.36,0.4-10.12,4.96-13.77,11.39
					c-1.52,2.68-5.56,1.76-5.82-1.31c-0.73-8.7-3.62-14.71-10.49-14.99c-11.58-0.47-7.7,46.46-8.42,50.95
					c-0.7,4.37-8.82-6.31-16.06-28.7c-4.73-14.62-21.87-18.53-18.83-4.62c4.68,21.41,6.93,63.11,18.29,83.04l-18.7,94.56L521,491.26
					c0,0,18.46-100.63,22.46-110.57C551.96,359.53,569.19,282.33,541.93,282.33z"/>
				<g>
					<polygon class="st11" points="444.62,403.81 583.97,460.66 487.83,761.19 309.03,752.89 					"/>
					<line class="st10" x1="444.62" y1="403.81" x2="309.03" y2="752.89"/>
				</g>
			</g>
		</g>
	</g>
</g>
</svg>
